<svg xmlns="http://www.w3.org/2000/svg" viewBox="0 0 350.2 217.33"><defs><style>.cls-1{fill:#898989;}.cls-2{font-size:7.52px;fill:#10386b;font-family:FZHTJW--GB1-0, FZHTJW -GB1-0-GBpc-EUC-H;}.cls-11,.cls-3,.cls-7{fill:#231815;}.cls-3{font-size:8.12px;}.cls-10,.cls-4,.cls-8,.cls-9{fill:none;stroke:#231815;}.cls-4,.cls-9{stroke-miterlimit:3.86;}.cls-4{stroke-width:0.42px;}.cls-5{fill:#fff;}.cls-6{fill:#d3d3d4;}.cls-8{stroke-width:0.44px;}.cls-9{stroke-width:0.31px;}.cls-10{stroke-width:0.19px;}.cls-11{font-size:6.41px;font-family:ArialMT, Arial;}.cls-12{letter-spacing:-0.06em;}.cls-13{letter-spacing:-0.06em;}</style></defs><title>hitrobot_hrg_text_logo_ash</title><g id="图层_2" data-name="图层 2"><g id="图层_1-2" data-name="图层 1"><path class="cls-1" d="M47.61,60.65h7.08v19H52.77V77.78H49.54v2.3H47.61Zm5.16,15.28V62.5H49.54V75.93ZM65.51,57.53l-.45.72a18.54,18.54,0,0,0,7.8,8.15c-.52.62-1,1.25-1.47,1.87A23.62,23.62,0,0,1,63.93,60a25.42,25.42,0,0,1-7.56,8.36A19.06,19.06,0,0,0,55,66.72a21.84,21.84,0,0,0,8-9.19Zm-8.09,15.2H70.05V83.79H68v-1.6H59.45v1.6h-2Zm1-5.37H69.25v1.87H58.46Zm9.56,13V74.6H59.45v5.71Z"/><path class="cls-1" d="M76.71,79.65h11.7V61.83H78.24V59.69H101v2.14H90.76V79.65h11.73v2.08H76.71Z"/><path class="cls-1" d="M106.4,81.52q11-4.9,11.89-14.72H106.88V64.71h11.5q.07-3.59.07-7.24h2.32q0,3.59-.07,7.24h11.85V66.8H120.67q1.89,10.67,12.45,14.08a22.24,22.24,0,0,0-2,2.17,18.52,18.52,0,0,1-11.37-12.46q-2.08,8.11-11.66,13C107.7,83.09,107.15,82.4,106.4,81.52Z"/><path class="cls-1" d="M136.46,74.06a30.08,30.08,0,0,0,4.26-9.62h-4V62.63h4.17V57.37h1.92v5.26h3.74v1.82h-3.74v4.44l1.07-1.07q2.06,1.87,3.23,3l-1.44,1.47q-1.64-1.82-2.86-3v14.1H140.9V69.09a24,24,0,0,1-3.55,7.32Q136.92,75.21,136.46,74.06Zm14.08-13v8.84q0,9.57-4.78,13.86-.75-.91-1.58-1.82,4.22-3.71,4.22-11.57V59.08h9.94V79.16q0,1.34.94,1.34h.61q.86,0,1.1-1.5.27-2.06.37-4.43a21.85,21.85,0,0,0,2,.85q-.24,2.64-.48,4.33-.43,2.83-2.72,2.83h-1.42q-2.56,0-2.57-3V61.11Z"/><path class="cls-1" d="M167.48,68.56h10.79a8,8,0,0,0,.54-2.33l1.92.27a12.11,12.11,0,0,1-.47,2.06h5.82Q185,67.78,183.83,67l1.1-1.2q1.76,1,3.18,2.08l-.6.64h5v1.76H182.17q3.09,3,11,2.86c-.43.73-.79,1.42-1.09,2.06l-1.36-.12v8.16H188.8V81.81h-5.72v1.44h-1.87V75h8.51q-7.64-1-9.77-4.67h-.48Q178,73.5,169.78,75h8.55v8.25h-1.87V81.81h-5.64v1.47H169V75.16l-1.47.27q-.4-.8-1-1.9,8.92-1.15,10.71-3.21h-9.67Zm1.44-9.72h9.38v7.77h-1.87v-.83h-5.64v1.09h-1.87Zm7.51,1.66h-5.64v3.63h5.64Zm0,16.16h-5.64v3.5h5.64Zm4.73-17.82h9.46v7.88h-1.87v-.93h-5.72v.83h-1.87Zm7.59,1.66h-5.72v3.63h5.72Zm0,16.16h-5.72v3.5h5.72Z"/><path class="cls-1" d="M196.72,81.36Q208.36,74.62,209,57.74h2.35a51,51,0,0,1-.56,5.45q3.31,13.36,12.45,17.58-1.12,1.23-2,2.32Q213.36,78.61,210,67.21q-2.93,11-11.58,16.17A22.69,22.69,0,0,0,196.72,81.36Z"/><path class="cls-1" d="M227.61,75.19h11.51V73.37H241v1.82h11.49v1.71h-9.4a27.17,27.17,0,0,0,10.39,4.46l-1.26,2a29.16,29.16,0,0,1-11.22-6v6.27h-1.87V77.33a32.38,32.38,0,0,1-11.22,6.05q-.56-.83-1.26-1.68A28.24,28.24,0,0,0,237,76.89h-9.35Zm11.83-17.07,1.58-1a17.62,17.62,0,0,1,2.06,2.72l-1.23.77h10.23v1.66H241.95v1.9h9v1.55h-9v1.9h9V69.2h-9v2h10.21v1.66H232.68v1h-1.87V64.31A30.84,30.84,0,0,1,228,67.2a10.82,10.82,0,0,0-1.28-1.76,28.46,28.46,0,0,0,6.54-8l1.84.83q-.75,1.23-1.52,2.35h7.56A28.9,28.9,0,0,0,239.44,58.12Zm-6.76,6.09h7.4v-1.9h-7.4Zm0,3.44h7.4v-1.9h-7.4Zm0,3.5h7.4v-2h-7.4Z"/><path class="cls-1" d="M258.47,58.7h23.38V83.63h-2V82.32H260.5v1.34h-2Zm21.34,1.87H260.5V80.45h19.31Zm-18,4.73h10V61.45h2V65.3h5.13v1.82h-5.13v8.15q0,3.87-3.69,3.87-1.5,0-3.1-.05c-.11-.62-.25-1.33-.43-2.11a26.28,26.28,0,0,0,3,.21q2.19,0,2.19-2.48V68.45a29.31,29.31,0,0,1-9.59,8.92,9.74,9.74,0,0,0-1.36-1.79,27.68,27.68,0,0,0,9.67-8.47h-8.71Z"/><path class="cls-1" d="M56.72,95.42h1.39v12.63H56.72v-5.87H49.64v5.87H48.19V95.42h1.45v5.49h7.07Z"/><path class="cls-1" d="M66.31,95.42H67.7v12.63H66.31Z"/><path class="cls-1" d="M84.94,95.42v1.2H80.64v11.43H79.19V96.62H74.89v-1.2Z"/><path class="cls-1" d="M112.58,108.05h-2l-4.36-5.68h-3.35v5.68h-1.45V95.42h5.87q4,.19,4.29,3.41,0,3.29-3.79,3.54Zm-9.66-11.37v4.42H107q3.1-.06,3.09-2.34-.06-2-3.09-2.08Z"/><path class="cls-1" d="M124.83,108.24q-5.75-.32-6-6.25.25-6.44,6.19-6.76,5.62.38,6,6.63Q130.76,108,124.83,108.24Zm.06-11.75q-4.17.38-4.61,5.37.25,4.86,4.48,5.24,4.42-.25,4.67-5.24Q129.06,96.88,124.89,96.5Z"/><path class="cls-1" d="M143.45,108.05h-5.24V95.42h4.93q3.79.19,4,3.16a2.82,2.82,0,0,1-2.53,2.78v.06a3.21,3.21,0,0,1,3,3.22Q147.49,107.93,143.45,108.05Zm-.63-11.37h-3.29v4.23h3.29q2.59-.13,2.84-2.27Q145.54,96.75,142.82,96.69Zm.19,5.49h-3.47v4.74h3.73q3,0,3-2.46Q146,102.31,143,102.18Z"/><path class="cls-1" d="M160.69,108.24q-5.75-.32-6-6.25.25-6.44,6.19-6.76,5.62.38,6,6.63Q166.61,108,160.69,108.24Zm.06-11.75q-4.17.38-4.61,5.37.25,4.86,4.48,5.24,4.42-.25,4.67-5.24Q164.91,96.88,160.75,96.5Z"/><path class="cls-1" d="M183.22,95.42v1.2h-4.29v11.43h-1.45V96.62h-4.29v-1.2Z"/><path class="cls-1" d="M205.56,101.55H211v4.61q-1.58,2.08-5.43,2.08-5.94-.32-6.25-6.31.25-6.44,6-6.69A5.54,5.54,0,0,1,210.93,99l-1.58.38a4.08,4.08,0,0,0-4.1-2.84q-4,.38-4.42,5.37.31,4.86,4.67,5.24a5.06,5.06,0,0,0,4.1-1.52v-2.84h-4Z"/><path class="cls-1" d="M229.68,108.05h-2l-4.36-5.68H220v5.68h-1.45V95.42h5.87q4,.19,4.29,3.41,0,3.29-3.79,3.54ZM220,96.69v4.42h4.1q3.09-.06,3.09-2.34-.06-2-3.09-2.08Z"/><path class="cls-1" d="M241.93,108.24q-5.75-.32-6-6.25.25-6.44,6.19-6.76,5.62.38,6,6.63Q247.86,108,241.93,108.24ZM242,96.5q-4.17.38-4.61,5.37.25,4.86,4.48,5.24,4.42-.25,4.67-5.24Q246.16,96.88,242,96.5Z"/><path class="cls-1" d="M265.35,95.42v7.39q.06,5.49-5.05,5.43t-4.93-5.43V95.42h1.45v7.33q-.06,4.48,3.47,4.36,3.79.13,3.66-4.36V95.42Z"/><path class="cls-1" d="M278.67,102.94h-3.92v5.12h-1.39V95.42h5.43q3.85.19,4.23,3.73Q283,102.88,278.67,102.94Zm-.25-6.25h-3.66v5h3.66q3-.06,3.09-2.59Q281.38,96.75,278.42,96.69Z"/><rect class="cls-1" x="47.35" y="88.99" width="235.6" height="0.53"/><text class="cls-2" transform="translate(137.61 215.03) scale(0.95 1)">■<tspan class="cls-3" x="7.52" y="0" xml:space="preserve"> 标准字体制图</tspan></text><line class="cls-4" x1="341.42" y1="57.11" x2="341.42" y2="108.45"/><line class="cls-4" x1="348.94" y1="57.1" x2="333.12" y2="57.1"/><line class="cls-4" x1="349.42" y1="108.45" x2="333.61" y2="108.45"/><rect class="cls-5" x="332.9" y="73.33" width="17.3" height="15.64"/><line class="cls-4" x1="47.05" y1="195.11" x2="283.43" y2="195.11"/><line class="cls-4" x1="283.39" y1="203.51" x2="283.39" y2="172.46"/><line class="cls-4" x1="47.05" y1="203.51" x2="47.05" y2="172.46"/><rect class="cls-5" x="14.68" y="171.04" width="16.16" height="15.85"/><rect class="cls-5" x="149.93" y="185.79" width="28.19" height="17.3"/><rect class="cls-6" x="0.36" y="141.88" width="23.31" height="23.05"/><path class="cls-7" d="M10.57,155.14l-.89,2.49H8.5l3.24-8.6h1.32l3.1,8.6H14.9l-.85-2.49Zm3.06-1-1.27-3.81h0l-1.36,3.81Z"/><rect class="cls-8" x="0.22" y="0.22" width="330.01" height="165.05"/><line class="cls-9" x1="0.22" y1="141.7" x2="330.23" y2="141.7"/><line class="cls-9" x1="0.22" y1="118.01" x2="330.23" y2="118.01"/><line class="cls-9" x1="0.22" y1="94.49" x2="330.23" y2="94.49"/><line class="cls-9" x1="0.22" y1="70.96" x2="330.23" y2="70.96"/><line class="cls-9" x1="0.22" y1="47.44" x2="330.23" y2="47.44"/><line class="cls-9" x1="0.22" y1="23.75" x2="330.23" y2="23.75"/><line class="cls-9" x1="306.62" y1="0.22" x2="306.62" y2="165.43"/><line class="cls-9" x1="283.1" y1="0.22" x2="283.1" y2="165.43"/><line class="cls-9" x1="259.49" y1="0.22" x2="259.49" y2="165.43"/><line class="cls-9" x1="235.96" y1="0.22" x2="235.96" y2="165.43"/><line class="cls-9" x1="212.36" y1="0.22" x2="212.36" y2="165.43"/><line class="cls-9" x1="188.83" y1="0.22" x2="188.83" y2="165.43"/><line class="cls-9" x1="165.23" y1="0.22" x2="165.23" y2="165.43"/><line class="cls-9" x1="141.62" y1="0.22" x2="141.62" y2="165.43"/><line class="cls-9" x1="118.09" y1="0.22" x2="118.09" y2="165.43"/><line class="cls-9" x1="94.49" y1="0.22" x2="94.49" y2="165.43"/><line class="cls-9" x1="70.96" y1="0.22" x2="70.96" y2="165.43"/><line class="cls-9" x1="47.35" y1="0.22" x2="47.35" y2="165.43"/><line class="cls-9" x1="23.83" y1="0.22" x2="23.83" y2="165.43"/><line class="cls-10" x1="23.74" y1="42.68" x2="306.55" y2="42.68"/><line class="cls-10" x1="23.74" y1="37.95" x2="306.55" y2="37.95"/><line class="cls-10" x1="23.74" y1="33.21" x2="306.55" y2="33.21"/><line class="cls-10" x1="23.74" y1="28.49" x2="306.55" y2="28.49"/><line class="cls-10" x1="301.85" y1="23.75" x2="301.85" y2="47.42"/><line class="cls-10" x1="297.09" y1="23.75" x2="297.09" y2="47.42"/><line class="cls-10" x1="292.39" y1="23.75" x2="292.39" y2="47.42"/><line class="cls-10" x1="287.7" y1="23.75" x2="287.7" y2="47.42"/><line class="cls-10" x1="278.24" y1="23.75" x2="278.24" y2="47.42"/><line class="cls-10" x1="273.54" y1="23.75" x2="273.54" y2="47.42"/><line class="cls-10" x1="268.85" y1="23.75" x2="268.85" y2="47.42"/><line class="cls-10" x1="264.15" y1="23.75" x2="264.15" y2="47.42"/><line class="cls-10" x1="254.69" y1="23.75" x2="254.69" y2="47.42"/><line class="cls-10" x1="250" y1="23.75" x2="250" y2="47.42"/><line class="cls-10" x1="245.3" y1="23.75" x2="245.3" y2="47.42"/><line class="cls-10" x1="240.54" y1="23.75" x2="240.54" y2="47.42"/><line class="cls-10" x1="231.15" y1="23.75" x2="231.15" y2="47.42"/><line class="cls-10" x1="226.39" y1="23.75" x2="226.39" y2="47.42"/><line class="cls-10" x1="221.69" y1="23.75" x2="221.69" y2="47.42"/><line class="cls-10" x1="217" y1="23.75" x2="217" y2="47.42"/><line class="cls-10" x1="207.54" y1="23.75" x2="207.54" y2="47.42"/><line class="cls-10" x1="202.84" y1="23.75" x2="202.84" y2="47.42"/><line class="cls-10" x1="198.15" y1="23.75" x2="198.15" y2="47.42"/><line class="cls-10" x1="193.45" y1="23.75" x2="193.45" y2="47.42"/><line class="cls-10" x1="183.99" y1="23.75" x2="183.99" y2="47.42"/><line class="cls-10" x1="179.3" y1="23.75" x2="179.3" y2="47.42"/><line class="cls-10" x1="174.6" y1="23.75" x2="174.6" y2="47.42"/><line class="cls-10" x1="169.84" y1="23.75" x2="169.84" y2="47.42"/><line class="cls-10" x1="160.45" y1="23.75" x2="160.45" y2="47.42"/><line class="cls-10" x1="155.69" y1="23.75" x2="155.69" y2="47.42"/><line class="cls-10" x1="150.99" y1="23.75" x2="150.99" y2="47.42"/><line class="cls-10" x1="146.3" y1="23.75" x2="146.3" y2="47.42"/><line class="cls-10" x1="136.84" y1="23.75" x2="136.84" y2="47.42"/><line class="cls-10" x1="132.14" y1="23.75" x2="132.14" y2="47.42"/><line class="cls-10" x1="127.45" y1="23.75" x2="127.45" y2="47.42"/><line class="cls-10" x1="122.75" y1="23.75" x2="122.75" y2="47.42"/><path class="cls-10" d="M118,47.42"/><path class="cls-10" d="M118,23.75"/><line class="cls-10" x1="113.29" y1="23.75" x2="113.29" y2="47.42"/><line class="cls-10" x1="108.6" y1="23.75" x2="108.6" y2="47.42"/><line class="cls-10" x1="103.9" y1="23.75" x2="103.9" y2="47.42"/><line class="cls-10" x1="99.14" y1="23.75" x2="99.14" y2="47.42"/><line class="cls-10" x1="89.75" y1="23.75" x2="89.75" y2="47.42"/><line class="cls-10" x1="84.98" y1="23.75" x2="84.98" y2="47.42"/><line class="cls-10" x1="80.29" y1="23.75" x2="80.29" y2="47.42"/><line class="cls-10" x1="75.59" y1="23.75" x2="75.59" y2="47.42"/><line class="cls-10" x1="66.14" y1="23.75" x2="66.14" y2="47.42"/><line class="cls-10" x1="61.44" y1="23.75" x2="61.44" y2="47.42"/><line class="cls-10" x1="56.75" y1="23.75" x2="56.75" y2="47.42"/><line class="cls-10" x1="52.05" y1="23.75" x2="52.05" y2="47.42"/><line class="cls-10" x1="42.59" y1="23.75" x2="42.59" y2="47.42"/><line class="cls-10" x1="37.9" y1="23.75" x2="37.9" y2="47.42"/><line class="cls-10" x1="33.2" y1="23.75" x2="33.2" y2="47.42"/><line class="cls-10" x1="28.44" y1="23.75" x2="28.44" y2="47.42"/><line class="cls-10" x1="23.74" y1="66.31" x2="306.55" y2="66.31"/><line class="cls-10" x1="23.74" y1="61.58" x2="306.55" y2="61.58"/><line class="cls-10" x1="23.74" y1="56.85" x2="306.55" y2="56.85"/><line class="cls-10" x1="23.74" y1="52.12" x2="306.55" y2="52.12"/><line class="cls-10" x1="301.85" y1="47.38" x2="301.85" y2="71.05"/><line class="cls-10" x1="297.09" y1="47.38" x2="297.09" y2="71.05"/><line class="cls-10" x1="292.39" y1="47.38" x2="292.39" y2="71.05"/><line class="cls-10" x1="287.7" y1="47.38" x2="287.7" y2="71.05"/><line class="cls-10" x1="278.24" y1="47.38" x2="278.24" y2="71.05"/><line class="cls-10" x1="273.54" y1="47.38" x2="273.54" y2="71.05"/><line class="cls-10" x1="268.85" y1="47.38" x2="268.85" y2="71.05"/><line class="cls-10" x1="264.15" y1="47.38" x2="264.15" y2="71.05"/><line class="cls-10" x1="254.69" y1="47.38" x2="254.69" y2="71.05"/><line class="cls-10" x1="250" y1="47.38" x2="250" y2="71.05"/><line class="cls-10" x1="245.3" y1="47.38" x2="245.3" y2="71.05"/><line class="cls-10" x1="240.54" y1="47.38" x2="240.54" y2="71.05"/><line class="cls-10" x1="231.15" y1="47.38" x2="231.15" y2="71.05"/><line class="cls-10" x1="226.39" y1="47.38" x2="226.39" y2="71.05"/><line class="cls-10" x1="221.69" y1="47.38" x2="221.69" y2="71.05"/><line class="cls-10" x1="217" y1="47.38" x2="217" y2="71.05"/><line class="cls-10" x1="207.54" y1="47.38" x2="207.54" y2="71.05"/><line class="cls-10" x1="202.84" y1="47.38" x2="202.84" y2="71.05"/><line class="cls-10" x1="198.15" y1="47.38" x2="198.15" y2="71.05"/><line class="cls-10" x1="193.45" y1="47.38" x2="193.45" y2="71.05"/><line class="cls-10" x1="183.99" y1="47.38" x2="183.99" y2="71.05"/><line class="cls-10" x1="179.3" y1="47.38" x2="179.3" y2="71.05"/><line class="cls-10" x1="174.6" y1="47.38" x2="174.6" y2="71.05"/><line class="cls-10" x1="169.84" y1="47.38" x2="169.84" y2="71.05"/><line class="cls-10" x1="160.45" y1="47.38" x2="160.45" y2="71.05"/><line class="cls-10" x1="155.69" y1="47.38" x2="155.69" y2="71.05"/><line class="cls-10" x1="150.99" y1="47.38" x2="150.99" y2="71.05"/><line class="cls-10" x1="146.3" y1="47.38" x2="146.3" y2="71.05"/><line class="cls-10" x1="136.84" y1="47.38" x2="136.84" y2="71.05"/><line class="cls-10" x1="132.14" y1="47.38" x2="132.14" y2="71.05"/><line class="cls-10" x1="127.45" y1="47.38" x2="127.45" y2="71.05"/><line class="cls-10" x1="122.75" y1="47.38" x2="122.75" y2="71.05"/><line class="cls-10" x1="113.29" y1="47.38" x2="113.29" y2="71.05"/><line class="cls-10" x1="108.6" y1="47.38" x2="108.6" y2="71.05"/><line class="cls-10" x1="103.9" y1="47.38" x2="103.9" y2="71.05"/><line class="cls-10" x1="99.14" y1="47.38" x2="99.14" y2="71.05"/><line class="cls-10" x1="89.75" y1="47.38" x2="89.75" y2="71.05"/><line class="cls-10" x1="84.98" y1="47.38" x2="84.98" y2="71.05"/><line class="cls-10" x1="80.29" y1="47.38" x2="80.29" y2="71.05"/><line class="cls-10" x1="75.59" y1="47.38" x2="75.59" y2="71.05"/><line class="cls-10" x1="66.14" y1="47.38" x2="66.14" y2="71.05"/><line class="cls-10" x1="61.44" y1="47.38" x2="61.44" y2="71.05"/><line class="cls-10" x1="56.75" y1="47.38" x2="56.75" y2="71.05"/><line class="cls-10" x1="52.05" y1="47.38" x2="52.05" y2="71.05"/><line class="cls-10" x1="42.59" y1="47.38" x2="42.59" y2="71.05"/><line class="cls-10" x1="37.9" y1="47.38" x2="37.9" y2="71.05"/><line class="cls-10" x1="33.2" y1="47.38" x2="33.2" y2="71.05"/><line class="cls-10" x1="28.44" y1="47.38" x2="28.44" y2="71.05"/><line class="cls-10" x1="23.74" y1="89.84" x2="306.55" y2="89.84"/><line class="cls-10" x1="23.74" y1="85.11" x2="306.55" y2="85.11"/><line class="cls-10" x1="23.74" y1="80.37" x2="306.55" y2="80.37"/><line class="cls-10" x1="23.74" y1="75.65" x2="306.55" y2="75.65"/><line class="cls-10" x1="301.85" y1="70.91" x2="301.85" y2="94.58"/><line class="cls-10" x1="297.09" y1="70.91" x2="297.09" y2="94.58"/><line class="cls-10" x1="292.39" y1="70.91" x2="292.39" y2="94.58"/><line class="cls-10" x1="287.7" y1="70.91" x2="287.7" y2="94.58"/><line class="cls-10" x1="278.24" y1="70.91" x2="278.24" y2="94.58"/><line class="cls-10" x1="273.54" y1="70.91" x2="273.54" y2="94.58"/><line class="cls-10" x1="268.85" y1="70.91" x2="268.85" y2="94.58"/><line class="cls-10" x1="264.15" y1="70.91" x2="264.15" y2="94.58"/><line class="cls-10" x1="254.69" y1="70.91" x2="254.69" y2="94.58"/><line class="cls-10" x1="250" y1="70.91" x2="250" y2="94.58"/><line class="cls-10" x1="245.3" y1="70.91" x2="245.3" y2="94.58"/><line class="cls-10" x1="240.54" y1="70.91" x2="240.54" y2="94.58"/><line class="cls-10" x1="231.15" y1="70.91" x2="231.15" y2="94.58"/><line class="cls-10" x1="226.39" y1="70.91" x2="226.39" y2="94.58"/><line class="cls-10" x1="221.69" y1="70.91" x2="221.69" y2="94.58"/><line class="cls-10" x1="217" y1="70.91" x2="217" y2="94.58"/><line class="cls-10" x1="207.54" y1="70.91" x2="207.54" y2="94.58"/><line class="cls-10" x1="202.84" y1="70.91" x2="202.84" y2="94.58"/><line class="cls-10" x1="198.15" y1="70.91" x2="198.15" y2="94.58"/><line class="cls-10" x1="193.45" y1="70.91" x2="193.45" y2="94.58"/><line class="cls-10" x1="183.99" y1="70.91" x2="183.99" y2="94.58"/><line class="cls-10" x1="179.3" y1="70.91" x2="179.3" y2="94.58"/><line class="cls-10" x1="174.6" y1="70.91" x2="174.6" y2="94.58"/><line class="cls-10" x1="169.84" y1="70.91" x2="169.84" y2="94.58"/><line class="cls-10" x1="160.45" y1="70.91" x2="160.45" y2="94.58"/><line class="cls-10" x1="155.69" y1="70.91" x2="155.69" y2="94.58"/><line class="cls-10" x1="150.99" y1="70.91" x2="150.99" y2="94.58"/><line class="cls-10" x1="146.3" y1="70.91" x2="146.3" y2="94.58"/><line class="cls-10" x1="136.84" y1="70.91" x2="136.84" y2="94.58"/><line class="cls-10" x1="132.14" y1="70.91" x2="132.14" y2="94.58"/><line class="cls-10" x1="127.45" y1="70.91" x2="127.45" y2="94.58"/><line class="cls-10" x1="122.75" y1="70.91" x2="122.75" y2="94.58"/><line class="cls-10" x1="113.29" y1="70.91" x2="113.29" y2="94.58"/><line class="cls-10" x1="108.6" y1="70.91" x2="108.6" y2="94.58"/><line class="cls-10" x1="103.9" y1="70.91" x2="103.9" y2="94.58"/><line class="cls-10" x1="99.14" y1="70.91" x2="99.14" y2="94.58"/><line class="cls-10" x1="89.75" y1="70.91" x2="89.75" y2="94.58"/><line class="cls-10" x1="84.98" y1="70.91" x2="84.98" y2="94.58"/><line class="cls-10" x1="80.29" y1="70.91" x2="80.29" y2="94.58"/><line class="cls-10" x1="75.59" y1="70.91" x2="75.59" y2="94.58"/><line class="cls-10" x1="66.14" y1="70.91" x2="66.14" y2="94.58"/><line class="cls-10" x1="61.44" y1="70.91" x2="61.44" y2="94.58"/><line class="cls-10" x1="56.75" y1="70.91" x2="56.75" y2="94.58"/><line class="cls-10" x1="52.05" y1="70.91" x2="52.05" y2="94.58"/><line class="cls-10" x1="42.59" y1="70.91" x2="42.59" y2="94.58"/><line class="cls-10" x1="37.9" y1="70.91" x2="37.9" y2="94.58"/><line class="cls-10" x1="33.2" y1="70.91" x2="33.2" y2="94.58"/><line class="cls-10" x1="28.44" y1="70.91" x2="28.44" y2="94.58"/><line class="cls-10" x1="23.74" y1="113.37" x2="306.55" y2="113.37"/><line class="cls-10" x1="23.74" y1="108.64" x2="306.55" y2="108.64"/><line class="cls-10" x1="23.74" y1="103.9" x2="306.55" y2="103.9"/><line class="cls-10" x1="23.74" y1="99.18" x2="306.55" y2="99.18"/><line class="cls-10" x1="301.85" y1="94.44" x2="301.85" y2="118.11"/><line class="cls-10" x1="297.09" y1="94.44" x2="297.09" y2="118.11"/><line class="cls-10" x1="292.39" y1="94.44" x2="292.39" y2="118.11"/><line class="cls-10" x1="287.7" y1="94.44" x2="287.7" y2="118.11"/><line class="cls-10" x1="278.24" y1="94.44" x2="278.24" y2="118.11"/><line class="cls-10" x1="273.54" y1="94.44" x2="273.54" y2="118.11"/><line class="cls-10" x1="268.85" y1="94.44" x2="268.85" y2="118.11"/><line class="cls-10" x1="264.15" y1="94.44" x2="264.15" y2="118.11"/><line class="cls-10" x1="254.69" y1="94.44" x2="254.69" y2="118.11"/><line class="cls-10" x1="250" y1="94.44" x2="250" y2="118.11"/><line class="cls-10" x1="245.3" y1="94.44" x2="245.3" y2="118.11"/><line class="cls-10" x1="240.54" y1="94.44" x2="240.54" y2="118.11"/><line class="cls-10" x1="231.15" y1="94.44" x2="231.15" y2="118.11"/><line class="cls-10" x1="226.39" y1="94.44" x2="226.39" y2="118.11"/><line class="cls-10" x1="221.69" y1="94.44" x2="221.69" y2="118.11"/><line class="cls-10" x1="217" y1="94.44" x2="217" y2="118.11"/><line class="cls-10" x1="207.54" y1="94.44" x2="207.54" y2="118.11"/><line class="cls-10" x1="202.84" y1="94.44" x2="202.84" y2="118.11"/><line class="cls-10" x1="198.15" y1="94.44" x2="198.15" y2="118.11"/><line class="cls-10" x1="193.45" y1="94.44" x2="193.45" y2="118.11"/><line class="cls-10" x1="183.99" y1="94.44" x2="183.99" y2="118.11"/><line class="cls-10" x1="179.3" y1="94.44" x2="179.3" y2="118.11"/><line class="cls-10" x1="174.6" y1="94.44" x2="174.6" y2="118.11"/><line class="cls-10" x1="169.84" y1="94.44" x2="169.84" y2="118.11"/><line class="cls-10" x1="160.45" y1="94.44" x2="160.45" y2="118.11"/><line class="cls-10" x1="155.69" y1="94.44" x2="155.69" y2="118.11"/><line class="cls-10" x1="150.99" y1="94.44" x2="150.99" y2="118.11"/><line class="cls-10" x1="146.3" y1="94.44" x2="146.3" y2="118.11"/><line class="cls-10" x1="136.84" y1="94.44" x2="136.84" y2="118.11"/><line class="cls-10" x1="132.14" y1="94.44" x2="132.14" y2="118.11"/><line class="cls-10" x1="127.45" y1="94.44" x2="127.45" y2="118.11"/><line class="cls-10" x1="122.75" y1="94.44" x2="122.75" y2="118.11"/><line class="cls-10" x1="113.29" y1="94.44" x2="113.29" y2="118.11"/><line class="cls-10" x1="108.6" y1="94.44" x2="108.6" y2="118.11"/><line class="cls-10" x1="103.9" y1="94.44" x2="103.9" y2="118.11"/><line class="cls-10" x1="99.14" y1="94.44" x2="99.14" y2="118.11"/><line class="cls-10" x1="89.75" y1="94.44" x2="89.75" y2="118.11"/><line class="cls-10" x1="84.98" y1="94.44" x2="84.98" y2="118.11"/><line class="cls-10" x1="80.29" y1="94.44" x2="80.29" y2="118.11"/><line class="cls-10" x1="75.59" y1="94.44" x2="75.59" y2="118.11"/><line class="cls-10" x1="66.14" y1="94.44" x2="66.14" y2="118.11"/><line class="cls-10" x1="61.44" y1="94.44" x2="61.44" y2="118.11"/><line class="cls-10" x1="56.75" y1="94.44" x2="56.75" y2="118.11"/><line class="cls-10" x1="52.05" y1="94.44" x2="52.05" y2="118.11"/><line class="cls-10" x1="42.59" y1="94.44" x2="42.59" y2="118.11"/><line class="cls-10" x1="37.9" y1="94.44" x2="37.9" y2="118.11"/><line class="cls-10" x1="33.2" y1="94.44" x2="33.2" y2="118.11"/><line class="cls-10" x1="28.44" y1="94.44" x2="28.44" y2="118.11"/><line class="cls-10" x1="23.74" y1="136.95" x2="306.55" y2="136.95"/><line class="cls-10" x1="23.74" y1="132.22" x2="306.55" y2="132.22"/><line class="cls-10" x1="23.74" y1="127.49" x2="306.55" y2="127.49"/><line class="cls-10" x1="23.74" y1="122.76" x2="306.55" y2="122.76"/><line class="cls-10" x1="301.85" y1="118.02" x2="301.85" y2="141.69"/><line class="cls-10" x1="297.09" y1="118.02" x2="297.09" y2="141.69"/><line class="cls-10" x1="292.39" y1="118.02" x2="292.39" y2="141.69"/><line class="cls-10" x1="287.7" y1="118.02" x2="287.7" y2="141.69"/><line class="cls-10" x1="278.24" y1="118.02" x2="278.24" y2="141.69"/><line class="cls-10" x1="273.54" y1="118.02" x2="273.54" y2="141.69"/><line class="cls-10" x1="268.85" y1="118.02" x2="268.85" y2="141.69"/><line class="cls-10" x1="264.15" y1="118.02" x2="264.15" y2="141.69"/><line class="cls-10" x1="254.69" y1="118.02" x2="254.69" y2="141.69"/><line class="cls-10" x1="250" y1="118.02" x2="250" y2="141.69"/><line class="cls-10" x1="245.3" y1="118.02" x2="245.3" y2="141.69"/><line class="cls-10" x1="240.54" y1="118.02" x2="240.54" y2="141.69"/><line class="cls-10" x1="231.15" y1="118.02" x2="231.15" y2="141.69"/><line class="cls-10" x1="226.39" y1="118.02" x2="226.39" y2="141.69"/><line class="cls-10" x1="221.69" y1="118.02" x2="221.69" y2="141.69"/><line class="cls-10" x1="217" y1="118.02" x2="217" y2="141.69"/><line class="cls-10" x1="207.54" y1="118.02" x2="207.54" y2="141.69"/><line class="cls-10" x1="202.84" y1="118.02" x2="202.84" y2="141.69"/><line class="cls-10" x1="198.15" y1="118.02" x2="198.15" y2="141.69"/><line class="cls-10" x1="193.45" y1="118.02" x2="193.45" y2="141.69"/><line class="cls-10" x1="183.99" y1="118.02" x2="183.99" y2="141.69"/><line class="cls-10" x1="179.3" y1="118.02" x2="179.3" y2="141.69"/><line class="cls-10" x1="174.6" y1="118.02" x2="174.6" y2="141.69"/><line class="cls-10" x1="169.84" y1="118.02" x2="169.84" y2="141.69"/><line class="cls-10" x1="160.45" y1="118.02" x2="160.45" y2="141.69"/><line class="cls-10" x1="155.69" y1="118.02" x2="155.69" y2="141.69"/><line class="cls-10" x1="150.99" y1="118.02" x2="150.99" y2="141.69"/><line class="cls-10" x1="146.3" y1="118.02" x2="146.3" y2="141.69"/><line class="cls-10" x1="136.84" y1="118.02" x2="136.84" y2="141.69"/><line class="cls-10" x1="132.14" y1="118.02" x2="132.14" y2="141.69"/><line class="cls-10" x1="127.45" y1="118.02" x2="127.45" y2="141.69"/><line class="cls-10" x1="122.75" y1="118.02" x2="122.75" y2="141.69"/><line class="cls-10" x1="113.29" y1="118.02" x2="113.29" y2="141.69"/><line class="cls-10" x1="108.6" y1="118.02" x2="108.6" y2="141.69"/><line class="cls-10" x1="103.9" y1="118.02" x2="103.9" y2="141.69"/><line class="cls-10" x1="99.14" y1="118.02" x2="99.14" y2="141.69"/><line class="cls-10" x1="89.75" y1="118.02" x2="89.75" y2="141.69"/><line class="cls-10" x1="84.98" y1="118.02" x2="84.98" y2="141.69"/><line class="cls-10" x1="80.29" y1="118.02" x2="80.29" y2="141.69"/><line class="cls-10" x1="75.59" y1="118.02" x2="75.59" y2="141.69"/><line class="cls-10" x1="66.14" y1="118.02" x2="66.14" y2="141.69"/><line class="cls-10" x1="61.44" y1="118.02" x2="61.44" y2="141.69"/><line class="cls-10" x1="56.75" y1="118.02" x2="56.75" y2="141.69"/><line class="cls-10" x1="52.05" y1="118.02" x2="52.05" y2="141.69"/><line class="cls-10" x1="42.59" y1="118.02" x2="42.59" y2="141.69"/><line class="cls-10" x1="37.9" y1="118.02" x2="37.9" y2="141.69"/><line class="cls-10" x1="33.2" y1="118.02" x2="33.2" y2="141.69"/><line class="cls-10" x1="28.44" y1="118.02" x2="28.44" y2="141.69"/><text class="cls-11" transform="translate(158.13 197.7)">10<tspan class="cls-12" x="7.13" y="0">A</tspan></text><text class="cls-11" transform="translate(21.5 183.6)">0</text><text class="cls-11" transform="translate(139.76 183.6)">5</text><text class="cls-11" transform="translate(255.42 183.6)">10</text><text class="cls-11" transform="translate(338.97 75.57) rotate(90) scale(0.79 1)">1.7<tspan class="cls-13" x="8.91" y="0">A</tspan></text></g></g></svg>