<svg xmlns="http://www.w3.org/2000/svg" viewBox="0 0 365.38 36.9"><defs><style>.cls-1{fill:#b0b0b0;}</style></defs><title>hitrobot_ziwirobot-ash</title><g id="图层_2" data-name="图层 2"><g id="图层_1-2" data-name="图层 1"><rect class="cls-1" x="121.22" y="0.56" width="11.2" height="33.15"/><path class="cls-1" d="M38.39,9.94H.72V.8H38.39Zm.9,14.19H0v9.15H39.28ZM33.46,13H16.82L0,24.13l8.31,6.34Z"/><path class="cls-1" d="M339.9,32.51h-9.27V.76h9.27ZM350.23.76H341V32.51h9.27Zm-19.6,0H315V9.5h15.68Zm34.75,0H350.23V9.5h15.14Z"/><path class="cls-1" d="M52.65,31.93a1.26,1.26,0,0,1-1.14,1.36h-8.1a1.26,1.26,0,0,1-1.13-1.36V2.55A1.26,1.26,0,0,1,43.42,1.2h8.1a1.26,1.26,0,0,1,1.14,1.35Z"/><path class="cls-1" d="M80.93.93H92a1,1,0,0,1,.9.63L98.34,21.9s.47.42.83,0l7.11-20.26a1.11,1.11,0,0,1,1-.87H118a.81.81,0,0,1,.66,1L107.61,30a9.57,9.57,0,0,1-6.71,4.13s-5.2.84-8.77-2.1c0,0-1.46-1.1-1.73-1.94L86.67,16.84h0L80.93.93m0,0a1,1,0,0,0-.9.63L74.56,21.9s-.46.42-.83,0L66.63,1.63a1.12,1.12,0,0,0-1-.87H54.92a.81.81,0,0,0-.67,1L65.3,30A9.54,9.54,0,0,0,72,34.11s5.2.84,8.76-2.1c0,0,1.47-1.1,1.74-1.94l3.74-13.24s.2-.63.43,0L80.93.93"/><path class="cls-1" d="M146.5,33.71H135.56V21.84H146.5ZM134.79.76l.57,7.82a1.86,1.86,0,0,0,1.93,1.33H165s2.15,1.13-.12,2.25H135.56v9.68h20a1.15,1.15,0,0,1,1.08.4L170.86,36.9h12.55s1-.35.16-1.2L171.05,21.61s6.46-.55,6.48-6.72V7.26s.38-5.16-5.52-6.5Z"/><path class="cls-1" d="M223.92,22.09a11.3,11.3,0,0,1-11.2,11.39H190.59a11.29,11.29,0,0,1-11.2-11.39V11.59A11.29,11.29,0,0,1,190.59.2h22.12a11.3,11.3,0,0,1,11.2,11.39Zm-11-9.68a2.46,2.46,0,0,0-2.4-2.52H193.15a2.46,2.46,0,0,0-2.4,2.52v9a2.46,2.46,0,0,0,2.4,2.52h17.41a2.46,2.46,0,0,0,2.4-2.52Z"/><path class="cls-1" d="M313.28,21.89a11.3,11.3,0,0,1-11.2,11.39H280a11.29,11.29,0,0,1-11.2-11.39V11.39A11.29,11.29,0,0,1,280,0h22.12a11.3,11.3,0,0,1,11.2,11.39Zm-11-9.68a2.46,2.46,0,0,0-2.39-2.52H282.51a2.46,2.46,0,0,0-2.39,2.52v9a2.46,2.46,0,0,0,2.39,2.52h17.42a2.46,2.46,0,0,0,2.39-2.52Z"/><path class="cls-1" d="M253.69,12.77a1.91,1.91,0,0,0,1.53-1.93,1.5,1.5,0,0,0-1.53-1.54H227.28A1.32,1.32,0,0,1,226,8V1.37s.06-.73,1.33-.8h32.28s5.81.87,5.87,5.8v5.94s.07,3.07-2.6,3.8a6.51,6.51,0,0,1,4.13,6.4v5.27s.4,5.27-4.2,5.5H226V12.73ZM236.82,24.41h18.81c2-1.66,0-2.7,0-2.7H236.82Z"/></g></g></svg>