<svg xmlns="http://www.w3.org/2000/svg" viewBox="0 0 350.2 227.33"><defs><style>.cls-1{fill:#898989;}.cls-2{font-size:7.52px;fill:#10386b;font-family:FZHTJW--GB1-0, FZHTJW -GB1-0-GBpc-EUC-H;}.cls-11,.cls-3,.cls-7{fill:#231815;}.cls-3{font-size:8.12px;}.cls-10,.cls-4,.cls-8,.cls-9{fill:none;stroke:#231815;}.cls-4,.cls-9{stroke-miterlimit:3.86;}.cls-4{stroke-width:0.42px;}.cls-5{fill:#fff;}.cls-6{fill:#d3d3d4;}.cls-8{stroke-width:0.44px;}.cls-9{stroke-width:0.31px;}.cls-10{stroke-width:0.19px;}.cls-11{font-size:6.41px;font-family:ArialMT, Arial;}.cls-12{letter-spacing:-0.07em;}.cls-13{letter-spacing:-0.06em;}.cls-14{letter-spacing:-0.06em;}</style></defs><title>hitrobot_hrg_English_chinese_transverse_logo_ash</title><g id="图层_2" data-name="图层 2"><g id="图层_1-2" data-name="图层 1"><path class="cls-1" d="M37.9,69.91h7.54V90.14h-2v-2H39.94V90.6h-2Zm5.49,16.27V71.88H39.94V86.19ZM57,66.59l-.48.77q3.36,6.2,8.31,8.68-.82,1-1.56,2a25.14,25.14,0,0,1-7.94-8.76,27.07,27.07,0,0,1-8.05,8.9,20.51,20.51,0,0,0-1.48-1.79,23.27,23.27,0,0,0,8.53-9.78ZM48.33,82.77H61.79V94.55H59.63V92.84H50.5v1.71H48.33Zm1.11-5.72H60.94v2H49.45Zm10.18,13.8V84.76H50.5v6.09Z"/><path class="cls-1" d="M68.89,90.14H81.34v-19H70.51V68.89H94.74v2.28H83.85v19H96.34v2.22H68.89Z"/><path class="cls-1" d="M100.5,92.13q11.73-5.22,12.66-15.67H101V74.24h12.25q.07-3.82.07-7.71h2.47q0,3.83-.07,7.71h12.62v2.22H115.69q2,11.36,13.26,15a23.18,23.18,0,0,0-2.16,2.3,19.71,19.71,0,0,1-12.11-13.27q-2.22,8.63-12.42,13.84Q101.69,93.55,100.5,92.13Z"/><path class="cls-1" d="M132.51,84.19A32.06,32.06,0,0,0,137.05,74H132.8V72h4.44v-5.6h2V72h4V74h-4v4.72l1.14-1.14q2.19,2,3.44,3.24l-1.54,1.57q-1.75-1.94-3-3.21v15h-2V78.9a25.56,25.56,0,0,1-3.78,7.79C133.15,85.84,132.84,85,132.51,84.19Zm15-13.8v9.42q0,10.19-5.09,14.76c-.53-.64-1.09-1.29-1.68-1.93q4.5-4,4.5-12.32V68.24h10.58V89.63q0,1.42,1,1.42h.66q.91,0,1.16-1.59.29-2.19.4-4.72a23.43,23.43,0,0,0,2.16.91q-.25,2.82-.51,4.61-.46,3-2.9,3h-1.51q-2.73,0-2.73-3.24V70.4Z"/><path class="cls-1" d="M165.55,78.34H177a8.51,8.51,0,0,0,.57-2.48l2,.28a12.86,12.86,0,0,1-.5,2.19h6.2q-1.14-.83-2.4-1.62l1.17-1.28a40.45,40.45,0,0,1,3.38,2.22l-.64.68h5.3v1.88h-11q3.28,3.22,11.66,3-.68,1.17-1.17,2.19l-1.45-.13V94h-2V92.44h-6.09V94h-2V85.19h9.06q-8.13-1.1-10.4-5h-.51q-1.59,3.38-10.33,5h9.1V94h-2V92.44h-6V94h-2V85.36l-1.56.28q-.43-.85-1.11-2,9.5-1.22,11.41-3.41h-10.3ZM167.08,68h10v8.28h-2v-.88h-6v1.17h-2Zm8,1.76h-6v3.87h6Zm0,17.21h-6v3.73h6Zm5-19h10.07v8.39h-2v-1h-6.09v.88h-2Zm8.08,1.76h-6.09v3.87h6.09Zm0,17.21h-6.09v3.73h6.09Z"/><path class="cls-1" d="M196.68,92q12.4-7.17,13.11-25.15h2.5a54.59,54.59,0,0,1-.6,5.8Q215.22,86.84,225,91.33q-1.2,1.31-2.11,2.48Q214.4,89,210.8,76.9q-3.12,11.72-12.33,17.22A24.42,24.42,0,0,0,196.68,92Z"/><path class="cls-1" d="M229.57,85.39h12.26V83.45h2v1.94h12.23v1.82H246A29,29,0,0,0,257.11,92l-1.34,2.1a31,31,0,0,1-11.95-6.36v6.67h-2v-6.7a34.52,34.52,0,0,1-11.95,6.44q-.6-.88-1.34-1.79a30.09,30.09,0,0,0,11-5.12h-10Zm12.6-18.18,1.68-1a18.63,18.63,0,0,1,2.19,2.9l-1.31.82h10.89v1.77H244.85v2h9.53v1.65h-9.53v2h9.53V79h-9.53v2.08h10.87v1.76H235v1.08h-2V73.81a33.17,33.17,0,0,1-3,3.07A11.62,11.62,0,0,0,228.63,75a30.33,30.33,0,0,0,7-8.48l2,.88c-.53.87-1.07,1.71-1.62,2.5h8A30.41,30.41,0,0,0,242.17,67.21ZM235,73.7h7.88v-2H235Zm0,3.67h7.88v-2H235Zm0,3.73h7.88V79H235Z"/><path class="cls-1" d="M262.44,67.84h24.89V94.38h-2.16V93H264.6v1.42h-2.16Zm22.73,2H264.6V91h20.57Zm-19.17,5h10.64v-4.1h2.11v4.1h5.46V76.8h-5.46v8.67q0,4.13-3.92,4.13-1.59,0-3.3-.06c-.12-.66-.27-1.41-.46-2.25a28.16,28.16,0,0,0,3.24.23q2.33,0,2.33-2.65V78.22a31.22,31.22,0,0,1-10.21,9.5A10.41,10.41,0,0,0,265,85.81a29.46,29.46,0,0,0,10.3-9H266Z"/><text class="cls-2" transform="translate(137.61 225.03) scale(0.95 1)">■<tspan class="cls-3" x="7.52" y="0" xml:space="preserve"> 标准字体制图</tspan></text><line class="cls-4" x1="341.42" y1="66.19" x2="341.42" y2="94.44"/><line class="cls-4" x1="348.94" y1="66.18" x2="333.12" y2="66.18"/><line class="cls-4" x1="349.42" y1="94.43" x2="333.61" y2="94.43"/><rect class="cls-5" x="332.9" y="74.49" width="17.3" height="11.33"/><line class="cls-4" x1="37.9" y1="195.11" x2="287.73" y2="195.11"/><line class="cls-4" x1="287.7" y1="203.51" x2="287.7" y2="172.46"/><line class="cls-4" x1="37.9" y1="203.51" x2="37.9" y2="172.46"/><rect class="cls-5" x="14.68" y="171.04" width="16.16" height="15.85"/><rect class="cls-5" x="149.93" y="185.79" width="28.19" height="17.3"/><rect class="cls-6" x="0.36" y="141.88" width="23.31" height="23.05"/><path class="cls-7" d="M10.57,155.14l-.89,2.49H8.5l3.24-8.6h1.32l3.1,8.6H14.9l-.85-2.49Zm3.06-1-1.27-3.81h0l-1.36,3.81Z"/><rect class="cls-8" x="0.22" y="0.22" width="330.01" height="165.05"/><line class="cls-9" x1="0.22" y1="141.7" x2="330.23" y2="141.7"/><line class="cls-9" x1="0.22" y1="118.01" x2="330.23" y2="118.01"/><line class="cls-9" x1="0.22" y1="94.49" x2="330.23" y2="94.49"/><line class="cls-9" x1="0.22" y1="70.96" x2="330.23" y2="70.96"/><line class="cls-9" x1="0.22" y1="47.43" x2="330.23" y2="47.43"/><line class="cls-9" x1="0.22" y1="23.75" x2="330.23" y2="23.75"/><line class="cls-9" x1="306.62" y1="0.22" x2="306.62" y2="165.43"/><line class="cls-9" x1="283.1" y1="0.22" x2="283.1" y2="165.43"/><line class="cls-9" x1="259.49" y1="0.22" x2="259.49" y2="165.43"/><line class="cls-9" x1="235.96" y1="0.22" x2="235.96" y2="165.43"/><line class="cls-9" x1="212.36" y1="0.22" x2="212.36" y2="165.43"/><line class="cls-9" x1="188.83" y1="0.22" x2="188.83" y2="165.43"/><line class="cls-9" x1="165.23" y1="0.22" x2="165.23" y2="165.43"/><line class="cls-9" x1="141.62" y1="0.22" x2="141.62" y2="165.43"/><line class="cls-9" x1="118.09" y1="0.22" x2="118.09" y2="165.43"/><line class="cls-9" x1="94.49" y1="0.22" x2="94.49" y2="165.43"/><line class="cls-9" x1="70.96" y1="0.22" x2="70.96" y2="165.43"/><line class="cls-9" x1="47.35" y1="0.22" x2="47.35" y2="165.43"/><line class="cls-9" x1="23.83" y1="0.22" x2="23.83" y2="165.43"/><line class="cls-10" x1="23.74" y1="42.68" x2="306.55" y2="42.68"/><line class="cls-10" x1="23.74" y1="37.95" x2="306.55" y2="37.95"/><line class="cls-10" x1="23.74" y1="33.21" x2="306.55" y2="33.21"/><line class="cls-10" x1="23.74" y1="28.49" x2="306.55" y2="28.49"/><line class="cls-10" x1="301.85" y1="23.75" x2="301.85" y2="47.42"/><line class="cls-10" x1="297.09" y1="23.75" x2="297.09" y2="47.42"/><line class="cls-10" x1="292.39" y1="23.75" x2="292.39" y2="47.42"/><line class="cls-10" x1="287.7" y1="23.75" x2="287.7" y2="47.42"/><line class="cls-10" x1="278.24" y1="23.75" x2="278.24" y2="47.42"/><line class="cls-10" x1="273.54" y1="23.75" x2="273.54" y2="47.42"/><line class="cls-10" x1="268.85" y1="23.75" x2="268.85" y2="47.42"/><line class="cls-10" x1="264.15" y1="23.75" x2="264.15" y2="47.42"/><line class="cls-10" x1="254.69" y1="23.75" x2="254.69" y2="47.42"/><line class="cls-10" x1="250" y1="23.75" x2="250" y2="47.42"/><line class="cls-10" x1="245.3" y1="23.75" x2="245.3" y2="47.42"/><line class="cls-10" x1="240.54" y1="23.75" x2="240.54" y2="47.42"/><line class="cls-10" x1="231.15" y1="23.75" x2="231.15" y2="47.42"/><line class="cls-10" x1="226.39" y1="23.75" x2="226.39" y2="47.42"/><line class="cls-10" x1="221.69" y1="23.75" x2="221.69" y2="47.42"/><line class="cls-10" x1="217" y1="23.75" x2="217" y2="47.42"/><line class="cls-10" x1="207.54" y1="23.75" x2="207.54" y2="47.42"/><line class="cls-10" x1="202.84" y1="23.75" x2="202.84" y2="47.42"/><line class="cls-10" x1="198.15" y1="23.75" x2="198.15" y2="47.42"/><line class="cls-10" x1="193.45" y1="23.75" x2="193.45" y2="47.42"/><line class="cls-10" x1="183.99" y1="23.75" x2="183.99" y2="47.42"/><line class="cls-10" x1="179.3" y1="23.75" x2="179.3" y2="47.42"/><line class="cls-10" x1="174.6" y1="23.75" x2="174.6" y2="47.42"/><line class="cls-10" x1="169.84" y1="23.75" x2="169.84" y2="47.42"/><line class="cls-10" x1="160.45" y1="23.75" x2="160.45" y2="47.42"/><line class="cls-10" x1="155.69" y1="23.75" x2="155.69" y2="47.42"/><line class="cls-10" x1="150.99" y1="23.75" x2="150.99" y2="47.42"/><line class="cls-10" x1="146.3" y1="23.75" x2="146.3" y2="47.42"/><line class="cls-10" x1="136.84" y1="23.75" x2="136.84" y2="47.42"/><line class="cls-10" x1="132.14" y1="23.75" x2="132.14" y2="47.42"/><line class="cls-10" x1="127.45" y1="23.75" x2="127.45" y2="47.42"/><line class="cls-10" x1="122.75" y1="23.75" x2="122.75" y2="47.42"/><path class="cls-10" d="M118,47.42"/><path class="cls-10" d="M118,23.75"/><line class="cls-10" x1="113.29" y1="23.75" x2="113.29" y2="47.42"/><line class="cls-10" x1="108.6" y1="23.75" x2="108.6" y2="47.42"/><line class="cls-10" x1="103.9" y1="23.75" x2="103.9" y2="47.42"/><line class="cls-10" x1="99.14" y1="23.75" x2="99.14" y2="47.42"/><line class="cls-10" x1="89.75" y1="23.75" x2="89.75" y2="47.42"/><line class="cls-10" x1="84.98" y1="23.75" x2="84.98" y2="47.42"/><line class="cls-10" x1="80.29" y1="23.75" x2="80.29" y2="47.42"/><line class="cls-10" x1="75.59" y1="23.75" x2="75.59" y2="47.42"/><line class="cls-10" x1="66.14" y1="23.75" x2="66.14" y2="47.42"/><line class="cls-10" x1="61.44" y1="23.75" x2="61.44" y2="47.42"/><line class="cls-10" x1="56.75" y1="23.75" x2="56.75" y2="47.42"/><line class="cls-10" x1="52.05" y1="23.75" x2="52.05" y2="47.42"/><line class="cls-10" x1="42.59" y1="23.75" x2="42.59" y2="47.42"/><line class="cls-10" x1="37.9" y1="23.75" x2="37.9" y2="47.42"/><line class="cls-10" x1="33.2" y1="23.75" x2="33.2" y2="47.42"/><line class="cls-10" x1="28.44" y1="23.75" x2="28.44" y2="47.42"/><line class="cls-10" x1="23.74" y1="66.31" x2="306.55" y2="66.31"/><line class="cls-10" x1="23.74" y1="61.58" x2="306.55" y2="61.58"/><line class="cls-10" x1="23.74" y1="56.85" x2="306.55" y2="56.85"/><line class="cls-10" x1="23.74" y1="52.12" x2="306.55" y2="52.12"/><line class="cls-10" x1="301.85" y1="47.38" x2="301.85" y2="71.05"/><line class="cls-10" x1="297.09" y1="47.38" x2="297.09" y2="71.05"/><line class="cls-10" x1="292.39" y1="47.38" x2="292.39" y2="71.05"/><line class="cls-10" x1="287.7" y1="47.38" x2="287.7" y2="71.05"/><line class="cls-10" x1="278.24" y1="47.38" x2="278.24" y2="71.05"/><line class="cls-10" x1="273.54" y1="47.38" x2="273.54" y2="71.05"/><line class="cls-10" x1="268.85" y1="47.38" x2="268.85" y2="71.05"/><line class="cls-10" x1="264.15" y1="47.38" x2="264.15" y2="71.05"/><line class="cls-10" x1="254.69" y1="47.38" x2="254.69" y2="71.05"/><line class="cls-10" x1="250" y1="47.38" x2="250" y2="71.05"/><line class="cls-10" x1="245.3" y1="47.38" x2="245.3" y2="71.05"/><line class="cls-10" x1="240.54" y1="47.38" x2="240.54" y2="71.05"/><line class="cls-10" x1="231.15" y1="47.38" x2="231.15" y2="71.05"/><line class="cls-10" x1="226.39" y1="47.38" x2="226.39" y2="71.05"/><line class="cls-10" x1="221.69" y1="47.38" x2="221.69" y2="71.05"/><line class="cls-10" x1="217" y1="47.38" x2="217" y2="71.05"/><line class="cls-10" x1="207.54" y1="47.38" x2="207.54" y2="71.05"/><line class="cls-10" x1="202.84" y1="47.38" x2="202.84" y2="71.05"/><line class="cls-10" x1="198.15" y1="47.38" x2="198.15" y2="71.05"/><line class="cls-10" x1="193.45" y1="47.38" x2="193.45" y2="71.05"/><line class="cls-10" x1="183.99" y1="47.38" x2="183.99" y2="71.05"/><line class="cls-10" x1="179.3" y1="47.38" x2="179.3" y2="71.05"/><line class="cls-10" x1="174.6" y1="47.38" x2="174.6" y2="71.05"/><line class="cls-10" x1="169.84" y1="47.38" x2="169.84" y2="71.05"/><line class="cls-10" x1="160.45" y1="47.38" x2="160.45" y2="71.05"/><line class="cls-10" x1="155.69" y1="47.38" x2="155.69" y2="71.05"/><line class="cls-10" x1="150.99" y1="47.38" x2="150.99" y2="71.05"/><line class="cls-10" x1="146.3" y1="47.38" x2="146.3" y2="71.05"/><line class="cls-10" x1="136.84" y1="47.38" x2="136.84" y2="71.05"/><line class="cls-10" x1="132.14" y1="47.38" x2="132.14" y2="71.05"/><line class="cls-10" x1="127.45" y1="47.38" x2="127.45" y2="71.05"/><line class="cls-10" x1="122.75" y1="47.38" x2="122.75" y2="71.05"/><line class="cls-10" x1="113.29" y1="47.38" x2="113.29" y2="71.05"/><line class="cls-10" x1="108.6" y1="47.38" x2="108.6" y2="71.05"/><line class="cls-10" x1="103.9" y1="47.38" x2="103.9" y2="71.05"/><line class="cls-10" x1="99.14" y1="47.38" x2="99.14" y2="71.05"/><line class="cls-10" x1="89.75" y1="47.38" x2="89.75" y2="71.05"/><line class="cls-10" x1="84.98" y1="47.38" x2="84.98" y2="71.05"/><line class="cls-10" x1="80.29" y1="47.38" x2="80.29" y2="71.05"/><line class="cls-10" x1="75.59" y1="47.38" x2="75.59" y2="71.05"/><line class="cls-10" x1="66.14" y1="47.38" x2="66.14" y2="71.05"/><line class="cls-10" x1="61.44" y1="47.38" x2="61.44" y2="71.05"/><line class="cls-10" x1="56.75" y1="47.38" x2="56.75" y2="71.05"/><line class="cls-10" x1="52.05" y1="47.38" x2="52.05" y2="71.05"/><line class="cls-10" x1="42.59" y1="47.38" x2="42.59" y2="71.05"/><line class="cls-10" x1="37.9" y1="47.38" x2="37.9" y2="71.05"/><line class="cls-10" x1="33.2" y1="47.38" x2="33.2" y2="71.05"/><line class="cls-10" x1="28.44" y1="47.38" x2="28.44" y2="71.05"/><line class="cls-10" x1="23.74" y1="89.84" x2="306.55" y2="89.84"/><line class="cls-10" x1="23.74" y1="85.11" x2="306.55" y2="85.11"/><line class="cls-10" x1="23.74" y1="80.37" x2="306.55" y2="80.37"/><line class="cls-10" x1="23.74" y1="75.65" x2="306.55" y2="75.65"/><line class="cls-10" x1="301.85" y1="70.91" x2="301.85" y2="94.58"/><line class="cls-10" x1="297.09" y1="70.91" x2="297.09" y2="94.58"/><line class="cls-10" x1="292.39" y1="70.91" x2="292.39" y2="94.58"/><line class="cls-10" x1="287.7" y1="70.91" x2="287.7" y2="94.58"/><line class="cls-10" x1="278.24" y1="70.91" x2="278.24" y2="94.58"/><line class="cls-10" x1="273.54" y1="70.91" x2="273.54" y2="94.58"/><line class="cls-10" x1="268.85" y1="70.91" x2="268.85" y2="94.58"/><line class="cls-10" x1="264.15" y1="70.91" x2="264.15" y2="94.58"/><line class="cls-10" x1="254.69" y1="70.91" x2="254.69" y2="94.58"/><line class="cls-10" x1="250" y1="70.91" x2="250" y2="94.58"/><line class="cls-10" x1="245.3" y1="70.91" x2="245.3" y2="94.58"/><line class="cls-10" x1="240.54" y1="70.91" x2="240.54" y2="94.58"/><line class="cls-10" x1="231.15" y1="70.91" x2="231.15" y2="94.58"/><line class="cls-10" x1="226.39" y1="70.91" x2="226.39" y2="94.58"/><line class="cls-10" x1="221.69" y1="70.91" x2="221.69" y2="94.58"/><line class="cls-10" x1="217" y1="70.91" x2="217" y2="94.58"/><line class="cls-10" x1="207.54" y1="70.91" x2="207.54" y2="94.58"/><line class="cls-10" x1="202.84" y1="70.91" x2="202.84" y2="94.58"/><line class="cls-10" x1="198.15" y1="70.91" x2="198.15" y2="94.58"/><line class="cls-10" x1="193.45" y1="70.91" x2="193.45" y2="94.58"/><line class="cls-10" x1="183.99" y1="70.91" x2="183.99" y2="94.58"/><line class="cls-10" x1="179.3" y1="70.91" x2="179.3" y2="94.58"/><line class="cls-10" x1="174.6" y1="70.91" x2="174.6" y2="94.58"/><line class="cls-10" x1="169.84" y1="70.91" x2="169.84" y2="94.58"/><line class="cls-10" x1="160.45" y1="70.91" x2="160.45" y2="94.58"/><line class="cls-10" x1="155.69" y1="70.91" x2="155.69" y2="94.58"/><line class="cls-10" x1="150.99" y1="70.91" x2="150.99" y2="94.58"/><line class="cls-10" x1="146.3" y1="70.91" x2="146.3" y2="94.58"/><line class="cls-10" x1="136.84" y1="70.91" x2="136.84" y2="94.58"/><line class="cls-10" x1="132.14" y1="70.91" x2="132.14" y2="94.58"/><line class="cls-10" x1="127.45" y1="70.91" x2="127.45" y2="94.58"/><line class="cls-10" x1="122.75" y1="70.91" x2="122.75" y2="94.58"/><line class="cls-10" x1="113.29" y1="70.91" x2="113.29" y2="94.58"/><line class="cls-10" x1="108.6" y1="70.91" x2="108.6" y2="94.58"/><line class="cls-10" x1="103.9" y1="70.91" x2="103.9" y2="94.58"/><line class="cls-10" x1="99.14" y1="70.91" x2="99.14" y2="94.58"/><line class="cls-10" x1="89.75" y1="70.91" x2="89.75" y2="94.58"/><line class="cls-10" x1="84.98" y1="70.91" x2="84.98" y2="94.58"/><line class="cls-10" x1="80.29" y1="70.91" x2="80.29" y2="94.58"/><line class="cls-10" x1="75.59" y1="70.91" x2="75.59" y2="94.58"/><line class="cls-10" x1="66.14" y1="70.91" x2="66.14" y2="94.58"/><line class="cls-10" x1="61.44" y1="70.91" x2="61.44" y2="94.58"/><line class="cls-10" x1="56.75" y1="70.91" x2="56.75" y2="94.58"/><line class="cls-10" x1="52.05" y1="70.91" x2="52.05" y2="94.58"/><line class="cls-10" x1="42.59" y1="70.91" x2="42.59" y2="94.58"/><line class="cls-10" x1="37.9" y1="70.91" x2="37.9" y2="94.58"/><line class="cls-10" x1="33.2" y1="70.91" x2="33.2" y2="94.58"/><line class="cls-10" x1="28.44" y1="70.91" x2="28.44" y2="94.58"/><line class="cls-10" x1="23.74" y1="113.37" x2="306.55" y2="113.37"/><line class="cls-10" x1="23.74" y1="108.64" x2="306.55" y2="108.64"/><line class="cls-10" x1="23.74" y1="103.9" x2="306.55" y2="103.9"/><line class="cls-10" x1="23.74" y1="99.18" x2="306.55" y2="99.18"/><line class="cls-10" x1="301.85" y1="94.44" x2="301.85" y2="118.1"/><line class="cls-10" x1="297.09" y1="94.44" x2="297.09" y2="118.1"/><line class="cls-10" x1="292.39" y1="94.44" x2="292.39" y2="118.1"/><line class="cls-10" x1="287.7" y1="94.44" x2="287.7" y2="118.1"/><line class="cls-10" x1="278.24" y1="94.44" x2="278.24" y2="118.1"/><line class="cls-10" x1="273.54" y1="94.44" x2="273.54" y2="118.1"/><line class="cls-10" x1="268.85" y1="94.44" x2="268.85" y2="118.1"/><line class="cls-10" x1="264.15" y1="94.44" x2="264.15" y2="118.1"/><line class="cls-10" x1="254.69" y1="94.44" x2="254.69" y2="118.1"/><line class="cls-10" x1="250" y1="94.44" x2="250" y2="118.1"/><line class="cls-10" x1="245.3" y1="94.44" x2="245.3" y2="118.1"/><line class="cls-10" x1="240.54" y1="94.44" x2="240.54" y2="118.1"/><line class="cls-10" x1="231.15" y1="94.44" x2="231.15" y2="118.1"/><line class="cls-10" x1="226.39" y1="94.44" x2="226.39" y2="118.1"/><line class="cls-10" x1="221.69" y1="94.44" x2="221.69" y2="118.1"/><line class="cls-10" x1="217" y1="94.44" x2="217" y2="118.1"/><line class="cls-10" x1="207.54" y1="94.44" x2="207.54" y2="118.1"/><line class="cls-10" x1="202.84" y1="94.44" x2="202.84" y2="118.1"/><line class="cls-10" x1="198.15" y1="94.44" x2="198.15" y2="118.1"/><line class="cls-10" x1="193.45" y1="94.44" x2="193.45" y2="118.1"/><line class="cls-10" x1="183.99" y1="94.44" x2="183.99" y2="118.1"/><line class="cls-10" x1="179.3" y1="94.44" x2="179.3" y2="118.1"/><line class="cls-10" x1="174.6" y1="94.44" x2="174.6" y2="118.1"/><line class="cls-10" x1="169.84" y1="94.44" x2="169.84" y2="118.1"/><line class="cls-10" x1="160.45" y1="94.44" x2="160.45" y2="118.1"/><line class="cls-10" x1="155.69" y1="94.44" x2="155.69" y2="118.1"/><line class="cls-10" x1="150.99" y1="94.44" x2="150.99" y2="118.1"/><line class="cls-10" x1="146.3" y1="94.44" x2="146.3" y2="118.1"/><line class="cls-10" x1="136.84" y1="94.44" x2="136.84" y2="118.1"/><line class="cls-10" x1="132.14" y1="94.44" x2="132.14" y2="118.1"/><line class="cls-10" x1="127.45" y1="94.44" x2="127.45" y2="118.1"/><line class="cls-10" x1="122.75" y1="94.44" x2="122.75" y2="118.1"/><line class="cls-10" x1="113.29" y1="94.44" x2="113.29" y2="118.1"/><line class="cls-10" x1="108.6" y1="94.44" x2="108.6" y2="118.1"/><line class="cls-10" x1="103.9" y1="94.44" x2="103.9" y2="118.1"/><line class="cls-10" x1="99.14" y1="94.44" x2="99.14" y2="118.1"/><line class="cls-10" x1="89.75" y1="94.44" x2="89.75" y2="118.1"/><line class="cls-10" x1="84.98" y1="94.44" x2="84.98" y2="118.1"/><line class="cls-10" x1="80.29" y1="94.44" x2="80.29" y2="118.1"/><line class="cls-10" x1="75.59" y1="94.44" x2="75.59" y2="118.1"/><line class="cls-10" x1="66.14" y1="94.44" x2="66.14" y2="118.1"/><line class="cls-10" x1="61.44" y1="94.44" x2="61.44" y2="118.1"/><line class="cls-10" x1="56.75" y1="94.44" x2="56.75" y2="118.1"/><line class="cls-10" x1="52.05" y1="94.44" x2="52.05" y2="118.1"/><line class="cls-10" x1="42.59" y1="94.44" x2="42.59" y2="118.1"/><line class="cls-10" x1="37.9" y1="94.44" x2="37.9" y2="118.1"/><line class="cls-10" x1="33.2" y1="94.44" x2="33.2" y2="118.1"/><line class="cls-10" x1="28.44" y1="94.44" x2="28.44" y2="118.1"/><line class="cls-10" x1="23.74" y1="136.95" x2="306.55" y2="136.95"/><line class="cls-10" x1="23.74" y1="132.22" x2="306.55" y2="132.22"/><line class="cls-10" x1="23.74" y1="127.48" x2="306.55" y2="127.48"/><line class="cls-10" x1="23.74" y1="122.76" x2="306.55" y2="122.76"/><line class="cls-10" x1="301.85" y1="118.02" x2="301.85" y2="141.69"/><line class="cls-10" x1="297.09" y1="118.02" x2="297.09" y2="141.69"/><line class="cls-10" x1="292.39" y1="118.02" x2="292.39" y2="141.69"/><line class="cls-10" x1="287.7" y1="118.02" x2="287.7" y2="141.69"/><line class="cls-10" x1="278.24" y1="118.02" x2="278.24" y2="141.69"/><line class="cls-10" x1="273.54" y1="118.02" x2="273.54" y2="141.69"/><line class="cls-10" x1="268.85" y1="118.02" x2="268.85" y2="141.69"/><line class="cls-10" x1="264.15" y1="118.02" x2="264.15" y2="141.69"/><line class="cls-10" x1="254.69" y1="118.02" x2="254.69" y2="141.69"/><line class="cls-10" x1="250" y1="118.02" x2="250" y2="141.69"/><line class="cls-10" x1="245.3" y1="118.02" x2="245.3" y2="141.69"/><line class="cls-10" x1="240.54" y1="118.02" x2="240.54" y2="141.69"/><line class="cls-10" x1="231.15" y1="118.02" x2="231.15" y2="141.69"/><line class="cls-10" x1="226.39" y1="118.02" x2="226.39" y2="141.69"/><line class="cls-10" x1="221.69" y1="118.02" x2="221.69" y2="141.69"/><line class="cls-10" x1="217" y1="118.02" x2="217" y2="141.69"/><line class="cls-10" x1="207.54" y1="118.02" x2="207.54" y2="141.69"/><line class="cls-10" x1="202.84" y1="118.02" x2="202.84" y2="141.69"/><line class="cls-10" x1="198.15" y1="118.02" x2="198.15" y2="141.69"/><line class="cls-10" x1="193.45" y1="118.02" x2="193.45" y2="141.69"/><line class="cls-10" x1="183.99" y1="118.02" x2="183.99" y2="141.69"/><line class="cls-10" x1="179.3" y1="118.02" x2="179.3" y2="141.69"/><line class="cls-10" x1="174.6" y1="118.02" x2="174.6" y2="141.69"/><line class="cls-10" x1="169.84" y1="118.02" x2="169.84" y2="141.69"/><line class="cls-10" x1="160.45" y1="118.02" x2="160.45" y2="141.69"/><line class="cls-10" x1="155.69" y1="118.02" x2="155.69" y2="141.69"/><line class="cls-10" x1="150.99" y1="118.02" x2="150.99" y2="141.69"/><line class="cls-10" x1="146.3" y1="118.02" x2="146.3" y2="141.69"/><line class="cls-10" x1="136.84" y1="118.02" x2="136.84" y2="141.69"/><line class="cls-10" x1="132.14" y1="118.02" x2="132.14" y2="141.69"/><line class="cls-10" x1="127.45" y1="118.02" x2="127.45" y2="141.69"/><line class="cls-10" x1="122.75" y1="118.02" x2="122.75" y2="141.69"/><line class="cls-10" x1="113.29" y1="118.02" x2="113.29" y2="141.69"/><line class="cls-10" x1="108.6" y1="118.02" x2="108.6" y2="141.69"/><line class="cls-10" x1="103.9" y1="118.02" x2="103.9" y2="141.69"/><line class="cls-10" x1="99.14" y1="118.02" x2="99.14" y2="141.69"/><line class="cls-10" x1="89.75" y1="118.02" x2="89.75" y2="141.69"/><line class="cls-10" x1="84.98" y1="118.02" x2="84.98" y2="141.69"/><line class="cls-10" x1="80.29" y1="118.02" x2="80.29" y2="141.69"/><line class="cls-10" x1="75.59" y1="118.02" x2="75.59" y2="141.69"/><line class="cls-10" x1="66.14" y1="118.02" x2="66.14" y2="141.69"/><line class="cls-10" x1="61.44" y1="118.02" x2="61.44" y2="141.69"/><line class="cls-10" x1="56.75" y1="118.02" x2="56.75" y2="141.69"/><line class="cls-10" x1="52.05" y1="118.02" x2="52.05" y2="141.69"/><line class="cls-10" x1="42.59" y1="118.02" x2="42.59" y2="141.69"/><line class="cls-10" x1="37.9" y1="118.02" x2="37.9" y2="141.69"/><line class="cls-10" x1="33.2" y1="118.02" x2="33.2" y2="141.69"/><line class="cls-10" x1="28.44" y1="118.02" x2="28.44" y2="141.69"/><text class="cls-11" transform="translate(156.13 197.7)"><tspan class="cls-12">1</tspan><tspan x="3.09" y="0">1.3</tspan><tspan class="cls-13" x="12" y="0">A</tspan></text><text class="cls-11" transform="translate(21.5 183.6)">0</text><text class="cls-11" transform="translate(139.76 183.6)">5</text><text class="cls-11" transform="translate(255.42 183.6)">10</text><text class="cls-11" transform="translate(338.97 74.49) rotate(90) scale(0.79 1)">1.1<tspan class="cls-14" x="8.91" y="0">A</tspan></text></g></g></svg>