<svg xmlns="http://www.w3.org/2000/svg" viewBox="0 0 526.45 105.16"><defs><style>.cls-1{fill:#10386b;}.cls-2{fill:#595757;}</style></defs><title>hitrobot_hrg_zhongdao_blue</title><g id="图层_2" data-name="图层 2"><g id="图层_1-2" data-name="图层 1"><path class="cls-1" d="M218.62,4.57h9.26V29.41h-2.52V27h-4.23v3h-2.51Zm6.74,20V7h-4.23V24.56ZM242,.49l-.6.94q4.13,7.62,10.2,10.66c-.68.82-1.32,1.63-1.92,2.45A30.86,30.86,0,0,1,240,3.77a33.23,33.23,0,0,1-9.88,10.93,26.47,26.47,0,0,0-1.82-2.2,28.57,28.57,0,0,0,10.48-12ZM231.44,20.36H248V34.82h-2.65V32.73H234.09v2.09h-2.65Zm1.36-7h14.11v2.44H232.8Zm12.51,16.94V22.81H234.09v7.47Z"/><path class="cls-1" d="M256.67,29.41H272V6.11h-13.3V3.32h29.76V6.11H275v23.3h15.33v2.72h-33.7Z"/><path class="cls-1" d="M295.49,31.85Q309.9,25.44,311,12.61H296.12V9.88h15q.08-4.7.09-9.47h3q0,4.7-.09,9.47h15.49v2.73H314.14q2.48,14,16.28,18.4a29.33,29.33,0,0,0-2.65,2.83A24.22,24.22,0,0,1,312.9,17.55q-2.72,10.59-15.25,17C297.19,33.92,296.47,33,295.49,31.85Z"/><path class="cls-1" d="M334.8,22.11a39.38,39.38,0,0,0,5.57-12.57h-5.23V7.16h5.45V.28h2.52V7.16H348V9.53h-4.89v5.8l1.4-1.39q2.68,2.44,4.23,4l-1.89,1.92c-1.43-1.58-2.68-2.9-3.74-3.95V34.33H340.6V15.61A31.34,31.34,0,0,1,336,25.18Q335.4,23.61,334.8,22.11ZM353.21,5.17V16.73q0,12.51-6.25,18.13c-.65-.79-1.34-1.59-2.06-2.37q5.52-4.86,5.52-15.13V2.51h13V28.78q0,1.75,1.22,1.75h.8c.74,0,1.22-.65,1.43-2,.24-1.79.39-3.73.49-5.8A27.34,27.34,0,0,0,370,23.89q-.31,3.46-.63,5.66-.56,3.7-3.56,3.7H364c-2.23,0-3.36-1.33-3.36-4V5.17Z"/><path class="cls-1" d="M375.37,14.91h14.11a10.48,10.48,0,0,0,.7-3l2.51.35a15.8,15.8,0,0,1-.62,2.69h7.62q-1.39-1-3-2l1.43-1.57c1.53.91,2.92,1.82,4.15,2.72l-.78.84h6.51v2.3H394.58q4,4,14.32,3.74-.83,1.43-1.43,2.69c-.62,0-1.21-.09-1.79-.15V34.16h-2.45V32.24h-7.47v1.89h-2.45V23.33h11.13q-10-1.35-12.77-6.12h-.63q-2,4.16-12.68,6.12h11.18v10.8H387.1V32.24h-7.37v1.92h-2.44V23.54l-1.92.35q-.53-1-1.36-2.48,11.66-1.5,14-4.19H375.37ZM377.25,2.2h12.26V12.37h-2.45V11.28h-7.37v1.43h-2.44Zm9.81,2.17h-7.37V9.12h7.37Zm0,21.14h-7.37v4.58h7.37Zm6.18-23.3h12.37V12.5h-2.45V11.28h-7.48v1.08h-2.44Zm9.92,2.17h-7.48V9.12h7.48Zm0,21.14h-7.47v4.58h7.47Z"/><path class="cls-1" d="M413.59,31.65q15.23-8.8,16.1-30.88h3.07A64.77,64.77,0,0,1,432,7.89q4.34,17.46,16.28,23-1.47,1.61-2.59,3Q435.35,28,430.93,13.15q-3.82,14.38-15.14,21.15A28.78,28.78,0,0,0,413.59,31.65Z"/><path class="cls-1" d="M454,23.58H469V21.2h2.44v2.38h15v2.23h-12.3a35.61,35.61,0,0,0,13.59,5.84q-.94,1.47-1.64,2.58a38.15,38.15,0,0,1-14.67-7.8v8.19H469V26.39a42.39,42.39,0,0,1-14.68,7.91q-.73-1.08-1.64-2.2a36.92,36.92,0,0,0,13.48-6.29H454ZM469.46,1.25,471.52,0a23,23,0,0,1,2.69,3.56l-1.61,1H486V6.74H472.74V9.22h11.7v2h-11.7v2.48h11.7v2h-11.7V18.3h13.34v2.16H460.63V21.8h-2.45V9.36a40.24,40.24,0,0,1-3.67,3.78,14.37,14.37,0,0,0-1.68-2.31A37.25,37.25,0,0,0,461.39.42L463.8,1.5c-.65,1.08-1.31,2.1-2,3.07h9.88A37.56,37.56,0,0,0,469.46,1.25Zm-8.84,8h9.68V6.74h-9.68Zm0,4.5h9.68V11.24h-9.68Zm0,4.58h9.68V15.75h-9.68Z"/><path class="cls-1" d="M494.35,2h30.56V34.62h-2.65V32.9H497v1.75h-2.65Zm27.91,2.44H497v26h25.25Zm-23.54,6.18h13.07v-5h2.58v5h6.71V13h-6.71V23.68q0,5.07-4.82,5.07-2,0-4.06-.07c-.14-.81-.32-1.73-.56-2.76a34.84,34.84,0,0,0,4,.28c1.91,0,2.87-1.08,2.87-3.25V14.77a38.45,38.45,0,0,1-12.54,11.67,12.56,12.56,0,0,0-1.78-2.34A36.13,36.13,0,0,0,510.1,13H498.71Z"/><path class="cls-1" d="M230.52,50h1.82V66.56h-1.82V58.88h-9.25v7.68h-1.89V50h1.89v7.18h9.25Z"/><path class="cls-1" d="M243.07,50h1.82V66.56h-1.82Z"/><path class="cls-1" d="M267.42,50v1.57h-5.61V66.56h-1.9V51.61h-5.62V50Z"/><path class="cls-1" d="M303.58,66.56H301l-5.7-7.43h-4.38v7.43H289V50h7.68q5.28.25,5.62,4.46,0,4.29-5,4.62ZM290.94,51.69v5.78h5.37c2.69-.05,4-1.07,4-3.05q-.09-2.64-4-2.72Z"/><path class="cls-1" d="M319.59,66.81q-7.53-.42-7.85-8.18.33-8.42,8.09-8.83,7.35.49,7.85,8.67Q327.34,66.48,319.59,66.81Zm.08-15.36q-5.45.49-6,7,.33,6.35,5.86,6.86,5.78-.33,6.11-6.86Q325.12,51.94,319.67,51.45Z"/><path class="cls-1" d="M343.94,66.56h-6.85V50h6.44q5,.25,5.28,4.13a3.69,3.69,0,0,1-3.3,3.63v.08a4.2,4.2,0,0,1,4,4.21Q349.23,66.39,343.94,66.56Zm-.82-14.86h-4.29v5.53h4.29q3.39-.16,3.72-3Q346.66,51.78,343.12,51.69Zm.25,7.19h-4.54v6.19h4.87q3.88,0,3.88-3.22Q347.33,59,343.36,58.88Z"/><path class="cls-1" d="M366.48,66.81q-7.52-.42-7.84-8.18.32-8.42,8.09-8.83,7.34.49,7.84,8.67Q374.24,66.48,366.48,66.81Zm.08-15.36q-5.45.49-6,7,.33,6.35,5.86,6.86,5.77-.33,6.1-6.86Q372,51.94,366.56,51.45Z"/><path class="cls-1" d="M395.94,50v1.57h-5.61V66.56h-1.9V51.61h-5.62V50Z"/><path class="cls-1" d="M425.16,58.05h7.1v6q-2.07,2.73-7.1,2.73-7.76-.42-8.17-8.26.33-8.42,7.85-8.75,5.53.08,7.35,4.87l-2.07.5a5.32,5.32,0,0,0-5.37-3.71q-5.28.49-5.78,7,.41,6.35,6.11,6.86,3.71,0,5.36-2V59.62h-5.28Z"/><path class="cls-1" d="M456.7,66.56h-2.56l-5.7-7.43h-4.38v7.43h-1.9V50h7.68q5.28.25,5.62,4.46,0,4.29-5,4.62ZM444.07,51.69v5.78h5.37q4-.08,4-3.05-.08-2.64-4-2.72Z"/><path class="cls-1" d="M472.71,66.81q-7.52-.42-7.85-8.18.33-8.42,8.09-8.83,7.35.49,7.85,8.67Q480.47,66.48,472.71,66.81Zm.08-15.36q-5.45.49-6,7,.33,6.35,5.86,6.86,5.78-.33,6.11-6.86Q478.25,51.94,472.79,51.45Z"/><path class="cls-1" d="M503.34,50V59.7q.08,7.18-6.6,7.1-6.52.08-6.44-7.1V50h1.9v9.58q-.08,5.87,4.54,5.7,5,.16,4.79-5.7V50Z"/><path class="cls-1" d="M520.76,59.87h-5.12v6.69h-1.82V50h7.1q5,.25,5.53,4.87Q526.37,59.79,520.76,59.87Zm-.33-8.18h-4.79v6.52h4.79c2.63-.05,4-1.18,4-3.38Q524.31,51.77,520.43,51.69Z"/><rect class="cls-1" x="217.24" y="41.63" width="309.13" height="0.69"/><polygon class="cls-1" points="185.29 39.5 155.04 39.5 151.54 46.34 169.69 46.34 176.18 59.46 135.88 59.46 155.98 19.02 161.2 29.46 180.25 29.46 165.63 0.32 144.71 0.32 112.84 64.17 99.21 37.01 121.14 37.01 139.4 0.32 74.31 0.32 59.34 30.14 38.77 30.14 53.71 0.32 33.27 0.32 0 66.56 20.52 66.56 35.32 37.01 55.92 37.01 41.08 66.56 61.58 66.56 91.33 7.2 116.79 7.2 104.83 30.14 85.02 30.14 80.59 39.01 94.25 66.56 198.7 66.56 185.29 39.5"/><path class="cls-2" d="M.55,86.2H9.93V80.88H12V86.2h9.48V97.31h-2V96H12v9.07H9.93V96H2.55v1.32h-2Zm2,8H9.93V88H2.55Zm17-6.19H12v6.19h7.48Z"/><path class="cls-2" d="M49.29,95.95h17V94.17h2v1.78h5.27v1.73H68.28v4q0,2.9-3.17,2.9l-3.9,0q-.12-.9-.37-2.1,2.24.17,3.71.17,1.75,0,1.76-1.51V97.68h-17Zm6.46-4.19H68.52q2,0,2.27-1.24a21.49,21.49,0,0,0,.54-2.71q.8.37,1.93.76-.37,1.66-.68,2.71-.63,2.19-3.58,2.2H55.36q-3.24,0-3.24-3.14V82.13h17.5v7.41H67.74v-.83H54v1.41Q54,91.75,55.75,91.75ZM53.87,99l1.2-1.27q2.71,2.12,4,3.34l-1.41,1.44Q55.46,100.38,53.87,99ZM54,83.81V87H67.74V83.81Z"/><path class="cls-2" d="M99.67,96.22a27.37,27.37,0,0,0,3.89-8.78H99.91V85.78h3.8V81h1.76v4.8h3.41v1.66h-3.41v4l1-1q1.88,1.71,2.95,2.78l-1.32,1.34q-1.5-1.66-2.61-2.75v12.87h-1.76V91.68a21.86,21.86,0,0,1-3.24,6.68Q100.08,97.26,99.67,96.22Zm12.85-11.82v8.07q0,8.73-4.36,12.65-.68-.83-1.44-1.66,3.85-3.39,3.85-10.56V82.54h9.07v18.33q0,1.22.85,1.22H121q.78,0,1-1.37.24-1.88.34-4a19.54,19.54,0,0,0,1.85.78q-.22,2.41-.44,3.95-.39,2.58-2.49,2.58H120q-2.34,0-2.34-2.78V84.39Z"/><path class="cls-2" d="M150.94,91.19h9.85a7.26,7.26,0,0,0,.49-2.12l1.75.24a11.14,11.14,0,0,1-.43,1.88h5.31q-1-.71-2.06-1.39l1-1.1a34.63,34.63,0,0,1,2.9,1.9l-.55.59h4.55V92.8h-9.41q2.82,2.75,10,2.61-.58,1-1,1.88l-1.24-.11v7.45H170.4v-1.34h-5.22v1.32h-1.71V97.07h7.76q-7-.94-8.91-4.27h-.44q-1.37,2.9-8.85,4.27h7.8v7.53h-1.71v-1.32H154v1.34h-1.71V97.22l-1.34.24q-.36-.73-1-1.73,8.14-1,9.78-2.93h-8.83Zm1.32-8.87h8.56v7.09h-1.71v-.76H154v1h-1.71Zm6.85,1.51H154v3.31h5.14Zm0,14.75H154v3.19h5.14Zm4.31-16.26h8.63v7.19h-1.71v-.85h-5.22v.76h-1.71Zm6.92,1.51h-5.22v3.31h5.22Zm0,14.75h-5.22v3.19h5.22Z"/><path class="cls-2" d="M200.59,102.87q10.63-6.14,11.24-21.55H214a46.56,46.56,0,0,1-.51,5q3,12.19,11.36,16-1,1.12-1.8,2.12-7.24-4.1-10.32-14.49-2.67,10-10.57,14.76A21.24,21.24,0,0,0,200.59,102.87Z"/><path class="cls-2" d="M250.92,98.29A27.24,27.24,0,0,0,255.11,90h-3.85V88.25h4V84.66l-3.54.34a12.38,12.38,0,0,0-.49-1.8q4.73-.34,9.39-1.07l.63,1.8q-2.19.29-4.17.51v3.8H261V90h-3.88v2.75l1.07-1q1.76,1.51,3.24,2.95L260,96.09q-1.56-1.75-3-3V105h-1.83V94a25.76,25.76,0,0,1-3.41,6.36Q251.43,99.36,250.92,98.29Zm8.8-1.29,9.56-.85V81.08h1.88V96l3.85-.37.15,1.76-4,.37V105h-1.88V97.9l-9.36.85Zm1.46-6.27,1.17-1.24q2.78,2.17,4.19,3.46l-1.27,1.49Q264.13,93.24,261.18,90.73Zm1.44-5.85,1.12-1.22q2.71,2.07,4.39,3.63l-1.27,1.44A53.46,53.46,0,0,0,262.62,84.88Z"/><path class="cls-2" d="M301.34,93.85l3.56-1V87.56h-3.24V85.88h3.24V81.15h1.88v4.73h2.85v1.68h-2.85v4.67l2.73-.89c0,.78,0,1.41,0,1.9l-2.78.89V102q0,2.58-2.44,2.61-1,0-2.34,0-.15-1-.32-2.07,1.44.15,2.17.15,1,0,1-1.1V94.75l-3.31,1.12Zm9-1.8V90.44h6.26V86.71h-6.36V84.93h6.36V81h2v3.92h6.63v1.78H318.6v3.73h5.19V91.9a19.75,19.75,0,0,1-4.89,7.9,19.19,19.19,0,0,0,6.79,3.29q-.93,1.07-1.56,1.88a25.1,25.1,0,0,1-6.72-3.91,31.75,31.75,0,0,1-7.5,4.11,20.63,20.63,0,0,0-1.29-1.73,26.46,26.46,0,0,0,7.44-3.66A18.77,18.77,0,0,1,312,92Zm11.29,0h-7.79a15.18,15.18,0,0,0,3.66,6.51A15.62,15.62,0,0,0,321.67,92Z"/><path class="cls-2" d="M358.71,104.87h-1.93V92.25a41.82,41.82,0,0,1-3.9,4q-.51-.85-1.17-1.78a30.91,30.91,0,0,0,7.35-8.73H352.4v-1.8H360a26.54,26.54,0,0,0,1.19-3.12l2,.46q-.49,1.35-1.07,2.66H375.9v1.8H361.25a32.47,32.47,0,0,1-1.66,2.8h13.36v13q0,3-2.95,3-1.29,0-3.93,0-.12-.83-.37-2,2.24.17,3.61.17a1.48,1.48,0,0,0,1.68-1.66V99.36H358.71ZM371,90.22H358.71v2.9H371ZM358.71,97.7H371V94.78H358.71Z"/><path class="cls-2" d="M410.77,95.44q.71,4.66-2.31,5.22a7.66,7.66,0,0,1-2.46,0,17.33,17.33,0,0,0-.54-2,6.25,6.25,0,0,0,2.24.2q1.66-.32,1.12-3.49A10.52,10.52,0,0,0,406.6,91q.88-2.66,2.29-7.09h-3.61v21.28h-1.83v-23h7.39v1.71q-1.2,3.44-2.29,6.78A10.71,10.71,0,0,1,410.77,95.44Zm1.56-13.19h11.55V94.39h-1.8v-.66H418A14.3,14.3,0,0,0,420,97.68a43.22,43.22,0,0,0,4.63-3.44L426,95.78q-2.68,1.88-4.78,3.22a15.53,15.53,0,0,0,5.34,3.44,14,14,0,0,0-1.56,1.78,16.6,16.6,0,0,1-8.73-10.48h-2.1V102q1.63-.73,4.27-2.14a19.26,19.26,0,0,0,.12,1.93q-2.17,1-4.22,2.27a7.7,7.7,0,0,0-1.32,1l-1.39-1.83a2,2,0,0,0,.73-1.61Zm9.75,1.66h-7.95v3.24h7.95Zm0,8.17V88.78h-7.95v3.29Z"/><path class="cls-2" d="M452.62,92.46A28.25,28.25,0,0,0,460.73,82l1.93.8A33.1,33.1,0,0,1,454.17,94,10,10,0,0,0,452.62,92.46Zm15.87,3q3.51,4.56,5.92,8.29L472.55,105q-.68-1.12-1.45-2.33-8,.39-13.08.79a17.75,17.75,0,0,0-2.24.41l-1.07-2.07a6.2,6.2,0,0,0,2-1.34,51.34,51.34,0,0,0,6.19-9.73l2.1,1a94.26,94.26,0,0,1-6.46,9.7q5-.16,11.4-.45-1.39-2.11-3.06-4.45Zm-2.1-13.12,1.8-.71A19.26,19.26,0,0,0,477,91.75a16,16,0,0,0-1.51,1.9A23.07,23.07,0,0,1,466.39,82.37Z"/><path class="cls-2" d="M503.45,87H522v1.8H503.45Zm1.39-3v-1.8h21.06v19q0,3.46-3.12,3.46l-4.8,0a12.81,12.81,0,0,0-.41-2.1q3,.17,4.66.17t1.68-2V84Zm1,7.65h12.8v8.63H507.79v1.78h-1.93Zm10.87,6.87V93.44h-8.95v5.12Z"/></g></g></svg>