<svg xmlns="http://www.w3.org/2000/svg" viewBox="0 0 483.62 255.4"><defs><style>.cls-1,.cls-3,.cls-7,.cls-9{fill:none;}.cls-1,.cls-3{stroke:#595757;}.cls-1,.cls-3,.cls-9{stroke-width:0.5px;}.cls-1{stroke-dasharray:2 2;}.cls-2{fill:#10386b;}.cls-4{fill:#fff;}.cls-5{font-size:8px;fill:#595757;}.cls-5,.cls-6{font-family:MicrosoftYaHei, Microsoft YaHei;}.cls-6{font-size:6px;}.cls-6,.cls-8{fill:#231815;}.cls-7{stroke:#231815;stroke-width:0.46px;}.cls-9{stroke:#e60012;}</style></defs><title>hitrobot_logo_standard_blue</title><g id="图层_2" data-name="图层 2"><g id="图层_1-2" data-name="图层 1"><line class="cls-1" x1="159.86" x2="159.86" y2="152.32"/><line class="cls-1" x1="127.75" x2="127.75" y2="152.32"/><line class="cls-1" x1="127.67" y1="0.29" x2="452.58" y2="0.29"/><line class="cls-1" x1="420.07" y1="0.42" x2="420.07" y2="152.39"/><line class="cls-1" x1="452.34" y1="0.43" x2="452.34" y2="152.32"/><polygon class="cls-2" points="402.28 83.9 362.61 83.9 358.01 92.87 381.83 92.87 390.34 110.08 337.48 110.08 363.84 57.05 370.69 70.73 395.68 70.73 376.5 32.51 349.06 32.51 307.26 116.25 289.39 80.64 318.14 80.64 342.1 32.51 256.73 32.51 237.09 71.62 210.11 71.62 229.7 32.51 202.9 32.51 159.26 119.39 186.18 119.39 205.59 80.64 232.6 80.64 213.14 119.39 240.03 119.39 279.05 41.54 312.44 41.54 296.76 71.62 270.78 71.62 264.97 83.26 282.88 119.39 419.87 119.39 402.28 83.9"/><polygon class="cls-2" points="207.92 248.74 201.45 248.74 200.7 250.2 204.59 250.2 205.97 253.01 197.35 253.01 201.65 244.35 202.77 246.59 206.84 246.59 203.72 240.35 199.24 240.35 192.42 254.01 189.5 248.2 194.19 248.2 198.1 240.35 184.18 240.35 180.97 246.73 176.57 246.73 179.77 240.35 175.39 240.35 168.27 254.53 172.66 254.53 175.83 248.2 180.24 248.2 177.06 254.53 181.45 254.53 187.82 241.82 193.26 241.82 190.71 246.73 186.47 246.73 185.52 248.63 188.44 254.53 210.79 254.53 207.92 248.74"/><polyline class="cls-3" points="164.75 240.49 151.6 240.49 151.6 255.15 164.6 255.15"/><line class="cls-4" x1="127.67" y1="32.35" x2="452.2" y2="32.35"/><line class="cls-1" x1="127.67" y1="32.35" x2="452.2" y2="32.35"/><line class="cls-4" x1="128.22" y1="119.93" x2="452.84" y2="119.93"/><line class="cls-1" x1="128.22" y1="119.93" x2="452.84" y2="119.93"/><line class="cls-4" x1="452.63" y1="151.75" x2="128.09" y2="151.75"/><line class="cls-1" x1="452.63" y1="151.75" x2="128.09" y2="151.75"/><text class="cls-5" transform="translate(131.45 206.22) scale(0.95 1)">最小使用规范为：5mm</text><text class="cls-5" transform="translate(478.27 59.03) scale(0.95 1)">A</text><text class="cls-5" transform="translate(434 18.41) scale(0.95 1)">A</text><text class="cls-5" transform="translate(140.51 18.41) scale(0.95 1)">A</text><text class="cls-5" transform="translate(434 137.99) scale(0.95 1)">A</text><text class="cls-5" transform="translate(140.51 137.99) scale(0.95 1)">A</text><text class="cls-5" transform="translate(126.6 249.36) scale(0.95 1)">5mm</text><text class="cls-6" transform="translate(0.29 25.34)">最小安全空间的规定</text><polyline class="cls-7" points="0 30.85 94.83 30.85 137.92 78.99"/><circle class="cls-8" cx="137.92" cy="78.99" r="2.6"/><line class="cls-9" x1="270.78" y1="71.62" x2="477.7" y2="71.62"/><line class="cls-9" x1="270.78" y1="41.85" x2="477.7" y2="41.85"/><line class="cls-9" x1="468.32" y1="41.87" x2="468.32" y2="71.3"/></g></g></svg>