<svg xmlns="http://www.w3.org/2000/svg" viewBox="0 0 212.02 385.13"><defs><style>.cls-1{fill:#9fa0a0;}.cls-2{font-size:7.52px;fill:#10386b;font-family:FZHTJW--GB1-0, FZHTJW -GB1-0-GBpc-EUC-H;}.cls-11,.cls-3,.cls-5{fill:#231815;}.cls-3{font-size:8.12px;}.cls-4{fill:#d3d3d4;}.cls-6,.cls-7,.cls-8,.cls-9{fill:none;stroke:#231815;}.cls-6{stroke-width:0.44px;}.cls-7,.cls-9{stroke-miterlimit:3.86;}.cls-7{stroke-width:0.31px;}.cls-8{stroke-width:0.19px;}.cls-9{stroke-width:0.42px;}.cls-10{fill:#fff;}.cls-11{font-size:6.41px;font-family:ArialMT, Arial;}.cls-12{letter-spacing:-0.06em;}.cls-13{letter-spacing:-0.06em;}</style></defs><title>hitrobot_hrg_English_logo_ash</title><g id="图层_2" data-name="图层 2"><g id="图层_1-2" data-name="图层 1"><path class="cls-1" d="M99.14,82.54v1.53H85.22V82.54h6.47V74.75H85.22v-1.6H99.14v1.6H93.09v7.79Z"/><path class="cls-1" d="M99.14,93.11v1.53H85.22V93.11Z"/><path class="cls-1" d="M99.14,113.64H97.82V108.9H85.22v-1.6h12.6v-4.73h1.32Z"/><path class="cls-1" d="M85.22,144.11v-2.16l6.26-4.8v-3.69H85.22v-1.6H99.14v6.47q-.21,4.45-3.76,4.73-3.62,0-3.9-4.18Zm12.53-10.65H92.88V138q.07,3.41,2.57,3.41,2.23-.07,2.3-3.41Z"/><path class="cls-1" d="M85,157.6q.35-6.33,6.89-6.61,7.1.28,7.45,6.82Q98.93,164,92,164.42,85.29,164.14,85,157.6Zm12.94.07q-.42-4.59-5.92-5.08-5.36.28-5.78,4.94.28,4.87,5.78,5.15Q97.54,162.26,98,157.67Z"/><path class="cls-1" d="M85.22,178.13v-5.78H99.14v5.43q-.21,4.18-3.48,4.46a3.11,3.11,0,0,1-3.06-2.79h-.07A3.54,3.54,0,0,1,89,182.79Q85.36,182.58,85.22,178.13Zm12.53-.7v-3.62H93.09v3.62q.14,2.85,2.5,3.13Q97.68,180.42,97.75,177.43Zm-6.05.21v-3.83H86.48v4.11q0,3.27,2.71,3.27Q91.55,181,91.69,177.64Z"/><path class="cls-1" d="M85,197.12q.35-6.33,6.89-6.61,7.1.28,7.45,6.82-.42,6.19-7.31,6.61Q85.29,203.65,85,197.12Zm12.94.07q-.42-4.59-5.92-5.08-5.36.28-5.78,4.94.28,4.87,5.78,5.15Q97.54,201.78,98,197.19Z"/><path class="cls-1" d="M99.14,222H97.82v-4.73H85.22v-1.6h12.6v-4.73h1.32Z"/><path class="cls-1" d="M92.39,246.58v6H87.31q-2.3-1.74-2.3-6,.35-6.54,7-6.89,7.1.28,7.38,6.61-.07,4.66-4.11,6.2l-.42-1.74A4.49,4.49,0,0,0,98,246.23q-.42-4.46-5.92-4.87-5.36.35-5.78,5.15,0,3.13,1.67,4.52h3.13v-4.46Z"/><path class="cls-1" d="M85.22,273.16V271l6.26-4.8v-3.69H85.22v-1.6H99.14v6.47q-.21,4.45-3.76,4.73-3.62,0-3.9-4.17Zm12.53-10.65H92.88V267q.07,3.41,2.57,3.41,2.23-.07,2.3-3.41Z"/><path class="cls-1" d="M85,286.65q.35-6.33,6.89-6.61,7.1.28,7.45,6.82Q98.93,293,92,293.47,85.29,293.19,85,286.65Zm12.94.07q-.42-4.59-5.92-5.08-5.36.28-5.78,4.94.28,4.87,5.78,5.15Q97.54,291.31,98,286.72Z"/><path class="cls-1" d="M99.14,312.46H91q-6.05.07-6-5.57t6-5.43h8.14v1.6H91.07q-4.94-.07-4.8,3.83-.14,4.18,4.8,4h8.07Z"/><path class="cls-1" d="M90.86,327.14v-4.32H85.22v-1.53H99.14v6q-.21,4.24-4.11,4.66Q90.93,331.87,90.86,327.14Zm6.89-.28v-4h-5.5v4q.07,3.34,2.85,3.41Q97.68,330.13,97.75,326.86Z"/><text class="cls-2" transform="translate(71.63 382.83) scale(0.95 1)">■<tspan class="cls-3" x="7.52" y="0" xml:space="preserve"> 标准字体制图</tspan></text><rect class="cls-4" x="14.72" y="35.34" width="23.04" height="23.3"/><path class="cls-5" d="M23.56,47.12l-.89,2.49H21.49L24.73,41H26l3.1,8.6H27.88L27,47.12Zm3.05-1-1.27-3.81h0l-1.36,3.81Z"/><rect class="cls-6" x="14.38" y="35.21" width="164.97" height="329.84"/><line class="cls-7" x1="37.94" y1="35.21" x2="37.94" y2="365.05"/><line class="cls-7" x1="61.62" y1="35.21" x2="61.62" y2="365.05"/><line class="cls-7" x1="85.13" y1="35.21" x2="85.13" y2="365.05"/><line class="cls-7" x1="108.64" y1="35.21" x2="108.64" y2="365.05"/><line class="cls-7" x1="132.16" y1="35.21" x2="132.16" y2="365.05"/><line class="cls-7" x1="155.83" y1="35.21" x2="155.83" y2="365.05"/><line class="cls-7" x1="179.35" y1="341.45" x2="14.22" y2="341.45"/><line class="cls-7" x1="179.35" y1="317.94" x2="14.22" y2="317.94"/><line class="cls-7" x1="179.35" y1="294.34" x2="14.22" y2="294.34"/><line class="cls-7" x1="179.35" y1="270.83" x2="14.22" y2="270.83"/><line class="cls-7" x1="179.35" y1="247.24" x2="14.22" y2="247.24"/><line class="cls-7" x1="179.35" y1="223.72" x2="14.22" y2="223.72"/><line class="cls-7" x1="179.35" y1="200.13" x2="14.22" y2="200.13"/><line class="cls-7" x1="179.35" y1="176.53" x2="14.22" y2="176.53"/><line class="cls-7" x1="179.35" y1="153.02" x2="14.22" y2="153.02"/><line class="cls-7" x1="179.35" y1="129.42" x2="14.22" y2="129.42"/><line class="cls-7" x1="179.35" y1="105.91" x2="14.22" y2="105.91"/><line class="cls-7" x1="179.35" y1="82.31" x2="14.22" y2="82.31"/><line class="cls-7" x1="179.35" y1="58.8" x2="14.22" y2="58.8"/><line class="cls-8" x1="136.91" y1="58.72" x2="136.91" y2="341.38"/><line class="cls-8" x1="141.63" y1="58.72" x2="141.63" y2="341.38"/><line class="cls-8" x1="146.37" y1="58.72" x2="146.37" y2="341.38"/><line class="cls-8" x1="151.09" y1="58.72" x2="151.09" y2="341.38"/><line class="cls-8" x1="155.83" y1="336.68" x2="132.17" y2="336.68"/><line class="cls-8" x1="155.83" y1="331.92" x2="132.17" y2="331.92"/><line class="cls-8" x1="155.83" y1="327.23" x2="132.17" y2="327.23"/><line class="cls-8" x1="155.83" y1="322.53" x2="132.17" y2="322.53"/><line class="cls-8" x1="155.83" y1="313.08" x2="132.17" y2="313.08"/><line class="cls-8" x1="155.83" y1="308.39" x2="132.17" y2="308.39"/><line class="cls-8" x1="155.83" y1="303.7" x2="132.17" y2="303.7"/><line class="cls-8" x1="155.83" y1="299" x2="132.17" y2="299"/><line class="cls-8" x1="155.83" y1="289.55" x2="132.17" y2="289.55"/><line class="cls-8" x1="155.83" y1="284.86" x2="132.17" y2="284.86"/><line class="cls-8" x1="155.83" y1="280.16" x2="132.17" y2="280.16"/><line class="cls-8" x1="155.83" y1="275.4" x2="132.17" y2="275.4"/><line class="cls-8" x1="155.83" y1="266.02" x2="132.17" y2="266.02"/><line class="cls-8" x1="155.83" y1="261.26" x2="132.17" y2="261.26"/><line class="cls-8" x1="155.83" y1="256.56" x2="132.17" y2="256.56"/><line class="cls-8" x1="155.83" y1="251.87" x2="132.17" y2="251.87"/><line class="cls-8" x1="155.83" y1="242.42" x2="132.17" y2="242.42"/><line class="cls-8" x1="155.83" y1="237.73" x2="132.17" y2="237.73"/><line class="cls-8" x1="155.83" y1="233.03" x2="132.17" y2="233.03"/><line class="cls-8" x1="155.83" y1="228.34" x2="132.17" y2="228.34"/><line class="cls-8" x1="155.83" y1="218.88" x2="132.17" y2="218.88"/><line class="cls-8" x1="155.83" y1="214.19" x2="132.17" y2="214.19"/><line class="cls-8" x1="155.83" y1="209.5" x2="132.17" y2="209.5"/><line class="cls-8" x1="155.83" y1="204.74" x2="132.17" y2="204.74"/><line class="cls-8" x1="155.83" y1="195.35" x2="132.17" y2="195.35"/><line class="cls-8" x1="155.83" y1="190.59" x2="132.17" y2="190.59"/><line class="cls-8" x1="155.83" y1="185.9" x2="132.17" y2="185.9"/><line class="cls-8" x1="155.83" y1="181.21" x2="132.17" y2="181.21"/><line class="cls-8" x1="155.83" y1="171.75" x2="132.17" y2="171.75"/><line class="cls-8" x1="155.83" y1="167.06" x2="132.17" y2="167.06"/><line class="cls-8" x1="155.83" y1="162.37" x2="132.17" y2="162.37"/><line class="cls-8" x1="155.83" y1="157.67" x2="132.17" y2="157.67"/><path class="cls-8" d="M132.17,152.91"/><path class="cls-8" d="M155.83,152.91"/><line class="cls-8" x1="155.83" y1="148.22" x2="132.17" y2="148.22"/><line class="cls-8" x1="155.83" y1="143.53" x2="132.17" y2="143.53"/><line class="cls-8" x1="155.83" y1="138.83" x2="132.17" y2="138.83"/><line class="cls-8" x1="155.83" y1="134.07" x2="132.17" y2="134.07"/><line class="cls-8" x1="155.83" y1="124.69" x2="132.17" y2="124.69"/><line class="cls-8" x1="155.83" y1="119.93" x2="132.17" y2="119.93"/><line class="cls-8" x1="155.83" y1="115.23" x2="132.17" y2="115.23"/><line class="cls-8" x1="155.83" y1="110.54" x2="132.17" y2="110.54"/><line class="cls-8" x1="155.83" y1="101.09" x2="132.17" y2="101.09"/><line class="cls-8" x1="155.83" y1="96.4" x2="132.17" y2="96.4"/><line class="cls-8" x1="155.83" y1="91.7" x2="132.17" y2="91.7"/><line class="cls-8" x1="155.83" y1="87.01" x2="132.17" y2="87.01"/><line class="cls-8" x1="155.83" y1="77.56" x2="132.17" y2="77.56"/><line class="cls-8" x1="155.83" y1="72.86" x2="132.17" y2="72.86"/><line class="cls-8" x1="155.83" y1="68.17" x2="132.17" y2="68.17"/><line class="cls-8" x1="155.83" y1="63.41" x2="132.17" y2="63.41"/><line class="cls-8" x1="113.29" y1="58.72" x2="113.29" y2="341.38"/><line class="cls-8" x1="118.01" y1="58.72" x2="118.01" y2="341.38"/><line class="cls-8" x1="122.75" y1="58.72" x2="122.75" y2="341.38"/><line class="cls-8" x1="127.47" y1="58.72" x2="127.47" y2="341.38"/><line class="cls-8" x1="132.21" y1="336.68" x2="108.55" y2="336.68"/><line class="cls-8" x1="132.21" y1="331.92" x2="108.55" y2="331.92"/><line class="cls-8" x1="132.21" y1="327.23" x2="108.55" y2="327.23"/><line class="cls-8" x1="132.21" y1="322.53" x2="108.55" y2="322.53"/><line class="cls-8" x1="132.21" y1="313.08" x2="108.55" y2="313.08"/><line class="cls-8" x1="132.21" y1="308.39" x2="108.55" y2="308.39"/><line class="cls-8" x1="132.21" y1="303.7" x2="108.55" y2="303.7"/><line class="cls-8" x1="132.21" y1="299" x2="108.55" y2="299"/><line class="cls-8" x1="132.21" y1="289.55" x2="108.55" y2="289.55"/><line class="cls-8" x1="132.21" y1="284.86" x2="108.55" y2="284.86"/><line class="cls-8" x1="132.21" y1="280.16" x2="108.55" y2="280.16"/><line class="cls-8" x1="132.21" y1="275.4" x2="108.55" y2="275.4"/><line class="cls-8" x1="132.21" y1="266.02" x2="108.55" y2="266.02"/><line class="cls-8" x1="132.21" y1="261.26" x2="108.55" y2="261.26"/><line class="cls-8" x1="132.21" y1="256.56" x2="108.55" y2="256.56"/><line class="cls-8" x1="132.21" y1="251.87" x2="108.55" y2="251.87"/><line class="cls-8" x1="132.21" y1="242.42" x2="108.55" y2="242.42"/><line class="cls-8" x1="132.21" y1="237.73" x2="108.55" y2="237.73"/><line class="cls-8" x1="132.21" y1="233.03" x2="108.55" y2="233.03"/><line class="cls-8" x1="132.21" y1="228.34" x2="108.55" y2="228.34"/><line class="cls-8" x1="132.21" y1="218.88" x2="108.55" y2="218.88"/><line class="cls-8" x1="132.21" y1="214.19" x2="108.55" y2="214.19"/><line class="cls-8" x1="132.21" y1="209.5" x2="108.55" y2="209.5"/><line class="cls-8" x1="132.21" y1="204.74" x2="108.55" y2="204.74"/><line class="cls-8" x1="132.21" y1="195.35" x2="108.55" y2="195.35"/><line class="cls-8" x1="132.21" y1="190.59" x2="108.55" y2="190.59"/><line class="cls-8" x1="132.21" y1="185.9" x2="108.55" y2="185.9"/><line class="cls-8" x1="132.21" y1="181.21" x2="108.55" y2="181.21"/><line class="cls-8" x1="132.21" y1="171.75" x2="108.55" y2="171.75"/><line class="cls-8" x1="132.21" y1="167.06" x2="108.55" y2="167.06"/><line class="cls-8" x1="132.21" y1="162.37" x2="108.55" y2="162.37"/><line class="cls-8" x1="132.21" y1="157.67" x2="108.55" y2="157.67"/><line class="cls-8" x1="132.21" y1="148.22" x2="108.55" y2="148.22"/><line class="cls-8" x1="132.21" y1="143.53" x2="108.55" y2="143.53"/><line class="cls-8" x1="132.21" y1="138.83" x2="108.55" y2="138.83"/><line class="cls-8" x1="132.21" y1="134.07" x2="108.55" y2="134.07"/><line class="cls-8" x1="132.21" y1="124.69" x2="108.55" y2="124.69"/><line class="cls-8" x1="132.21" y1="119.93" x2="108.55" y2="119.93"/><line class="cls-8" x1="132.21" y1="115.23" x2="108.55" y2="115.23"/><line class="cls-8" x1="132.21" y1="110.54" x2="108.55" y2="110.54"/><line class="cls-8" x1="132.21" y1="101.09" x2="108.55" y2="101.09"/><line class="cls-8" x1="132.21" y1="96.4" x2="108.55" y2="96.4"/><line class="cls-8" x1="132.21" y1="91.7" x2="108.55" y2="91.7"/><line class="cls-8" x1="132.21" y1="87.01" x2="108.55" y2="87.01"/><line class="cls-8" x1="132.21" y1="77.56" x2="108.55" y2="77.56"/><line class="cls-8" x1="132.21" y1="72.86" x2="108.55" y2="72.86"/><line class="cls-8" x1="132.21" y1="68.17" x2="108.55" y2="68.17"/><line class="cls-8" x1="132.21" y1="63.41" x2="108.55" y2="63.41"/><line class="cls-8" x1="89.77" y1="58.72" x2="89.77" y2="341.38"/><line class="cls-8" x1="94.5" y1="58.72" x2="94.5" y2="341.38"/><line class="cls-8" x1="99.24" y1="58.72" x2="99.24" y2="341.38"/><line class="cls-8" x1="103.96" y1="58.72" x2="103.96" y2="341.38"/><line class="cls-8" x1="108.7" y1="336.68" x2="85.04" y2="336.68"/><line class="cls-8" x1="108.7" y1="331.92" x2="85.04" y2="331.92"/><line class="cls-8" x1="108.7" y1="327.23" x2="85.04" y2="327.23"/><line class="cls-8" x1="108.7" y1="322.53" x2="85.04" y2="322.53"/><line class="cls-8" x1="108.7" y1="313.08" x2="85.04" y2="313.08"/><line class="cls-8" x1="108.7" y1="308.39" x2="85.04" y2="308.39"/><line class="cls-8" x1="108.7" y1="303.7" x2="85.04" y2="303.7"/><line class="cls-8" x1="108.7" y1="299" x2="85.04" y2="299"/><line class="cls-8" x1="108.7" y1="289.55" x2="85.04" y2="289.55"/><line class="cls-8" x1="108.7" y1="284.86" x2="85.04" y2="284.86"/><line class="cls-8" x1="108.7" y1="280.16" x2="85.04" y2="280.16"/><line class="cls-8" x1="108.7" y1="275.4" x2="85.04" y2="275.4"/><line class="cls-8" x1="108.7" y1="266.02" x2="85.04" y2="266.02"/><line class="cls-8" x1="108.7" y1="261.26" x2="85.04" y2="261.26"/><line class="cls-8" x1="108.7" y1="256.56" x2="85.04" y2="256.56"/><line class="cls-8" x1="108.7" y1="251.87" x2="85.04" y2="251.87"/><line class="cls-8" x1="108.7" y1="242.42" x2="85.04" y2="242.42"/><line class="cls-8" x1="108.7" y1="237.73" x2="85.04" y2="237.73"/><line class="cls-8" x1="108.7" y1="233.03" x2="85.04" y2="233.03"/><line class="cls-8" x1="108.7" y1="228.34" x2="85.04" y2="228.34"/><line class="cls-8" x1="108.7" y1="218.88" x2="85.04" y2="218.88"/><line class="cls-8" x1="108.7" y1="214.19" x2="85.04" y2="214.19"/><line class="cls-8" x1="108.7" y1="209.5" x2="85.04" y2="209.5"/><line class="cls-8" x1="108.7" y1="204.74" x2="85.04" y2="204.74"/><line class="cls-8" x1="108.7" y1="195.35" x2="85.04" y2="195.35"/><line class="cls-8" x1="108.7" y1="190.59" x2="85.04" y2="190.59"/><line class="cls-8" x1="108.7" y1="185.9" x2="85.04" y2="185.9"/><line class="cls-8" x1="108.7" y1="181.21" x2="85.04" y2="181.21"/><line class="cls-8" x1="108.7" y1="171.75" x2="85.04" y2="171.75"/><line class="cls-8" x1="108.7" y1="167.06" x2="85.04" y2="167.06"/><line class="cls-8" x1="108.7" y1="162.37" x2="85.04" y2="162.37"/><line class="cls-8" x1="108.7" y1="157.67" x2="85.04" y2="157.67"/><line class="cls-8" x1="108.7" y1="148.22" x2="85.04" y2="148.22"/><line class="cls-8" x1="108.7" y1="143.53" x2="85.04" y2="143.53"/><line class="cls-8" x1="108.7" y1="138.83" x2="85.04" y2="138.83"/><line class="cls-8" x1="108.7" y1="134.07" x2="85.04" y2="134.07"/><line class="cls-8" x1="108.7" y1="124.69" x2="85.04" y2="124.69"/><line class="cls-8" x1="108.7" y1="119.93" x2="85.04" y2="119.93"/><line class="cls-8" x1="108.7" y1="115.23" x2="85.04" y2="115.23"/><line class="cls-8" x1="108.7" y1="110.54" x2="85.04" y2="110.54"/><line class="cls-8" x1="108.7" y1="101.09" x2="85.04" y2="101.09"/><line class="cls-8" x1="108.7" y1="96.4" x2="85.04" y2="96.4"/><line class="cls-8" x1="108.7" y1="91.7" x2="85.04" y2="91.7"/><line class="cls-8" x1="108.7" y1="87.01" x2="85.04" y2="87.01"/><line class="cls-8" x1="108.7" y1="77.56" x2="85.04" y2="77.56"/><line class="cls-8" x1="108.7" y1="72.86" x2="85.04" y2="72.86"/><line class="cls-8" x1="108.7" y1="68.17" x2="85.04" y2="68.17"/><line class="cls-8" x1="108.7" y1="63.41" x2="85.04" y2="63.41"/><line class="cls-8" x1="66.26" y1="58.72" x2="66.26" y2="341.38"/><line class="cls-8" x1="70.98" y1="58.72" x2="70.98" y2="341.38"/><line class="cls-8" x1="75.72" y1="58.72" x2="75.72" y2="341.38"/><line class="cls-8" x1="80.44" y1="58.72" x2="80.44" y2="341.38"/><line class="cls-8" x1="85.18" y1="336.68" x2="61.52" y2="336.68"/><line class="cls-8" x1="85.18" y1="331.92" x2="61.52" y2="331.92"/><line class="cls-8" x1="85.18" y1="327.23" x2="61.52" y2="327.23"/><line class="cls-8" x1="85.18" y1="322.53" x2="61.52" y2="322.53"/><line class="cls-8" x1="85.18" y1="313.08" x2="61.52" y2="313.08"/><line class="cls-8" x1="85.18" y1="308.39" x2="61.52" y2="308.39"/><line class="cls-8" x1="85.18" y1="303.7" x2="61.52" y2="303.7"/><line class="cls-8" x1="85.18" y1="299" x2="61.52" y2="299"/><line class="cls-8" x1="85.18" y1="289.55" x2="61.52" y2="289.55"/><line class="cls-8" x1="85.18" y1="284.86" x2="61.52" y2="284.86"/><line class="cls-8" x1="85.18" y1="280.16" x2="61.52" y2="280.16"/><line class="cls-8" x1="85.18" y1="275.4" x2="61.52" y2="275.4"/><line class="cls-8" x1="85.18" y1="266.02" x2="61.52" y2="266.02"/><line class="cls-8" x1="85.18" y1="261.26" x2="61.52" y2="261.26"/><line class="cls-8" x1="85.18" y1="256.56" x2="61.52" y2="256.56"/><line class="cls-8" x1="85.18" y1="251.87" x2="61.52" y2="251.87"/><line class="cls-8" x1="85.18" y1="242.42" x2="61.52" y2="242.42"/><line class="cls-8" x1="85.18" y1="237.73" x2="61.52" y2="237.73"/><line class="cls-8" x1="85.18" y1="233.03" x2="61.52" y2="233.03"/><line class="cls-8" x1="85.18" y1="228.34" x2="61.52" y2="228.34"/><line class="cls-8" x1="85.18" y1="218.88" x2="61.52" y2="218.88"/><line class="cls-8" x1="85.18" y1="214.19" x2="61.52" y2="214.19"/><line class="cls-8" x1="85.18" y1="209.5" x2="61.52" y2="209.5"/><line class="cls-8" x1="85.18" y1="204.74" x2="61.52" y2="204.74"/><line class="cls-8" x1="85.18" y1="195.35" x2="61.52" y2="195.35"/><line class="cls-8" x1="85.18" y1="190.59" x2="61.52" y2="190.59"/><line class="cls-8" x1="85.18" y1="185.9" x2="61.52" y2="185.9"/><line class="cls-8" x1="85.18" y1="181.21" x2="61.52" y2="181.21"/><line class="cls-8" x1="85.18" y1="171.75" x2="61.52" y2="171.75"/><line class="cls-8" x1="85.18" y1="167.06" x2="61.52" y2="167.06"/><line class="cls-8" x1="85.18" y1="162.37" x2="61.52" y2="162.37"/><line class="cls-8" x1="85.18" y1="157.67" x2="61.52" y2="157.67"/><line class="cls-8" x1="85.18" y1="148.22" x2="61.52" y2="148.22"/><line class="cls-8" x1="85.18" y1="143.53" x2="61.52" y2="143.53"/><line class="cls-8" x1="85.18" y1="138.83" x2="61.52" y2="138.83"/><line class="cls-8" x1="85.18" y1="134.07" x2="61.52" y2="134.07"/><line class="cls-8" x1="85.18" y1="124.69" x2="61.52" y2="124.69"/><line class="cls-8" x1="85.18" y1="119.93" x2="61.52" y2="119.93"/><line class="cls-8" x1="85.18" y1="115.23" x2="61.52" y2="115.23"/><line class="cls-8" x1="85.18" y1="110.54" x2="61.52" y2="110.54"/><line class="cls-8" x1="85.18" y1="101.09" x2="61.52" y2="101.09"/><line class="cls-8" x1="85.18" y1="96.4" x2="61.52" y2="96.4"/><line class="cls-8" x1="85.18" y1="91.7" x2="61.52" y2="91.7"/><line class="cls-8" x1="85.18" y1="87.01" x2="61.52" y2="87.01"/><line class="cls-8" x1="85.18" y1="77.56" x2="61.52" y2="77.56"/><line class="cls-8" x1="85.18" y1="72.86" x2="61.52" y2="72.86"/><line class="cls-8" x1="85.18" y1="68.17" x2="61.52" y2="68.17"/><line class="cls-8" x1="85.18" y1="63.41" x2="61.52" y2="63.41"/><line class="cls-8" x1="42.69" y1="58.72" x2="42.69" y2="341.38"/><line class="cls-8" x1="47.41" y1="58.72" x2="47.41" y2="341.38"/><line class="cls-8" x1="52.15" y1="58.72" x2="52.15" y2="341.38"/><line class="cls-8" x1="56.87" y1="58.72" x2="56.87" y2="341.38"/><line class="cls-8" x1="61.61" y1="336.68" x2="37.95" y2="336.68"/><line class="cls-8" x1="61.61" y1="331.92" x2="37.95" y2="331.92"/><line class="cls-8" x1="61.61" y1="327.23" x2="37.95" y2="327.23"/><line class="cls-8" x1="61.61" y1="322.53" x2="37.95" y2="322.53"/><line class="cls-8" x1="61.61" y1="313.08" x2="37.95" y2="313.08"/><line class="cls-8" x1="61.61" y1="308.39" x2="37.95" y2="308.39"/><line class="cls-8" x1="61.61" y1="303.7" x2="37.95" y2="303.7"/><line class="cls-8" x1="61.61" y1="299" x2="37.95" y2="299"/><line class="cls-8" x1="61.61" y1="289.55" x2="37.95" y2="289.55"/><line class="cls-8" x1="61.61" y1="284.86" x2="37.95" y2="284.86"/><line class="cls-8" x1="61.61" y1="280.16" x2="37.95" y2="280.16"/><line class="cls-8" x1="61.61" y1="275.4" x2="37.95" y2="275.4"/><line class="cls-8" x1="61.61" y1="266.02" x2="37.95" y2="266.02"/><line class="cls-8" x1="61.61" y1="261.26" x2="37.95" y2="261.26"/><line class="cls-8" x1="61.61" y1="256.56" x2="37.95" y2="256.56"/><line class="cls-8" x1="61.61" y1="251.87" x2="37.95" y2="251.87"/><line class="cls-8" x1="61.61" y1="242.42" x2="37.95" y2="242.42"/><line class="cls-8" x1="61.61" y1="237.73" x2="37.95" y2="237.73"/><line class="cls-8" x1="61.61" y1="233.03" x2="37.95" y2="233.03"/><line class="cls-8" x1="61.61" y1="228.34" x2="37.95" y2="228.34"/><line class="cls-8" x1="61.61" y1="218.88" x2="37.95" y2="218.88"/><line class="cls-8" x1="61.61" y1="214.19" x2="37.95" y2="214.19"/><line class="cls-8" x1="61.61" y1="209.5" x2="37.95" y2="209.5"/><line class="cls-8" x1="61.61" y1="204.74" x2="37.95" y2="204.74"/><line class="cls-8" x1="61.61" y1="195.35" x2="37.95" y2="195.35"/><line class="cls-8" x1="61.61" y1="190.59" x2="37.95" y2="190.59"/><line class="cls-8" x1="61.61" y1="185.9" x2="37.95" y2="185.9"/><line class="cls-8" x1="61.61" y1="181.21" x2="37.95" y2="181.21"/><line class="cls-8" x1="61.61" y1="171.75" x2="37.95" y2="171.75"/><line class="cls-8" x1="61.61" y1="167.06" x2="37.95" y2="167.06"/><line class="cls-8" x1="61.61" y1="162.37" x2="37.95" y2="162.37"/><line class="cls-8" x1="61.61" y1="157.67" x2="37.95" y2="157.67"/><line class="cls-8" x1="61.61" y1="148.22" x2="37.95" y2="148.22"/><line class="cls-8" x1="61.61" y1="143.53" x2="37.95" y2="143.53"/><line class="cls-8" x1="61.61" y1="138.83" x2="37.95" y2="138.83"/><line class="cls-8" x1="61.61" y1="134.07" x2="37.95" y2="134.07"/><line class="cls-8" x1="61.61" y1="124.69" x2="37.95" y2="124.69"/><line class="cls-8" x1="61.61" y1="119.93" x2="37.95" y2="119.93"/><line class="cls-8" x1="61.61" y1="115.23" x2="37.95" y2="115.23"/><line class="cls-8" x1="61.61" y1="110.54" x2="37.95" y2="110.54"/><line class="cls-8" x1="61.61" y1="101.09" x2="37.95" y2="101.09"/><line class="cls-8" x1="61.61" y1="96.4" x2="37.95" y2="96.4"/><line class="cls-8" x1="61.61" y1="91.7" x2="37.95" y2="91.7"/><line class="cls-8" x1="61.61" y1="87.01" x2="37.95" y2="87.01"/><line class="cls-8" x1="61.61" y1="77.56" x2="37.95" y2="77.56"/><line class="cls-8" x1="61.61" y1="72.86" x2="37.95" y2="72.86"/><line class="cls-8" x1="61.61" y1="68.17" x2="37.95" y2="68.17"/><line class="cls-8" x1="61.61" y1="63.41" x2="37.95" y2="63.41"/><line class="cls-9" x1="99.14" y1="15.42" x2="85.17" y2="15.42"/><line class="cls-9" x1="99.14" y1="32.93" x2="99.14" y2="7.13"/><line class="cls-9" x1="85.18" y1="33.42" x2="85.18" y2="7.62"/><line class="cls-9" x1="203.63" y1="72.86" x2="203.63" y2="331.44"/><line class="cls-9" x1="212.02" y1="332.4" x2="180.99" y2="332.4"/><line class="cls-9" x1="212.02" y1="72.86" x2="180.99" y2="72.86"/><rect class="cls-10" x="194.32" y="184.45" width="17.29" height="28.17"/><text class="cls-11" transform="translate(202 190.65) rotate(90)">10.5<tspan class="cls-12" x="12.47" y="0">A</tspan></text><text class="cls-11" transform="translate(2.08 67.09) rotate(90)">0</text><text class="cls-11" transform="translate(2.08 185.29) rotate(90)">5</text><text class="cls-11" transform="translate(2.08 300.89) rotate(90)">10</text><text class="cls-11" transform="translate(85.04 5.5)">0.3<tspan class="cls-13" x="8.91" y="0">A</tspan></text></g></g></svg>