<svg xmlns="http://www.w3.org/2000/svg" viewBox="0 0 600.5 350.59"><defs><style>.cls-1,.cls-20{fill:#040000;}.cls-11,.cls-2,.cls-21{fill:none;stroke-linecap:round;stroke-linejoin:round;}.cls-2,.cls-21{stroke:#fff;}.cls-2{stroke-width:0.71px;}.cls-14,.cls-3,.cls-4{font-size:18.38px;}.cls-12,.cls-14,.cls-18,.cls-19,.cls-22,.cls-3,.cls-4,.cls-7,.cls-8,.cls-9{fill:#fff;}.cls-18,.cls-3,.cls-7{font-family:AdobeSongStd-Light-GBpc-EUC-H, Adobe Song Std;}.cls-4{font-family:ArialMT, Arial;}.cls-5{letter-spacing:-0.02em;}.cls-6{letter-spacing:-0.04em;}.cls-7,.cls-8,.cls-9{font-size:11.03px;}.cls-8{font-family:SimSun, SimSun;}.cls-14,.cls-19,.cls-9{font-family:Verdana, Verdana;}.cls-10{letter-spacing:-0.1em;}.cls-11{stroke:#040000;stroke-width:0;}.cls-13{fill:#050000;}.cls-15{letter-spacing:-0.01em;}.cls-16{letter-spacing:0em;}.cls-17{letter-spacing:-0.02em;}.cls-18,.cls-19{font-size:11.03px;}.cls-20,.cls-22,.cls-23{fill-rule:evenodd;}.cls-21{stroke-width:0.99px;}</style></defs><title>hitrobot_Nameplate</title><g id="图层_2" data-name="图层 2"><g id="图层_1-2" data-name="图层 1"><rect class="cls-1" x="0.35" y="2.41" width="599.79" height="347.82"/><g id="LINE"><line class="cls-2" x1="45.56" y1="235.62" x2="554.93" y2="235.62"/></g><g id="LINE-2" data-name="LINE"><line class="cls-2" x1="45.56" y1="274.01" x2="554.93" y2="274.01"/></g><g id="LINE-3" data-name="LINE"><line class="cls-2" x1="554.93" y1="235.62" x2="554.93" y2="312.4"/></g><g id="LINE-4" data-name="LINE"><line class="cls-2" x1="45.56" y1="235.62" x2="45.56" y2="312.4"/></g><g id="LINE-5" data-name="LINE"><line class="cls-2" x1="45.56" y1="312.4" x2="554.93" y2="312.4"/></g><g id="MTEXT"><text class="cls-3" transform="translate(46.97 143.01)">无 人 托 盘 叉 车</text><text class="cls-4" transform="translate(47.38 161.55)">Unmanned<tspan class="cls-5" x="89.9" y="0"> </tspan><tspan class="cls-6" x="94.67" y="0">T</tspan><tspan x="105.21" y="0">ray Forklift</tspan></text></g><g id="LINE-6" data-name="LINE"><line class="cls-2" x1="300.24" y1="235.62" x2="300.24" y2="312.4"/></g><g id="MTEXT-2" data-name="MTEXT"><text class="cls-7" transform="translate(56.26 250.95)">型号 </text><text class="cls-8" transform="translate(76.61 250.95)"><tspan xml:space="preserve">                  </tspan></text><text class="cls-9" transform="translate(57.33 263.45)"><tspan class="cls-10">T</tspan><tspan x="5.72" y="0">ype</tspan></text></g><g id="MTEXT-3" data-name="MTEXT"><text class="cls-7" transform="translate(56.26 289.45)">叉车高度</text><text class="cls-9" transform="translate(56.33 302.28)">Height </text><text class="cls-8" transform="translate(93.67 302.28)"><tspan xml:space="preserve">                  </tspan></text></g><g id="INSERT"><g id="INSERT-2" data-name="INSERT"><g id="INSERT-3" data-name="INSERT"><g id="POLYLINE"><polyline class="cls-11" points="157.81 68.54 140.03 68.54 137.96 72.55 148.64 72.55 152.45 80.26 128.76 80.26 140.58 56.52 143.65 62.64 154.85 62.64 146.25 45.54 133.95 45.54 115.21 83.02 107.2 67.08 120.09 67.08 130.83 45.54 92.56 45.54 83.75 63.04 71.66 63.04 80.44 45.54 68.43 45.54 48.86 84.42 60.93 84.42 69.63 67.08 81.74 67.08 73.01 84.42 85.07 84.42 102.56 49.57 117.53 49.57 110.5 63.04 98.86 63.04 96.25 68.25 104.28 84.42 165.69 84.42 157.81 68.54"/></g><g id="HATCH"><polygon class="cls-12" points="157.81 68.54 140.03 68.54 137.96 72.55 148.64 72.55 152.45 80.26 128.76 80.26 140.58 56.52 143.65 62.64 154.85 62.64 146.25 45.53 133.95 45.53 115.21 83.02 107.2 67.08 120.09 67.08 130.83 45.53 92.56 45.53 83.75 63.04 71.66 63.04 80.44 45.53 68.43 45.53 48.86 84.43 60.93 84.43 69.63 67.08 81.74 67.08 73.01 84.43 85.07 84.43 102.56 49.57 117.53 49.57 110.5 63.04 98.86 63.04 96.25 68.25 104.28 84.43 165.69 84.43 157.81 68.54 157.81 68.54"/></g></g></g><g id="SPLINE"><path class="cls-11" d="M57.61,79l2.34-1.75a2.93,2.93,0,1,1-2.35-1.17Z"/></g><g id="HATCH-2" data-name="HATCH"><path class="cls-13" d="M57.61,79l2.34-1.75a2.93,2.93,0,1,1-2.35-1.17Z"/></g><g id="SPLINE-2" data-name="SPLINE"><circle class="cls-11" cx="59.34" cy="75.54" r="0.42" transform="matrix(0.54, -0.84, 0.84, 0.54, -36.29, 84.54)"/></g><g id="HATCH-3" data-name="HATCH"><circle class="cls-13" cx="59.35" cy="75.54" r="0.42" transform="translate(-36.3 84.44) rotate(-57.17)"/></g><g id="SPLINE-3" data-name="SPLINE"><circle class="cls-11" cx="62.82" cy="68.53" r="0.41" transform="translate(-28.84 84.08) rotate(-57.11)"/></g><g id="HATCH-4" data-name="HATCH"><circle class="cls-13" cx="62.82" cy="68.53" r="0.42" transform="translate(-28.83 84.14) rotate(-57.15)"/></g><g id="SPLINE-4" data-name="SPLINE"><circle class="cls-11" cx="61.08" cy="72.03" r="0.42" transform="translate(-32.54 84.49) rotate(-57.28)"/></g><g id="HATCH-5" data-name="HATCH"><path class="cls-13" d="M61.31,71.68a.42.42,0,1,1-.58.12A.42.42,0,0,1,61.31,71.68Z"/></g><g id="SPLINE-5" data-name="SPLINE"><circle class="cls-11" cx="88.84" cy="65.03" r="0.42" transform="translate(-13.9 104.6) rotate(-57.27)"/></g><g id="HATCH-6" data-name="HATCH"><circle class="cls-13" cx="88.84" cy="65.03" r="0.42" transform="translate(-13.9 104.6) rotate(-57.27)"/></g><g id="SPLINE-6" data-name="SPLINE"><circle class="cls-11" cx="97.59" cy="47.51" r="0.42" transform="translate(4.81 103.82) rotate(-57.21)"/></g><g id="HATCH-7" data-name="HATCH"><circle class="cls-13" cx="97.59" cy="47.51" r="0.42" transform="translate(4.84 103.88) rotate(-57.25)"/></g><g id="SPLINE-7" data-name="SPLINE"><circle class="cls-11" cx="102.89" cy="47.51" r="0.42" transform="translate(7.35 108.47) rotate(-57.33)"/></g><g id="HATCH-8" data-name="HATCH"><circle class="cls-13" cx="102.89" cy="47.51" r="0.42" transform="translate(7.32 108.42) rotate(-57.3)"/></g><g id="SPLINE-8" data-name="SPLINE"><circle class="cls-11" cx="108.18" cy="47.51" r="0.42" transform="translate(9.73 112.83) rotate(-57.27)"/></g><g id="HATCH-9" data-name="HATCH"><circle class="cls-13" cx="108.18" cy="47.51" r="0.42" transform="translate(9.73 112.83) rotate(-57.27)"/></g><g id="SPLINE-9" data-name="SPLINE"><circle class="cls-11" cx="113.47" cy="47.51" r="0.42" transform="translate(12.22 117.37) rotate(-57.32)"/></g><g id="HATCH-10" data-name="HATCH"><circle class="cls-13" cx="113.47" cy="47.51" r="0.42" transform="translate(12.22 117.37) rotate(-57.32)"/></g><g id="SPLINE-10" data-name="SPLINE"><circle class="cls-11" cx="118.76" cy="47.51" r="0.42" transform="translate(14.66 121.83) rotate(-57.33)"/></g><g id="HATCH-11" data-name="HATCH"><circle class="cls-13" cx="118.76" cy="47.51" r="0.42" transform="translate(14.66 121.83) rotate(-57.33)"/></g><g id="SPLINE-11" data-name="SPLINE"><circle class="cls-11" cx="95.84" cy="51.01" r="0.42" transform="translate(1.06 103.96) rotate(-57.21)"/></g><g id="HATCH-12" data-name="HATCH"><circle class="cls-13" cx="95.84" cy="51.01" r="0.42" transform="translate(0.95 103.77) rotate(-57.1)"/></g><g id="SPLINE-12" data-name="SPLINE"><circle class="cls-11" cx="94.09" cy="54.52" r="0.42" transform="translate(-2.74 104.01) rotate(-57.16)"/></g><g id="HATCH-13" data-name="HATCH"><path class="cls-13" d="M94.32,54.16a.42.42,0,0,1-.45.71.42.42,0,0,1-.12-.58A.42.42,0,0,1,94.32,54.16Z"/></g><g id="SPLINE-13" data-name="SPLINE"><circle class="cls-11" cx="92.34" cy="58.02" r="0.42" transform="translate(-6.26 104.61) rotate(-57.43)"/></g><g id="HATCH-14" data-name="HATCH"><circle class="cls-13" cx="92.34" cy="58.02" r="0.42" transform="translate(-6.44 104.24) rotate(-57.22)"/></g><g id="SPLINE-14" data-name="SPLINE"><circle class="cls-11" cx="90.59" cy="61.52" r="0.42" transform="translate(-10.13 104.51) rotate(-57.29)"/></g><g id="HATCH-15" data-name="HATCH"><circle class="cls-13" cx="90.59" cy="61.53" r="0.42" transform="translate(-10.21 104.32) rotate(-57.18)"/></g><g id="SPLINE-15" data-name="SPLINE"><circle class="cls-11" cx="124.06" cy="47.51" r="0.42" transform="translate(16.95 126.09) rotate(-57.22)"/></g><g id="HATCH-16" data-name="HATCH"><circle class="cls-13" cx="124.06" cy="47.51" r="0.42" transform="translate(16.76 125.83) rotate(-57.08)"/></g><g id="SPLINE-16" data-name="SPLINE"><circle class="cls-11" cx="120.58" cy="54.51" r="0.42" transform="translate(9.61 126.59) rotate(-57.33)"/></g><g id="HATCH-17" data-name="HATCH"><circle class="cls-13" cx="120.58" cy="54.51" r="0.42" transform="translate(9.71 126.74) rotate(-57.41)"/></g><g id="SPLINE-17" data-name="SPLINE"><circle class="cls-11" cx="118.84" cy="58.01" r="0.42" transform="translate(5.72 126.51) rotate(-57.22)"/></g><g id="HATCH-18" data-name="HATCH"><circle class="cls-13" cx="118.84" cy="58.01" r="0.42" transform="translate(5.72 126.51) rotate(-57.22)"/></g><g id="SPLINE-18" data-name="SPLINE"><circle class="cls-11" cx="122.32" cy="51.01" r="0.42" transform="translate(13.07 126.03) rotate(-57.12)"/></g><g id="HATCH-19" data-name="HATCH"><circle class="cls-13" cx="122.32" cy="51.01" r="0.42" transform="matrix(0.54, -0.84, 0.84, 0.54, 13.12, 126.1)"/></g><g id="SPLINE-19" data-name="SPLINE"><circle class="cls-11" cx="117.1" cy="61.51" r="0.42" transform="translate(1.93 126.56) rotate(-57.17)"/></g><g id="HATCH-20" data-name="HATCH"><circle class="cls-13" cx="117.1" cy="61.51" r="0.42" transform="translate(1.85 126.42) rotate(-57.1)"/></g><g id="SPLINE-20" data-name="SPLINE"><circle class="cls-11" cx="115.36" cy="65.01" r="0.42" transform="translate(-1.82 126.68) rotate(-57.16)"/></g><g id="HATCH-21" data-name="HATCH"><circle class="cls-13" cx="115.36" cy="65.01" r="0.42" transform="translate(-1.98 126.38) rotate(-57.01)"/></g><g id="SPLINE-21" data-name="SPLINE"><circle class="cls-11" cx="109.8" cy="65.01" r="0.42" transform="matrix(0.54, -0.84, 0.84, 0.54, -4.37, 122)"/></g><g id="HATCH-22" data-name="HATCH"><circle class="cls-13" cx="109.8" cy="65.01" r="0.42" transform="translate(-4.51 121.71) rotate(-57.01)"/></g><g id="SPLINE-22" data-name="SPLINE"><circle class="cls-11" cx="104.24" cy="65.01" r="0.42" transform="translate(-6.86 117.45) rotate(-57.22)"/></g><g id="HATCH-23" data-name="HATCH"><circle class="cls-13" cx="104.24" cy="65.01" r="0.42" transform="translate(-7.12 116.88) rotate(-56.93)"/></g><g id="SPLINE-23" data-name="SPLINE"><circle class="cls-11" cx="102.47" cy="68.65" r="0.42" transform="translate(-10.86 117.34) rotate(-57.07)"/></g><g id="HATCH-24" data-name="HATCH"><circle class="cls-13" cx="102.47" cy="68.65" r="0.42" transform="translate(-10.86 117.34) rotate(-57.07)"/></g><g id="SPLINE-24" data-name="SPLINE"><circle class="cls-11" cx="104.35" cy="72.33" r="0.42" transform="translate(-12.84 121.19) rotate(-57.36)"/></g><g id="HATCH-25" data-name="HATCH"><circle class="cls-13" cx="104.35" cy="72.33" r="0.42" transform="translate(-12.84 121.19) rotate(-57.36)"/></g><g id="SPLINE-25" data-name="SPLINE"><circle class="cls-11" cx="106.22" cy="76.01" r="0.42" transform="translate(-15.15 124.25) rotate(-57.26)"/></g><g id="HATCH-26" data-name="HATCH"><circle class="cls-13" cx="106.22" cy="76.01" r="0.42" transform="translate(-15.2 124.13) rotate(-57.2)"/></g><g id="SPLINE-26" data-name="SPLINE"><circle class="cls-11" cx="108.1" cy="79.68" r="0.42" transform="translate(-17.49 127.24) rotate(-57.14)"/></g><g id="HATCH-27" data-name="HATCH"><circle class="cls-13" cx="108.1" cy="79.68" r="0.42" transform="translate(-17.4 127.48) rotate(-57.24)"/></g><g id="SPLINE-27" data-name="SPLINE"><circle class="cls-11" cx="109.97" cy="83.36" r="0.42" transform="translate(-19.58 130.88) rotate(-57.3)"/></g><g id="HATCH-28" data-name="HATCH"><circle class="cls-13" cx="109.97" cy="83.36" r="0.42" transform="translate(-19.58 130.88) rotate(-57.3)"/></g><g id="SPLINE-28" data-name="SPLINE"><circle class="cls-11" cx="113.76" cy="83.36" r="0.42" transform="translate(-16.17 138.2) rotate(-59.12)"/></g><g id="HATCH-29" data-name="HATCH"><circle class="cls-13" cx="113.76" cy="83.36" r="0.42" transform="translate(-16.17 138.2) rotate(-59.12)"/></g><g id="SPLINE-29" data-name="SPLINE"><circle class="cls-11" cx="117.55" cy="83.36" r="0.42" transform="translate(-14.3 141.51) rotate(-59.14)"/></g><g id="HATCH-30" data-name="HATCH"><circle class="cls-13" cx="117.55" cy="83.36" r="0.42" transform="translate(-14.3 141.51) rotate(-59.14)"/></g><g id="SPLINE-30" data-name="SPLINE"><circle class="cls-11" cx="121.34" cy="83.36" r="0.42" transform="translate(-12.6 144.45) rotate(-59.01)"/></g><g id="HATCH-31" data-name="HATCH"><circle class="cls-13" cx="121.34" cy="83.36" r="0.42" transform="translate(-12.6 144.45) rotate(-59.01)"/></g><g id="SPLINE-31" data-name="SPLINE"><circle class="cls-11" cx="138.8" cy="47.51" r="0.42" transform="translate(25.64 140.87) rotate(-58.42)"/></g><g id="HATCH-32" data-name="HATCH"><circle class="cls-13" cx="138.8" cy="47.51" r="0.42" transform="translate(25.53 140.74) rotate(-58.35)"/></g><g id="SPLINE-32" data-name="SPLINE"><circle class="cls-11" cx="137.05" cy="51.09" r="0.42" transform="translate(21.94 141.33) rotate(-58.54)"/></g><g id="HATCH-33" data-name="HATCH"><circle class="cls-13" cx="137.05" cy="51.09" r="0.42" transform="matrix(0.52, -0.85, 0.85, 0.52, 22, 141.4)"/></g><g id="SPLINE-33" data-name="SPLINE"><circle class="cls-11" cx="135.31" cy="54.68" r="0.42" transform="translate(18 141.49) rotate(-58.51)"/></g><g id="HATCH-34" data-name="HATCH"><circle class="cls-13" cx="135.31" cy="54.68" r="0.42" transform="translate(18 141.49) rotate(-58.51)"/></g><g id="SPLINE-34" data-name="SPLINE"><circle class="cls-11" cx="131.81" cy="61.85" r="0.42" transform="translate(10.14 141.82) rotate(-58.45)"/></g><g id="HATCH-35" data-name="HATCH"><circle class="cls-13" cx="131.81" cy="61.84" r="0.42" transform="translate(10.15 141.82) rotate(-58.45)"/></g><g id="SPLINE-35" data-name="SPLINE"><circle class="cls-11" cx="130.07" cy="65.43" r="0.42" transform="translate(6.38 142.24) rotate(-58.54)"/></g><g id="HATCH-36" data-name="HATCH"><circle class="cls-13" cx="130.07" cy="65.43" r="0.42" transform="translate(6.38 142.24) rotate(-58.54)"/></g><g id="SPLINE-36" data-name="SPLINE"><circle class="cls-11" cx="128.32" cy="69.01" r="0.42" transform="translate(2.26 142.08) rotate(-58.37)"/></g><g id="HATCH-37" data-name="HATCH"><circle class="cls-13" cx="128.32" cy="69.01" r="0.42" transform="translate(2.26 142.08) rotate(-58.37)"/></g><g id="SPLINE-37" data-name="SPLINE"><circle class="cls-11" cx="124.83" cy="76.19" r="0.42" transform="translate(-5.47 142.58) rotate(-58.39)"/></g><g id="HATCH-38" data-name="HATCH"><circle class="cls-13" cx="124.83" cy="76.19" r="0.42" transform="translate(-5.4 142.73) rotate(-58.46)"/></g><g id="SPLINE-38" data-name="SPLINE"><circle class="cls-11" cx="123.09" cy="79.77" r="0.42" transform="translate(-9.53 142.42) rotate(-58.23)"/></g><g id="HATCH-39" data-name="HATCH"><circle class="cls-13" cx="123.09" cy="79.77" r="0.42" transform="matrix(0.53, -0.85, 0.85, 0.53, -9.48, 142.55)"/></g><g id="SPLINE-39" data-name="SPLINE"><circle class="cls-11" cx="126.58" cy="72.6" r="0.42" transform="translate(-1.46 142.6) rotate(-58.5)"/></g><g id="HATCH-40" data-name="HATCH"><circle class="cls-13" cx="126.58" cy="72.6" r="0.42" transform="translate(-1.37 142.76) rotate(-58.57)"/></g><g id="SPLINE-40" data-name="SPLINE"><circle class="cls-11" cx="133.56" cy="58.26" r="0.42" transform="translate(14.08 141.67) rotate(-58.49)"/></g><g id="HATCH-41" data-name="HATCH"><circle class="cls-13" cx="133.56" cy="58.26" r="0.42" transform="translate(14.08 141.67) rotate(-58.49)"/></g><g id="SPLINE-41" data-name="SPLINE"><circle class="cls-11" cx="142.17" cy="47.5" r="0.42" transform="translate(27.89 144.51) rotate(-58.8)"/></g><g id="HATCH-42" data-name="HATCH"><circle class="cls-13" cx="142.17" cy="47.5" r="0.42" transform="translate(27.89 144.51) rotate(-58.8)"/></g><g id="SPLINE-42" data-name="SPLINE"><path class="cls-11" d="M144,50.72a.42.42,0,0,1,.16.57.42.42,0,1,1-.16-.57Z"/></g><g id="HATCH-43" data-name="HATCH"><circle class="cls-13" cx="143.8" cy="51.09" r="0.42" transform="translate(29.31 151.99) rotate(-60.95)"/></g><g id="SPLINE-43" data-name="SPLINE"><circle class="cls-11" cx="146.72" cy="57.61" r="2.92"/></g><g id="HATCH-44" data-name="HATCH"><circle class="cls-13" cx="146.72" cy="57.61" r="2.92"/></g><g id="POLYLINE-2" data-name="POLYLINE"><polyline class="cls-11" points="144.02 55.55 144.46 52.56 146.99 54.12 145.1 54.01 144.02 55.55"/></g><g id="HATCH-45" data-name="HATCH"><polygon class="cls-13" points="144.02 55.55 144.46 52.56 146.99 54.12 145.1 54.01 144.02 55.55 144.02 55.55"/></g><g id="SPLINE-44" data-name="SPLINE"><circle class="cls-11" cx="64.56" cy="65.03" r="0.42" transform="translate(-25.01 84.39) rotate(-57.41)"/></g><g id="HATCH-46" data-name="HATCH"><circle class="cls-13" cx="64.56" cy="65.03" r="0.42" transform="translate(-25.01 84.39) rotate(-57.41)"/></g><g id="SPLINE-45" data-name="SPLINE"><circle class="cls-11" cx="69.42" cy="65.03" r="0.42" transform="translate(-22.81 88.3) rotate(-57.29)"/></g><g id="HATCH-47" data-name="HATCH"><circle class="cls-13" cx="69.42" cy="65.03" r="0.42" transform="translate(-22.84 88.2) rotate(-57.23)"/></g><g id="SPLINE-46" data-name="SPLINE"><circle class="cls-11" cx="79.13" cy="65.03" r="0.42" transform="translate(-18.35 96.47) rotate(-57.29)"/></g><g id="HATCH-48" data-name="HATCH"><circle class="cls-13" cx="79.13" cy="65.03" r="0.42" transform="translate(-18.36 96.43) rotate(-57.27)"/></g><g id="SPLINE-47" data-name="SPLINE"><circle class="cls-11" cx="83.99" cy="65.03" r="0.42" transform="translate(-16.13 100.52) rotate(-57.27)"/></g><g id="HATCH-49" data-name="HATCH"><circle class="cls-13" cx="83.99" cy="65.03" r="0.42" transform="translate(-16.13 100.52) rotate(-57.27)"/></g><g id="SPLINE-48" data-name="SPLINE"><circle class="cls-11" cx="74.27" cy="65.03" r="0.42" transform="translate(-20.59 92.34) rotate(-57.27)"/></g><g id="HATCH-50" data-name="HATCH"><circle class="cls-13" cx="74.27" cy="65.03" r="0.42" transform="translate(-20.59 92.34) rotate(-57.27)"/></g></g><g id="INSERT-4" data-name="INSERT"><g id="INSERT-5" data-name="INSERT"><g id="INSERT-6" data-name="INSERT"><g id="INSERT-7" data-name="INSERT"><g id="INSERT-8" data-name="INSERT"><g id="POLYLINE-3" data-name="POLYLINE"><polyline class="cls-11" points="177.41 48.03 182.84 48.03 182.84 62.61 181.37 62.61 181.37 61.18 178.88 61.18 178.88 62.94 177.41 62.94 177.41 48.03"/></g><g id="POLYLINE-4" data-name="POLYLINE"><polyline class="cls-11" points="181.37 59.76 181.37 49.45 178.88 49.45 178.88 59.76 181.37 59.76"/></g><g id="SPLINE-49" data-name="SPLINE"><path class="cls-11" d="M191.15,45.63l-.35.55a14.25,14.25,0,0,0,6,6.25c-.4.48-.77,1-1.13,1.44a18.16,18.16,0,0,1-5.72-6.32,19.54,19.54,0,0,1-5.8,6.42,15.49,15.49,0,0,0-1.07-1.29,16.79,16.79,0,0,0,6.15-7.05Z"/></g><g id="POLYLINE-5" data-name="POLYLINE"><polyline class="cls-11" points="184.93 57.3 194.64 57.3 194.64 65.79 193.08 65.79 193.08 64.56 186.49 64.56 186.49 65.79 184.93 65.79 184.93 57.3"/></g><g id="POLYLINE-6" data-name="POLYLINE"><polyline class="cls-11" points="185.73 53.18 194.02 53.18 194.02 54.61 185.73 54.61 185.73 53.18"/></g><g id="POLYLINE-7" data-name="POLYLINE"><polyline class="cls-11" points="193.08 63.13 193.08 58.74 186.49 58.74 186.49 63.13 193.08 63.13"/></g><g id="HATCH-51" data-name="HATCH"><path class="cls-12" d="M177.41,48h5.44V62.61h-1.48V61.18h-2.48v1.76h-1.48V48Zm4,11.73V49.45h-2.48V59.76Zm9.78-14.13-.35.55a14.28,14.28,0,0,0,6,6.26c-.4.48-.77,1-1.13,1.43a18.12,18.12,0,0,1-5.72-6.31,19.53,19.53,0,0,1-5.8,6.42,15.62,15.62,0,0,0-1.07-1.29,16.8,16.8,0,0,0,6.15-7.06ZM184.93,57.3h9.7v8.49h-1.56V64.57h-6.59v1.23h-1.56V57.3Zm.8-4.12H194v1.43h-8.29V53.18Zm7.35,9.95V58.74h-6.59v4.39Z"/></g></g><g id="INSERT-9" data-name="INSERT"><g id="POLYLINE-8" data-name="POLYLINE"><polyline class="cls-11" points="199.75 62.61 208.73 62.61 208.73 48.93 200.92 48.93 200.92 47.29 218.4 47.29 218.4 48.93 210.54 48.93 210.54 62.61 219.54 62.61 219.54 64.21 199.75 64.21 199.75 62.61"/></g><g id="HATCH-52" data-name="HATCH"><polygon class="cls-12" points="199.75 62.61 208.73 62.61 208.73 48.93 200.92 48.93 200.92 47.29 218.4 47.29 218.4 48.93 210.54 48.93 210.54 62.61 219.54 62.61 219.54 64.21 199.75 64.21 199.75 62.61 199.75 62.61"/></g></g><g id="INSERT-10" data-name="INSERT"><g id="SPLINE-50" data-name="SPLINE"><path class="cls-11" d="M222.55,64q8.45-3.77,9.13-11.3h-8.76v-1.6h8.83c0-1.84.05-3.69.05-5.56h1.78q0,2.76-.05,5.56h9.1v1.6H233.5q1.45,8.19,9.56,10.81a17.55,17.55,0,0,0-1.56,1.66,14.23,14.23,0,0,1-8.73-9.56q-1.59,6.22-9,10C223.54,65.26,223.12,64.73,222.55,64Z"/></g><g id="HATCH-53" data-name="HATCH"><path class="cls-12" d="M222.54,64q8.46-3.77,9.13-11.3h-8.76v-1.6h8.83c0-1.84.05-3.69.05-5.56h1.78q0,2.76,0,5.56h9.09v1.6h-9.13q1.46,8.19,9.56,10.8a18.28,18.28,0,0,0-1.56,1.66,14.22,14.22,0,0,1-8.73-9.56q-1.6,6.22-9,10C223.54,65.26,223.12,64.73,222.54,64Z"/></g></g><g id="INSERT-11" data-name="INSERT"><g id="SPLINE-51" data-name="SPLINE"><path class="cls-11" d="M245.63,58.33a23.16,23.16,0,0,0,3.27-7.38h-3.07V49.55H249v-4h1.48v4h2.87v1.39h-2.87v3.4l.82-.81c1.05,1,1.88,1.73,2.48,2.34L252.7,57c-.84-.93-1.57-1.7-2.19-2.32V65.5H249v-11a18.37,18.37,0,0,1-2.73,5.62C246.09,59.52,245.86,58.91,245.63,58.33Z"/></g><g id="SPLINE-52" data-name="SPLINE"><path class="cls-11" d="M256.44,48.38v6.78q0,7.35-3.67,10.65c-.39-.46-.79-.93-1.21-1.39q3.24-2.85,3.24-8.88V46.82h7.63V62.24q0,1,.72,1h.47c.44,0,.72-.38.84-1.15.14-1.05.23-2.19.29-3.41a14.39,14.39,0,0,0,1.55.66q-.18,2-.37,3.32c-.22,1.45-.91,2.18-2.09,2.18h-1.08c-1.31,0-2-.78-2-2.34V48.38Z"/></g><g id="HATCH-54" data-name="HATCH"><path class="cls-12" d="M245.63,58.32a23.12,23.12,0,0,0,3.27-7.38h-3.07V49.55H249v-4h1.48v4h2.87v1.39h-2.87v3.4l.82-.82c1,1,1.88,1.74,2.48,2.34L252.7,57c-.84-.93-1.57-1.7-2.19-2.32V65.5H249v-11a18.47,18.47,0,0,1-2.73,5.62C246.09,59.52,245.86,58.91,245.63,58.32Zm10.81-9.94v6.78q0,7.35-3.67,10.65c-.39-.46-.79-.93-1.21-1.39q3.24-2.86,3.24-8.88V46.82h7.63V62.24c0,.69.24,1,.72,1h.47c.44,0,.72-.38.84-1.15.14-1.05.23-2.19.29-3.41a14.79,14.79,0,0,0,1.56.66q-.18,2-.37,3.32-.33,2.17-2.09,2.18h-1.08c-1.31,0-2-.78-2-2.34V48.38Z"/></g></g><g id="INSERT-12" data-name="INSERT"><g id="SPLINE-53" data-name="SPLINE"><path class="cls-11" d="M269.44,54.1h8.29a6.26,6.26,0,0,0,.41-1.78l1.48.2a9.42,9.42,0,0,1-.36,1.58h4.47q-.82-.59-1.73-1.17l.84-.92c.9.53,1.72,1.07,2.44,1.6l-.46.49h3.82v1.35h-7.92q2.36,2.32,8.41,2.2-.49.85-.84,1.58l-1-.09V65.4h-1.44V64.27h-4.39v1.11H280V59h6.53q-5.86-.79-7.5-3.59h-.37Q277.5,57.9,271.21,59h6.56v6.34h-1.44V64.27H272V65.4h-1.44V59.17l-1.13.2c-.21-.41-.47-.89-.8-1.46q6.85-.88,8.22-2.46h-7.42Z"/></g><g id="POLYLINE-9" data-name="POLYLINE"><polyline class="cls-11" points="270.55 46.64 277.75 46.64 277.75 52.61 276.31 52.61 276.31 51.97 271.99 51.97 271.99 52.81 270.55 52.81 270.55 46.64"/></g><g id="POLYLINE-10" data-name="POLYLINE"><polyline class="cls-11" points="276.31 47.91 271.99 47.91 271.99 50.7 276.31 50.7 276.31 47.91"/></g><g id="POLYLINE-11" data-name="POLYLINE"><polyline class="cls-11" points="276.33 60.32 272.01 60.32 272.01 63.01 276.33 63.01 276.33 60.32"/></g><g id="POLYLINE-12" data-name="POLYLINE"><polyline class="cls-11" points="279.96 46.64 287.23 46.64 287.23 52.69 285.79 52.69 285.79 51.97 281.4 51.97 281.4 52.61 279.96 52.61 279.96 46.64"/></g><g id="POLYLINE-13" data-name="POLYLINE"><polyline class="cls-11" points="285.79 47.91 281.4 47.91 281.4 50.7 285.79 50.7 285.79 47.91"/></g><g id="POLYLINE-14" data-name="POLYLINE"><polyline class="cls-11" points="285.81 60.32 281.42 60.32 281.42 63.01 285.81 63.01 285.81 60.32"/></g><g id="HATCH-55" data-name="HATCH"><path class="cls-12" d="M269.44,54.1h8.29a6.18,6.18,0,0,0,.41-1.78l1.48.2a9.39,9.39,0,0,1-.36,1.58h4.47q-.82-.59-1.73-1.17l.84-.92a28.56,28.56,0,0,1,2.44,1.6l-.46.49h3.82v1.35h-7.92q2.36,2.32,8.41,2.2-.49.85-.84,1.58l-1-.09V65.4h-1.44V64.27h-4.39v1.11H280V59h6.54q-5.87-.79-7.5-3.59h-.37Q277.5,57.9,271.21,59h6.56v6.34h-1.44V64.27H272V65.4h-1.43V59.17l-1.13.2c-.21-.41-.47-.89-.8-1.46q6.85-.88,8.22-2.46h-7.43Zm1.11-7.46h7.2v6h-1.44V52H272v.84h-1.44V46.64Zm5.77,1.27H272V50.7h4.33V47.91Zm0,12.41H272V63h4.33V60.32ZM280,46.64h7.26v6.05h-1.44V52H281.4v.64H280v-6Zm5.83,1.27H281.4V50.7h4.39V47.91Zm0,12.41h-4.39V63h4.39V60.32Z"/></g></g><g id="INSERT-13" data-name="INSERT"><g id="SPLINE-54" data-name="SPLINE"><path class="cls-11" d="M291.89,63.93q8.94-5.17,9.45-18.13h1.81a38.94,38.94,0,0,1-.43,4.18q2.54,10.26,9.56,13.5-.86.94-1.52,1.79-6.1-3.45-8.69-12.2-2.25,8.45-8.89,12.42A16.12,16.12,0,0,0,291.89,63.93Z"/></g><g id="HATCH-56" data-name="HATCH"><path class="cls-12" d="M291.89,63.93q8.94-5.17,9.45-18.13h1.81a38.92,38.92,0,0,1-.43,4.18q2.54,10.25,9.56,13.5c-.58.63-1.08,1.22-1.52,1.79q-6.09-3.45-8.69-12.19-2.25,8.44-8.89,12.42A15.81,15.81,0,0,0,291.89,63.93Z"/></g></g><g id="INSERT-14" data-name="INSERT"><g id="SPLINE-55" data-name="SPLINE"><path class="cls-11" d="M315.61,59.19h8.84v-1.4h1.43v1.4h8.82V60.5h-7.23a20.89,20.89,0,0,0,8,3.43l-1,1.51a22.38,22.38,0,0,1-8.61-4.58v4.81h-1.43V60.84a24.9,24.9,0,0,1-8.62,4.65c-.28-.43-.61-.86-1-1.3a21.62,21.62,0,0,0,7.92-3.69h-7.17Z"/></g><g id="SPLINE-56" data-name="SPLINE"><path class="cls-11" d="M324.69,46.08l1.21-.74a13.44,13.44,0,0,1,1.58,2.09l-.94.59h7.86V49.3h-7.78v1.46h6.87v1.19h-6.87V53.4h6.87v1.19h-6.87v1.5h7.83v1.27H319.51v.78h-1.44v-7.3a24,24,0,0,1-2.15,2.22,8.35,8.35,0,0,0-1-1.35,21.81,21.81,0,0,0,5-6.11l1.42.63c-.38.63-.77,1.23-1.17,1.81H326A21.64,21.64,0,0,0,324.69,46.08Z"/></g><g id="POLYLINE-15" data-name="POLYLINE"><polyline class="cls-11" points="319.51 50.76 325.19 50.76 325.19 49.3 319.51 49.3 319.51 50.76"/></g><g id="POLYLINE-16" data-name="POLYLINE"><polyline class="cls-11" points="319.51 53.4 325.19 53.4 325.19 51.95 319.51 51.95 319.51 53.4"/></g><g id="POLYLINE-17" data-name="POLYLINE"><polyline class="cls-11" points="319.51 56.09 325.19 56.09 325.19 54.59 319.51 54.59 319.51 56.09"/></g><g id="HATCH-57" data-name="HATCH"><path class="cls-12" d="M315.61,59.19h8.84v-1.4h1.43v1.4h8.82V60.5h-7.22a20.85,20.85,0,0,0,8,3.43l-1,1.52a22.4,22.4,0,0,1-8.61-4.58v4.81h-1.43V60.84a24.87,24.87,0,0,1-8.62,4.65q-.43-.64-1-1.3a21.68,21.68,0,0,0,7.92-3.69h-7.18Zm9.08-13.11,1.21-.74a13.47,13.47,0,0,1,1.58,2.09l-.95.59h7.86V49.3h-7.78v1.46h6.87v1.19h-6.87V53.4h6.87v1.19h-6.87v1.5h7.83v1.27H319.51v.78h-1.44v-7.3a23.22,23.22,0,0,1-2.16,2.22,8,8,0,0,0-1-1.35,21.83,21.83,0,0,0,5-6.11l1.41.63c-.38.63-.77,1.23-1.16,1.81H326A20.77,20.77,0,0,0,324.69,46.08Zm-5.19,4.68h5.68V49.3h-5.68v1.46Zm0,2.65h5.68V51.95h-5.68V53.4Zm0,2.69h5.68v-1.5h-5.68v1.5Z"/></g></g><g id="INSERT-15" data-name="INSERT"><g id="POLYLINE-18" data-name="POLYLINE"><polyline class="cls-11" points="339.31 46.54 357.25 46.54 357.25 65.67 355.69 65.67 355.69 64.67 340.86 64.67 340.86 65.69 339.31 65.69 339.31 46.54"/></g><g id="POLYLINE-19" data-name="POLYLINE"><polyline class="cls-11" points="355.69 47.97 340.86 47.97 340.86 63.23 355.69 63.23 355.69 47.97"/></g><g id="SPLINE-57" data-name="SPLINE"><path class="cls-11" d="M341.87,51.6h7.67v-3h1.51v3H355V53h-3.94v6.25q0,3-2.83,3c-.77,0-1.56,0-2.38,0-.08-.48-.19-1-.33-1.62a20.05,20.05,0,0,0,2.34.16c1.12,0,1.69-.63,1.69-1.91V54a22.6,22.6,0,0,1-7.37,6.85,7.27,7.27,0,0,0-1-1.38,21.24,21.24,0,0,0,7.42-6.5h-6.69Z"/></g><g id="HATCH-58" data-name="HATCH"><path class="cls-12" d="M339.3,46.54h17.95V65.67h-1.56v-1H340.86v1H339.3V46.54ZM355.69,48H340.86V63.23h14.83V48ZM341.87,51.6h7.67v-3h1.51v3H355V53h-3.94v6.25q0,3-2.83,3c-.77,0-1.56,0-2.39,0-.08-.48-.19-1-.33-1.62a20,20,0,0,0,2.34.16c1.12,0,1.69-.63,1.69-1.91V54a22.63,22.63,0,0,1-7.37,6.85,7.29,7.29,0,0,0-1-1.38,21.19,21.19,0,0,0,7.42-6.5h-6.68Z"/></g></g></g><g id="INSERT-16" data-name="INSERT"><g id="INSERT-17" data-name="INSERT"><g id="POLYLINE-20" data-name="POLYLINE"><polyline class="cls-11" points="184.4 74.73 185.47 74.73 185.47 84.42 184.4 84.42 184.4 79.92 178.97 79.92 178.97 84.42 177.85 84.42 177.85 74.73 178.97 74.73 178.97 78.94 184.4 78.94 184.4 74.73"/></g><g id="HATCH-59" data-name="HATCH"><polygon class="cls-12" points="184.4 74.73 185.46 74.73 185.46 84.43 184.4 84.43 184.4 79.92 178.97 79.92 178.97 84.43 177.85 84.43 177.85 74.73 178.97 74.73 178.97 78.94 184.4 78.94 184.4 74.73 184.4 74.73"/></g></g><g id="INSERT-18" data-name="INSERT"><g id="POLYLINE-21" data-name="POLYLINE"><polyline class="cls-11" points="191.76 74.73 192.83 74.73 192.83 84.42 191.76 84.42 191.76 74.73"/></g><g id="HATCH-60" data-name="HATCH"><polygon class="cls-12" points="191.76 74.73 192.83 74.73 192.83 84.43 191.76 84.43 191.76 74.73 191.76 74.73"/></g></g><g id="INSERT-19" data-name="INSERT"><g id="POLYLINE-22" data-name="POLYLINE"><polyline class="cls-11" points="206.06 74.73 206.06 75.65 202.77 75.65 202.77 84.42 201.65 84.42 201.65 75.65 198.35 75.65 198.35 74.73 206.06 74.73"/></g><g id="HATCH-61" data-name="HATCH"><polygon class="cls-12" points="206.06 74.73 206.06 75.65 202.77 75.65 202.77 84.43 201.65 84.43 201.65 75.65 198.35 75.65 198.35 74.73 206.06 74.73 206.06 74.73"/></g></g><g id="INSERT-20" data-name="INSERT"><g id="SPLINE-58" data-name="SPLINE"><path class="cls-11" d="M227.29,84.42h-1.51l-3.34-4.36h-2.57v4.36h-1.12v-9.7h4.51c2.07.1,3.17,1,3.3,2.62s-1,2.59-2.91,2.71Z"/></g><g id="SPLINE-59" data-name="SPLINE"><path class="cls-11" d="M219.87,75.7v3.4H223c1.58,0,2.38-.63,2.38-1.79s-.82-1.57-2.38-1.6Z"/></g><g id="HATCH-62" data-name="HATCH"><path class="cls-12" d="M227.29,84.43h-1.51l-3.34-4.37h-2.57v4.37h-1.12v-9.7h4.51c2.07.1,3.17,1,3.3,2.62s-1,2.59-2.91,2.71Zm-7.42-8.73v3.39H223c1.58,0,2.38-.63,2.38-1.79s-.83-1.57-2.38-1.6Z"/></g></g><g id="INSERT-21" data-name="INSERT"><g id="SPLINE-60" data-name="SPLINE"><path class="cls-11" d="M236.7,84.57q-4.42-.25-4.61-4.8.19-4.94,4.75-5.19,4.31.29,4.61,5.09Q241.25,84.38,236.7,84.57Z"/></g><g id="SPLINE-61" data-name="SPLINE"><path class="cls-11" d="M236.74,75.56c-2.13.19-3.31,1.57-3.54,4.12q.19,3.73,3.44,4,3.39-.19,3.59-4C240,77.12,238.88,75.74,236.74,75.56Z"/></g><g id="HATCH-63" data-name="HATCH"><path class="cls-12" d="M236.7,84.57q-4.42-.25-4.61-4.8.19-4.94,4.75-5.19,4.31.29,4.61,5.09Q241.25,84.38,236.7,84.57Zm0-9c-2.13.19-3.31,1.57-3.54,4.12q.19,3.73,3.44,4,3.39-.2,3.59-4C240,77.12,238.88,75.74,236.74,75.56Z"/></g></g><g id="INSERT-22" data-name="INSERT"><g id="SPLINE-62" data-name="SPLINE"><path class="cls-11" d="M251,84.42h-4v-9.7h3.78q2.91.15,3.1,2.43a2.16,2.16,0,0,1-1.94,2.13v0a2.47,2.47,0,0,1,2.33,2.47C254.15,83.49,253.06,84.36,251,84.42Z"/></g><g id="SPLINE-63" data-name="SPLINE"><path class="cls-11" d="M250.51,75.7H248v3.25h2.52q2-.09,2.18-1.74C252.62,76.23,251.9,75.73,250.51,75.7Z"/></g><g id="SPLINE-64" data-name="SPLINE"><path class="cls-11" d="M250.65,79.92H248v3.64h2.86q2.28,0,2.28-1.89Q253,80,250.65,79.92Z"/></g><g id="HATCH-64" data-name="HATCH"><path class="cls-12" d="M251,84.43h-4v-9.7h3.78c1.94.1,3,.91,3.1,2.43a2.16,2.16,0,0,1-1.94,2.13v0a2.47,2.47,0,0,1,2.33,2.47C254.15,83.49,253.06,84.36,251,84.43Zm-.48-8.73H248v3.25h2.52q2-.09,2.18-1.74C252.62,76.23,251.9,75.73,250.51,75.7Zm.14,4.22H248v3.64h2.86q2.28,0,2.28-1.89C253,80.57,252.2,80,250.65,79.92Z"/></g></g><g id="INSERT-23" data-name="INSERT"><g id="SPLINE-65" data-name="SPLINE"><path class="cls-11" d="M264.23,84.57q-4.41-.25-4.6-4.8.19-4.94,4.75-5.19,4.31.29,4.61,5.09Q268.78,84.38,264.23,84.57Z"/></g><g id="SPLINE-66" data-name="SPLINE"><path class="cls-11" d="M264.27,75.56c-2.13.19-3.31,1.57-3.54,4.12q.19,3.73,3.44,4,3.39-.19,3.58-4C267.57,77.12,266.41,75.74,264.27,75.56Z"/></g><g id="HATCH-65" data-name="HATCH"><path class="cls-12" d="M264.23,84.57q-4.41-.25-4.61-4.8.19-4.94,4.75-5.19,4.31.29,4.61,5.09Q268.78,84.38,264.23,84.57Zm0-9c-2.13.19-3.31,1.57-3.54,4.12q.2,3.73,3.44,4,3.39-.2,3.58-4C267.57,77.12,266.41,75.74,264.27,75.56Z"/></g></g><g id="INSERT-24" data-name="INSERT"><g id="POLYLINE-23" data-name="POLYLINE"><polyline class="cls-11" points="281.53 74.73 281.53 75.65 278.23 75.65 278.23 84.42 277.12 84.42 277.12 75.65 273.81 75.65 273.81 74.73 281.53 74.73"/></g><g id="HATCH-66" data-name="HATCH"><polygon class="cls-12" points="281.53 74.73 281.53 75.65 278.23 75.65 278.23 84.43 277.12 84.43 277.12 75.65 273.81 75.65 273.81 74.73 281.53 74.73 281.53 74.73"/></g></g><g id="INSERT-25" data-name="INSERT"><g id="SPLINE-67" data-name="SPLINE"><path class="cls-11" d="M298.68,79.43h4.17V83q-1.21,1.6-4.17,1.6c-3-.17-4.64-1.78-4.8-4.85q.19-4.95,4.6-5.14a4.26,4.26,0,0,1,4.32,2.86l-1.21.29a3.12,3.12,0,0,0-3.15-2.18c-2.07.19-3.2,1.57-3.39,4.12q.24,3.73,3.58,4a3.87,3.87,0,0,0,3.15-1.16V80.35h-3.1Z"/></g><g id="HATCH-67" data-name="HATCH"><path class="cls-12" d="M298.68,79.43h4.17V83q-1.2,1.6-4.17,1.6c-3-.17-4.64-1.78-4.8-4.85q.2-4.95,4.61-5.14a4.26,4.26,0,0,1,4.31,2.86l-1.21.29a3.12,3.12,0,0,0-3.15-2.18c-2.07.19-3.2,1.57-3.39,4.12q.24,3.73,3.58,4a3.88,3.88,0,0,0,3.15-1.17V80.35h-3.1Z"/></g></g><g id="INSERT-26" data-name="INSERT"><g id="SPLINE-68" data-name="SPLINE"><path class="cls-11" d="M317.2,84.42h-1.5l-3.35-4.36h-2.57v4.36h-1.12v-9.7h4.51c2.07.1,3.17,1,3.3,2.62s-1,2.59-2.91,2.71Z"/></g><g id="SPLINE-69" data-name="SPLINE"><path class="cls-11" d="M309.78,75.7v3.4h3.15q2.37-.05,2.38-1.79-.05-1.55-2.38-1.6Z"/></g><g id="HATCH-68" data-name="HATCH"><path class="cls-12" d="M317.2,84.43h-1.5l-3.35-4.37h-2.57v4.37h-1.12v-9.7h4.51c2.06.1,3.17,1,3.3,2.62s-1,2.59-2.91,2.71Zm-7.42-8.73v3.39h3.15q2.37,0,2.38-1.79-.05-1.55-2.38-1.6Z"/></g></g><g id="INSERT-27" data-name="INSERT"><g id="SPLINE-70" data-name="SPLINE"><path class="cls-11" d="M326.61,84.57q-4.41-.25-4.61-4.8.19-4.94,4.75-5.19,4.31.29,4.61,5.09Q331.16,84.38,326.61,84.57Z"/></g><g id="SPLINE-71" data-name="SPLINE"><path class="cls-11" d="M326.65,75.56c-2.13.19-3.31,1.57-3.54,4.12q.19,3.73,3.44,4,3.4-.19,3.59-4C330,77.12,328.78,75.74,326.65,75.56Z"/></g><g id="HATCH-69" data-name="HATCH"><path class="cls-12" d="M326.61,84.57q-4.42-.25-4.61-4.8.19-4.94,4.75-5.19,4.31.29,4.61,5.09Q331.16,84.38,326.61,84.57Zm0-9c-2.13.19-3.31,1.57-3.54,4.12q.2,3.73,3.45,4,3.39-.2,3.58-4C330,77.12,328.79,75.74,326.65,75.56Z"/></g></g><g id="INSERT-28" data-name="INSERT"><g id="SPLINE-72" data-name="SPLINE"><path class="cls-11" d="M344.59,74.73V80.4q0,4.21-3.88,4.17c-2.55,0-3.82-1.36-3.78-4.17V74.73H338v5.63q0,3.44,2.67,3.34c1.94.07,2.88-1.05,2.81-3.34V74.73Z"/></g><g id="HATCH-70" data-name="HATCH"><path class="cls-12" d="M344.59,74.73V80.4q0,4.21-3.88,4.17c-2.55,0-3.82-1.36-3.78-4.17V74.73H338v5.63q-.05,3.44,2.67,3.35,2.91.1,2.81-3.35V74.73Z"/></g></g><g id="INSERT-29" data-name="INSERT"><g id="SPLINE-73" data-name="SPLINE"><path class="cls-11" d="M354.81,80.5h-3v3.93h-1.07v-9.7h4.17q3,.15,3.24,2.86Q358.11,80.45,354.81,80.5Z"/></g><g id="SPLINE-74" data-name="SPLINE"><path class="cls-11" d="M354.62,75.7h-2.81v3.83h2.81c1.55,0,2.35-.69,2.38-2S356.14,75.73,354.62,75.7Z"/></g><g id="HATCH-71" data-name="HATCH"><path class="cls-12" d="M354.81,80.5h-3v3.93h-1.07v-9.7h4.17q3,.15,3.24,2.86Q358.11,80.45,354.81,80.5Zm-.19-4.8h-2.81v3.83h2.81c1.55,0,2.35-.69,2.38-2S356.14,75.73,354.62,75.7Z"/></g></g></g><g id="INSERT-30" data-name="INSERT"><g id="POLYLINE-24" data-name="POLYLINE"><polyline class="cls-11" points="358.11 70.19 176.6 70.19 176.6 69.79 358.11 69.79 358.11 70.19"/></g><g id="HATCH-72" data-name="HATCH"><polygon class="cls-12" points="358.11 70.19 176.6 70.19 176.6 69.79 358.11 69.79 358.11 70.19 358.11 70.19"/></g></g></g></g><g id="INSERT-31" data-name="INSERT"><g id="POLYLINE-25" data-name="POLYLINE"><polyline class="cls-11" points="49.36 95.96 54.88 95.96 54.88 92.84 56.1 92.84 56.1 95.96 61.67 95.96 61.67 102.48 60.5 102.48 60.5 101.71 56.1 101.71 56.1 107.03 54.88 107.03 54.88 101.71 50.54 101.71 50.54 102.48 49.36 102.48 49.36 95.96"/></g><g id="POLYLINE-26" data-name="POLYLINE"><polyline class="cls-11" points="50.54 100.65 54.88 100.65 54.88 97.02 50.54 97.02 50.54 100.65"/></g><g id="POLYLINE-27" data-name="POLYLINE"><polyline class="cls-11" points="60.5 97.02 56.1 97.02 56.1 100.65 60.5 100.65 60.5 97.02"/></g><g id="HATCH-73" data-name="HATCH"><path class="cls-12" d="M49.36,96h5.51V92.84h1.23V96h5.57v6.53H60.5v-.78H56.11V107H54.87v-5.33H50.54v.78H49.36V96Zm1.17,4.69h4.34V97H50.54v3.63ZM60.5,97H56.11v3.63H60.5V97Z"/></g><g id="SPLINE-75" data-name="SPLINE"><path class="cls-11" d="M78,101.68H88v-1h1.16v1h3.09v1H89.13V105q0,1.7-1.86,1.7H85c0-.35-.12-.76-.22-1.23q1.32.1,2.18.1c.69,0,1-.3,1-.89v-2H78Z"/></g><g id="SPLINE-76" data-name="SPLINE"><path class="cls-11" d="M81.78,99.22h7.5c.78,0,1.22-.24,1.33-.73a12.51,12.51,0,0,0,.31-1.59q.47.22,1.13.44c-.14.65-.28,1.18-.4,1.59q-.37,1.29-2.1,1.29h-8a1.66,1.66,0,0,1-1.9-1.85V93.57H89.92v4.35h-1.1v-.49H80.75v.83C80.75,98.9,81.09,99.22,81.78,99.22Z"/></g><g id="SPLINE-77" data-name="SPLINE"><path class="cls-11" d="M80.67,103.49l.7-.74q1.59,1.24,2.38,2l-.83.84Q81.6,104.28,80.67,103.49Z"/></g><g id="POLYLINE-28" data-name="POLYLINE"><polyline class="cls-11" points="80.75 94.56 80.75 96.45 88.82 96.45 88.82 94.56 80.75 94.56"/></g><g id="HATCH-74" data-name="HATCH"><path class="cls-12" d="M78,101.68H88v-1h1.16v1h3.09v1H89.13V105q0,1.7-1.86,1.7H85c0-.36-.12-.76-.21-1.24q1.32.1,2.18.1c.69,0,1-.3,1-.89v-2H78Zm3.79-2.46h7.5c.77,0,1.21-.24,1.33-.73a12.38,12.38,0,0,0,.31-1.59c.32.14.69.29,1.13.44-.14.65-.28,1.18-.4,1.59q-.37,1.29-2.11,1.29h-8a1.66,1.66,0,0,1-1.9-1.85V93.57H89.92v4.35h-1.1v-.49H80.75v.83C80.75,98.9,81.09,99.22,81.77,99.22Zm-1.1,4.26.7-.74q1.59,1.24,2.38,2l-.83.85Q81.6,104.28,80.68,103.49Zm.07-8.93v1.89h8.07V94.56Z"/></g><g id="SPLINE-78" data-name="SPLINE"><path class="cls-11" d="M107.56,101.84a16.06,16.06,0,0,0,2.28-5.15h-2.14v-1h2.23V92.89h1v2.82h2v1h-2v2.37l.57-.57c.74.66,1.31,1.21,1.73,1.63l-.77.79q-.88-1-1.53-1.62v7.55h-1V99.18a12.84,12.84,0,0,1-1.9,3.92C107.88,102.67,107.72,102.25,107.56,101.84Z"/></g><g id="SPLINE-79" data-name="SPLINE"><path class="cls-11" d="M115.11,94.9v4.74q0,5.12-2.56,7.43c-.27-.32-.55-.65-.84-1q2.26-2,2.26-6.2V93.81h5.33v10.77c0,.48.16.71.5.71h.33c.3,0,.5-.27.59-.8.09-.74.16-1.53.2-2.38a11.74,11.74,0,0,0,1.09.46c-.09.94-.17,1.72-.26,2.32-.16,1-.64,1.52-1.46,1.52h-.76c-.91,0-1.37-.54-1.37-1.63V94.9Z"/></g><g id="HATCH-75" data-name="HATCH"><path class="cls-12" d="M107.56,101.84a16.07,16.07,0,0,0,2.29-5.15h-2.14v-1h2.23V92.89h1v2.82h2v1h-2v2.38l.57-.57q1.1,1,1.73,1.63l-.77.79q-.88-1-1.53-1.62v7.56h-1V99.18a12.84,12.84,0,0,1-1.9,3.92C107.88,102.67,107.72,102.25,107.56,101.84Zm7.54-6.94v4.74q0,5.12-2.56,7.43c-.27-.33-.55-.65-.84-1q2.26-2,2.26-6.2V93.81h5.33v10.77c0,.48.16.71.5.71h.33c.31,0,.5-.27.59-.8.09-.74.16-1.53.2-2.38a11.74,11.74,0,0,0,1.09.46c-.09.94-.17,1.72-.26,2.32-.16,1-.64,1.52-1.46,1.52h-.76q-1.38,0-1.38-1.63V94.9Z"/></g><g id="SPLINE-80" data-name="SPLINE"><path class="cls-11" d="M137.67,98.89h5.78a4.27,4.27,0,0,0,.29-1.25l1,.14a6.72,6.72,0,0,1-.25,1.1h3.12c-.38-.28-.79-.55-1.21-.82l.59-.64a19.65,19.65,0,0,1,1.7,1.12l-.32.34h2.67v.94h-5.52q1.65,1.62,5.87,1.53-.34.59-.59,1.1l-.73-.07v4.37h-1V106H146v.77h-1v-4.42h4.56q-4.1-.55-5.23-2.51h-.26q-.8,1.71-5.2,2.51h4.58v4.42h-1V106h-3v.79h-1v-4.35l-.79.14c-.14-.29-.33-.62-.56-1q4.78-.62,5.74-1.72h-5.18Z"/></g><g id="POLYLINE-29" data-name="POLYLINE"><polyline class="cls-11" points="138.44 93.68 143.47 93.68 143.47 97.85 142.47 97.85 142.47 97.4 139.44 97.4 139.44 97.99 138.44 97.99 138.44 93.68"/></g><g id="POLYLINE-30" data-name="POLYLINE"><polyline class="cls-11" points="142.47 94.57 139.44 94.57 139.44 96.52 142.47 96.52 142.47 94.57"/></g><g id="POLYLINE-31" data-name="POLYLINE"><polyline class="cls-11" points="142.48 103.23 139.46 103.23 139.46 105.1 142.48 105.1 142.48 103.23"/></g><g id="POLYLINE-32" data-name="POLYLINE"><polyline class="cls-11" points="145.01 93.68 150.08 93.68 150.08 97.9 149.08 97.9 149.08 97.4 146.02 97.4 146.02 97.85 145.01 97.85 145.01 93.68"/></g><g id="POLYLINE-33" data-name="POLYLINE"><polyline class="cls-11" points="149.08 94.57 146.02 94.57 146.02 96.52 149.08 96.52 149.08 94.57"/></g><g id="POLYLINE-34" data-name="POLYLINE"><polyline class="cls-11" points="149.09 103.23 146.03 103.23 146.03 105.1 149.09 105.1 149.09 103.23"/></g><g id="HATCH-76" data-name="HATCH"><path class="cls-12" d="M137.67,98.89h5.78a4.27,4.27,0,0,0,.29-1.25l1,.15a6.6,6.6,0,0,1-.25,1.1h3.12c-.38-.28-.78-.55-1.21-.82l.59-.64a19.42,19.42,0,0,1,1.7,1.12l-.32.34h2.67v.94h-5.52q1.65,1.62,5.87,1.53c-.23.39-.42.76-.59,1.1l-.73-.07v4.38h-1V106H146v.77h-1v-4.42h4.56q-4.1-.55-5.23-2.51h-.26q-.8,1.71-5.2,2.51h4.58v4.42h-1V106h-3v.79h-1v-4.35l-.79.14q-.22-.43-.56-1,4.78-.62,5.74-1.72h-5.18Zm.77-5.21h5v4.17h-1V97.4h-3V98h-1V93.68Zm4,.89h-3v1.95h3V94.57Zm0,8.66h-3v1.88h3v-1.87ZM145,93.68h5.07v4.22h-1v-.5H146v.45h-1V93.68Zm4.07.89H146v1.95h3.06V94.57Zm0,8.66H146v1.88h3.06v-1.87Z"/></g><g id="SPLINE-81" data-name="SPLINE"><path class="cls-11" d="M166.82,105.75q6.24-3.61,6.6-12.66h1.26a27.64,27.64,0,0,1-.3,2.92q1.77,7.16,6.67,9.42c-.4.43-.75.85-1.06,1.24q-4.25-2.4-6.06-8.51a13.67,13.67,0,0,1-6.2,8.67A12.78,12.78,0,0,0,166.82,105.75Z"/></g><g id="HATCH-77" data-name="HATCH"><path class="cls-12" d="M166.82,105.75q6.24-3.61,6.6-12.66h1.26a27.29,27.29,0,0,1-.3,2.92q1.77,7.16,6.67,9.42c-.4.43-.75.85-1.06,1.24q-4.25-2.4-6.06-8.51a13.69,13.69,0,0,1-6.2,8.67A11.91,11.91,0,0,0,166.82,105.75Z"/></g><g id="SPLINE-82" data-name="SPLINE"><path class="cls-11" d="M196.37,103.06a15.91,15.91,0,0,0,2.46-4.88h-2.26v-1h2.35V95.05l-2.08.2a7.39,7.39,0,0,0-.29-1.06q2.78-.19,5.51-.63l.37,1.06-2.45.3v2.23h2.28v1H200v1.62l.63-.57q1,.88,1.9,1.73l-.8.82q-.92-1-1.73-1.79v7h-1.07v-6.46a15.13,15.13,0,0,1-2,3.74Q196.67,103.69,196.37,103.06Z"/></g><g id="POLYLINE-35" data-name="POLYLINE"><polyline class="cls-11" points="201.54 102.3 207.15 101.8 207.15 92.95 208.25 92.95 208.25 101.7 210.51 101.48 210.6 102.51 208.25 102.73 208.25 106.99 207.15 106.99 207.15 102.83 201.65 103.33 201.54 102.3"/></g><g id="SPLINE-83" data-name="SPLINE"><path class="cls-11" d="M202.4,98.62l.68-.73q1.63,1.28,2.46,2l-.74.88Q204.13,100.09,202.4,98.62Z"/></g><g id="SPLINE-84" data-name="SPLINE"><path class="cls-11" d="M203.24,95.18l.66-.72q1.59,1.22,2.58,2.13l-.75.85A30.44,30.44,0,0,0,203.24,95.18Z"/></g><g id="HATCH-78" data-name="HATCH"><path class="cls-12" d="M196.37,103.06a16,16,0,0,0,2.46-4.88h-2.26v-1h2.34V95.05l-2.07.2a7.55,7.55,0,0,0-.29-1.06c1.85-.13,3.69-.34,5.51-.63l.37,1.06c-.86.11-1.67.21-2.44.29v2.24h2.27v1H200v1.62l.63-.57c.68.59,1.32,1.17,1.9,1.73l-.8.82q-.92-1-1.73-1.79v7h-1.08v-6.46a15.06,15.06,0,0,1-2,3.74C196.75,103.88,196.57,103.48,196.37,103.06Zm5.17-.76,5.61-.5V93h1.1v8.75l2.26-.21.08,1-2.35.22V107h-1.1v-4.17l-5.5.5-.11-1Zm.86-3.68.69-.73c1.09.85,1.91,1.53,2.46,2l-.74.87Q204.13,100.09,202.4,98.62Zm.84-3.43.66-.72q1.59,1.22,2.58,2.13l-.75.84A30.81,30.81,0,0,0,203.24,95.18Z"/></g><g id="SPLINE-85" data-name="SPLINE"><path class="cls-11" d="M226,100.45l2.09-.61V96.76h-1.9v-1h1.9V93h1.1v2.78h1.68v1h-1.68V99.5l1.6-.52c0,.45,0,.83,0,1.11l-1.63.52v4.62q0,1.52-1.43,1.53h-1.37c-.06-.4-.12-.81-.19-1.21.56.06,1,.09,1.27.09s.61-.22.61-.64v-4l-1.95.66Z"/></g><g id="SPLINE-86" data-name="SPLINE"><path class="cls-11" d="M231.29,99.39v-.94H235V96.26h-3.74v-1H235v-2.3h1.15v2.3H240v1h-3.89v2.19h3v.86a11.62,11.62,0,0,1-2.87,4.64,11.29,11.29,0,0,0,4,1.93c-.36.42-.67.79-.92,1.1a14.85,14.85,0,0,1-3.94-2.3,18.69,18.69,0,0,1-4.4,2.41c-.2-.3-.45-.64-.76-1a15.53,15.53,0,0,0,4.36-2.15,11,11,0,0,1-2.38-4.54Z"/></g><g id="SPLINE-87" data-name="SPLINE"><path class="cls-11" d="M237.92,99.39h-4.57a8.92,8.92,0,0,0,2.15,3.82A9.18,9.18,0,0,0,237.92,99.39Z"/></g><g id="HATCH-79" data-name="HATCH"><path class="cls-12" d="M226,100.45l2.09-.61V96.76h-1.9v-1h1.9V93h1.1v2.78h1.68v1h-1.68V99.5l1.6-.52c0,.45,0,.83,0,1.11l-1.63.52v4.62c0,1-.48,1.52-1.43,1.53h-1.37c-.06-.4-.12-.8-.19-1.21.56.06,1,.09,1.27.09s.62-.22.62-.64v-4l-1.95.66Zm5.31-1.06v-.94H235V96.26h-3.74v-1H235v-2.3h1.15v2.3H240v1h-3.89v2.19h3v.86a11.64,11.64,0,0,1-2.87,4.64,11.19,11.19,0,0,0,4,1.93q-.54.63-.92,1.11a14.85,14.85,0,0,1-3.94-2.3,18.73,18.73,0,0,1-4.4,2.41,12.49,12.49,0,0,0-.76-1,15.52,15.52,0,0,0,4.36-2.15,11,11,0,0,1-2.38-4.54Zm6.63,0h-4.57a8.92,8.92,0,0,0,2.15,3.82A9.18,9.18,0,0,0,237.92,99.39Z"/></g><g id="SPLINE-88" data-name="SPLINE"><path class="cls-11" d="M259.67,106.92h-1.13V99.51a24.46,24.46,0,0,1-2.29,2.33c-.2-.33-.43-.68-.69-1a18.12,18.12,0,0,0,4.32-5.12H256V94.61h4.45a15.36,15.36,0,0,0,.7-1.83l1.19.27c-.19.53-.4,1-.63,1.56h8.09v1.06h-8.6a18.89,18.89,0,0,1-1,1.65H268V105a1.55,1.55,0,0,1-1.73,1.77l-2.3,0c0-.33-.12-.72-.21-1.17.88.07,1.58.1,2.12.1a.87.87,0,0,0,1-1v-1h-7.21Z"/></g><g id="POLYLINE-36" data-name="POLYLINE"><polyline class="cls-11" points="266.88 98.32 259.67 98.32 259.67 100.02 266.88 100.02 266.88 98.32"/></g><g id="POLYLINE-37" data-name="POLYLINE"><polyline class="cls-11" points="259.67 102.72 266.88 102.72 266.88 101 259.67 101 259.67 102.72"/></g><g id="HATCH-80" data-name="HATCH"><path class="cls-12" d="M259.67,106.92h-1.13V99.51a24.32,24.32,0,0,1-2.29,2.32c-.2-.33-.43-.68-.69-1a18.16,18.16,0,0,0,4.32-5.12H256V94.61h4.45a15.46,15.46,0,0,0,.7-1.83l1.19.27c-.19.53-.4,1-.63,1.56h8.09v1.06h-8.6a18.89,18.89,0,0,1-1,1.65H268V105a1.55,1.55,0,0,1-1.73,1.78l-2.31,0c0-.33-.12-.72-.21-1.17.88.07,1.58.1,2.12.1a.87.87,0,0,0,1-1v-1h-7.21Zm7.21-8.6h-7.21V100h7.21v-1.7Zm-7.21,4.39h7.21V101h-7.21v1.72Z"/></g><g id="SPLINE-89" data-name="SPLINE"><path class="cls-11" d="M290.23,101.38q.41,2.73-1.36,3.06a4.51,4.51,0,0,1-1.45,0,9.65,9.65,0,0,0-.31-1.2,3.69,3.69,0,0,0,1.32.11c.65-.12.87-.81.66-2a6.19,6.19,0,0,0-1.3-2.57q.51-1.56,1.35-4.16H287v12.49h-1.07V93.6h4.34v1q-.7,2-1.35,4A6.29,6.29,0,0,1,290.23,101.38Z"/></g><g id="SPLINE-90" data-name="SPLINE"><path class="cls-11" d="M291.15,93.64h6.79v7.13h-1.06v-.39h-2.42a8.4,8.4,0,0,0,1.22,2.32,25.17,25.17,0,0,0,2.72-2l.76.9q-1.57,1.1-2.81,1.89a9.14,9.14,0,0,0,3.14,2,8.34,8.34,0,0,0-.92,1,9.74,9.74,0,0,1-5.12-6.16h-1.23v4.87c.64-.28,1.47-.71,2.5-1.26,0,.44,0,.81.07,1.13-.85.41-1.67.85-2.48,1.33a4.48,4.48,0,0,0-.77.6l-.82-1.07a1.19,1.19,0,0,0,.43-.94Z"/></g><g id="POLYLINE-38" data-name="POLYLINE"><polyline class="cls-11" points="296.87 94.61 292.21 94.61 292.21 96.52 296.87 96.52 296.87 94.61"/></g><g id="POLYLINE-39" data-name="POLYLINE"><polyline class="cls-11" points="296.87 99.41 296.87 97.47 292.21 97.47 292.21 99.41 296.87 99.41"/></g><g id="HATCH-81" data-name="HATCH"><path class="cls-12" d="M290.23,101.38q.41,2.74-1.36,3.06a4.5,4.5,0,0,1-1.44,0,10.77,10.77,0,0,0-.31-1.2,3.61,3.61,0,0,0,1.31.11q1-.18.66-2a6.17,6.17,0,0,0-1.3-2.57q.52-1.56,1.35-4.16H287v12.49h-1.07V93.6h4.34v1q-.71,2-1.35,4A6.33,6.33,0,0,1,290.23,101.38Zm.91-7.74h6.79v7.13h-1.06v-.39h-2.42a8.38,8.38,0,0,0,1.22,2.32,25.48,25.48,0,0,0,2.72-2l.76.9q-1.57,1.1-2.81,1.89a9.14,9.14,0,0,0,3.14,2,8.34,8.34,0,0,0-.92,1,9.75,9.75,0,0,1-5.12-6.16h-1.23v4.87q1-.43,2.51-1.26c0,.44,0,.81.07,1.13-.85.41-1.67.86-2.48,1.33a4.66,4.66,0,0,0-.77.6l-.82-1.07a1.2,1.2,0,0,0,.43-.95Zm5.73,1h-4.67v1.91h4.67V94.61Zm0,4.8V97.48h-4.67v1.93Z"/></g><g id="SPLINE-91" data-name="SPLINE"><path class="cls-11" d="M314.8,99.64a16.61,16.61,0,0,0,4.77-6.14l1.13.47a19.44,19.44,0,0,1-5,6.58A5.73,5.73,0,0,0,314.8,99.64Z"/></g><g id="SPLINE-92" data-name="SPLINE"><path class="cls-11" d="M324.12,101.41q2.06,2.68,3.48,4.87l-1.08.72c-.27-.44-.55-.9-.85-1.37q-4.72.23-7.68.46a10.23,10.23,0,0,0-1.32.24l-.63-1.21a3.66,3.66,0,0,0,1.19-.79,30.14,30.14,0,0,0,3.63-5.71l1.23.56a54.84,54.84,0,0,1-3.79,5.7q3-.1,6.69-.27c-.54-.82-1.14-1.7-1.79-2.61Z"/></g><g id="SPLINE-93" data-name="SPLINE"><path class="cls-11" d="M322.89,93.71l1.06-.42a11.31,11.31,0,0,0,5.17,5.93,9.41,9.41,0,0,0-.89,1.12A13.54,13.54,0,0,1,322.89,93.71Z"/></g><g id="HATCH-82" data-name="HATCH"><path class="cls-12" d="M314.8,99.64a16.61,16.61,0,0,0,4.77-6.14l1.13.47a19.45,19.45,0,0,1-5,6.59A5.9,5.9,0,0,0,314.8,99.64Zm9.32,1.77c1.37,1.79,2.53,3.41,3.48,4.87l-1.08.71c-.27-.44-.55-.9-.85-1.37q-4.72.23-7.68.46a9.68,9.68,0,0,0-1.32.25l-.63-1.22a3.6,3.6,0,0,0,1.19-.79,30.14,30.14,0,0,0,3.63-5.71l1.23.56a54.59,54.59,0,0,1-3.79,5.7q3-.1,6.7-.27c-.54-.82-1.14-1.7-1.8-2.61Zm-1.23-7.7,1.06-.42a11.33,11.33,0,0,0,5.17,5.93,9.41,9.41,0,0,0-.89,1.12A13.56,13.56,0,0,1,322.89,93.71Z"/></g><g id="POLYLINE-40" data-name="POLYLINE"><polyline class="cls-11" points="344.65 96.43 355.56 96.43 355.56 97.49 344.65 97.49 344.65 96.43"/></g><g id="SPLINE-94" data-name="SPLINE"><path class="cls-11" d="M345.47,94.68V93.62h12.36v11.14q0,2-1.83,2h-2.82a7.5,7.5,0,0,0-.24-1.23q1.75.1,2.73.1c.66,0,1-.38,1-1.14V94.68Z"/></g><g id="POLYLINE-41" data-name="POLYLINE"><polyline class="cls-11" points="346.07 99.18 353.59 99.18 353.59 104.25 347.2 104.25 347.2 105.29 346.07 105.29 346.07 99.18"/></g><g id="POLYLINE-42" data-name="POLYLINE"><polyline class="cls-11" points="352.45 103.21 352.45 100.21 347.2 100.21 347.2 103.21 352.45 103.21"/></g><g id="HATCH-83" data-name="HATCH"><path class="cls-12" d="M344.65,96.43h10.91v1.06H344.65V96.43Zm.82-1.75V93.62h12.37v11.14c0,1.35-.61,2-1.83,2h-2.82a7.54,7.54,0,0,0-.24-1.23q1.74.1,2.73.1c.66,0,1-.38,1-1.14V94.68Zm.6,4.5h7.52v5.07H347.2v1h-1.13V99.18Zm6.39,4v-3H347.2v3Z"/></g></g></g><g id="MTEXT-4" data-name="MTEXT"><text class="cls-14" transform="translate(197.75 259.9)">capella 1F</text></g><g id="MTEXT-5" data-name="MTEXT"><text class="cls-7" transform="translate(312.69 250.65)">产品编号</text><text class="cls-8" transform="translate(338.4 250.65)"><tspan xml:space="preserve">                   </tspan></text><text class="cls-9" transform="translate(313.09 263.48)">Serial N<tspan class="cls-15" x="43.61" y="0">o</tspan><tspan class="cls-16" x="50.19" y="0">.</tspan></text></g><g id="MTEXT-6" data-name="MTEXT"><text class="cls-7" transform="translate(312.69 289.11)">生产日期</text><text class="cls-9" transform="translate(312.76 301.94)">Prod.Date</text></g><g id="MTEXT-7" data-name="MTEXT"><text class="cls-14" transform="translate(203.6 298.04)">2100 mm</text></g><g id="LINE-7" data-name="LINE"><line class="cls-2" x1="554.93" y1="235.62" x2="458.81" y2="235.62"/></g><g id="MTEXT-8" data-name="MTEXT"><text class="cls-14" transform="translate(399.76 259.98)">hitrobo<tspan class="cls-17" x="65.51" y="0">t</tspan><tspan x="72.39" y="0">-2bf9801</tspan></text></g><g id="MTEXT-9" data-name="MTEXT"><text class="cls-14" transform="translate(446.25 297.99)">2018.01.20</text></g><g id="MTEXT-10" data-name="MTEXT"><text class="cls-18" transform="translate(47.74 197.35)">中国制造</text><text class="cls-19" transform="translate(47.8 210.81)">Made in China</text></g><g id="INSERT-32" data-name="INSERT"><g id="LINE-8" data-name="LINE"><line class="cls-2" x1="0.35" y1="0.35" x2="600.15" y2="0.35"/></g><g id="LINE-9" data-name="LINE"><line class="cls-2" x1="36.7" y1="18.53" x2="563.8" y2="18.53"/></g><g id="LINE-10" data-name="LINE"><line class="cls-2" x1="600.15" y1="0.35" x2="600.15" y2="350.23"/></g><g id="LINE-11" data-name="LINE"><line class="cls-2" x1="581.97" y1="36.71" x2="581.97" y2="313.88"/></g><g id="LINE-12" data-name="LINE"><line class="cls-2" x1="600.15" y1="350.23" x2="0.35" y2="350.23"/></g><g id="LINE-13" data-name="LINE"><line class="cls-2" x1="563.8" y1="332.06" x2="36.7" y2="332.06"/></g><g id="LINE-14" data-name="LINE"><line class="cls-2" x1="0.35" y1="350.23" x2="0.35" y2="0.35"/></g><g id="LINE-15" data-name="LINE"><line class="cls-2" x1="18.53" y1="313.88" x2="18.53" y2="36.71"/></g><g id="CIRCLE"><path class="cls-2" d="M27.62,18.53a9.09,9.09,0,1,0-9.09,9.09,9.09,9.09,0,0,0,9.09-9.09Z"/></g><g id="ARC"><path class="cls-2" d="M18.53,36.71A18.17,18.17,0,0,0,36.7,18.53"/></g><g id="CIRCLE-2" data-name="CIRCLE"><path class="cls-2" d="M591.06,18.53A9.09,9.09,0,1,0,582,27.62a9.09,9.09,0,0,0,9.09-9.09Z"/></g><g id="ARC-2" data-name="ARC"><path class="cls-2" d="M563.8,18.53A18.17,18.17,0,0,0,582,36.71"/></g><g id="CIRCLE-3" data-name="CIRCLE"><path class="cls-2" d="M591.06,332.06a9.09,9.09,0,1,0-9.09,9.09,9.09,9.09,0,0,0,9.09-9.09Z"/></g><g id="ARC-3" data-name="ARC"><path class="cls-2" d="M582,313.88a18.17,18.17,0,0,0-18.18,18.17"/></g><g id="CIRCLE-4" data-name="CIRCLE"><path class="cls-2" d="M27.62,332.06a9.09,9.09,0,1,0-9.09,9.09,9.09,9.09,0,0,0,9.09-9.09Z"/></g><g id="ARC-4" data-name="ARC"><path class="cls-2" d="M36.7,332.06a18.17,18.17,0,0,0-18.17-18.17"/></g></g><g id="HATCH-84" data-name="HATCH"><path class="cls-20" d="M155.33,211.51h0Zm-1.83-18.2c1.59,1,1.59,4.17,0,5.2Zm22.11,14.42c3.42-2.29,1.58-10.79-3.75-9.21C166.36,200.09,169.68,211.6,175.61,207.73Zm-10.76-.24c3.49,7.41,17.34,5.6,17.43-4.1ZM201,197.33h0Zm26.37,1.74c-3.44-1.9-10.59-1.27-10.68-4.34Z"/></g><g id="INSERT-33" data-name="INSERT"><g id="SPLINE-95" data-name="SPLINE"><path class="cls-21" d="M230.42,202.23c4.34,11.57-20.86,14.09-19.94,1.48h5.25c.59,1.66.34,2.92,2.09,3.79,2.85,1.18,7.59.09,7.68-2.05.24-3.62-8.5-3.54-11-5a6.27,6.27,0,0,1-2.75-8c2.92-6.62,19.1-5.67,18.35,3.15-1.08.63-3.33.16-4.92.32-1.5-.63-.07-1.81-1.84-2.92-2.34-1.58-6.76-.48-6.67,1.73.09,3.07,7.24,2.44,10.68,4.33A8.53,8.53,0,0,1,230.42,202.23Z"/></g><g id="SPLINE-96" data-name="SPLINE"><path class="cls-21" d="M206.81,188.67v22.84H201.3V202h-9.17c-.76,2.59-.08,6.47-.34,9.53h-5.51V188.9c1.34-.55,3.76-.07,5.51-.23v8.66H201c.75-2.28.16-5.91.34-8.66Z"/></g><g id="SPLINE-97" data-name="SPLINE"><path class="cls-21" d="M171.61,194.73c6.58-.94,10.76,2.59,10.67,8.66-.09,9.69-13.94,11.5-17.43,4.1C162,201.43,165.35,195.6,171.61,194.73Z"/></g><g id="SPLINE-98" data-name="SPLINE"><path class="cls-21" d="M175.61,207.74c3.42-2.29,1.59-10.79-3.75-9.22C166.35,200.09,169.68,211.6,175.61,207.74Z"/></g><g id="SPLINE-99" data-name="SPLINE"><path class="cls-21" d="M160.85,211.51h-5.51c-.92-2.6-.17-6.77-2.17-8.42-1.92-.55-4.92-.16-7.33-.24,0,1.66.08,5.75,0,8.35-1.34.63-3.94.16-5.77.31V188.9c.26,0,.26-.23.59-.23,9.09-.24,21.35-1.5,19.61,8.11a5.6,5.6,0,0,1-3.35,3.7C160.59,201.91,159.43,208,160.85,211.51Z"/></g><g id="SPLINE-100" data-name="SPLINE"><path class="cls-21" d="M153.5,198.52c1.59-1,1.59-4.17,0-5.2a20.38,20.38,0,0,0-7.92,0,10.85,10.85,0,0,1,0,5.42C148.17,198.67,151.42,199.07,153.5,198.52Z"/></g></g><g id="INSERT-34" data-name="INSERT"><g id="SPLINE-101" data-name="SPLINE"><path class="cls-11" d="M284,195.34h3.66l-6.76,6.14-6.84-6.14h3.27a18.34,18.34,0,0,1,2.51-9.52c2.51-4.27,7.75-8.7,13.07-9.9,5.78-1.06,10.61-.82,16.61,2.9a23.27,23.27,0,0,1,8,10.3l-2.68-2-3.69,3.66s-3-7.51-11.14-8.63c-9.59-1-13.63,5.54-14,6.17A12.61,12.61,0,0,0,284,195.34Z"/></g><g id="HATCH-85" data-name="HATCH"><path class="cls-12" d="M284,195.34h3.66l-6.76,6.14-6.84-6.14h3.27a18.34,18.34,0,0,1,2.51-9.52c2.51-4.27,7.75-8.7,13.07-9.9,5.78-1.06,10.61-.82,16.61,2.9a23.27,23.27,0,0,1,8,10.3l-2.68-2-3.69,3.66s-3-7.51-11.14-8.63c-9.59-1-13.63,5.54-14,6.17A12.61,12.61,0,0,0,284,195.34Z"/></g><g id="SPLINE-102" data-name="SPLINE"><path class="cls-11" d="M311.82,195.93h-3.66l6.76-6.14,6.84,6.14h-3.27a18.34,18.34,0,0,1-2.51,9.52c-2.51,4.27-7.75,8.71-13.07,9.91-5.78,1.06-10.61.82-16.61-2.9a23.29,23.29,0,0,1-8-10.3l2.68,2,3.69-3.66s3,7.51,11.14,8.63c9.59,1,13.63-5.54,14-6.17A13.09,13.09,0,0,0,311.82,195.93Z"/></g><g id="HATCH-86" data-name="HATCH"><path class="cls-12" d="M311.82,195.93h-3.66l6.76-6.14,6.84,6.14h-3.27a18.34,18.34,0,0,1-2.51,9.52c-2.51,4.27-7.75,8.7-13.07,9.9-5.78,1.06-10.61.82-16.61-2.89a23.27,23.27,0,0,1-8-10.3l2.68,2,3.69-3.66s3,7.51,11.14,8.63c9.59,1,13.63-5.54,14-6.17A13.09,13.09,0,0,0,311.82,195.93Z"/></g><g id="SPLINE-103" data-name="SPLINE"><path class="cls-11" d="M288.06,190.44v1.93h2.09a.67.67,0,0,1,.44.44v10.7h4.08V187.89h-2.38A7.71,7.71,0,0,1,288.06,190.44Z"/></g><g id="HATCH-87" data-name="HATCH"><path class="cls-12" d="M288.06,190.44v1.93h2.09a.67.67,0,0,1,.44.44v10.7h4.08V187.89h-2.38A7.71,7.71,0,0,1,288.06,190.44Z"/></g><g id="POLYLINE-43" data-name="POLYLINE"><polyline class="cls-11" points="301.21 189.9 302.13 189.9 302.59 190.36 302.59 201.25 302.34 201.75 301.21 201.75 300.79 201.33 300.79 190.44 301.21 189.9"/></g><g id="SPLINE-104" data-name="SPLINE"><path class="cls-11" d="M301.36,203.79c-2.1,0-3.8-1.38-3.8-3.08v-10c0-1.71,1.7-3.08,3.8-3.08h1.16c2.1,0,3.8,1.38,3.8,3.08v10c0,1.7-1.7,3.08-3.8,3.08Z"/></g><g id="HATCH-88" data-name="HATCH"><path class="cls-12" d="M301.36,203.79c-2.1,0-3.8-1.38-3.8-3.08v-10c0-1.71,1.7-3.08,3.8-3.08h1.16c2.1,0,3.8,1.38,3.8,3.08v10c0,1.7-1.7,3.08-3.8,3.08Z"/></g><g id="SPLINE-105" data-name="SPLINE"><path class="cls-11" d="M302.85,201.22c0,.35-.41.64-.92.64s-.91-.28-.91-.64v-11c0-.35.41-.63.91-.63s.92.28.92.63Z"/></g><g id="HATCH-89" data-name="HATCH"><path class="cls-13" d="M302.85,201.22c0,.35-.41.64-.92.64s-.91-.28-.91-.64v-11c0-.35.41-.63.91-.63s.92.28.92.63Z"/></g></g><g id="OLE2FRAME"><polyline class="cls-2" points="379.99 219.03 379.99 44.09 555.06 44.09 555.06 219.03 379.99 219.03"/></g><path class="cls-22" d="M553.79,219.64H378.9V44.8H553.79Zm-112.43-9.41v4.22h4.11v-4.13h-4.2v-4.2h-4.09v4.11Zm45-152.35h-4.47V53.51h-9.37V49.3h-8.66v4.21h-4.25l-.37-4.19h-9.06l-.22,4h-4.11l-.34-4h-4.14v8.57H427.74l-.36-4.26-4.07-.37-.23-4h-4V62.11l4,.2v9.13l-4.3.31V89.13h-4.33V84.91h-4.11V89h4.2q0,2.22,0,4.44h-8.59v4.74h8.49V93.39h4.52v5h4.31v4.25L419,103l-.34,4.12h-4.22l.09.09-.19-4.15h-8.73v8.29h-4.73l-.39-4.22-4.28.21V103l-4-.34V98.37h8.32V93.5H387.56V89.28h-4.11v4.13h4.2v4.88l-4.18.35v4.07l4,.23.23,4.33h8.55V116h-4.35v-4.22h-8.47v4.13H392v4.88l-4.38.36v4.21h-4.19v13l4,.22v4.11l-4.06.36v4.6h8.47l.28-4.87h4.27V152l4.25.36.19,4,4.73.28.38,4.18h8.57v4.26l-4.36.38v4.82l-4.37-.11-.23-4.8-4.67-.25-.38-4.2h-4.21v-4.25l-4.24-.36-.19-4h-4.1l-.35,4.1-4,.19v22.18h4.28v-13.6H392v13.6h4.17l.34-4,4.09-.37.21-4,5-.31v8.74h8.41v-4l-4.21-.35v-4.24h8.83v4.38h4.38v4.26l-4.29.36v4.15h8.44c.13,1.71.24,3.13.34,4.54h-4.51v4.29h-4.16v13.56l4.2.26v8.47h4.12V201.71l-4.25-.37v-9.2h4.31l.2-4.28h4.91v9.33h8.59l.38,4.3h4.2v4.22h4.11v-4.13h-4.2v-4.25l4.38-.37v-4.83h4.92l.3,5h8.62v4.38h4.38v12.93h13.52v-4l-4.62-.32v-4h9.28v8.3h13v-4.21l-.09.09h18l.38,4.15h4l.39-4.25h4.2v4.19h22.3V201.73h-4.32v8.58H526.24v-8.66l5.22-.31V187.9l4-.25v-4.07l-4-.34v-4.36h8.75q0,6.66-.08,13.32h-4.22v13.58H540V192.1h8.58v-8.54l-4.23-.35c0-1.55,0-2.88,0-4.21h4.22V165.43h-4.13V179.1L540.1,179v-4.29H526.47V160.85H540c0-1.65,0-3,0-4.33h8.56V148H535.86V152l4.22.35v4.24H526.45l-.36-4.28H522l-.22,4.31h-13v8.7h-4.38v9.38h-9.24l-.37-4.19h-4.13c0,3,0,5.78,0,8.55h-4.47v-8.91h-9.37V156.5h9.32l.21-4.34h8.45l.4-4.42h4.2V152h9.09v-4.13h-9.19V142.7h9.39v-4.32h4.45v13.56h4.4v-9h4.19l.29,4.59h4.29v-4.79h13.44V138.3H522l-.22-4.05h-4.09l-.35,4.22h-4.24v-8.61l4.28-.38.35-4.22H522v4.38h4.38v4.17h22.26v-4.19h-13v-4.36h12.93V111.67l-4.19-.22v-8.7H531.24V98.41h17.31v-5H540.2V89h8.34V84.86h-12.9v8.42l-4.32.38V98.5h-5c0,3.15,0,5.94,0,8.73h-4.47V93.66h-4.42v9.11h-4.31l.09.09L513,98.6l-4.28-.36V93.4h4.38V89h12.93V84.74H513.12V71.63H499.39V66.48h9.28V62.23H495.23c-.13-1.71-.24-3.13-.34-4.54h13.86c0-1.61,0-2.94,0-4.27H513V49.32h-4.13v4.21H499.6l-.38-4.26H495v8.52l-4.34.11V53.68h-4.28C486.36,55.22,486.36,56.55,486.36,57.88Zm-103,22.22H414.2V49.26H383.37Zm134.33,0h30.83V49.26H517.7ZM383.37,214.42H414.2V183.59H383.37Zm8.72-125.6h13.46V84.89H392.08Zm107.19,72.3h-8.34v4h8.34ZM455.18,210h8.46V206.1h-8.46Zm76.36-44.68v4.72h3.88v-4.72Z"/><path class="cls-23" d="M526.33,210.23h-4.2l-.39,4.25h-4l-.38-4.15h-18V206.1h-8.49v4.15h8.58v4.21h-13v-8.3h-9.28v4l4.62.32v4H468.24V201.49l-.1.09h4.25l.4-4.47h13.55v4.23h8.49V197.2h-8.58v-5.08H463.77l.09.09V188l4.18-.37v-4.23h-8.36V179h17.08v-4.41H468v-9.11h-4.09l-.3,4.88H459.4v-4.87H437.06L436.8,170h-4.32v-4.57h-4.79l-.27,4.78h-4.26l.09.09V161.1l4.28-.38v-8.58h5.15v8.56h8.6v-8.57h4.23l.37,4.18h9v-4l-4.68-.33-.37-4.15h-8.59V143H427.62v9.21h-8.91v-9.51h-8.43v-4.13l4.14-.35V134h8.68l.21,4.26h17.86l.39-4.26h4.19v4.38h4.38v4.55h5v4.77l4.37.23v8.4h4.23l.19-4H468l.38,4.23H477l-.1-.09v13.67h9.37v8.91l.09-.09h-4.22v4.46h4.22l-.09-.09v4.26l4.32.36.19,4h8.73v-8.63h5V192h4.14v-8.51h-4.22l.1-4.46-.09.09h4.46v-4.46l-.09.09H513l.37-4.47h4.19v4.23h4.13v-4.14H517.5v-4.85l4.28-.37v-4h-8.45l-.37,4.17h-4.2l.1.09v-8.7h13l.22-4.31h4.07l.36,4.28h13.63l-.09-.09v4.33H526.47v13.83H540.1c0,1.64,0,3,0,4.29l.09-.1h-8.76v4.36l4,.34v4.07l-4,.25v13.45l-5.22.31v8.66Zm-8.74-8.74v4.23h4.13v-4.14H517.5v-4.19H504.68v8.37H513l.38-4.26Zm-4.2-22.31v12.75h12.76V179.18Z"/><path class="cls-23" d="M513.21,138.38h-4.45l.09.1V134h-4.46l.09.09q0-2.23-.09-4.45h4.23v-4.13h-4.14v4.21h-9.23l-.35-4.19h-4.11l-.23,4.16H477.12v4.47h9.14v8.68l.09-.09-13.84.09v-13H464l-.38,4.24H455v-8.84h8.75v-9.37h4.52v5h4.31v4.22h4.29v-4.22h5v-5h13.2q0,2.43,0,4.85h4.13V116H495v-8.63l-4.37-.37v-4.2h8.58V98.49h-8.58q0-2.54,0-5.08h4.52V84.81l4.32-.21V71.53l-.09.1h13.74V84.74l.1-.09h-4.53V76.08h-4.28V88.9l-4.77.33v4.26h9.2l-.1-.09v4.84l4.28.36.19,4.25H509l-.39,4.4h-9v4.39h9v4.18l-3.94.23v4.67h8.53v-18h4.31V93.66h4.42v13.58l.09-.09h-4.22v13.74H522l-.09,4.46.09-.1h-4.22l-.35,4.22-4.28.38v8.61Z"/><path class="cls-23" d="M396.2,107.37l4.28-.22.39,4.22h4.73v-8.29h8.73l.19,4.15h-4.23v4.13h4.14v-4.21h4.22L419,103l4.28-.37V98.4l-.1.09h4.53v8.66H437v4.52h-9.2v9.23H437l-.19,4.25-4.08.36v4l4,.33v4h-9.19v-8.52H410l.11-4.36,4.07-.21v-4.71h-4c0,1.76,0,3.38,0,5l-4.58-.1v-4.83h-4.91V121H396.5l-.38,4.28h-8.57l.1.09v-4.21l4.38-.36V115.9l-.09.09h4.35c0-3,0-5.87,0-8.73ZM423,120.9v-4.75h-4v4.75Z"/><path class="cls-23" d="M414.43,89.13h4.33V71.76l4.3-.31V62.31l-4-.2V49.29h4l.23,4,4.07.37.36,4.26h13.63l-.09-.1.09,4.46H437c0,4.81,0,9.27,0,13.74l-4.36-.11-.2-4.09h-4.81V76H423.4v4.13h4.14V75.9l5.18-.11c0,1.48,0,3,0,4.31h4.2V75.9l4.17.19v8.5l-4,.23-.29,4.1-4.17.35v4.23h-4.86l-.35-4.19h-4.24v9.19l.1-.09h-4.31v-5h-4.52l.09.09q0-2.22,0-4.44Zm18.05-26.69h-4.75v4h4.75Z"/><path class="cls-23" d="M383.37,80.09V49.26H414.2V80.09Zm4.36-4.35h22.12V53.62H387.73Z"/><path class="cls-23" d="M517.7,80.09V49.26h30.83V80.09Zm26.51-4.27V53.7H522.08V75.82Z"/><path class="cls-23" d="M383.37,214.42V183.59H414.2v30.83Zm4.44-26.5V210h22.12V187.92Z"/><path class="cls-23" d="M427.76,187.93l-.35-4.54H419v-4.15l4.29-.36v-4.26l-.1.09h9.25l.35,4.08h4.1l.23-3.92h8.57v4.21l.09-.09h-4.51v8.63l-4.16.35v4.23h13l-.1-.09v4.83l-4.38.37v4.25l.09-.09h-4.2l-.38-4.3h-8.59v-9.33h-4.92Z"/><path class="cls-23" d="M531.24,98.41v4.34h13.13v8.7l4.19.22v13.59H535.62l.09.1v-4.54h8.57V116l-4.06-.24-.36-4h-4.12l-.19,4h-4.34v-8.6h-5l.09.09V98.5h5Z"/><path class="cls-23" d="M508.76,138.38v4.32h-9.39v5.14l.09-.09h-4.2l-.4,4.42h-8.45l-.21,4.34h-9.32l.1.09v-4.26l-4.46-.37v-4.2h13.84v-5l-.09.09h8.63l.33-4.25,4.06-.35.35-4.14h4.83l-.09-.09v4.46h4.46Z"/><path class="cls-23" d="M490.64,57.89l4.34-.11-.1-.09.35,4.54h13.44v4.25h-9.28v5.15l.09-.1-4.45.09q0-2.42,0-4.85h-4.13v4.77h4.22v8.54h-4.33l-.19-4h-4.12l-.37,4.25H481.9V66.76l4.46-.37V62.16l-.09.09h4.46V57.79Z"/><path class="cls-23" d="M513.12,138.47h4.24l.35-4.22h4.09l.22,4.05h17.8v4.46H526.38v4.79h-4.29L521.8,143h-4.19v9h-4.4c0-4.49,0-9,0-13.56Z"/><path class="cls-23" d="M463.86,197.11h-8.62l-.3-5H450l.1.09V188l-4.37-.39V179l-.09.09h4.26l.38-4.46h4.82v13l4.18.37.35,4.22h4.22l-.09-.09v5.09Z"/><path class="cls-23" d="M392,165.24h-4.34v13.6h-4.28V156.66l4-.19.35-4.1h4.1l.19,4,4.24.36V161l.1-.09h-4.46v4.46Z"/><path class="cls-23" d="M531.33,98.5V93.66l4.32-.38V84.86h12.9V89H540.2v4.38h8.35v5H531.24Z"/><path class="cls-23" d="M441.37,57.89V49.32h4.14l.34,4H450l.22-4h9.06l.37,4.19h4.25l-.09-.1v4.37H441.28Z"/><path class="cls-23" d="M396.39,142.75h-4.27l-.28,4.87h-8.47V143l4.06-.36v-4.11l-4-.22v-13h4.19l-.1-.09v8.63l4.25.33.35,4.07,4.14.34v4.21Z"/><path class="cls-23" d="M396.29,161h4.21l.38,4.2,4.67.25c.08,1.58.15,3.19.23,4.81l.09-.1-5,.32-.21,4-4.09.37-.34,4H392v-13.6l-.09.1h4.46v-4.46Z"/><path class="cls-23" d="M387.56,93.5h12.95v4.87h-8.32v4.29l4,.34c0,1.52,0,2.94,0,4.37l.09-.1h-8.56l-.23-4.33-4-.23V98.64l4.18-.35V93.41Z"/><path class="cls-23" d="M414.51,160.87h-8.57l-.38-4.18-4.73-.28-.19-4-4.25-.36v-9.26l-.09.1h4.27l.29,4.85,4.69.26.36,4.28h4.21l-.09-.09v4.25l4.38.36V161Z"/><path class="cls-23" d="M526.24,210.32h18.07v-8.58h4.32v12.68h-22.3c0-1.37,0-2.78,0-4.19Z"/><path class="cls-23" d="M423.15,192.13v9.2l4.25.38v12.81h-4.12V206l-4.2-.26V192.22h4.16Z"/><path class="cls-23" d="M535.62,125.26v4.36h13v4.19H526.35v-4.17l-.1.09h5v-4.46l4.46.09Z"/><path class="cls-23" d="M544.36,179v4.21l4.23.35v8.54H540l.09.09q0-6.66.08-13.33l-.09.1,4.36.13Z"/><path class="cls-23" d="M540.08,156.61v-4.24l-4.22-.35V148h12.68v8.55H540Z"/><path class="cls-23" d="M508.75,53.43V57.7H494.89l.1.09c0-2.79,0-5.58,0-8.52h4.24l.38,4.26h9.24Z"/><path class="cls-23" d="M490.74,179.09v-8.55h4.13l.37,4.19h9.24l-.09-.1v4.46l.09-.09H490.64Z"/><path class="cls-23" d="M410.14,170.33v-4.82l4.36-.37v-4.26l-.09.1h4.37v9.37l.09-.1h-8.83Z"/><path class="cls-23" d="M472.52,53.51h9.37v4.37l.1-.09h-4.88L476.74,62h-4.13V53.41Z"/><path class="cls-23" d="M544.45,179.1V165.43h4.13V179h-4.22Z"/><path class="cls-23" d="M540,192.1v13.68h-4.13V192.2h4.22Z"/><path class="cls-23" d="M392.08,88.83V84.89h13.46v3.93Z"/><path class="cls-23" d="M410.05,170.24v4.24l4.21.35v4h-8.41c0-2.86,0-5.8,0-8.75l-.09.1,4.37.11Z"/><path class="cls-23" d="M513.12,84.74h12.94V89H513.13l.09.1V84.65Z"/><path class="cls-23" d="M414.42,93.39v4.84h-8.49V93.48h8.59Z"/><path class="cls-23" d="M499.37,147.84h9.19V152h-9.09v-4.22Z"/><path class="cls-23" d="M504.47,174.72v-9.38h4.38l-.1-.09v9.46l.09-.09h-4.46Z"/><path class="cls-23" d="M463.86,53.51V49.3h8.66v4.21l.09-.1h-8.84Z"/><path class="cls-23" d="M499.27,161.13v4h-8.34v-4Z"/><path class="cls-23" d="M455.18,210V206.1h8.46V210Z"/><path class="cls-23" d="M392,115.9h-8.56v-4.13h8.47V116Z"/><path class="cls-23" d="M531.55,165.36h3.88v4.72h-3.88Z"/><path class="cls-23" d="M526.35,129.64H522v-4.38l-.09.1,4.46-.09q0,2.23-.09,4.46Z"/><path class="cls-23" d="M521.87,107.24h4.47l-.09-.09v4.2H522v-4.2Z"/><path class="cls-23" d="M423.26,174.62h-4.38v-4.38l-.09.1h4.46l-.09-.09v4.46Z"/><path class="cls-23" d="M387.65,93.41h-4.2V89.28h4.11c0,1.42,0,2.82,0,4.22Z"/><path class="cls-23" d="M486.36,57.88v-4.2h4.28v4.21l.09-.1h-4.46Z"/><path class="cls-23" d="M486.26,179.09h4.47l-.09-.09v4.37h-4.37l.09.09V179Z"/><path class="cls-23" d="M414.52,89h-4.2V84.91h4.11v4.22Z"/><path class="cls-23" d="M481.89,57.88h4.47l-.09-.09v4.46l.09-.09H482V57.79Z"/><path class="cls-23" d="M423.24,192.22v-4.29h4.51l-.1-.09c-.06,1.32-.12,2.64-.2,4.29h-4.31Z"/><path class="cls-23" d="M468.24,201.49h-4.38v-4.38l-.09.1h4.37v4.37Z"/><path class="cls-23" d="M508.84,53.52V49.32H513v4.11h-4.22Z"/><path class="cls-23" d="M445.64,201.57h4.2v4.13h-4.11c0-1.42,0-2.82,0-4.22Z"/><path class="cls-23" d="M441.36,210.23h-4.18v-4.11h4.09v4.2Z"/><path class="cls-23" d="M513.13,89V93.4h-4.38l.1.09V89.12h4.37Z"/><path class="cls-23" d="M441.27,210.32h4.2v4.13h-4.11v-4.22Z"/><path class="cls-22" d="M423.25,170.34h-4.46V161h-4.37v-4.21l-4.38-.36v-4.25h4.22V148h-4.13v4.2h-4.21l-.36-4.28-4.69-.26-.29-4.85H396.3v-4.21l-4.14-.34-.35-4.07-4.25-.33v-8.63h8.57l.38-4.28h4.26l-.08-.09v4.46h5.08l-.09-.08v4.46h4.46l-.09-.08v4.46h4.46l-.09-.08v4.22l-4.14.35v4.13h8.43v9.51h8.91l-.09-.09v8.58l-4.28.38Zm-22.57-36.23v-4.22h-4.11V134h4.2v4.2h4.71v-4.11Z"/><path class="cls-22" d="M472.52,147.76V152l4.46.37v4.26h-8.58l-.38-4.23h-4.09l-.19,4h-4.23v-8.4l-4.37-.23v-4.77h-5v-4.55l-.09.08h5.08V134l-.08.09h8.56l.38-4.24h8.56v13l.09-.08-4.45.1c0-1.4,0-2.8,0-4.22H464v4.13h4.2v5.08h4.36Z"/><path class="cls-22" d="M410,125.36h17.47v8.52h9.19v-4l-4-.33v-4l4.08-.36.19-4.25-.09.08,8.84-.09v4.25l-4.21.36v4l4.11.35v4.22l.08-.09h-4.19l-.39,4.26H423.3L423.1,134h-8.68l.09.08v-4.46H410l.09.08v-4.46Z"/><path class="cls-22" d="M423.16,174.71v-4.46h4.26l.27-4.78h4.79V170h4.32l.26-4.57H459.4v4.87l.09-.08H455v4.46l.08-.09h-4.82l-.38,4.46h-4.26v-4.21h-8.57l-.23,3.92h-4.1l-.35-4.08Z"/><path class="cls-22" d="M463.86,192.21h-4.22l-.35-4.22-4.18-.37v-13l-.08.09h4.46v-4.46l-.09.08h4.25l.3-4.88H468v9.11h8.73V179H459.69v4.39H468v4.23l-4.18.37Z"/><path class="cls-22" d="M427.62,152.23V143h13.66v4.83l.09-.08h-4.2v4.46h4.2l-.09-.08v8.57h-8.6v-8.56h-5.15Z"/><path class="cls-22" d="M486.27,183.37h4.37V179h13.83l-.1,4.46.09-.09h-5V192h-8.73l-.19-4-4.32-.36Z"/><path class="cls-22" d="M513.39,179.18h12.76v12.75H513.39Zm8.47,4.44h-4.08v3.91h4.08Z"/><path class="cls-22" d="M468.15,201.58V197.2h-4.37v-5.09h22.49v5.08l.09-.09H472.8l-.4,4.47Z"/><path class="cls-22" d="M508.76,174.71v-9.46H513l.37-4.17h8.45v4l-4.28.37v4.85l.09-.09h-4.19l-.37,4.47Z"/><path class="cls-22" d="M517.59,201.49H513.4l-.38,4.26h-8.34v-8.37H517.5v4.19Z"/><path class="cls-22" d="M441.28,147.84h8.59l.37,4.15,4.68.33v4h-9l-.37-4.18h-4.23l.09.08v-4.46Z"/><path class="cls-22" d="M499.48,210.24h-8.58V206.1h8.49v4.23Z"/><path class="cls-22" d="M504.38,183.45h4.22V192h-4.14v-8.6Z"/><path class="cls-22" d="M486.26,197.2h8.58v4.15h-8.49v-4.23Z"/><path class="cls-22" d="M450.12,138.39h-4.38V134l-.08.09h4.46L450,134v4.46Z"/><path class="cls-22" d="M517.5,170.33h4.22v4.14h-4.13v-4.23Z"/><path class="cls-22" d="M504.39,174.62h4.46v4.46h-4.46Z"/><path class="cls-22" d="M486.36,179v4.46h-4.22V179Z"/><path class="cls-22" d="M517.5,201.57h4.22v4.14h-4.13v-4.23Z"/><path class="cls-22" d="M472.61,120.89h-4.31v-5h-4.52l.08.09V98.49h-4.47V93.6l4.47-.37V89l-.08.09H468l.36,4.37h4.2l-.09-.09v5.08H482l-.09-.09v4.46l.09-.08H468.4v8.84h4.2l-.09-.09q0,4.73,0,9.45Z"/><path class="cls-22" d="M522,107.15v4.2h4.28v-4.2h5v8.6h4.34l.19-4h4.12l.36,4,4.06.24v4.77h-8.57v4.54l-4.46-.09.08.09v-4.46h-5.08l.09.09v-4.82h-4.46V121l.08-.09h-4.22V107.15Z"/><path class="cls-22" d="M504.47,134.1h-4.83l-.35,4.14-4.06.35-.33,4.25h-8.63v-8.68h-9.14V129.7h13.42l.23-4.16h4.11l.35,4.19h9.23l-.09-.09Q504.43,131.87,504.47,134.1Z"/><path class="cls-22" d="M495,71.63l4.45-.09V84.6l-4.32.21V93.4h-4.52l.08.09V89h-4.46l.09.09V84.66h-4.46l.09.08V80.28l-.08.09h4.19l.37-4.25h4.12l.19,4h4.33V71.54Z"/><path class="cls-22" d="M490.64,102.78V107l4.37.37V116l.09-.09H481.9l.08.09q0-6.6,0-13.21l-.09.08h8.83Z"/><path class="cls-22" d="M513.14,102.77v18h-8.53v-4.67l3.94-.23v-4.18h-9v-4.39h9l.39-4.4h4.26Z"/><path class="cls-22" d="M490.64,93.4q0,2.54,0,5.08l.09-.08h-8.83l.09.09V93.4h-9.46l.09.09V89.22l4.28-.36V84.65l5.09.09-.09-.08v4.46h4.46l-.09-.09v4.46h4.46Z"/><path class="cls-22" d="M463.78,115.89v9.37H455l.08.09V116H450q0-2.24.09-4.47l-.09.08h9.26l.37,4.37h4.2Z"/><path class="cls-22" d="M513.22,89.12h-4.37v4.37h-9.2V89.23l4.77-.33V76.08h4.28v8.57h4.53Z"/><path class="cls-22" d="M486.36,142.76v5H472.52l.09.08v-5.08l-.09.08Z"/><path class="cls-22" d="M455,125.26v8.84l.08-.09H450l.09.09v-8.75h5Z"/><path class="cls-22" d="M490.64,98.49h8.58v4.29h-8.58l.09.08V98.4Z"/><path class="cls-22" d="M481.9,115.89v5h-5l.08.09v-5h5Z"/><path class="cls-22" d="M495,116h4.22v4.77h-4.13q0-2.43,0-4.85Z"/><path class="cls-22" d="M508.85,138.48h-4.46V134h4.46Z"/><path class="cls-22" d="M476.9,120.89v4.22h-4.29v-4.22l-.08.09H477Z"/><path class="cls-22" d="M526.34,125.26l-4.46.09.09-4.46-.08.09h4.46l-.09-.09v4.46Z"/><path class="cls-22" d="M504.47,129.73v-4.21h4.14v4.13h-4.23Z"/><path class="cls-22" d="M437,120.9h-9.2v-9.23H437v-4.52l-.09.08h8.75v-4.47h9.46v4.31l-5.09.28v4.25l.09-.08h-8.6l-.37,4.28-4.23.35V121Z"/><path class="cls-22" d="M423.16,98.49V89.3h4.24l.35,4.19h4.86l-.08-.09v9.24l4.37.36v4.23l.09-.08h-9.3V98.49Z"/><path class="cls-22" d="M400.76,121v-4.84h4.91V121l.09-.08h-5.08Z"/><path class="cls-22" d="M423,120.9h-4v-4.75h4Z"/><path class="cls-22" d="M410.25,121.08v-5h4v4.71l-4.07.21Z"/><path class="cls-22" d="M414.42,107.14v4.21h-4.14v-4.13h4.23Z"/><path class="cls-22" d="M405.67,121l4.58.1-.09-.08q-.05,2.18-.11,4.36l.08-.09h-4.46l.09.08v-4.46Z"/><path class="cls-22" d="M437,76V62.25h4.37l-.08-.09.19,4.25,4.34.39v4.83H459.5c0,1.67,0,3,0,4.35h-4.22V80.1h4.13v-4.2l4.37.19v13l.08-.09-13.83.1v-4.2h-4.28v4.2h-4.37v9.36h-4.31l-.28-5.09h-4.25l.08.09V89.26l4.17-.35.29-4.1,4-.23v-8.5l-4.17-.19Zm8.92.1v4h4v-4Z"/><path class="cls-22" d="M482,57.79v4.37h4.37v4.22l-4.46.37V80.37l.08-.09-5.09.1V76h-4.38V71.55h4.22V66.81H472.6v4.83h-4.54V62.46h-8.5l-.25,3.94h-9.1l-.38-4.24h-8.56l.08.09-.09-4.46h22.49V53.41h8.84V62h4.13l.36-4.18Z"/><path class="cls-22" d="M432.72,75.79l-5.18.11.09.09v-4.2h4.81c.06,1.31.13,2.7.19,4.09Z"/><path class="cls-22" d="M432.48,62.44v4h-4.75v-4Z"/><path class="cls-22" d="M436.92,75.9v4.2h-4.2c0-1.35,0-2.83,0-4.31l-.08.09L437,76Z"/><path class="cls-22" d="M427.54,75.9v4.22H423.4V76h4.23Z"/><path class="cls-22" d="M387.73,75.74V53.62h22.12V75.74Zm17.74-4.29V58h-13.3V71.45Z"/><path class="cls-22" d="M544.2,75.82H522.08V53.7H544.2Zm-4.36-4.31V58.07H526.56V71.51Z"/><path class="cls-22" d="M387.81,187.92h22.12V210H387.81Zm4.36,4.31v13.45h13.29V192.23Z"/><path class="cls-22" d="M445.74,179v8.57l4.37.39v4.25h-13V188l4.16-.35V179Z"/><path class="cls-22" d="M495.11,71.54h-4.22V66.78H495q0,2.43,0,4.85Z"/><path class="cls-22" d="M486.27,62.25V57.79h4.46v4.46Z"/><path class="cls-22" d="M396.39,160.88v4.46h-4.46v-4.46Z"/><path class="cls-22" d="M526.25,129.73q0-2.23.09-4.46l-.08.09h5.08l-.08-.09v4.46Z"/><path class="cls-23" d="M400.68,134.11h4.8v4.11h-4.71V134Z"/><path class="cls-23" d="M405.76,120.89v4.46h-5.08v-4.46Z"/><path class="cls-23" d="M400.78,134h-4.2v-4.13h4.11c0,1.42,0,2.82,0,4.22Z"/><path class="cls-23" d="M410,129.64h4.46v4.46H410Z"/><path class="cls-23" d="M405.67,125.27h4.46v4.46h-4.46Z"/><path class="cls-23" d="M410.12,152.24V148h4.13v4.11H410Z"/><path class="cls-23" d="M472.61,142.76v5.08h-4.36v-5.08l-.09.09Z"/><path class="cls-23" d="M450,134h5.08v4.46H450Z"/><path class="cls-23" d="M468.25,142.77H464v-4.13h4.11c0,1.42,0,2.82,0,4.22Z"/><path class="cls-23" d="M455.11,125.35h-5v8.75h-4.46v-4.22l-4.11-.35v-4l4.21-.36v-4.25l-.1.09h4.46v-5.09l-.09.1h5.09Z"/><path class="cls-23" d="M436.91,121v-4.82l4.23-.35.38-4.28h8.6q0,2.23-.09,4.47l.09-.1h-4.46V121l.1-.09Z"/><path class="cls-23" d="M459.49,170.25v4.46H455v-4.46Z"/><path class="cls-23" d="M441.37,147.76v4.46h-4.2v-4.46Z"/><path class="cls-23" d="M521.86,183.62v3.91h-4.08v-3.91Z"/><path class="cls-23" d="M441.28,62.16h8.56l.38,4.24h9.1l.25-3.94h8.5v9.17h4.54l-.09-.09V76l.1-.09H468.4v8.84H477l-.1-.09v4.21l-4.28.36v4.27h-4.2L468,89.12h-4.27v-13l-4.37-.19.09.09V71.63H445.82V66.8l-4.34-.39Z"/><path class="cls-23" d="M441.38,98.49V89.13h4.37l-.09-.1v4.22h4.46V89l-.09.1,13.83-.1v4.2l-4.47.37v4.88l.1-.09H455v4.46l.09-.1h-9.46l.09.1V98.4h-4.46Z"/><path class="cls-23" d="M477,121h-4.46q0-4.73,0-9.45h4.23V107.4H472.6v4.21h-4.2v-8.84H482q0,6.6,0,13.21h-5Z"/><path class="cls-23" d="M450,111.61v-4.25l5.09-.28v-4.31l-.09.1h4.46V98.4l-.1.09h4.47V116h-4.2l-.37-4.37Z"/><path class="cls-23" d="M472.52,93.4H482v5.08h-9.46Z"/><path class="cls-23" d="M490.73,98.4v4.46h-8.83V98.4Z"/><path class="cls-23" d="M526.34,121h-4.46v-4.82h4.46Z"/><path class="cls-23" d="M531.34,125.35h-5.08v-4.46h5.08Z"/><path class="cls-23" d="M476.89,80.38l5.09-.1v4.46l-5.09-.09.1.09V80.28Z"/><path class="cls-23" d="M490.73,93.49h-4.46V89h4.46Z"/><path class="cls-23" d="M486.35,89.12h-4.46V84.66h4.46Z"/><path class="cls-23" d="M432.54,93.4h4.25l.28,5.09h4.31l-.1-.09v4.46h4.46l-.09-.1v4.47h-8.75V103l-4.37-.36Z"/><path class="cls-23" d="M445.74,89.13v-4.2H450v4.2l.09-.1h-4.46Z"/><path class="cls-23" d="M459.41,75.89v4.2h-4.13V76h4.22Z"/><path class="cls-23" d="M445.92,76.09h4v4h-4Z"/><path class="cls-23" d="M472.6,71.64V66.81h4.13v4.73h-4.22Z"/><path class="cls-23" d="M472.51,76h4.38v4.38l.09-.1h-4.37V75.91Z"/><path class="cls-23" d="M405.47,71.45h-13.3V58h13.3Z"/><path class="cls-23" d="M539.84,71.51H526.56V58.07h13.28Z"/><path class="cls-23" d="M392.17,192.23h13.29v13.45H392.17Z"/><path class="cls-22" d="M445.66,121v-5.09h4.46V121Z"/><path class="cls-22" d="M472.61,75.91v4.37H477v4.46H468.4V75.91Z"/><path class="cls-22" d="M445.66,89h4.46v4.22h-4.46Z"/><path class="cls-22" d="M445.74,102.86h-4.46V98.4h4.46Z"/><path class="cls-22" d="M459.49,98.4v4.46H455V98.4Z"/><path class="cls-22" d="M472.6,111.61V107.4h4.14v4.13h-4.23Z"/></g></g></svg>