<svg xmlns="http://www.w3.org/2000/svg" viewBox="0 0 212.03 380.84"><defs><style>.cls-1{fill:#898989;}.cls-2{font-size:7.52px;fill:#10386b;font-family:FZHTJW--GB1-0, FZHTJW -GB1-0-GBpc-EUC-H;}.cls-11,.cls-3,.cls-5{fill:#231815;}.cls-3{font-size:8.12px;}.cls-4{fill:#d3d3d4;}.cls-6,.cls-7,.cls-8,.cls-9{fill:none;stroke:#231815;}.cls-6{stroke-width:0.44px;}.cls-7,.cls-9{stroke-miterlimit:3.86;}.cls-7{stroke-width:0.31px;}.cls-8{stroke-width:0.19px;}.cls-9{stroke-width:0.42px;}.cls-10{fill:#fff;}.cls-11{font-size:6.41px;font-family:ArialMT, Arial;}.cls-12{letter-spacing:-0.06em;}.cls-13{letter-spacing:-0.06em;}</style></defs><title>hitrobot_hrg_en_ch-gray_1</title><g id="图层_2" data-name="图层 2"><g id="图层_1-2" data-name="图层 1"><rect class="cls-1" x="87.34" y="71.65" width="0.56" height="246.55"/><path class="cls-1" d="M96.7,71.85h7.24V91.27h-2V89.36h-3.3v2.35h-2ZM102,87.48V73.73h-3.3V87.48Zm13-18.82-.46.74q3.22,6,8,8.33-.79,1-1.5,1.91a24.18,24.18,0,0,1-7.62-8.41,26,26,0,0,1-7.73,8.55,19,19,0,0,0-1.42-1.72,22.35,22.35,0,0,0,8.2-9.4ZM106.73,84.2h12.92V95.51h-2.08V93.87h-8.77v1.64h-2.08Zm1.07-5.49h11v1.91h-11ZM117.57,92V86.11h-8.77V92Z"/><path class="cls-1" d="M95.69,123.16h12V104.94H97.25v-2.19h23.28v2.19H110.06v18.22h12v2.13H95.69Z"/><path class="cls-1" d="M95.28,157q11.27-5,12.16-15.05H95.77v-2.13h11.76q.07-3.67.07-7.4H110q0,3.67-.07,7.4H122v2.13H109.87q1.94,10.91,12.73,14.4a22.81,22.81,0,0,0-2.08,2.21,18.92,18.92,0,0,1-11.63-12.74q-2.13,8.29-11.92,13.29Q96.43,158.33,95.28,157Z"/><path class="cls-1" d="M95.25,181.23a30.72,30.72,0,0,0,4.36-9.83H95.53v-1.86h4.26v-5.38h2v5.38h3.82v1.86h-3.82v4.53l1.09-1.09q2.1,1.91,3.31,3.12l-1.48,1.5q-1.68-1.86-2.92-3.09v14.42h-2V176.15a24.44,24.44,0,0,1-3.63,7.49Q95.72,182.41,95.25,181.23ZM109.65,168v9q0,9.78-4.89,14.18c-.51-.62-1-1.24-1.61-1.86q4.32-3.8,4.32-11.83V165.91h10.16v20.54c0,.91.32,1.37,1,1.37h.63q.87,0,1.12-1.53.27-2.1.38-4.53a22.23,22.23,0,0,0,2.08.87q-.25,2.7-.49,4.43-.44,2.89-2.79,2.9h-1.45q-2.62,0-2.62-3.11V168Z"/><path class="cls-1" d="M96.21,207.5h11a8.17,8.17,0,0,0,.55-2.38l2,.27a12.22,12.22,0,0,1-.48,2.1h6q-1.09-.79-2.31-1.56l1.12-1.23a38.87,38.87,0,0,1,3.25,2.13l-.62.66h5.09v1.8H111.24q3.16,3.09,11.2,2.92-.66,1.12-1.12,2.1l-1.39-.12v8.35H118V221h-5.85v1.48h-1.91v-8.44H119q-7.81-1-10-4.78h-.49q-1.53,3.25-9.91,4.78h8.74v8.44h-1.91V221H99.62v1.5H97.71v-8.3l-1.5.27q-.41-.82-1.07-1.94,9.12-1.17,11-3.28H96.21Zm1.47-9.95h9.59v8h-1.91v-.85H99.6v1.12H97.69Zm7.68,1.69H99.6V203h5.76Zm0,16.53H99.62v3.58h5.76Zm4.84-18.22h9.67v8.06H118v-1h-5.85v.85h-1.91Zm7.76,1.69h-5.85V203H118Zm0,16.53h-5.85v3.58H118Z"/><path class="cls-1" d="M95.34,252.47q11.91-6.88,12.59-24.15h2.4a52.53,52.53,0,0,1-.57,5.57q3.39,13.66,12.73,18-1.15,1.26-2,2.38-8.11-4.59-11.57-16.24-3,11.26-11.84,16.54A23,23,0,0,0,95.34,252.47Z"/><path class="cls-1" d="M96.15,278.05h11.78V276.2h1.91v1.86h11.75v1.75H112a27.84,27.84,0,0,0,10.63,4.56q-.74,1.15-1.28,2a29.82,29.82,0,0,1-11.47-6.1v6.41h-1.91v-6.43a33.13,33.13,0,0,1-11.47,6.19q-.57-.85-1.28-1.72a28.94,28.94,0,0,0,10.54-4.92H96.15Zm12.1-17.46,1.61-1a18,18,0,0,1,2.1,2.79l-1.26.79h10.46v1.7H110.83v1.94H120v1.58h-9.15v1.94H120v1.59h-9.15v2h10.44v1.69H101.35v1H99.43v-9.73a31.28,31.28,0,0,1-2.87,3,11,11,0,0,0-1.31-1.8,29.2,29.2,0,0,0,6.69-8.14l1.88.84q-.76,1.26-1.56,2.4H110A29.84,29.84,0,0,0,108.26,260.6Zm-6.91,6.23h7.57v-1.94h-7.57Zm0,3.52h7.57v-1.94h-7.57Zm0,3.58h7.57v-2h-7.57Z"/><path class="cls-1" d="M96.95,293.09h23.9v25.49h-2.08v-1.34H99v1.36H96.95ZM118.78,295H99v20.33h19.75Zm-18.41,4.83h10.22V295.9h2v3.93h5.24v1.86H112.6V310q0,4-3.77,4-1.53,0-3.17-.05-.16-1-.44-2.16a26.77,26.77,0,0,0,3.12.22q2.24,0,2.24-2.54v-6.39a30,30,0,0,1-9.81,9.13,9.9,9.9,0,0,0-1.39-1.83,28.38,28.38,0,0,0,9.89-8.66h-8.91Z"/><path class="cls-1" d="M79.46,80.68v1.46H66.19V80.68h6.17V73.26H66.19V71.73H79.46v1.53H73.69v7.42Z"/><path class="cls-1" d="M79.46,90.76v1.46H66.19V90.76Z"/><path class="cls-1" d="M79.46,110.31H78.2V105.8h-12v-1.52h12V99.77h1.26Z"/><path class="cls-1" d="M66.19,139.34v-2.05l6-4.58V129.2h-6v-1.53H79.46v6.17q-.2,4.24-3.58,4.51-3.45,0-3.71-4ZM78.13,129.2H73.49v4.31q.06,3.25,2.45,3.25,2.12-.07,2.19-3.25Z"/><path class="cls-1" d="M66,152.2q.33-6,6.56-6.3,6.76.26,7.09,6.5-.4,5.9-7,6.3Q66.26,158.43,66,152.2Zm12.33.07q-.4-4.38-5.64-4.84-5.1.26-5.5,4.7.27,4.64,5.5,4.91Q77.93,156.64,78.33,152.26Z"/><path class="cls-1" d="M66.19,171.75v-5.5H79.46v5.17q-.2,4-3.32,4.24A3,3,0,0,1,73.22,173h-.07a3.38,3.38,0,0,1-3.38,3.18Q66.33,176,66.19,171.75Zm11.93-.66v-3.45H73.69v3.45q.13,2.71,2.39,3Q78.06,173.94,78.13,171.09Zm-5.77.2v-3.64h-5v3.91q0,3.12,2.59,3.12Q72.23,174.47,72.36,171.29Z"/><path class="cls-1" d="M66,189.85q.33-6,6.56-6.3,6.76.27,7.09,6.5-.4,5.9-7,6.29Q66.26,196.08,66,189.85Zm12.33.07q-.4-4.38-5.64-4.84-5.1.26-5.5,4.71.27,4.64,5.5,4.9Q77.93,194.29,78.33,189.91Z"/><path class="cls-1" d="M79.46,213.51H78.2V209h-12v-1.53h12V203h1.26Z"/><path class="cls-1" d="M73,237v5.7H68.18Q66,241,66,237q.33-6.23,6.63-6.56,6.76.26,7,6.3-.07,4.44-3.91,5.9l-.4-1.66a4.28,4.28,0,0,0,3-4.31q-.4-4.25-5.64-4.64-5.1.33-5.5,4.9a5.31,5.31,0,0,0,1.59,4.31h3V237Z"/><path class="cls-1" d="M66.19,262.29v-2.06l6-4.57v-3.52h-6v-1.53H79.46v6.17q-.2,4.24-3.58,4.51-3.45,0-3.71-4Zm11.93-10.14H73.49v4.31q.06,3.24,2.45,3.25,2.12-.07,2.19-3.25Z"/><path class="cls-1" d="M66,275.15q.33-6,6.56-6.3,6.76.26,7.09,6.5-.4,5.9-7,6.3Q66.26,281.38,66,275.15Zm12.33.07q-.4-4.37-5.64-4.84-5.1.27-5.5,4.71.27,4.64,5.5,4.9Q77.93,279.59,78.33,275.21Z"/><path class="cls-1" d="M79.46,299.74H71.7q-5.77.06-5.7-5.31t5.7-5.17h7.76v1.53H71.76q-4.71-.07-4.58,3.65-.13,4,4.58,3.85h7.69Z"/><path class="cls-1" d="M71.57,313.72v-4.11H66.19v-1.46H79.46v5.7q-.2,4-3.91,4.44Q71.63,318.23,71.57,313.72Zm6.56-.26v-3.85H72.89v3.85q.07,3.18,2.72,3.25Q78.06,316.57,78.13,313.46Z"/><text class="cls-2" transform="translate(71.63 378.54) scale(0.95 1)">■<tspan class="cls-3" x="7.52" y="0" xml:space="preserve"> 标准字体制图</tspan></text><rect class="cls-4" x="14.72" y="31.05" width="23.04" height="23.3"/><path class="cls-5" d="M23.56,42.83l-.89,2.49H21.49l3.24-8.6H26l3.1,8.6H27.88L27,42.83Zm3.05-1L25.34,38h0L23.93,41.8Z"/><rect class="cls-6" x="14.38" y="30.91" width="164.97" height="329.84"/><line class="cls-7" x1="37.94" y1="30.91" x2="37.94" y2="360.75"/><line class="cls-7" x1="61.62" y1="30.91" x2="61.62" y2="360.75"/><line class="cls-7" x1="85.13" y1="30.91" x2="85.13" y2="360.75"/><line class="cls-7" x1="108.65" y1="30.91" x2="108.65" y2="360.75"/><line class="cls-7" x1="132.16" y1="30.91" x2="132.16" y2="360.75"/><line class="cls-7" x1="155.83" y1="30.91" x2="155.83" y2="360.75"/><line class="cls-7" x1="179.35" y1="337.16" x2="14.22" y2="337.16"/><line class="cls-7" x1="179.35" y1="313.65" x2="14.22" y2="313.65"/><line class="cls-7" x1="179.35" y1="290.05" x2="14.22" y2="290.05"/><line class="cls-7" x1="179.35" y1="266.54" x2="14.22" y2="266.54"/><line class="cls-7" x1="179.35" y1="242.94" x2="14.22" y2="242.94"/><line class="cls-7" x1="179.35" y1="219.43" x2="14.22" y2="219.43"/><line class="cls-7" x1="179.35" y1="195.83" x2="14.22" y2="195.83"/><line class="cls-7" x1="179.35" y1="172.24" x2="14.22" y2="172.24"/><line class="cls-7" x1="179.35" y1="148.73" x2="14.22" y2="148.73"/><line class="cls-7" x1="179.35" y1="125.13" x2="14.22" y2="125.13"/><line class="cls-7" x1="179.35" y1="101.62" x2="14.22" y2="101.62"/><line class="cls-7" x1="179.35" y1="78.02" x2="14.22" y2="78.02"/><line class="cls-7" x1="179.35" y1="54.51" x2="14.22" y2="54.51"/><line class="cls-8" x1="136.91" y1="54.42" x2="136.91" y2="337.08"/><line class="cls-8" x1="141.64" y1="54.42" x2="141.64" y2="337.08"/><line class="cls-8" x1="146.37" y1="54.42" x2="146.37" y2="337.08"/><line class="cls-8" x1="151.09" y1="54.42" x2="151.09" y2="337.08"/><line class="cls-8" x1="155.83" y1="332.39" x2="132.18" y2="332.39"/><line class="cls-8" x1="155.83" y1="327.63" x2="132.18" y2="327.63"/><line class="cls-8" x1="155.83" y1="322.94" x2="132.18" y2="322.94"/><line class="cls-8" x1="155.83" y1="318.24" x2="132.18" y2="318.24"/><line class="cls-8" x1="155.83" y1="308.79" x2="132.18" y2="308.79"/><line class="cls-8" x1="155.83" y1="304.1" x2="132.18" y2="304.1"/><line class="cls-8" x1="155.83" y1="299.41" x2="132.18" y2="299.41"/><line class="cls-8" x1="155.83" y1="294.71" x2="132.18" y2="294.71"/><line class="cls-8" x1="155.83" y1="285.26" x2="132.18" y2="285.26"/><line class="cls-8" x1="155.83" y1="280.57" x2="132.18" y2="280.57"/><line class="cls-8" x1="155.83" y1="275.87" x2="132.18" y2="275.87"/><line class="cls-8" x1="155.83" y1="271.11" x2="132.18" y2="271.11"/><line class="cls-8" x1="155.83" y1="261.73" x2="132.18" y2="261.73"/><line class="cls-8" x1="155.83" y1="256.96" x2="132.18" y2="256.96"/><line class="cls-8" x1="155.83" y1="252.27" x2="132.18" y2="252.27"/><line class="cls-8" x1="155.83" y1="247.58" x2="132.18" y2="247.58"/><line class="cls-8" x1="155.83" y1="238.13" x2="132.18" y2="238.13"/><line class="cls-8" x1="155.83" y1="233.43" x2="132.18" y2="233.43"/><line class="cls-8" x1="155.83" y1="228.74" x2="132.18" y2="228.74"/><line class="cls-8" x1="155.83" y1="224.05" x2="132.18" y2="224.05"/><line class="cls-8" x1="155.83" y1="214.59" x2="132.18" y2="214.59"/><line class="cls-8" x1="155.83" y1="209.9" x2="132.18" y2="209.9"/><line class="cls-8" x1="155.83" y1="205.21" x2="132.18" y2="205.21"/><line class="cls-8" x1="155.83" y1="200.45" x2="132.18" y2="200.45"/><line class="cls-8" x1="155.83" y1="191.06" x2="132.18" y2="191.06"/><line class="cls-8" x1="155.83" y1="186.3" x2="132.18" y2="186.3"/><line class="cls-8" x1="155.83" y1="181.61" x2="132.18" y2="181.61"/><line class="cls-8" x1="155.83" y1="176.92" x2="132.18" y2="176.92"/><line class="cls-8" x1="155.83" y1="167.46" x2="132.18" y2="167.46"/><line class="cls-8" x1="155.83" y1="162.77" x2="132.18" y2="162.77"/><line class="cls-8" x1="155.83" y1="158.08" x2="132.18" y2="158.08"/><line class="cls-8" x1="155.83" y1="153.38" x2="132.18" y2="153.38"/><path class="cls-8" d="M132.18,148.62"/><path class="cls-8" d="M155.83,148.62"/><line class="cls-8" x1="155.83" y1="143.93" x2="132.18" y2="143.93"/><line class="cls-8" x1="155.83" y1="139.24" x2="132.18" y2="139.24"/><line class="cls-8" x1="155.83" y1="134.54" x2="132.18" y2="134.54"/><line class="cls-8" x1="155.83" y1="129.78" x2="132.18" y2="129.78"/><line class="cls-8" x1="155.83" y1="120.4" x2="132.18" y2="120.4"/><line class="cls-8" x1="155.83" y1="115.63" x2="132.18" y2="115.63"/><line class="cls-8" x1="155.83" y1="110.94" x2="132.18" y2="110.94"/><line class="cls-8" x1="155.83" y1="106.25" x2="132.18" y2="106.25"/><line class="cls-8" x1="155.83" y1="96.8" x2="132.18" y2="96.8"/><line class="cls-8" x1="155.83" y1="92.1" x2="132.18" y2="92.1"/><line class="cls-8" x1="155.83" y1="87.41" x2="132.18" y2="87.41"/><line class="cls-8" x1="155.83" y1="82.72" x2="132.18" y2="82.72"/><line class="cls-8" x1="155.83" y1="73.26" x2="132.18" y2="73.26"/><line class="cls-8" x1="155.83" y1="68.57" x2="132.18" y2="68.57"/><line class="cls-8" x1="155.83" y1="63.88" x2="132.18" y2="63.88"/><line class="cls-8" x1="155.83" y1="59.12" x2="132.18" y2="59.12"/><line class="cls-8" x1="113.29" y1="54.42" x2="113.29" y2="337.08"/><line class="cls-8" x1="118.02" y1="54.42" x2="118.02" y2="337.08"/><line class="cls-8" x1="122.75" y1="54.42" x2="122.75" y2="337.08"/><line class="cls-8" x1="127.48" y1="54.42" x2="127.48" y2="337.08"/><line class="cls-8" x1="132.21" y1="332.39" x2="108.56" y2="332.39"/><line class="cls-8" x1="132.21" y1="327.63" x2="108.56" y2="327.63"/><line class="cls-8" x1="132.21" y1="322.94" x2="108.56" y2="322.94"/><line class="cls-8" x1="132.21" y1="318.24" x2="108.56" y2="318.24"/><line class="cls-8" x1="132.21" y1="308.79" x2="108.56" y2="308.79"/><line class="cls-8" x1="132.21" y1="304.1" x2="108.56" y2="304.1"/><line class="cls-8" x1="132.21" y1="299.41" x2="108.56" y2="299.41"/><line class="cls-8" x1="132.21" y1="294.71" x2="108.56" y2="294.71"/><line class="cls-8" x1="132.21" y1="285.26" x2="108.56" y2="285.26"/><line class="cls-8" x1="132.21" y1="280.57" x2="108.56" y2="280.57"/><line class="cls-8" x1="132.21" y1="275.87" x2="108.56" y2="275.87"/><line class="cls-8" x1="132.21" y1="271.11" x2="108.56" y2="271.11"/><line class="cls-8" x1="132.21" y1="261.73" x2="108.56" y2="261.73"/><line class="cls-8" x1="132.21" y1="256.96" x2="108.56" y2="256.96"/><line class="cls-8" x1="132.21" y1="252.27" x2="108.56" y2="252.27"/><line class="cls-8" x1="132.21" y1="247.58" x2="108.56" y2="247.58"/><line class="cls-8" x1="132.21" y1="238.13" x2="108.56" y2="238.13"/><line class="cls-8" x1="132.21" y1="233.43" x2="108.56" y2="233.43"/><line class="cls-8" x1="132.21" y1="228.74" x2="108.56" y2="228.74"/><line class="cls-8" x1="132.21" y1="224.05" x2="108.56" y2="224.05"/><line class="cls-8" x1="132.21" y1="214.59" x2="108.56" y2="214.59"/><line class="cls-8" x1="132.21" y1="209.9" x2="108.56" y2="209.9"/><line class="cls-8" x1="132.21" y1="205.21" x2="108.56" y2="205.21"/><line class="cls-8" x1="132.21" y1="200.45" x2="108.56" y2="200.45"/><line class="cls-8" x1="132.21" y1="191.06" x2="108.56" y2="191.06"/><line class="cls-8" x1="132.21" y1="186.3" x2="108.56" y2="186.3"/><line class="cls-8" x1="132.21" y1="181.61" x2="108.56" y2="181.61"/><line class="cls-8" x1="132.21" y1="176.92" x2="108.56" y2="176.92"/><line class="cls-8" x1="132.21" y1="167.46" x2="108.56" y2="167.46"/><line class="cls-8" x1="132.21" y1="162.77" x2="108.56" y2="162.77"/><line class="cls-8" x1="132.21" y1="158.08" x2="108.56" y2="158.08"/><line class="cls-8" x1="132.21" y1="153.38" x2="108.56" y2="153.38"/><line class="cls-8" x1="132.21" y1="143.93" x2="108.56" y2="143.93"/><line class="cls-8" x1="132.21" y1="139.24" x2="108.56" y2="139.24"/><line class="cls-8" x1="132.21" y1="134.54" x2="108.56" y2="134.54"/><line class="cls-8" x1="132.21" y1="129.78" x2="108.56" y2="129.78"/><line class="cls-8" x1="132.21" y1="120.4" x2="108.56" y2="120.4"/><line class="cls-8" x1="132.21" y1="115.63" x2="108.56" y2="115.63"/><line class="cls-8" x1="132.21" y1="110.94" x2="108.56" y2="110.94"/><line class="cls-8" x1="132.21" y1="106.25" x2="108.56" y2="106.25"/><line class="cls-8" x1="132.21" y1="96.8" x2="108.56" y2="96.8"/><line class="cls-8" x1="132.21" y1="92.1" x2="108.56" y2="92.1"/><line class="cls-8" x1="132.21" y1="87.41" x2="108.56" y2="87.41"/><line class="cls-8" x1="132.21" y1="82.72" x2="108.56" y2="82.72"/><line class="cls-8" x1="132.21" y1="73.26" x2="108.56" y2="73.26"/><line class="cls-8" x1="132.21" y1="68.57" x2="108.56" y2="68.57"/><line class="cls-8" x1="132.21" y1="63.88" x2="108.56" y2="63.88"/><line class="cls-8" x1="132.21" y1="59.12" x2="108.56" y2="59.12"/><line class="cls-8" x1="89.78" y1="54.42" x2="89.78" y2="337.08"/><line class="cls-8" x1="94.5" y1="54.42" x2="94.5" y2="337.08"/><line class="cls-8" x1="99.24" y1="54.42" x2="99.24" y2="337.08"/><line class="cls-8" x1="103.96" y1="54.42" x2="103.96" y2="337.08"/><line class="cls-8" x1="108.7" y1="332.39" x2="85.04" y2="332.39"/><line class="cls-8" x1="108.7" y1="327.63" x2="85.04" y2="327.63"/><line class="cls-8" x1="108.7" y1="322.94" x2="85.04" y2="322.94"/><line class="cls-8" x1="108.7" y1="318.24" x2="85.04" y2="318.24"/><line class="cls-8" x1="108.7" y1="308.79" x2="85.04" y2="308.79"/><line class="cls-8" x1="108.7" y1="304.1" x2="85.04" y2="304.1"/><line class="cls-8" x1="108.7" y1="299.41" x2="85.04" y2="299.41"/><line class="cls-8" x1="108.7" y1="294.71" x2="85.04" y2="294.71"/><line class="cls-8" x1="108.7" y1="285.26" x2="85.04" y2="285.26"/><line class="cls-8" x1="108.7" y1="280.57" x2="85.04" y2="280.57"/><line class="cls-8" x1="108.7" y1="275.87" x2="85.04" y2="275.87"/><line class="cls-8" x1="108.7" y1="271.11" x2="85.04" y2="271.11"/><line class="cls-8" x1="108.7" y1="261.73" x2="85.04" y2="261.73"/><line class="cls-8" x1="108.7" y1="256.96" x2="85.04" y2="256.96"/><line class="cls-8" x1="108.7" y1="252.27" x2="85.04" y2="252.27"/><line class="cls-8" x1="108.7" y1="247.58" x2="85.04" y2="247.58"/><line class="cls-8" x1="108.7" y1="238.13" x2="85.04" y2="238.13"/><line class="cls-8" x1="108.7" y1="233.43" x2="85.04" y2="233.43"/><line class="cls-8" x1="108.7" y1="228.74" x2="85.04" y2="228.74"/><line class="cls-8" x1="108.7" y1="224.05" x2="85.04" y2="224.05"/><line class="cls-8" x1="108.7" y1="214.59" x2="85.04" y2="214.59"/><line class="cls-8" x1="108.7" y1="209.9" x2="85.04" y2="209.9"/><line class="cls-8" x1="108.7" y1="205.21" x2="85.04" y2="205.21"/><line class="cls-8" x1="108.7" y1="200.45" x2="85.04" y2="200.45"/><line class="cls-8" x1="108.7" y1="191.06" x2="85.04" y2="191.06"/><line class="cls-8" x1="108.7" y1="186.3" x2="85.04" y2="186.3"/><line class="cls-8" x1="108.7" y1="181.61" x2="85.04" y2="181.61"/><line class="cls-8" x1="108.7" y1="176.92" x2="85.04" y2="176.92"/><line class="cls-8" x1="108.7" y1="167.46" x2="85.04" y2="167.46"/><line class="cls-8" x1="108.7" y1="162.77" x2="85.04" y2="162.77"/><line class="cls-8" x1="108.7" y1="158.08" x2="85.04" y2="158.08"/><line class="cls-8" x1="108.7" y1="153.38" x2="85.04" y2="153.38"/><line class="cls-8" x1="108.7" y1="143.93" x2="85.04" y2="143.93"/><line class="cls-8" x1="108.7" y1="139.24" x2="85.04" y2="139.24"/><line class="cls-8" x1="108.7" y1="134.54" x2="85.04" y2="134.54"/><line class="cls-8" x1="108.7" y1="129.78" x2="85.04" y2="129.78"/><line class="cls-8" x1="108.7" y1="120.4" x2="85.04" y2="120.4"/><line class="cls-8" x1="108.7" y1="115.63" x2="85.04" y2="115.63"/><line class="cls-8" x1="108.7" y1="110.94" x2="85.04" y2="110.94"/><line class="cls-8" x1="108.7" y1="106.25" x2="85.04" y2="106.25"/><line class="cls-8" x1="108.7" y1="96.8" x2="85.04" y2="96.8"/><line class="cls-8" x1="108.7" y1="92.1" x2="85.04" y2="92.1"/><line class="cls-8" x1="108.7" y1="87.41" x2="85.04" y2="87.41"/><line class="cls-8" x1="108.7" y1="82.72" x2="85.04" y2="82.72"/><line class="cls-8" x1="108.7" y1="73.26" x2="85.04" y2="73.26"/><line class="cls-8" x1="108.7" y1="68.57" x2="85.04" y2="68.57"/><line class="cls-8" x1="108.7" y1="63.88" x2="85.04" y2="63.88"/><line class="cls-8" x1="108.7" y1="59.12" x2="85.04" y2="59.12"/><line class="cls-8" x1="66.26" y1="54.42" x2="66.26" y2="337.08"/><line class="cls-8" x1="70.98" y1="54.42" x2="70.98" y2="337.08"/><line class="cls-8" x1="75.72" y1="54.42" x2="75.72" y2="337.08"/><line class="cls-8" x1="80.44" y1="54.42" x2="80.44" y2="337.08"/><line class="cls-8" x1="85.18" y1="332.39" x2="61.52" y2="332.39"/><line class="cls-8" x1="85.18" y1="327.63" x2="61.52" y2="327.63"/><line class="cls-8" x1="85.18" y1="322.94" x2="61.52" y2="322.94"/><line class="cls-8" x1="85.18" y1="318.24" x2="61.52" y2="318.24"/><line class="cls-8" x1="85.18" y1="308.79" x2="61.52" y2="308.79"/><line class="cls-8" x1="85.18" y1="304.1" x2="61.52" y2="304.1"/><line class="cls-8" x1="85.18" y1="299.41" x2="61.52" y2="299.41"/><line class="cls-8" x1="85.18" y1="294.71" x2="61.52" y2="294.71"/><line class="cls-8" x1="85.18" y1="285.26" x2="61.52" y2="285.26"/><line class="cls-8" x1="85.18" y1="280.57" x2="61.52" y2="280.57"/><line class="cls-8" x1="85.18" y1="275.87" x2="61.52" y2="275.87"/><line class="cls-8" x1="85.18" y1="271.11" x2="61.52" y2="271.11"/><line class="cls-8" x1="85.18" y1="261.73" x2="61.52" y2="261.73"/><line class="cls-8" x1="85.18" y1="256.96" x2="61.52" y2="256.96"/><line class="cls-8" x1="85.18" y1="252.27" x2="61.52" y2="252.27"/><line class="cls-8" x1="85.18" y1="247.58" x2="61.52" y2="247.58"/><line class="cls-8" x1="85.18" y1="238.13" x2="61.52" y2="238.13"/><line class="cls-8" x1="85.18" y1="233.43" x2="61.52" y2="233.43"/><line class="cls-8" x1="85.18" y1="228.74" x2="61.52" y2="228.74"/><line class="cls-8" x1="85.18" y1="224.05" x2="61.52" y2="224.05"/><line class="cls-8" x1="85.18" y1="214.59" x2="61.52" y2="214.59"/><line class="cls-8" x1="85.18" y1="209.9" x2="61.52" y2="209.9"/><line class="cls-8" x1="85.18" y1="205.21" x2="61.52" y2="205.21"/><line class="cls-8" x1="85.18" y1="200.45" x2="61.52" y2="200.45"/><line class="cls-8" x1="85.18" y1="191.06" x2="61.52" y2="191.06"/><line class="cls-8" x1="85.18" y1="186.3" x2="61.52" y2="186.3"/><line class="cls-8" x1="85.18" y1="181.61" x2="61.52" y2="181.61"/><line class="cls-8" x1="85.18" y1="176.92" x2="61.52" y2="176.92"/><line class="cls-8" x1="85.18" y1="167.46" x2="61.52" y2="167.46"/><line class="cls-8" x1="85.18" y1="162.77" x2="61.52" y2="162.77"/><line class="cls-8" x1="85.18" y1="158.08" x2="61.52" y2="158.08"/><line class="cls-8" x1="85.18" y1="153.38" x2="61.52" y2="153.38"/><line class="cls-8" x1="85.18" y1="143.93" x2="61.52" y2="143.93"/><line class="cls-8" x1="85.18" y1="139.24" x2="61.52" y2="139.24"/><line class="cls-8" x1="85.18" y1="134.54" x2="61.52" y2="134.54"/><line class="cls-8" x1="85.18" y1="129.78" x2="61.52" y2="129.78"/><line class="cls-8" x1="85.18" y1="120.4" x2="61.52" y2="120.4"/><line class="cls-8" x1="85.18" y1="115.63" x2="61.52" y2="115.63"/><line class="cls-8" x1="85.18" y1="110.94" x2="61.52" y2="110.94"/><line class="cls-8" x1="85.18" y1="106.25" x2="61.52" y2="106.25"/><line class="cls-8" x1="85.18" y1="96.8" x2="61.52" y2="96.8"/><line class="cls-8" x1="85.18" y1="92.1" x2="61.52" y2="92.1"/><line class="cls-8" x1="85.18" y1="87.41" x2="61.52" y2="87.41"/><line class="cls-8" x1="85.18" y1="82.72" x2="61.52" y2="82.72"/><line class="cls-8" x1="85.18" y1="73.26" x2="61.52" y2="73.26"/><line class="cls-8" x1="85.18" y1="68.57" x2="61.52" y2="68.57"/><line class="cls-8" x1="85.18" y1="63.88" x2="61.52" y2="63.88"/><line class="cls-8" x1="85.18" y1="59.12" x2="61.52" y2="59.12"/><line class="cls-8" x1="42.69" y1="54.42" x2="42.69" y2="337.08"/><line class="cls-8" x1="47.41" y1="54.42" x2="47.41" y2="337.08"/><line class="cls-8" x1="52.15" y1="54.42" x2="52.15" y2="337.08"/><line class="cls-8" x1="56.87" y1="54.42" x2="56.87" y2="337.08"/><line class="cls-8" x1="61.61" y1="332.39" x2="37.95" y2="332.39"/><line class="cls-8" x1="61.61" y1="327.63" x2="37.95" y2="327.63"/><line class="cls-8" x1="61.61" y1="322.94" x2="37.95" y2="322.94"/><line class="cls-8" x1="61.61" y1="318.24" x2="37.95" y2="318.24"/><line class="cls-8" x1="61.61" y1="308.79" x2="37.95" y2="308.79"/><line class="cls-8" x1="61.61" y1="304.1" x2="37.95" y2="304.1"/><line class="cls-8" x1="61.61" y1="299.41" x2="37.95" y2="299.41"/><line class="cls-8" x1="61.61" y1="294.71" x2="37.95" y2="294.71"/><line class="cls-8" x1="61.61" y1="285.26" x2="37.95" y2="285.26"/><line class="cls-8" x1="61.61" y1="280.57" x2="37.95" y2="280.57"/><line class="cls-8" x1="61.61" y1="275.87" x2="37.95" y2="275.87"/><line class="cls-8" x1="61.61" y1="271.11" x2="37.95" y2="271.11"/><line class="cls-8" x1="61.61" y1="261.73" x2="37.95" y2="261.73"/><line class="cls-8" x1="61.61" y1="256.96" x2="37.95" y2="256.96"/><line class="cls-8" x1="61.61" y1="252.27" x2="37.95" y2="252.27"/><line class="cls-8" x1="61.61" y1="247.58" x2="37.95" y2="247.58"/><line class="cls-8" x1="61.61" y1="238.13" x2="37.95" y2="238.13"/><line class="cls-8" x1="61.61" y1="233.43" x2="37.95" y2="233.43"/><line class="cls-8" x1="61.61" y1="228.74" x2="37.95" y2="228.74"/><line class="cls-8" x1="61.61" y1="224.05" x2="37.95" y2="224.05"/><line class="cls-8" x1="61.61" y1="214.59" x2="37.95" y2="214.59"/><line class="cls-8" x1="61.61" y1="209.9" x2="37.95" y2="209.9"/><line class="cls-8" x1="61.61" y1="205.21" x2="37.95" y2="205.21"/><line class="cls-8" x1="61.61" y1="200.45" x2="37.95" y2="200.45"/><line class="cls-8" x1="61.61" y1="191.06" x2="37.95" y2="191.06"/><line class="cls-8" x1="61.61" y1="186.3" x2="37.95" y2="186.3"/><line class="cls-8" x1="61.61" y1="181.61" x2="37.95" y2="181.61"/><line class="cls-8" x1="61.61" y1="176.92" x2="37.95" y2="176.92"/><line class="cls-8" x1="61.61" y1="167.46" x2="37.95" y2="167.46"/><line class="cls-8" x1="61.61" y1="162.77" x2="37.95" y2="162.77"/><line class="cls-8" x1="61.61" y1="158.08" x2="37.95" y2="158.08"/><line class="cls-8" x1="61.61" y1="153.38" x2="37.95" y2="153.38"/><line class="cls-8" x1="61.61" y1="143.93" x2="37.95" y2="143.93"/><line class="cls-8" x1="61.61" y1="139.24" x2="37.95" y2="139.24"/><line class="cls-8" x1="61.61" y1="134.54" x2="37.95" y2="134.54"/><line class="cls-8" x1="61.61" y1="129.78" x2="37.95" y2="129.78"/><line class="cls-8" x1="61.61" y1="120.4" x2="37.95" y2="120.4"/><line class="cls-8" x1="61.61" y1="115.63" x2="37.95" y2="115.63"/><line class="cls-8" x1="61.61" y1="110.94" x2="37.95" y2="110.94"/><line class="cls-8" x1="61.61" y1="106.25" x2="37.95" y2="106.25"/><line class="cls-8" x1="61.61" y1="96.8" x2="37.95" y2="96.8"/><line class="cls-8" x1="61.61" y1="92.1" x2="37.95" y2="92.1"/><line class="cls-8" x1="61.61" y1="87.41" x2="37.95" y2="87.41"/><line class="cls-8" x1="61.61" y1="82.72" x2="37.95" y2="82.72"/><line class="cls-8" x1="61.61" y1="73.26" x2="37.95" y2="73.26"/><line class="cls-8" x1="61.61" y1="68.57" x2="37.95" y2="68.57"/><line class="cls-8" x1="61.61" y1="63.88" x2="37.95" y2="63.88"/><line class="cls-8" x1="61.61" y1="59.12" x2="37.95" y2="59.12"/><line class="cls-9" x1="122.7" y1="11.13" x2="65.87" y2="11.13"/><line class="cls-9" x1="122.71" y1="28.64" x2="122.71" y2="2.84"/><line class="cls-9" x1="65.87" y1="29.13" x2="65.87" y2="3.32"/><line class="cls-9" x1="203.64" y1="68.57" x2="203.64" y2="318.41"/><line class="cls-9" x1="212.03" y1="318.38" x2="180.99" y2="318.38"/><line class="cls-9" x1="212.03" y1="68.57" x2="180.99" y2="68.57"/><rect class="cls-10" x="194.32" y="180.16" width="17.29" height="28.17"/><text class="cls-11" transform="translate(202 186.36) rotate(90)">10.3<tspan class="cls-12" x="12.47" y="0">A</tspan></text><text class="cls-11" transform="translate(2.08 62.8) rotate(90)">0</text><text class="cls-11" transform="translate(2.08 180.99) rotate(90)">5</text><text class="cls-11" transform="translate(2.08 296.6) rotate(90)">10</text><text class="cls-11" transform="translate(87.57 5.5)">2.7<tspan class="cls-13" x="8.91" y="0">A</tspan></text></g></g></svg>