<svg xmlns="http://www.w3.org/2000/svg" viewBox="0 0 39.72 326.03"><defs><style>.cls-1{font-size:7.52px;font-family:FZHTJW--GB1-0, FZHTJW -GB1-0-GBpc-EUC-H;}.cls-1,.cls-3{fill:#10386b;}.cls-2{fill:#231815;font-size:8.12px;}</style></defs><title>hitrobot_hrg_English_chinese_logo_blue</title><g id="图层_2" data-name="图层 2"><g id="图层_1-2" data-name="图层 1"><text class="cls-1" transform="translate(0 323.73) scale(0.95 1)">■<tspan class="cls-2" x="7.52" y="0" xml:space="preserve"> 标准字体</tspan></text><path class="cls-3" d="M7.68,3.52h8V24.88H13.48v-2.1H9.84v2.58H7.68Zm5.8,17.18V5.59H9.84V20.7ZM27.81,0,27.3.81Q30.85,7.36,36.07,10q-.87,1.05-1.65,2.1A26.58,26.58,0,0,1,26,2.82a28.58,28.58,0,0,1-8.5,9.4A21.25,21.25,0,0,0,16,10.33,24.58,24.58,0,0,0,25,0Zm-9.1,17.1H32.92V29.53H30.63v-1.8H21v1.8H18.71Zm1.17-6H32v2.1H19.88ZM30.63,25.63V19.2H21v6.43Z"/><path class="cls-3" d="M6.57,59.95H19.73v-20H8.28v-2.4h25.6v2.4H22.37v20H35.56v2.34h-29Z"/><path class="cls-3" d="M6.12,97.12q12.39-5.51,13.37-16.55H6.66V78.23H19.59q.07-4,.08-8.14h2.61q0,4-.08,8.14H35.53v2.34H22.16q2.13,12,14,15.83a24.91,24.91,0,0,0-2.28,2.43,20.82,20.82,0,0,1-12.78-14Q18.75,93.94,8,99.44,7.38,98.63,6.12,97.12Z"/><path class="cls-3" d="M6.09,123.81A33.75,33.75,0,0,0,10.88,113H6.39v-2h4.69V105h2.16V111h4.21v2H13.24v5l1.2-1.2q2.31,2.1,3.63,3.42l-1.62,1.65q-1.85-2-3.21-3.4v15.86H11.08v-16.1a26.93,26.93,0,0,1-4,8.23Q6.6,125.11,6.09,123.81Zm15.83-14.57v9.94q0,10.76-5.38,15.59-.84-1-1.77-2,4.75-4.18,4.75-13V107H30.7v22.59q0,1.5,1.05,1.5h.69q1,0,1.23-1.68.3-2.31.42-5a24.52,24.52,0,0,0,2.28,1q-.27,3-.54,4.87-.48,3.18-3.06,3.18H31.18q-2.88,0-2.88-3.42V109.24Z"/><path class="cls-3" d="M7.14,152.7H19.28a8.94,8.94,0,0,0,.6-2.61l2.16.3a13.53,13.53,0,0,1-.53,2.31h6.55q-1.2-.87-2.54-1.71l1.23-1.35q2,1.17,3.58,2.34l-.68.72h5.6v2H23.67q3.47,3.39,12.32,3.21-.72,1.23-1.23,2.31l-1.53-.13v9.18h-2.1V167.6H24.69v1.62h-2.1v-9.28h9.57q-8.59-1.16-11-5.26h-.54q-1.68,3.57-10.91,5.26h9.61v9.28h-2.1V167.6H10.9v1.65H8.79v-9.13l-1.65.3q-.45-.9-1.17-2.13,10-1.29,12-3.61H7.14Zm1.62-10.94H19.31v8.74h-2.1v-.93H10.87v1.23H8.76Zm8.44,1.86H10.87v4.09h6.34Zm0,18.18H10.9v3.94h6.34Zm5.32-20H33.19v8.86h-2.1v-1.05H24.66v.93h-2.1Zm8.53,1.86H24.66v4.09h6.43Zm0,18.18H24.69v3.94h6.43Z"/><path class="cls-3" d="M6.18,202.16Q19.28,194.59,20,175.6h2.64a57.65,57.65,0,0,1-.63,6.13q3.73,15,14,19.77-1.26,1.38-2.22,2.61-8.92-5-12.72-17.86-3.29,12.38-13,18.19A25.66,25.66,0,0,0,6.18,202.16Z"/><path class="cls-3" d="M7.08,230.29H20v-2h2.1v2H35.05v1.92H24.48a30.63,30.63,0,0,0,11.69,5q-.81,1.26-1.41,2.22a32.83,32.83,0,0,1-12.62-6.71v7H20v-7.08a36.46,36.46,0,0,1-12.62,6.81q-.63-.93-1.41-1.89a31.82,31.82,0,0,0,11.6-5.41H7.08Zm13.31-19.2L22.16,210a19.79,19.79,0,0,1,2.31,3.06l-1.38.87H34.6v1.86H23.21v2.13H33.28v1.74H23.21v2.13H33.28v1.74H23.21v2.19H34.69v1.86H12.79v1.14h-2.1v-10.7a34.7,34.7,0,0,1-3.15,3.25,12.14,12.14,0,0,0-1.44-2,32.07,32.07,0,0,0,7.36-9l2.07.93q-.84,1.38-1.71,2.64h8.5A32.33,32.33,0,0,0,20.39,211.1Zm-7.6,6.85h8.32v-2.13H12.79Zm0,3.87h8.32v-2.13H12.79Zm0,3.94h8.32v-2.19H12.79Z"/><path class="cls-3" d="M8,246.83H34.24v28H32v-1.47H10.24v1.5H8Zm24,2.1H10.24v22.35H32Zm-20.25,5.32H22.94v-4.33h2.22v4.33h5.77v2H25.17v9.16q0,4.36-4.15,4.36-1.68,0-3.48-.06-.18-1.05-.48-2.37a29.61,29.61,0,0,0,3.43.24q2.46,0,2.46-2.79v-7a33,33,0,0,1-10.79,10,11,11,0,0,0-1.53-2,31.19,31.19,0,0,0,10.88-9.52H11.71Z"/></g></g></svg>