<svg xmlns="http://www.w3.org/2000/svg" viewBox="0 0 264.13 169.84"><defs><style>.cls-1{fill:#b09f69;}.cls-2,.cls-3{font-size:8px;}.cls-2{fill:#595757;font-family:MicrosoftYaHei, Microsoft YaHei;}.cls-3{fill:#fff;font-family:ArialMT, Arial;}.cls-4{letter-spacing:-0.07em;}.cls-5{letter-spacing:-0.02em;}</style></defs><title>hitrobot_logo_gold</title><g id="图层_2" data-name="图层 2"><g id="图层_1-2" data-name="图层 1"><rect class="cls-1" y="100.38" width="264.13" height="53.71"/><polygon class="cls-1" points="207.17 31.57 182.81 31.57 179.98 37.08 194.61 37.08 199.83 47.65 167.37 47.65 183.56 15.07 187.76 23.48 203.11 23.48 191.34 0 174.48 0 148.8 51.44 137.82 29.56 155.48 29.56 170.21 0 117.76 0 105.7 24.02 89.13 24.02 101.17 0 84.7 0 57.9 53.37 74.43 53.37 86.35 29.56 102.94 29.56 90.99 53.37 107.51 53.37 131.47 5.54 151.99 5.54 142.35 24.02 126.39 24.02 122.83 31.17 133.83 53.37 217.97 53.37 207.17 31.57"/><text class="cls-2" transform="translate(0.7 167.8) scale(0.95 1)">专色金</text><text class="cls-3" transform="translate(15.54 116.08)"><tspan class="cls-4">P</tspan><tspan x="4.74" y="0">AN</tspan><tspan class="cls-5" x="15.86" y="0">T</tspan><tspan x="20.6" y="0" xml:space="preserve">ONE  874C</tspan></text></g></g></svg>