<svg xmlns="http://www.w3.org/2000/svg" viewBox="0 0 212.02 378.22"><defs><style>.cls-1{font-size:7.52px;fill:#10386b;font-family:FZHTJW--GB1-0, FZHTJW -GB1-0-GBpc-EUC-H;}.cls-11,.cls-2,.cls-5{fill:#231815;}.cls-2{font-size:8.12px;}.cls-3{fill:#898989;}.cls-4{fill:#d3d3d4;}.cls-6,.cls-7,.cls-8,.cls-9{fill:none;stroke:#231815;}.cls-6{stroke-width:0.44px;}.cls-7,.cls-9{stroke-miterlimit:3.86;}.cls-7{stroke-width:0.31px;}.cls-8{stroke-width:0.19px;}.cls-9{stroke-width:0.42px;}.cls-10{fill:#fff;}.cls-11{font-size:6.41px;font-family:ArialMT, Arial;}.cls-12{letter-spacing:-0.06em;}.cls-13{letter-spacing:-0.06em;}</style></defs><title>hitrobot_hrg_English_chinese_logo_ash</title><g id="图层_2" data-name="图层 2"><g id="图层_1-2" data-name="图层 1"><text class="cls-1" transform="translate(71.63 375.92) scale(0.95 1)">■<tspan class="cls-2" x="7.52" y="0" xml:space="preserve"> 标准字体制图</tspan></text><path class="cls-3" d="M86.55,69.27h7.51V89.42H92v-2H88.59v2.44h-2ZM92,85.48V71.23H88.59V85.48ZM105.53,66l-.48.77q3.34,6.18,8.27,8.64-.82,1-1.56,2a25.1,25.1,0,0,1-7.91-8.73,26.93,26.93,0,0,1-8,8.87,20.27,20.27,0,0,0-1.47-1.79,23.18,23.18,0,0,0,8.5-9.75ZM97,82.08h13.4V93.81H108.2v-1.7H99.1v1.7H97Zm1.1-5.69H109.5v2H98.05ZM108.2,90.12V84.06H99.1v6.06Z"/><path class="cls-3" d="M85.5,122.49H97.91v-18.9H87.12v-2.27h24.14v2.27H100.41v18.9h12.44v2.21H85.5Z"/><path class="cls-3" d="M85.08,157.55q11.69-5.2,12.61-15.61H85.59v-2.21h12.2q.07-3.81.07-7.68h2.47q0,3.81-.07,7.68h12.57v2.21H100.21q2,11.32,13.2,14.93a23.6,23.6,0,0,0-2.15,2.3A19.64,19.64,0,0,1,99.2,145.95q-2.21,8.6-12.37,13.78Q86.27,159,85.08,157.55Z"/><path class="cls-3" d="M85.05,182.72a31.86,31.86,0,0,0,4.52-10.2H85.33v-1.93h4.42V165h2v5.58h4v1.93h-4v4.7l1.13-1.13q2.18,2,3.43,3.23l-1.53,1.56q-1.74-1.93-3-3.2v15h-2V177.45A25.4,25.4,0,0,1,86,185.21Q85.53,183.94,85.05,182.72ZM100,169v9.38q0,10.14-5.07,14.7-.79-1-1.67-1.93,4.48-3.94,4.48-12.27v-12h10.54v21.31q0,1.42,1,1.42h.65c.6,0,1-.53,1.16-1.59q.28-2.18.4-4.7a23.06,23.06,0,0,0,2.15.91q-.26,2.8-.51,4.59-.46,3-2.89,3h-1.5q-2.72,0-2.72-3.23V169Z"/><path class="cls-3" d="M86,210H97.49a8.39,8.39,0,0,0,.57-2.46l2,.28a12.85,12.85,0,0,1-.5,2.18h6.18q-1.13-.82-2.39-1.62l1.16-1.28a40,40,0,0,1,3.37,2.21l-.64.68h5.29v1.87H101.63q3.27,3.2,11.62,3-.68,1.16-1.16,2.18l-1.44-.13v8.65h-2V224h-6.06v1.53h-2v-8.75h9q-8.1-1.09-10.36-5h-.51q-1.59,3.37-10.28,5h9.07v8.75h-2V224h-6v1.56h-2V217l-1.56.28q-.43-.85-1.11-2,9.46-1.22,11.36-3.4H86Zm1.53-10.31h9.95v8.25h-2V207h-6v1.16h-2Zm8,1.76h-6v3.85h6Zm0,17.14h-6v3.71h6Zm5-18.9h10V208h-2v-1h-6.06v.88h-2Zm8,1.76h-6.06v3.85h6.06Zm0,17.14h-6.06v3.71h6.06Z"/><path class="cls-3" d="M85.14,256.6q12.35-7.14,13.06-25h2.49a54.65,54.65,0,0,1-.6,5.78q3.51,14.17,13.2,18.64-1.19,1.3-2.1,2.46-8.42-4.76-12-16.84-3.1,11.67-12.28,17.16A24.43,24.43,0,0,0,85.14,256.6Z"/><path class="cls-3" d="M86,283.13H98.2V281.2h2v1.93h12.18v1.81h-10a28.89,28.89,0,0,0,11,4.73q-.77,1.19-1.33,2.1a31,31,0,0,1-11.9-6.33v6.64h-2v-6.67a34.39,34.39,0,0,1-11.9,6.42q-.6-.88-1.33-1.79a30,30,0,0,0,10.94-5.1H86ZM98.54,265l1.67-1a18.7,18.7,0,0,1,2.18,2.89l-1.3.82h10.85v1.76H101.2v2h9.49v1.64H101.2v2h9.49v1.64H101.2v2.07H112v1.76H91.37v1.08h-2V271.6a32.66,32.66,0,0,1-3,3.06,11.57,11.57,0,0,0-1.36-1.87A30.26,30.26,0,0,0,92,264.35l2,.88q-.79,1.3-1.61,2.49h8A31.09,31.09,0,0,0,98.54,265Zm-7.17,6.46h7.85v-2H91.37Zm0,3.66h7.85v-2H91.37Zm0,3.71h7.85v-2.07H91.37Z"/><path class="cls-3" d="M86.81,298.72H111.6v26.43h-2.15v-1.39H89v1.42H86.81Zm22.64,2H89v21.08h20.48Zm-19.1,5h10.6v-4.08H103v4.08h5.44v1.93H103v8.64q0,4.11-3.91,4.11-1.58,0-3.29-.06-.17-1-.46-2.24a28.08,28.08,0,0,0,3.23.23q2.32,0,2.32-2.63v-6.63a31.11,31.11,0,0,1-10.17,9.46,10.43,10.43,0,0,0-1.44-1.9,29.41,29.41,0,0,0,10.26-9H90.35Z"/><rect class="cls-4" x="14.72" y="28.44" width="23.04" height="23.3"/><path class="cls-5" d="M23.55,40.22l-.89,2.49H21.49l3.24-8.6H26l3.1,8.6H27.88L27,40.22Zm3.06-1-1.27-3.81h0l-1.36,3.81Z"/><rect class="cls-6" x="14.38" y="28.3" width="164.97" height="329.84"/><line class="cls-7" x1="37.94" y1="28.3" x2="37.94" y2="358.14"/><line class="cls-7" x1="61.61" y1="28.3" x2="61.61" y2="358.14"/><line class="cls-7" x1="85.13" y1="28.3" x2="85.13" y2="358.14"/><line class="cls-7" x1="108.64" y1="28.3" x2="108.64" y2="358.14"/><line class="cls-7" x1="132.16" y1="28.3" x2="132.16" y2="358.14"/><line class="cls-7" x1="155.83" y1="28.3" x2="155.83" y2="358.14"/><line class="cls-7" x1="179.34" y1="334.55" x2="14.22" y2="334.55"/><line class="cls-7" x1="179.34" y1="311.03" x2="14.22" y2="311.03"/><line class="cls-7" x1="179.34" y1="287.44" x2="14.22" y2="287.44"/><line class="cls-7" x1="179.34" y1="263.92" x2="14.22" y2="263.92"/><line class="cls-7" x1="179.34" y1="240.33" x2="14.22" y2="240.33"/><line class="cls-7" x1="179.34" y1="216.82" x2="14.22" y2="216.82"/><line class="cls-7" x1="179.34" y1="193.22" x2="14.22" y2="193.22"/><line class="cls-7" x1="179.34" y1="169.63" x2="14.22" y2="169.63"/><line class="cls-7" x1="179.34" y1="146.11" x2="14.22" y2="146.11"/><line class="cls-7" x1="179.34" y1="122.52" x2="14.22" y2="122.52"/><line class="cls-7" x1="179.34" y1="99" x2="14.22" y2="99"/><line class="cls-7" x1="179.34" y1="75.41" x2="14.22" y2="75.41"/><line class="cls-7" x1="179.34" y1="51.9" x2="14.22" y2="51.9"/><line class="cls-8" x1="136.91" y1="51.81" x2="136.91" y2="334.47"/><line class="cls-8" x1="141.63" y1="51.81" x2="141.63" y2="334.47"/><line class="cls-8" x1="146.37" y1="51.81" x2="146.37" y2="334.47"/><line class="cls-8" x1="151.09" y1="51.81" x2="151.09" y2="334.47"/><line class="cls-8" x1="155.83" y1="329.78" x2="132.17" y2="329.78"/><line class="cls-8" x1="155.83" y1="325.02" x2="132.17" y2="325.02"/><line class="cls-8" x1="155.83" y1="320.32" x2="132.17" y2="320.32"/><line class="cls-8" x1="155.83" y1="315.63" x2="132.17" y2="315.63"/><line class="cls-8" x1="155.83" y1="306.18" x2="132.17" y2="306.18"/><line class="cls-8" x1="155.83" y1="301.48" x2="132.17" y2="301.48"/><line class="cls-8" x1="155.83" y1="296.79" x2="132.17" y2="296.79"/><line class="cls-8" x1="155.83" y1="292.1" x2="132.17" y2="292.1"/><line class="cls-8" x1="155.83" y1="282.64" x2="132.17" y2="282.64"/><line class="cls-8" x1="155.83" y1="277.95" x2="132.17" y2="277.95"/><line class="cls-8" x1="155.83" y1="273.26" x2="132.17" y2="273.26"/><line class="cls-8" x1="155.83" y1="268.5" x2="132.17" y2="268.5"/><line class="cls-8" x1="155.83" y1="259.11" x2="132.17" y2="259.11"/><line class="cls-8" x1="155.83" y1="254.35" x2="132.17" y2="254.35"/><line class="cls-8" x1="155.83" y1="249.66" x2="132.17" y2="249.66"/><line class="cls-8" x1="155.83" y1="244.97" x2="132.17" y2="244.97"/><line class="cls-8" x1="155.83" y1="235.51" x2="132.17" y2="235.51"/><line class="cls-8" x1="155.83" y1="230.82" x2="132.17" y2="230.82"/><line class="cls-8" x1="155.83" y1="226.13" x2="132.17" y2="226.13"/><line class="cls-8" x1="155.83" y1="221.43" x2="132.17" y2="221.43"/><line class="cls-8" x1="155.83" y1="211.98" x2="132.17" y2="211.98"/><line class="cls-8" x1="155.83" y1="207.29" x2="132.17" y2="207.29"/><line class="cls-8" x1="155.83" y1="202.59" x2="132.17" y2="202.59"/><line class="cls-8" x1="155.83" y1="197.83" x2="132.17" y2="197.83"/><line class="cls-8" x1="155.83" y1="188.45" x2="132.17" y2="188.45"/><line class="cls-8" x1="155.83" y1="183.69" x2="132.17" y2="183.69"/><line class="cls-8" x1="155.83" y1="179" x2="132.17" y2="179"/><line class="cls-8" x1="155.83" y1="174.3" x2="132.17" y2="174.3"/><line class="cls-8" x1="155.83" y1="164.85" x2="132.17" y2="164.85"/><line class="cls-8" x1="155.83" y1="160.15" x2="132.17" y2="160.15"/><line class="cls-8" x1="155.83" y1="155.46" x2="132.17" y2="155.46"/><line class="cls-8" x1="155.83" y1="150.77" x2="132.17" y2="150.77"/><path class="cls-8" d="M132.17,146"/><path class="cls-8" d="M155.83,146"/><line class="cls-8" x1="155.83" y1="141.32" x2="132.17" y2="141.32"/><line class="cls-8" x1="155.83" y1="136.62" x2="132.17" y2="136.62"/><line class="cls-8" x1="155.83" y1="131.93" x2="132.17" y2="131.93"/><line class="cls-8" x1="155.83" y1="127.17" x2="132.17" y2="127.17"/><line class="cls-8" x1="155.83" y1="117.78" x2="132.17" y2="117.78"/><line class="cls-8" x1="155.83" y1="113.02" x2="132.17" y2="113.02"/><line class="cls-8" x1="155.83" y1="108.33" x2="132.17" y2="108.33"/><line class="cls-8" x1="155.83" y1="103.64" x2="132.17" y2="103.64"/><line class="cls-8" x1="155.83" y1="94.18" x2="132.17" y2="94.18"/><line class="cls-8" x1="155.83" y1="89.49" x2="132.17" y2="89.49"/><line class="cls-8" x1="155.83" y1="84.8" x2="132.17" y2="84.8"/><line class="cls-8" x1="155.83" y1="80.1" x2="132.17" y2="80.1"/><line class="cls-8" x1="155.83" y1="70.65" x2="132.17" y2="70.65"/><line class="cls-8" x1="155.83" y1="65.96" x2="132.17" y2="65.96"/><line class="cls-8" x1="155.83" y1="61.27" x2="132.17" y2="61.27"/><line class="cls-8" x1="155.83" y1="56.5" x2="132.17" y2="56.5"/><line class="cls-8" x1="113.29" y1="51.81" x2="113.29" y2="334.47"/><line class="cls-8" x1="118.01" y1="51.81" x2="118.01" y2="334.47"/><line class="cls-8" x1="122.75" y1="51.81" x2="122.75" y2="334.47"/><line class="cls-8" x1="127.47" y1="51.81" x2="127.47" y2="334.47"/><line class="cls-8" x1="132.21" y1="329.78" x2="108.55" y2="329.78"/><line class="cls-8" x1="132.21" y1="325.02" x2="108.55" y2="325.02"/><line class="cls-8" x1="132.21" y1="320.32" x2="108.55" y2="320.32"/><line class="cls-8" x1="132.21" y1="315.63" x2="108.55" y2="315.63"/><line class="cls-8" x1="132.21" y1="306.18" x2="108.55" y2="306.18"/><line class="cls-8" x1="132.21" y1="301.48" x2="108.55" y2="301.48"/><line class="cls-8" x1="132.21" y1="296.79" x2="108.55" y2="296.79"/><line class="cls-8" x1="132.21" y1="292.1" x2="108.55" y2="292.1"/><line class="cls-8" x1="132.21" y1="282.64" x2="108.55" y2="282.64"/><line class="cls-8" x1="132.21" y1="277.95" x2="108.55" y2="277.95"/><line class="cls-8" x1="132.21" y1="273.26" x2="108.55" y2="273.26"/><line class="cls-8" x1="132.21" y1="268.5" x2="108.55" y2="268.5"/><line class="cls-8" x1="132.21" y1="259.11" x2="108.55" y2="259.11"/><line class="cls-8" x1="132.21" y1="254.35" x2="108.55" y2="254.35"/><line class="cls-8" x1="132.21" y1="249.66" x2="108.55" y2="249.66"/><line class="cls-8" x1="132.21" y1="244.97" x2="108.55" y2="244.97"/><line class="cls-8" x1="132.21" y1="235.51" x2="108.55" y2="235.51"/><line class="cls-8" x1="132.21" y1="230.82" x2="108.55" y2="230.82"/><line class="cls-8" x1="132.21" y1="226.13" x2="108.55" y2="226.13"/><line class="cls-8" x1="132.21" y1="221.43" x2="108.55" y2="221.43"/><line class="cls-8" x1="132.21" y1="211.98" x2="108.55" y2="211.98"/><line class="cls-8" x1="132.21" y1="207.29" x2="108.55" y2="207.29"/><line class="cls-8" x1="132.21" y1="202.59" x2="108.55" y2="202.59"/><line class="cls-8" x1="132.21" y1="197.83" x2="108.55" y2="197.83"/><line class="cls-8" x1="132.21" y1="188.45" x2="108.55" y2="188.45"/><line class="cls-8" x1="132.21" y1="183.69" x2="108.55" y2="183.69"/><line class="cls-8" x1="132.21" y1="179" x2="108.55" y2="179"/><line class="cls-8" x1="132.21" y1="174.3" x2="108.55" y2="174.3"/><line class="cls-8" x1="132.21" y1="164.85" x2="108.55" y2="164.85"/><line class="cls-8" x1="132.21" y1="160.15" x2="108.55" y2="160.15"/><line class="cls-8" x1="132.21" y1="155.46" x2="108.55" y2="155.46"/><line class="cls-8" x1="132.21" y1="150.77" x2="108.55" y2="150.77"/><line class="cls-8" x1="132.21" y1="141.32" x2="108.55" y2="141.32"/><line class="cls-8" x1="132.21" y1="136.62" x2="108.55" y2="136.62"/><line class="cls-8" x1="132.21" y1="131.93" x2="108.55" y2="131.93"/><line class="cls-8" x1="132.21" y1="127.17" x2="108.55" y2="127.17"/><line class="cls-8" x1="132.21" y1="117.78" x2="108.55" y2="117.78"/><line class="cls-8" x1="132.21" y1="113.02" x2="108.55" y2="113.02"/><line class="cls-8" x1="132.21" y1="108.33" x2="108.55" y2="108.33"/><line class="cls-8" x1="132.21" y1="103.64" x2="108.55" y2="103.64"/><line class="cls-8" x1="132.21" y1="94.18" x2="108.55" y2="94.18"/><line class="cls-8" x1="132.21" y1="89.49" x2="108.55" y2="89.49"/><line class="cls-8" x1="132.21" y1="84.8" x2="108.55" y2="84.8"/><line class="cls-8" x1="132.21" y1="80.1" x2="108.55" y2="80.1"/><line class="cls-8" x1="132.21" y1="70.65" x2="108.55" y2="70.65"/><line class="cls-8" x1="132.21" y1="65.96" x2="108.55" y2="65.96"/><line class="cls-8" x1="132.21" y1="61.27" x2="108.55" y2="61.27"/><line class="cls-8" x1="132.21" y1="56.5" x2="108.55" y2="56.5"/><line class="cls-8" x1="89.77" y1="51.81" x2="89.77" y2="334.47"/><line class="cls-8" x1="94.5" y1="51.81" x2="94.5" y2="334.47"/><line class="cls-8" x1="99.23" y1="51.81" x2="99.23" y2="334.47"/><line class="cls-8" x1="103.96" y1="51.81" x2="103.96" y2="334.47"/><line class="cls-8" x1="108.69" y1="329.78" x2="85.04" y2="329.78"/><line class="cls-8" x1="108.69" y1="325.02" x2="85.04" y2="325.02"/><line class="cls-8" x1="108.69" y1="320.32" x2="85.04" y2="320.32"/><line class="cls-8" x1="108.69" y1="315.63" x2="85.04" y2="315.63"/><line class="cls-8" x1="108.69" y1="306.18" x2="85.04" y2="306.18"/><line class="cls-8" x1="108.69" y1="301.48" x2="85.04" y2="301.48"/><line class="cls-8" x1="108.69" y1="296.79" x2="85.04" y2="296.79"/><line class="cls-8" x1="108.69" y1="292.1" x2="85.04" y2="292.1"/><line class="cls-8" x1="108.69" y1="282.64" x2="85.04" y2="282.64"/><line class="cls-8" x1="108.69" y1="277.95" x2="85.04" y2="277.95"/><line class="cls-8" x1="108.69" y1="273.26" x2="85.04" y2="273.26"/><line class="cls-8" x1="108.69" y1="268.5" x2="85.04" y2="268.5"/><line class="cls-8" x1="108.69" y1="259.11" x2="85.04" y2="259.11"/><line class="cls-8" x1="108.69" y1="254.35" x2="85.04" y2="254.35"/><line class="cls-8" x1="108.69" y1="249.66" x2="85.04" y2="249.66"/><line class="cls-8" x1="108.69" y1="244.97" x2="85.04" y2="244.97"/><line class="cls-8" x1="108.69" y1="235.51" x2="85.04" y2="235.51"/><line class="cls-8" x1="108.69" y1="230.82" x2="85.04" y2="230.82"/><line class="cls-8" x1="108.69" y1="226.13" x2="85.04" y2="226.13"/><line class="cls-8" x1="108.69" y1="221.43" x2="85.04" y2="221.43"/><line class="cls-8" x1="108.69" y1="211.98" x2="85.04" y2="211.98"/><line class="cls-8" x1="108.69" y1="207.29" x2="85.04" y2="207.29"/><line class="cls-8" x1="108.69" y1="202.59" x2="85.04" y2="202.59"/><line class="cls-8" x1="108.69" y1="197.83" x2="85.04" y2="197.83"/><line class="cls-8" x1="108.69" y1="188.45" x2="85.04" y2="188.45"/><line class="cls-8" x1="108.69" y1="183.69" x2="85.04" y2="183.69"/><line class="cls-8" x1="108.69" y1="179" x2="85.04" y2="179"/><line class="cls-8" x1="108.69" y1="174.3" x2="85.04" y2="174.3"/><line class="cls-8" x1="108.69" y1="164.85" x2="85.04" y2="164.85"/><line class="cls-8" x1="108.69" y1="160.15" x2="85.04" y2="160.15"/><line class="cls-8" x1="108.69" y1="155.46" x2="85.04" y2="155.46"/><line class="cls-8" x1="108.69" y1="150.77" x2="85.04" y2="150.77"/><line class="cls-8" x1="108.69" y1="141.32" x2="85.04" y2="141.32"/><line class="cls-8" x1="108.69" y1="136.62" x2="85.04" y2="136.62"/><line class="cls-8" x1="108.69" y1="131.93" x2="85.04" y2="131.93"/><line class="cls-8" x1="108.69" y1="127.17" x2="85.04" y2="127.17"/><line class="cls-8" x1="108.69" y1="117.78" x2="85.04" y2="117.78"/><line class="cls-8" x1="108.69" y1="113.02" x2="85.04" y2="113.02"/><line class="cls-8" x1="108.69" y1="108.33" x2="85.04" y2="108.33"/><line class="cls-8" x1="108.69" y1="103.64" x2="85.04" y2="103.64"/><line class="cls-8" x1="108.69" y1="94.18" x2="85.04" y2="94.18"/><line class="cls-8" x1="108.69" y1="89.49" x2="85.04" y2="89.49"/><line class="cls-8" x1="108.69" y1="84.8" x2="85.04" y2="84.8"/><line class="cls-8" x1="108.69" y1="80.1" x2="85.04" y2="80.1"/><line class="cls-8" x1="108.69" y1="70.65" x2="85.04" y2="70.65"/><line class="cls-8" x1="108.69" y1="65.96" x2="85.04" y2="65.96"/><line class="cls-8" x1="108.69" y1="61.27" x2="85.04" y2="61.27"/><line class="cls-8" x1="108.69" y1="56.5" x2="85.04" y2="56.5"/><line class="cls-8" x1="66.26" y1="51.81" x2="66.26" y2="334.47"/><line class="cls-8" x1="70.98" y1="51.81" x2="70.98" y2="334.47"/><line class="cls-8" x1="75.72" y1="51.81" x2="75.72" y2="334.47"/><line class="cls-8" x1="80.44" y1="51.81" x2="80.44" y2="334.47"/><line class="cls-8" x1="85.18" y1="329.78" x2="61.52" y2="329.78"/><line class="cls-8" x1="85.18" y1="325.02" x2="61.52" y2="325.02"/><line class="cls-8" x1="85.18" y1="320.32" x2="61.52" y2="320.32"/><line class="cls-8" x1="85.18" y1="315.63" x2="61.52" y2="315.63"/><line class="cls-8" x1="85.18" y1="306.18" x2="61.52" y2="306.18"/><line class="cls-8" x1="85.18" y1="301.48" x2="61.52" y2="301.48"/><line class="cls-8" x1="85.18" y1="296.79" x2="61.52" y2="296.79"/><line class="cls-8" x1="85.18" y1="292.1" x2="61.52" y2="292.1"/><line class="cls-8" x1="85.18" y1="282.64" x2="61.52" y2="282.64"/><line class="cls-8" x1="85.18" y1="277.95" x2="61.52" y2="277.95"/><line class="cls-8" x1="85.18" y1="273.26" x2="61.52" y2="273.26"/><line class="cls-8" x1="85.18" y1="268.5" x2="61.52" y2="268.5"/><line class="cls-8" x1="85.18" y1="259.11" x2="61.52" y2="259.11"/><line class="cls-8" x1="85.18" y1="254.35" x2="61.52" y2="254.35"/><line class="cls-8" x1="85.18" y1="249.66" x2="61.52" y2="249.66"/><line class="cls-8" x1="85.18" y1="244.97" x2="61.52" y2="244.97"/><line class="cls-8" x1="85.18" y1="235.51" x2="61.52" y2="235.51"/><line class="cls-8" x1="85.18" y1="230.82" x2="61.52" y2="230.82"/><line class="cls-8" x1="85.18" y1="226.13" x2="61.52" y2="226.13"/><line class="cls-8" x1="85.18" y1="221.43" x2="61.52" y2="221.43"/><line class="cls-8" x1="85.18" y1="211.98" x2="61.52" y2="211.98"/><line class="cls-8" x1="85.18" y1="207.29" x2="61.52" y2="207.29"/><line class="cls-8" x1="85.18" y1="202.59" x2="61.52" y2="202.59"/><line class="cls-8" x1="85.18" y1="197.83" x2="61.52" y2="197.83"/><line class="cls-8" x1="85.18" y1="188.45" x2="61.52" y2="188.45"/><line class="cls-8" x1="85.18" y1="183.69" x2="61.52" y2="183.69"/><line class="cls-8" x1="85.18" y1="179" x2="61.52" y2="179"/><line class="cls-8" x1="85.18" y1="174.3" x2="61.52" y2="174.3"/><line class="cls-8" x1="85.18" y1="164.85" x2="61.52" y2="164.85"/><line class="cls-8" x1="85.18" y1="160.15" x2="61.52" y2="160.15"/><line class="cls-8" x1="85.18" y1="155.46" x2="61.52" y2="155.46"/><line class="cls-8" x1="85.18" y1="150.77" x2="61.52" y2="150.77"/><line class="cls-8" x1="85.18" y1="141.32" x2="61.52" y2="141.32"/><line class="cls-8" x1="85.18" y1="136.62" x2="61.52" y2="136.62"/><line class="cls-8" x1="85.18" y1="131.93" x2="61.52" y2="131.93"/><line class="cls-8" x1="85.18" y1="127.17" x2="61.52" y2="127.17"/><line class="cls-8" x1="85.18" y1="117.78" x2="61.52" y2="117.78"/><line class="cls-8" x1="85.18" y1="113.02" x2="61.52" y2="113.02"/><line class="cls-8" x1="85.18" y1="108.33" x2="61.52" y2="108.33"/><line class="cls-8" x1="85.18" y1="103.64" x2="61.52" y2="103.64"/><line class="cls-8" x1="85.18" y1="94.18" x2="61.52" y2="94.18"/><line class="cls-8" x1="85.18" y1="89.49" x2="61.52" y2="89.49"/><line class="cls-8" x1="85.18" y1="84.8" x2="61.52" y2="84.8"/><line class="cls-8" x1="85.18" y1="80.1" x2="61.52" y2="80.1"/><line class="cls-8" x1="85.18" y1="70.65" x2="61.52" y2="70.65"/><line class="cls-8" x1="85.18" y1="65.96" x2="61.52" y2="65.96"/><line class="cls-8" x1="85.18" y1="61.27" x2="61.52" y2="61.27"/><line class="cls-8" x1="85.18" y1="56.5" x2="61.52" y2="56.5"/><line class="cls-8" x1="42.69" y1="51.81" x2="42.69" y2="334.47"/><line class="cls-8" x1="47.41" y1="51.81" x2="47.41" y2="334.47"/><line class="cls-8" x1="52.15" y1="51.81" x2="52.15" y2="334.47"/><line class="cls-8" x1="56.87" y1="51.81" x2="56.87" y2="334.47"/><line class="cls-8" x1="61.6" y1="329.78" x2="37.95" y2="329.78"/><line class="cls-8" x1="61.6" y1="325.02" x2="37.95" y2="325.02"/><line class="cls-8" x1="61.6" y1="320.32" x2="37.95" y2="320.32"/><line class="cls-8" x1="61.6" y1="315.63" x2="37.95" y2="315.63"/><line class="cls-8" x1="61.6" y1="306.18" x2="37.95" y2="306.18"/><line class="cls-8" x1="61.6" y1="301.48" x2="37.95" y2="301.48"/><line class="cls-8" x1="61.6" y1="296.79" x2="37.95" y2="296.79"/><line class="cls-8" x1="61.6" y1="292.1" x2="37.95" y2="292.1"/><line class="cls-8" x1="61.6" y1="282.64" x2="37.95" y2="282.64"/><line class="cls-8" x1="61.6" y1="277.95" x2="37.95" y2="277.95"/><line class="cls-8" x1="61.6" y1="273.26" x2="37.95" y2="273.26"/><line class="cls-8" x1="61.6" y1="268.5" x2="37.95" y2="268.5"/><line class="cls-8" x1="61.6" y1="259.11" x2="37.95" y2="259.11"/><line class="cls-8" x1="61.6" y1="254.35" x2="37.95" y2="254.35"/><line class="cls-8" x1="61.6" y1="249.66" x2="37.95" y2="249.66"/><line class="cls-8" x1="61.6" y1="244.97" x2="37.95" y2="244.97"/><line class="cls-8" x1="61.6" y1="235.51" x2="37.95" y2="235.51"/><line class="cls-8" x1="61.6" y1="230.82" x2="37.95" y2="230.82"/><line class="cls-8" x1="61.6" y1="226.13" x2="37.95" y2="226.13"/><line class="cls-8" x1="61.6" y1="221.43" x2="37.95" y2="221.43"/><line class="cls-8" x1="61.6" y1="211.98" x2="37.95" y2="211.98"/><line class="cls-8" x1="61.6" y1="207.29" x2="37.95" y2="207.29"/><line class="cls-8" x1="61.6" y1="202.59" x2="37.95" y2="202.59"/><line class="cls-8" x1="61.6" y1="197.83" x2="37.95" y2="197.83"/><line class="cls-8" x1="61.6" y1="188.45" x2="37.95" y2="188.45"/><line class="cls-8" x1="61.6" y1="183.69" x2="37.95" y2="183.69"/><line class="cls-8" x1="61.6" y1="179" x2="37.95" y2="179"/><line class="cls-8" x1="61.6" y1="174.3" x2="37.95" y2="174.3"/><line class="cls-8" x1="61.6" y1="164.85" x2="37.95" y2="164.85"/><line class="cls-8" x1="61.6" y1="160.15" x2="37.95" y2="160.15"/><line class="cls-8" x1="61.6" y1="155.46" x2="37.95" y2="155.46"/><line class="cls-8" x1="61.6" y1="150.77" x2="37.95" y2="150.77"/><line class="cls-8" x1="61.6" y1="141.32" x2="37.95" y2="141.32"/><line class="cls-8" x1="61.6" y1="136.62" x2="37.95" y2="136.62"/><line class="cls-8" x1="61.6" y1="131.93" x2="37.95" y2="131.93"/><line class="cls-8" x1="61.6" y1="127.17" x2="37.95" y2="127.17"/><line class="cls-8" x1="61.6" y1="117.78" x2="37.95" y2="117.78"/><line class="cls-8" x1="61.6" y1="113.02" x2="37.95" y2="113.02"/><line class="cls-8" x1="61.6" y1="108.33" x2="37.95" y2="108.33"/><line class="cls-8" x1="61.6" y1="103.64" x2="37.95" y2="103.64"/><line class="cls-8" x1="61.6" y1="94.18" x2="37.95" y2="94.18"/><line class="cls-8" x1="61.6" y1="89.49" x2="37.95" y2="89.49"/><line class="cls-8" x1="61.6" y1="84.8" x2="37.95" y2="84.8"/><line class="cls-8" x1="61.6" y1="80.1" x2="37.95" y2="80.1"/><line class="cls-8" x1="61.6" y1="70.65" x2="37.95" y2="70.65"/><line class="cls-8" x1="61.6" y1="65.96" x2="37.95" y2="65.96"/><line class="cls-8" x1="61.6" y1="61.27" x2="37.95" y2="61.27"/><line class="cls-8" x1="61.6" y1="56.5" x2="37.95" y2="56.5"/><line class="cls-9" x1="113.28" y1="8.52" x2="85.17" y2="8.52"/><line class="cls-9" x1="113.29" y1="26.03" x2="113.29" y2="0.22"/><line class="cls-9" x1="85.18" y1="26.51" x2="85.18" y2="0.71"/><rect class="cls-10" x="92.99" width="13.96" height="27.29"/><line class="cls-9" x1="203.63" y1="65.96" x2="203.63" y2="324.54"/><line class="cls-9" x1="212.02" y1="325.5" x2="180.99" y2="325.5"/><line class="cls-9" x1="212.02" y1="65.96" x2="180.99" y2="65.96"/><rect class="cls-10" x="194.31" y="177.55" width="17.29" height="28.17"/><text class="cls-11" transform="translate(202 183.75) rotate(90)">10.5<tspan class="cls-12" x="12.47" y="0">A</tspan></text><text class="cls-11" transform="translate(2.08 60.18) rotate(90)">0</text><text class="cls-11" transform="translate(2.08 178.38) rotate(90)">5</text><text class="cls-11" transform="translate(2.08 293.99) rotate(90)">10</text><text class="cls-11" transform="translate(92.99 9.5)">1.1<tspan class="cls-13" x="8.91" y="0">A</tspan></text></g></g></svg>