<svg xmlns="http://www.w3.org/2000/svg" viewBox="0 0 39.72 322.79"><defs><style>.cls-1{font-size:7.52px;font-family:FZHTJW--GB1-0, FZHTJW -GB1-0-GBpc-EUC-H;}.cls-1,.cls-3{fill:#10386b;}.cls-2{fill:#231815;font-size:8.12px;}</style></defs><title>hitrobot_hrg_English_logo_blue</title><g id="图层_2" data-name="图层 2"><g id="图层_1-2" data-name="图层 1"><text class="cls-1" transform="translate(0 320.5) scale(0.95 1)">■<tspan class="cls-2" x="7.52" y="0" xml:space="preserve"> 标准字体</tspan></text><path class="cls-3" d="M30.64,9.91v1.62H16V9.91h6.82V1.69H16V0H30.64V1.69H24.26V9.91Z"/><path class="cls-3" d="M30.64,21.05v1.61H16V21.05Z"/><path class="cls-3" d="M30.64,42.69H29.25v-5H16V36H29.25V31h1.39Z"/><path class="cls-3" d="M16,74.82V72.54l6.6-5.06V63.59H16V61.9H30.64v6.82q-.22,4.69-4,5-3.82,0-4.11-4.4ZM29.17,63.59H24v4.77Q24.11,72,26.75,72q2.35-.07,2.42-3.6Z"/><path class="cls-3" d="M15.75,89q.37-6.68,7.26-7,7.49.29,7.85,7.19-.44,6.53-7.71,7Q16,95.94,15.75,89Zm13.65.07q-.44-4.84-6.24-5.35-5.65.29-6.09,5.21.29,5.14,6.09,5.43Q29,94,29.39,89.12Z"/><path class="cls-3" d="M16,110.69v-6.09H30.64v5.72q-.22,4.4-3.67,4.7a3.27,3.27,0,0,1-3.23-2.94h-.07a3.73,3.73,0,0,1-3.74,3.52Q16.11,115.38,16,110.69ZM29.17,110v-3.82H24.26V110q.15,3,2.64,3.3Q29.1,113.1,29.17,110Zm-6.38.22v-4h-5.5v4.33q0,3.45,2.86,3.45Q22.64,113.69,22.79,110.17Z"/><path class="cls-3" d="M15.75,130.71q.37-6.68,7.26-7,7.49.29,7.85,7.19-.44,6.53-7.71,7Q16,137.6,15.75,130.71Zm13.65.07q-.44-4.84-6.24-5.36-5.65.29-6.09,5.21.29,5.13,6.09,5.43Q29,135.62,29.39,130.78Z"/><path class="cls-3" d="M30.64,156.89H29.25v-5H16v-1.69H29.25v-5h1.39Z"/><path class="cls-3" d="M23.52,182.85v6.31H18.17q-2.42-1.83-2.42-6.31.37-6.9,7.34-7.26,7.49.29,7.78,7-.08,4.92-4.33,6.53l-.44-1.83a4.73,4.73,0,0,0,3.3-4.77q-.44-4.7-6.24-5.14-5.65.37-6.09,5.43,0,3.3,1.76,4.77h3.3v-4.7Z"/><path class="cls-3" d="M16,210.88V208.6l6.6-5.06v-3.89H16V198H30.64v6.82q-.22,4.69-4,5-3.82,0-4.11-4.4Zm13.21-11.23H24v4.77q.07,3.59,2.71,3.6,2.35-.08,2.42-3.6Z"/><path class="cls-3" d="M15.75,225.1q.37-6.68,7.26-7,7.49.29,7.85,7.19-.44,6.53-7.71,7Q16,232,15.75,225.1Zm13.65.07q-.44-4.84-6.24-5.35-5.65.29-6.09,5.21.29,5.14,6.09,5.43Q29,230,29.39,225.18Z"/><path class="cls-3" d="M30.64,252.32H22.06q-6.38.07-6.31-5.87t6.31-5.72h8.58v1.69H22.13q-5.21-.07-5.06,4-.15,4.4,5.06,4.26h8.51Z"/><path class="cls-3" d="M21.91,267.8v-4.55H16v-1.61H30.64v6.31q-.22,4.48-4.33,4.92Q22,272.79,21.91,267.8Zm7.26-.29v-4.26h-5.8v4.26q.07,3.52,3,3.6Q29.1,271,29.17,267.5Z"/></g></g></svg>