<svg xmlns="http://www.w3.org/2000/svg" viewBox="0 0 437.74 352.47"><defs><style>.cls-1{fill:#898989;}.cls-2{fill:#d3d3d4;}.cls-3,.cls-9{fill:#231815;}.cls-4,.cls-6,.cls-7,.cls-8{fill:none;stroke:#231815;}.cls-4,.cls-7{stroke-miterlimit:3.86;}.cls-4{stroke-width:0.34px;}.cls-5{fill:#fff;}.cls-6{stroke-width:0.5px;}.cls-7{stroke-width:0.25px;}.cls-8{stroke-width:0.15px;}.cls-9{font-size:11.55px;font-family:ArialMT, Arial;}.cls-10{letter-spacing:-0.06em;}.cls-11{letter-spacing:-0.06em;}</style></defs><title>hitrobot_logo_ash</title><g id="图层_2" data-name="图层 2"><g id="图层_1-2" data-name="图层 1"><polygon class="cls-1" points="333.43 160.71 286.94 160.71 281.55 171.23 309.46 171.23 319.44 191.4 257.48 191.4 288.38 129.24 296.4 145.28 325.69 145.28 303.23 100.48 271.06 100.48 222.06 198.63 201.12 156.89 234.82 156.89 262.9 100.48 162.84 100.48 139.82 146.32 108.2 146.32 131.18 100.48 99.76 100.48 48.62 202.31 80.16 202.31 102.91 156.89 134.57 156.89 111.76 202.31 143.27 202.31 189 111.07 228.14 111.07 209.76 146.32 179.31 146.32 172.5 159.96 193.49 202.31 354.05 202.31 333.43 160.71"/><rect class="cls-2" x="1.04" y="271.04" width="33.3" height="33.28"/><path class="cls-3" d="M13.89,289.63l-1.29,3.6h-1.7l4.68-12.42h1.9L22,293.22H20.14l-1.22-3.6Zm4.41-1.49-1.83-5.5h-.07l-2,5.5Z"/><line class="cls-4" x1="47.84" y1="339.98" x2="354.08" y2="339.98"/><line class="cls-4" x1="354.08" y1="352.21" x2="354.08" y2="311.4"/><line class="cls-4" x1="47.89" y1="352.21" x2="47.89" y2="307.38"/><rect class="cls-5" x="21.81" y="305.33" width="23.33" height="22.88"/><path class="cls-3" d="M35.36,323.62q-2.52,0-2.6-3.78a5.11,5.11,0,0,1,.71-2.9,2.08,2.08,0,0,1,1.89-1,2.18,2.18,0,0,1,2.06,1.3,5.3,5.3,0,0,1,.54,2.6Q37.87,323.58,35.36,323.62Zm0-6.8q-1.56,0-1.55,3t1.55,3q1.6,0,1.59-3T35.36,316.81Z"/><rect class="cls-5" x="361.33" y="309.01" width="23.33" height="19.2"/><path class="cls-3" d="M371.35,323.49h-1v-5.33h-1.8v-.76a2.91,2.91,0,0,0,1.38-.29,1.62,1.62,0,0,0,.67-1.18h.71Z"/><path class="cls-3" d="M376.48,323.62q-2.52,0-2.6-3.78a5.1,5.1,0,0,1,.71-2.9,2.08,2.08,0,0,1,1.89-1,2.18,2.18,0,0,1,2.06,1.3,5.29,5.29,0,0,1,.55,2.6Q379,323.58,376.48,323.62Zm0-6.8q-1.56,0-1.55,3t1.55,3q1.6,0,1.6-3T376.48,316.81Z"/><rect class="cls-5" x="191.58" y="309.01" width="23.33" height="19.2"/><path class="cls-3" d="M202.59,319.08a2.34,2.34,0,0,1,1.43-.46,2.44,2.44,0,0,1,2.52,2.43,2.48,2.48,0,0,1-.75,1.89,2.75,2.75,0,0,1-2,.67q-2.22,0-2.43-2h1q.16,1.3,1.63,1.3a1.62,1.62,0,0,0,1.55-1.72,1.57,1.57,0,0,0-1.64-1.68,1.71,1.71,0,0,0-1.43.71l-.8,0,.55-4.07h3.91V317h-3.19Z"/><rect class="cls-5" x="184.02" y="327.49" width="40.69" height="24.98"/><rect class="cls-6" x="0.25" y="0.25" width="407.75" height="304.34"/><line class="cls-7" x1="0.25" y1="270.62" x2="408" y2="270.62"/><line class="cls-7" x1="0.25" y1="236.43" x2="408" y2="236.43"/><line class="cls-7" x1="1.04" y1="202.46" x2="435.59" y2="202.46"/><line class="cls-7" x1="0.25" y1="168.5" x2="408" y2="168.5"/><line class="cls-7" x1="0.25" y1="134.53" x2="408" y2="134.53"/><line class="cls-7" x1="0.25" y1="100.33" x2="434.8" y2="100.33"/><line class="cls-7" x1="0.25" y1="66.37" x2="408" y2="66.37"/><line class="cls-7" x1="0.25" y1="32.41" x2="408" y2="32.41"/><line class="cls-7" x1="374.56" y1="0.05" x2="374.56" y2="304.59"/><line class="cls-7" x1="340.6" y1="0.05" x2="340.6" y2="304.59"/><line class="cls-7" x1="306.52" y1="0.05" x2="306.52" y2="304.59"/><line class="cls-7" x1="272.55" y1="0.05" x2="272.55" y2="304.59"/><line class="cls-7" x1="238.47" y1="0.05" x2="238.47" y2="304.59"/><line class="cls-7" x1="204.39" y1="0.05" x2="204.39" y2="304.59"/><line class="cls-7" x1="170.42" y1="0.05" x2="170.42" y2="304.59"/><line class="cls-7" x1="136.34" y1="0.05" x2="136.34" y2="304.59"/><line class="cls-7" x1="102.38" y1="0.05" x2="102.38" y2="304.59"/><line class="cls-7" x1="68.3" y1="0.05" x2="68.3" y2="304.59"/><line class="cls-7" x1="34.33" y1="0.05" x2="34.33" y2="304.59"/><line class="cls-8" x1="34.21" y1="59.6" x2="374.59" y2="59.6"/><line class="cls-8" x1="34.21" y1="52.77" x2="374.59" y2="52.77"/><line class="cls-8" x1="34.21" y1="45.93" x2="374.59" y2="45.93"/><line class="cls-8" x1="34.21" y1="39.11" x2="374.59" y2="39.11"/><line class="cls-8" x1="367.64" y1="32.27" x2="367.64" y2="66.44"/><line class="cls-8" x1="360.86" y1="32.27" x2="360.86" y2="66.44"/><line class="cls-8" x1="354.08" y1="32.27" x2="354.08" y2="66.44"/><line class="cls-8" x1="347.2" y1="32.27" x2="347.2" y2="66.44"/><line class="cls-8" x1="333.65" y1="32.27" x2="333.65" y2="66.44"/><line class="cls-8" x1="326.77" y1="32.27" x2="326.77" y2="66.44"/><line class="cls-8" x1="319.99" y1="32.27" x2="319.99" y2="66.44"/><line class="cls-8" x1="313.21" y1="32.27" x2="313.21" y2="66.44"/><line class="cls-8" x1="299.56" y1="32.27" x2="299.56" y2="66.44"/><line class="cls-8" x1="292.78" y1="32.27" x2="292.78" y2="66.44"/><line class="cls-8" x1="286" y1="32.27" x2="286" y2="66.44"/><line class="cls-8" x1="279.22" y1="32.27" x2="279.22" y2="66.44"/><line class="cls-8" x1="265.57" y1="32.27" x2="265.57" y2="66.44"/><line class="cls-8" x1="258.79" y1="32.27" x2="258.79" y2="66.44"/><line class="cls-8" x1="252.01" y1="32.27" x2="252.01" y2="66.44"/><line class="cls-8" x1="245.13" y1="32.27" x2="245.13" y2="66.44"/><line class="cls-8" x1="231.58" y1="32.27" x2="231.58" y2="66.44"/><line class="cls-8" x1="224.7" y1="32.27" x2="224.7" y2="66.44"/><line class="cls-8" x1="217.92" y1="32.27" x2="217.92" y2="66.44"/><line class="cls-8" x1="211.14" y1="32.27" x2="211.14" y2="66.44"/><line class="cls-8" x1="197.49" y1="32.27" x2="197.49" y2="66.44"/><line class="cls-8" x1="190.71" y1="32.27" x2="190.71" y2="66.44"/><line class="cls-8" x1="183.93" y1="32.27" x2="183.93" y2="66.44"/><line class="cls-8" x1="177.15" y1="32.27" x2="177.15" y2="66.44"/><line class="cls-8" x1="170.27" y1="32.27" x2="170.27" y2="66.44"/><line class="cls-8" x1="163.5" y1="32.27" x2="163.5" y2="66.44"/><line class="cls-8" x1="156.72" y1="32.27" x2="156.72" y2="66.44"/><line class="cls-8" x1="149.94" y1="32.27" x2="149.94" y2="66.44"/><line class="cls-8" x1="143.06" y1="32.27" x2="143.06" y2="66.44"/><line class="cls-8" x1="129.5" y1="32.27" x2="129.5" y2="66.44"/><line class="cls-8" x1="122.63" y1="32.27" x2="122.63" y2="66.44"/><line class="cls-8" x1="115.85" y1="32.27" x2="115.85" y2="66.44"/><line class="cls-8" x1="109.07" y1="32.27" x2="109.07" y2="66.44"/><line class="cls-8" x1="95.41" y1="32.27" x2="95.41" y2="66.44"/><line class="cls-8" x1="88.63" y1="32.27" x2="88.63" y2="66.44"/><line class="cls-8" x1="81.86" y1="32.27" x2="81.86" y2="66.44"/><line class="cls-8" x1="75.08" y1="32.27" x2="75.08" y2="66.44"/><line class="cls-8" x1="61.42" y1="32.27" x2="61.42" y2="66.44"/><line class="cls-8" x1="54.64" y1="32.27" x2="54.64" y2="66.44"/><line class="cls-8" x1="47.87" y1="32.27" x2="47.87" y2="66.44"/><line class="cls-8" x1="40.99" y1="32.27" x2="40.99" y2="66.44"/><line class="cls-8" x1="34.21" y1="93.64" x2="374.59" y2="93.64"/><line class="cls-8" x1="34.21" y1="86.82" x2="374.59" y2="86.82"/><line class="cls-8" x1="34.21" y1="79.98" x2="374.62" y2="79.98"/><line class="cls-8" x1="34.21" y1="73.16" x2="374.59" y2="73.16"/><line class="cls-8" x1="367.64" y1="66.31" x2="367.64" y2="100.49"/><line class="cls-8" x1="360.86" y1="66.31" x2="360.86" y2="100.49"/><line class="cls-8" x1="354.08" y1="66.31" x2="354.08" y2="100.49"/><line class="cls-8" x1="347.2" y1="66.31" x2="347.2" y2="100.49"/><line class="cls-8" x1="333.65" y1="66.31" x2="333.65" y2="100.49"/><line class="cls-8" x1="326.77" y1="66.31" x2="326.77" y2="100.49"/><line class="cls-8" x1="319.99" y1="66.31" x2="319.99" y2="100.49"/><line class="cls-8" x1="313.21" y1="66.31" x2="313.21" y2="100.49"/><line class="cls-8" x1="299.56" y1="66.31" x2="299.56" y2="100.49"/><line class="cls-8" x1="292.78" y1="66.31" x2="292.78" y2="100.49"/><line class="cls-8" x1="286" y1="66.31" x2="286" y2="100.49"/><line class="cls-8" x1="279.22" y1="66.31" x2="279.22" y2="100.49"/><line class="cls-8" x1="265.57" y1="66.31" x2="265.57" y2="100.49"/><line class="cls-8" x1="258.79" y1="66.31" x2="258.79" y2="100.49"/><line class="cls-8" x1="252.01" y1="66.31" x2="252.01" y2="100.49"/><line class="cls-8" x1="245.13" y1="66.31" x2="245.13" y2="100.49"/><line class="cls-8" x1="231.58" y1="66.31" x2="231.58" y2="100.49"/><line class="cls-8" x1="224.7" y1="66.31" x2="224.7" y2="100.49"/><line class="cls-8" x1="217.92" y1="66.31" x2="217.92" y2="100.49"/><line class="cls-8" x1="211.14" y1="66.31" x2="211.14" y2="100.49"/><line class="cls-8" x1="197.49" y1="66.31" x2="197.49" y2="100.49"/><line class="cls-8" x1="190.71" y1="66.31" x2="190.71" y2="100.49"/><line class="cls-8" x1="183.93" y1="66.31" x2="183.93" y2="100.49"/><line class="cls-8" x1="177.15" y1="66.31" x2="177.15" y2="100.49"/><line class="cls-8" x1="170.27" y1="66.31" x2="170.27" y2="100.49"/><line class="cls-8" x1="163.5" y1="66.31" x2="163.5" y2="100.49"/><line class="cls-8" x1="156.72" y1="66.31" x2="156.72" y2="100.49"/><line class="cls-8" x1="149.94" y1="66.31" x2="149.94" y2="100.49"/><line class="cls-8" x1="143.06" y1="66.31" x2="143.06" y2="100.49"/><line class="cls-8" x1="129.5" y1="66.31" x2="129.5" y2="100.49"/><line class="cls-8" x1="122.63" y1="66.31" x2="122.63" y2="100.49"/><line class="cls-8" x1="115.85" y1="66.31" x2="115.85" y2="100.49"/><line class="cls-8" x1="109.07" y1="66.31" x2="109.07" y2="100.49"/><line class="cls-8" x1="95.41" y1="66.31" x2="95.41" y2="100.49"/><line class="cls-8" x1="88.63" y1="66.31" x2="88.63" y2="100.49"/><line class="cls-8" x1="81.86" y1="66.31" x2="81.86" y2="100.49"/><line class="cls-8" x1="75.08" y1="66.31" x2="75.08" y2="100.49"/><line class="cls-8" x1="61.42" y1="66.31" x2="61.42" y2="100.49"/><line class="cls-8" x1="54.64" y1="66.31" x2="54.64" y2="100.49"/><line class="cls-8" x1="47.87" y1="66.31" x2="47.87" y2="100.49"/><line class="cls-8" x1="40.99" y1="66.31" x2="40.99" y2="100.49"/><line class="cls-8" x1="34.21" y1="127.69" x2="374.59" y2="127.69"/><line class="cls-8" x1="34.21" y1="120.87" x2="374.59" y2="120.87"/><line class="cls-8" x1="34.21" y1="114.03" x2="374.59" y2="114.03"/><line class="cls-8" x1="34.21" y1="107.2" x2="374.59" y2="107.2"/><line class="cls-8" x1="367.64" y1="100.36" x2="367.64" y2="134.53"/><line class="cls-8" x1="360.86" y1="100.36" x2="360.86" y2="134.53"/><line class="cls-8" x1="354.08" y1="100.36" x2="354.08" y2="134.53"/><line class="cls-8" x1="347.2" y1="100.36" x2="347.2" y2="134.53"/><line class="cls-8" x1="333.65" y1="100.36" x2="333.65" y2="134.53"/><line class="cls-8" x1="326.77" y1="100.36" x2="326.77" y2="134.53"/><line class="cls-8" x1="319.99" y1="100.36" x2="319.99" y2="134.53"/><line class="cls-8" x1="313.21" y1="100.36" x2="313.21" y2="134.53"/><line class="cls-8" x1="299.56" y1="100.36" x2="299.56" y2="134.53"/><line class="cls-8" x1="292.78" y1="100.36" x2="292.78" y2="134.53"/><line class="cls-8" x1="286" y1="100.36" x2="286" y2="134.53"/><line class="cls-8" x1="279.22" y1="100.36" x2="279.22" y2="134.53"/><line class="cls-8" x1="265.57" y1="100.36" x2="265.57" y2="134.53"/><line class="cls-8" x1="258.79" y1="100.36" x2="258.79" y2="134.53"/><line class="cls-8" x1="252.01" y1="100.36" x2="252.01" y2="134.53"/><line class="cls-8" x1="245.13" y1="100.36" x2="245.13" y2="134.53"/><line class="cls-8" x1="231.58" y1="100.36" x2="231.58" y2="134.53"/><line class="cls-8" x1="224.7" y1="100.36" x2="224.7" y2="134.53"/><line class="cls-8" x1="217.92" y1="100.36" x2="217.92" y2="134.53"/><line class="cls-8" x1="211.14" y1="100.36" x2="211.14" y2="134.53"/><line class="cls-8" x1="197.49" y1="100.36" x2="197.49" y2="134.53"/><line class="cls-8" x1="190.71" y1="100.36" x2="190.71" y2="134.53"/><line class="cls-8" x1="183.93" y1="100.36" x2="183.93" y2="134.53"/><line class="cls-8" x1="177.15" y1="100.36" x2="177.15" y2="134.53"/><line class="cls-8" x1="170.27" y1="100.36" x2="170.27" y2="134.53"/><line class="cls-8" x1="163.5" y1="100.36" x2="163.5" y2="134.53"/><line class="cls-8" x1="156.72" y1="100.36" x2="156.72" y2="134.53"/><line class="cls-8" x1="149.94" y1="100.36" x2="149.94" y2="134.53"/><line class="cls-8" x1="143.06" y1="100.36" x2="143.06" y2="134.53"/><line class="cls-8" x1="129.5" y1="100.36" x2="129.5" y2="134.53"/><line class="cls-8" x1="122.63" y1="100.36" x2="122.63" y2="134.53"/><line class="cls-8" x1="115.85" y1="100.36" x2="115.85" y2="134.53"/><line class="cls-8" x1="109.07" y1="100.36" x2="109.07" y2="134.53"/><line class="cls-8" x1="95.41" y1="100.36" x2="95.41" y2="134.53"/><line class="cls-8" x1="88.63" y1="100.36" x2="88.63" y2="134.53"/><line class="cls-8" x1="81.86" y1="100.36" x2="81.86" y2="134.53"/><line class="cls-8" x1="75.08" y1="100.36" x2="75.08" y2="134.53"/><line class="cls-8" x1="61.42" y1="100.36" x2="61.42" y2="134.53"/><line class="cls-8" x1="54.64" y1="100.36" x2="54.64" y2="134.53"/><line class="cls-8" x1="47.87" y1="100.36" x2="47.87" y2="134.53"/><line class="cls-8" x1="40.99" y1="100.36" x2="40.99" y2="134.53"/><line class="cls-8" x1="34.21" y1="161.74" x2="374.59" y2="161.74"/><line class="cls-8" x1="34.21" y1="154.92" x2="374.59" y2="154.92"/><line class="cls-8" x1="34.21" y1="148.07" x2="374.59" y2="148.07"/><line class="cls-8" x1="34.21" y1="141.25" x2="374.59" y2="141.25"/><line class="cls-8" x1="367.64" y1="134.41" x2="367.64" y2="168.58"/><line class="cls-8" x1="360.86" y1="134.41" x2="360.86" y2="168.58"/><line class="cls-8" x1="354.08" y1="134.41" x2="354.08" y2="168.58"/><line class="cls-8" x1="347.2" y1="134.41" x2="347.2" y2="168.58"/><line class="cls-8" x1="333.65" y1="134.41" x2="333.65" y2="168.58"/><line class="cls-8" x1="326.77" y1="134.41" x2="326.77" y2="168.58"/><line class="cls-8" x1="319.99" y1="134.41" x2="319.99" y2="168.58"/><line class="cls-8" x1="313.21" y1="134.41" x2="313.21" y2="168.58"/><line class="cls-8" x1="299.56" y1="134.41" x2="299.56" y2="168.58"/><line class="cls-8" x1="292.78" y1="134.41" x2="292.78" y2="168.58"/><line class="cls-8" x1="286" y1="134.41" x2="286" y2="168.58"/><line class="cls-8" x1="279.22" y1="134.41" x2="279.22" y2="168.58"/><line class="cls-8" x1="265.57" y1="134.41" x2="265.57" y2="168.58"/><line class="cls-8" x1="258.79" y1="134.41" x2="258.79" y2="168.58"/><line class="cls-8" x1="252.01" y1="134.41" x2="252.01" y2="168.58"/><line class="cls-8" x1="245.13" y1="134.41" x2="245.13" y2="168.58"/><line class="cls-8" x1="231.58" y1="134.41" x2="231.58" y2="168.58"/><line class="cls-8" x1="224.7" y1="134.41" x2="224.7" y2="168.58"/><line class="cls-8" x1="217.92" y1="134.41" x2="217.92" y2="168.58"/><line class="cls-8" x1="211.14" y1="134.41" x2="211.14" y2="168.58"/><line class="cls-8" x1="197.49" y1="134.41" x2="197.49" y2="168.58"/><line class="cls-8" x1="190.71" y1="134.41" x2="190.71" y2="168.58"/><line class="cls-8" x1="183.93" y1="134.41" x2="183.93" y2="168.58"/><line class="cls-8" x1="177.15" y1="134.41" x2="177.15" y2="168.58"/><line class="cls-8" x1="170.27" y1="134.41" x2="170.27" y2="168.58"/><line class="cls-8" x1="163.5" y1="134.41" x2="163.5" y2="168.58"/><line class="cls-8" x1="156.72" y1="134.41" x2="156.72" y2="168.58"/><line class="cls-8" x1="149.94" y1="134.41" x2="149.94" y2="168.58"/><line class="cls-8" x1="143.06" y1="134.41" x2="143.06" y2="168.58"/><line class="cls-8" x1="129.5" y1="134.41" x2="129.5" y2="168.58"/><line class="cls-8" x1="122.63" y1="134.41" x2="122.63" y2="168.58"/><line class="cls-8" x1="115.85" y1="134.41" x2="115.85" y2="168.58"/><line class="cls-8" x1="109.07" y1="134.41" x2="109.07" y2="168.58"/><line class="cls-8" x1="95.41" y1="134.41" x2="95.41" y2="168.58"/><line class="cls-8" x1="88.63" y1="134.41" x2="88.63" y2="168.58"/><line class="cls-8" x1="81.86" y1="134.41" x2="81.86" y2="168.58"/><line class="cls-8" x1="75.08" y1="134.41" x2="75.08" y2="168.58"/><line class="cls-8" x1="61.42" y1="134.41" x2="61.42" y2="168.58"/><line class="cls-8" x1="54.64" y1="134.41" x2="54.64" y2="168.58"/><line class="cls-8" x1="47.87" y1="134.41" x2="47.87" y2="168.58"/><line class="cls-8" x1="40.99" y1="134.41" x2="40.99" y2="168.58"/><line class="cls-8" x1="34.21" y1="195.79" x2="374.59" y2="195.79"/><line class="cls-8" x1="34.21" y1="188.97" x2="374.59" y2="188.97"/><line class="cls-8" x1="34.21" y1="182.12" x2="374.59" y2="182.12"/><line class="cls-8" x1="34.21" y1="175.3" x2="374.59" y2="175.3"/><line class="cls-8" x1="367.64" y1="168.46" x2="367.64" y2="202.63"/><line class="cls-8" x1="360.86" y1="168.46" x2="360.86" y2="202.63"/><line class="cls-8" x1="354.08" y1="168.46" x2="354.08" y2="202.63"/><line class="cls-8" x1="347.2" y1="168.46" x2="347.2" y2="202.63"/><line class="cls-8" x1="333.65" y1="168.46" x2="333.65" y2="202.63"/><line class="cls-8" x1="326.77" y1="168.46" x2="326.77" y2="202.63"/><line class="cls-8" x1="319.99" y1="168.46" x2="319.99" y2="202.63"/><line class="cls-8" x1="313.21" y1="168.46" x2="313.21" y2="202.63"/><line class="cls-8" x1="299.56" y1="168.46" x2="299.56" y2="202.63"/><line class="cls-8" x1="292.78" y1="168.46" x2="292.78" y2="202.63"/><line class="cls-8" x1="286" y1="168.46" x2="286" y2="202.63"/><line class="cls-8" x1="279.22" y1="168.46" x2="279.22" y2="202.63"/><line class="cls-8" x1="265.57" y1="168.46" x2="265.57" y2="202.63"/><line class="cls-8" x1="258.79" y1="168.46" x2="258.79" y2="202.63"/><line class="cls-8" x1="252.01" y1="168.46" x2="252.01" y2="202.63"/><line class="cls-8" x1="245.13" y1="168.46" x2="245.13" y2="202.63"/><line class="cls-8" x1="231.58" y1="168.46" x2="231.58" y2="202.63"/><line class="cls-8" x1="224.7" y1="168.46" x2="224.7" y2="202.63"/><line class="cls-8" x1="217.92" y1="168.46" x2="217.92" y2="202.63"/><line class="cls-8" x1="211.14" y1="168.46" x2="211.14" y2="202.63"/><line class="cls-8" x1="197.49" y1="168.46" x2="197.49" y2="202.63"/><line class="cls-8" x1="190.71" y1="168.46" x2="190.71" y2="202.63"/><line class="cls-8" x1="183.93" y1="168.46" x2="183.93" y2="202.63"/><line class="cls-8" x1="177.15" y1="168.46" x2="177.15" y2="202.63"/><line class="cls-8" x1="170.27" y1="168.46" x2="170.27" y2="202.63"/><line class="cls-8" x1="163.5" y1="168.46" x2="163.5" y2="202.63"/><line class="cls-8" x1="156.72" y1="168.46" x2="156.72" y2="202.63"/><line class="cls-8" x1="149.94" y1="168.46" x2="149.94" y2="202.63"/><line class="cls-8" x1="143.06" y1="168.46" x2="143.06" y2="202.63"/><line class="cls-8" x1="129.5" y1="168.46" x2="129.5" y2="202.63"/><line class="cls-8" x1="122.63" y1="168.46" x2="122.63" y2="202.63"/><line class="cls-8" x1="115.85" y1="168.46" x2="115.85" y2="202.63"/><line class="cls-8" x1="109.07" y1="168.46" x2="109.07" y2="202.63"/><line class="cls-8" x1="95.41" y1="168.46" x2="95.41" y2="202.63"/><line class="cls-8" x1="88.63" y1="168.46" x2="88.63" y2="202.63"/><line class="cls-8" x1="81.86" y1="168.46" x2="81.86" y2="202.63"/><line class="cls-8" x1="75.08" y1="168.46" x2="75.08" y2="202.63"/><line class="cls-8" x1="61.42" y1="168.46" x2="61.42" y2="202.63"/><line class="cls-8" x1="54.64" y1="168.46" x2="54.64" y2="202.63"/><line class="cls-8" x1="47.87" y1="168.46" x2="47.87" y2="202.63"/><line class="cls-8" x1="40.99" y1="168.46" x2="40.99" y2="202.63"/><line class="cls-8" x1="34.21" y1="229.84" x2="374.59" y2="229.84"/><line class="cls-8" x1="34.21" y1="223.02" x2="374.59" y2="223.02"/><line class="cls-8" x1="34.21" y1="216.17" x2="374.59" y2="216.17"/><line class="cls-8" x1="34.21" y1="209.35" x2="374.59" y2="209.35"/><line class="cls-8" x1="367.64" y1="202.51" x2="367.64" y2="236.68"/><line class="cls-8" x1="360.86" y1="202.51" x2="360.86" y2="236.68"/><line class="cls-8" x1="354.08" y1="202.51" x2="354.08" y2="236.68"/><line class="cls-8" x1="347.2" y1="202.51" x2="347.2" y2="236.68"/><line class="cls-8" x1="333.65" y1="202.51" x2="333.65" y2="236.68"/><line class="cls-8" x1="326.77" y1="202.51" x2="326.77" y2="236.68"/><line class="cls-8" x1="319.99" y1="202.51" x2="319.99" y2="236.68"/><line class="cls-8" x1="313.21" y1="202.51" x2="313.21" y2="236.68"/><line class="cls-8" x1="299.56" y1="202.51" x2="299.56" y2="236.68"/><line class="cls-8" x1="292.78" y1="202.51" x2="292.78" y2="236.68"/><line class="cls-8" x1="286" y1="202.51" x2="286" y2="236.68"/><line class="cls-8" x1="279.22" y1="202.51" x2="279.22" y2="236.68"/><line class="cls-8" x1="265.57" y1="202.51" x2="265.57" y2="236.68"/><line class="cls-8" x1="258.79" y1="202.51" x2="258.79" y2="236.68"/><line class="cls-8" x1="252.01" y1="202.51" x2="252.01" y2="236.68"/><line class="cls-8" x1="245.13" y1="202.51" x2="245.13" y2="236.68"/><line class="cls-8" x1="231.58" y1="202.51" x2="231.58" y2="236.68"/><line class="cls-8" x1="224.7" y1="202.51" x2="224.7" y2="236.68"/><line class="cls-8" x1="217.92" y1="202.51" x2="217.92" y2="236.68"/><line class="cls-8" x1="211.14" y1="202.51" x2="211.14" y2="236.68"/><line class="cls-8" x1="197.49" y1="202.51" x2="197.49" y2="236.68"/><line class="cls-8" x1="190.71" y1="202.51" x2="190.71" y2="236.68"/><line class="cls-8" x1="183.93" y1="202.51" x2="183.93" y2="236.68"/><line class="cls-8" x1="177.15" y1="202.51" x2="177.15" y2="236.68"/><line class="cls-8" x1="170.27" y1="202.51" x2="170.27" y2="236.68"/><line class="cls-8" x1="163.5" y1="202.51" x2="163.5" y2="236.68"/><line class="cls-8" x1="156.72" y1="202.51" x2="156.72" y2="236.68"/><line class="cls-8" x1="149.94" y1="202.51" x2="149.94" y2="236.68"/><line class="cls-8" x1="143.06" y1="202.51" x2="143.06" y2="236.68"/><line class="cls-8" x1="129.5" y1="202.51" x2="129.5" y2="236.68"/><line class="cls-8" x1="122.63" y1="202.51" x2="122.63" y2="236.68"/><line class="cls-8" x1="115.85" y1="202.51" x2="115.85" y2="236.68"/><line class="cls-8" x1="109.07" y1="202.51" x2="109.07" y2="236.68"/><line class="cls-8" x1="95.41" y1="202.51" x2="95.41" y2="236.68"/><line class="cls-8" x1="88.63" y1="202.51" x2="88.63" y2="236.68"/><line class="cls-8" x1="81.86" y1="202.51" x2="81.86" y2="236.68"/><line class="cls-8" x1="75.08" y1="202.51" x2="75.08" y2="236.68"/><line class="cls-8" x1="61.42" y1="202.51" x2="61.42" y2="236.68"/><line class="cls-8" x1="54.64" y1="202.51" x2="54.64" y2="236.68"/><line class="cls-8" x1="47.87" y1="202.51" x2="47.87" y2="236.68"/><line class="cls-8" x1="40.99" y1="202.51" x2="40.99" y2="236.68"/><line class="cls-8" x1="34.21" y1="263.89" x2="374.59" y2="263.89"/><line class="cls-8" x1="34.21" y1="257.06" x2="374.59" y2="257.06"/><line class="cls-8" x1="34.21" y1="250.22" x2="374.59" y2="250.22"/><line class="cls-8" x1="34.21" y1="243.4" x2="374.59" y2="243.4"/><line class="cls-8" x1="367.64" y1="236.56" x2="367.64" y2="270.73"/><line class="cls-8" x1="360.86" y1="236.56" x2="360.86" y2="270.73"/><line class="cls-8" x1="354.08" y1="236.56" x2="354.08" y2="270.73"/><line class="cls-8" x1="347.2" y1="236.56" x2="347.2" y2="270.73"/><line class="cls-8" x1="333.65" y1="236.56" x2="333.65" y2="270.73"/><line class="cls-8" x1="326.77" y1="236.56" x2="326.77" y2="270.73"/><line class="cls-8" x1="319.99" y1="236.56" x2="319.99" y2="270.73"/><line class="cls-8" x1="313.21" y1="236.56" x2="313.21" y2="270.73"/><line class="cls-8" x1="299.56" y1="236.56" x2="299.56" y2="270.73"/><line class="cls-8" x1="292.78" y1="236.56" x2="292.78" y2="270.73"/><line class="cls-8" x1="286" y1="236.56" x2="286" y2="270.73"/><line class="cls-8" x1="279.22" y1="236.56" x2="279.22" y2="270.73"/><line class="cls-8" x1="265.57" y1="236.56" x2="265.57" y2="270.73"/><line class="cls-8" x1="258.79" y1="236.56" x2="258.79" y2="270.73"/><line class="cls-8" x1="252.01" y1="236.56" x2="252.01" y2="270.73"/><line class="cls-8" x1="245.13" y1="236.56" x2="245.13" y2="270.73"/><line class="cls-8" x1="231.58" y1="236.56" x2="231.58" y2="270.73"/><line class="cls-8" x1="224.7" y1="236.56" x2="224.7" y2="270.73"/><line class="cls-8" x1="217.92" y1="236.56" x2="217.92" y2="270.73"/><line class="cls-8" x1="211.14" y1="236.56" x2="211.14" y2="270.73"/><line class="cls-8" x1="197.49" y1="236.56" x2="197.49" y2="270.73"/><line class="cls-8" x1="190.71" y1="236.56" x2="190.71" y2="270.73"/><line class="cls-8" x1="183.93" y1="236.56" x2="183.93" y2="270.73"/><line class="cls-8" x1="177.15" y1="236.56" x2="177.15" y2="270.73"/><line class="cls-8" x1="170.27" y1="236.56" x2="170.27" y2="270.73"/><line class="cls-8" x1="163.5" y1="236.56" x2="163.5" y2="270.73"/><line class="cls-8" x1="156.72" y1="236.56" x2="156.72" y2="270.73"/><line class="cls-8" x1="149.94" y1="236.56" x2="149.94" y2="270.73"/><line class="cls-8" x1="143.06" y1="236.56" x2="143.06" y2="270.73"/><line class="cls-8" x1="129.5" y1="236.56" x2="129.5" y2="270.73"/><line class="cls-8" x1="122.63" y1="236.56" x2="122.63" y2="270.73"/><line class="cls-8" x1="115.85" y1="236.56" x2="115.85" y2="270.73"/><line class="cls-8" x1="109.07" y1="236.56" x2="109.07" y2="270.73"/><line class="cls-8" x1="95.41" y1="236.56" x2="95.41" y2="270.73"/><line class="cls-8" x1="88.63" y1="236.56" x2="88.63" y2="270.73"/><line class="cls-8" x1="81.86" y1="236.56" x2="81.86" y2="270.73"/><line class="cls-8" x1="75.08" y1="236.56" x2="75.08" y2="270.73"/><line class="cls-8" x1="61.42" y1="236.56" x2="61.42" y2="270.73"/><line class="cls-8" x1="54.64" y1="236.56" x2="54.64" y2="270.73"/><line class="cls-8" x1="47.87" y1="236.56" x2="47.87" y2="270.73"/><line class="cls-8" x1="40.99" y1="236.56" x2="40.99" y2="270.73"/><text class="cls-9" transform="translate(194.08 343.06)">9.5<tspan class="cls-10" x="16.06" y="0">A</tspan></text><line class="cls-4" x1="425.25" y1="100.33" x2="425.25" y2="202.31"/><rect class="cls-5" x="412.77" y="133.03" width="24.97" height="35.52"/><text class="cls-9" transform="translate(422.17 143.72) rotate(90)">3<tspan class="cls-11" x="6.42" y="0">A</tspan></text></g></g></svg>