<svg xmlns="http://www.w3.org/2000/svg" viewBox="0 0 350.2 215.03"><defs><style>.cls-1{fill:#898989;}.cls-2{font-size:7.52px;fill:#10386b;font-family:FZHTJW--GB1-0, FZHTJW -GB1-0-GBpc-EUC-H;}.cls-11,.cls-3,.cls-7{fill:#231815;}.cls-3{font-size:7.44px;}.cls-10,.cls-4,.cls-8,.cls-9{fill:none;stroke:#231815;}.cls-4,.cls-9{stroke-miterlimit:3.86;}.cls-4{stroke-width:0.42px;}.cls-5{fill:#fff;}.cls-6{fill:#d3d3d4;}.cls-8{stroke-width:0.44px;}.cls-9{stroke-width:0.31px;}.cls-10{stroke-width:0.19px;}.cls-11{font-size:6.41px;font-family:ArialMT, Arial;}.cls-12{letter-spacing:-0.06em;}.cls-13{letter-spacing:-0.06em;}</style></defs><title>hitrobot_hrg_English_transverse_logo_ash</title><g id="图层_2" data-name="图层 2"><g id="图层_1-2" data-name="图层 1"><path class="cls-1" d="M42.77,80h1.56V94.22H42.77V87.63H34.83v6.59H33.2V80h1.63v6.16h7.94Z"/><path class="cls-1" d="M53.54,80H55.1V94.22H53.54Z"/><path class="cls-1" d="M74.44,80v1.35H69.62V94.22H68V81.39H63.17V80Z"/><path class="cls-1" d="M105.47,94.22h-2.2l-4.89-6.38H94.63v6.38H93V80h6.59q4.54.21,4.82,3.83,0,3.69-4.25,4ZM94.63,81.47v5h4.61q3.47-.07,3.47-2.62-.07-2.27-3.47-2.34Z"/><path class="cls-1" d="M119.21,94.44q-6.45-.36-6.73-7,.28-7.23,6.95-7.58,6.31.42,6.73,7.44Q125.87,94.15,119.21,94.44Zm.07-13.18q-4.67.42-5.17,6,.28,5.46,5,5.88,5-.28,5.25-5.88Q124,81.68,119.28,81.25Z"/><path class="cls-1" d="M140.11,94.22h-5.88V80h5.53q4.25.21,4.54,3.54a3.17,3.17,0,0,1-2.84,3.12v.07a3.6,3.6,0,0,1,3.4,3.62Q144.65,94.08,140.11,94.22Zm-.71-12.76h-3.69v4.75h3.69q2.9-.14,3.19-2.55C142.5,82.24,141.44,81.52,139.41,81.47Zm.21,6.17h-3.9v5.31h4.18q3.33,0,3.33-2.76Q143,87.78,139.62,87.63Z"/><path class="cls-1" d="M159.46,94.44q-6.45-.36-6.73-7,.28-7.23,6.95-7.58,6.3.42,6.73,7.44Q166.11,94.15,159.46,94.44Zm.07-13.18q-4.68.42-5.17,6,.28,5.46,5,5.88,5-.28,5.24-5.88Q164.2,81.68,159.53,81.25Z"/><path class="cls-1" d="M184.75,80v1.35h-4.82V94.22H178.3V81.39h-4.82V80Z"/><path class="cls-1" d="M209.83,86.92h6.1V92.1q-1.78,2.34-6.1,2.34-6.66-.36-7-7.09.28-7.23,6.73-7.51,4.75.07,6.31,4.18l-1.77.43a4.57,4.57,0,0,0-4.61-3.19q-4.54.42-5,6,.35,5.46,5.24,5.88,3.19,0,4.61-1.7V88.27h-4.54Z"/><path class="cls-1" d="M236.89,94.22h-2.2l-4.89-6.38h-3.76v6.38h-1.63V80H231q4.54.21,4.82,3.83,0,3.69-4.25,4ZM226.05,81.47v5h4.61q3.47-.07,3.47-2.62-.07-2.27-3.47-2.34Z"/><path class="cls-1" d="M250.64,94.44q-6.45-.36-6.73-7,.28-7.23,6.94-7.58,6.31.42,6.74,7.44Q257.3,94.15,250.64,94.44Zm.07-13.18q-4.68.42-5.17,6,.28,5.46,5,5.88,5-.28,5.24-5.88Q255.38,81.68,250.71,81.25Z"/><path class="cls-1" d="M276.93,80v8.29q.07,6.17-5.67,6.1t-5.53-6.1V80h1.63v8.22q-.07,5,3.9,4.89,4.25.14,4.11-4.89V80Z"/><path class="cls-1" d="M291.87,88.48h-4.39v5.74h-1.56V80H292q4.32.21,4.75,4.18Q296.69,88.41,291.87,88.48Zm-.28-7h-4.11v5.6h4.11q3.4-.07,3.47-2.91Q294.92,81.54,291.59,81.47Z"/><text class="cls-2" transform="translate(143.55 212.9) scale(0.95 1)">■ <tspan class="cls-3" x="9.21" y="0">标准字体制图</tspan></text><line class="cls-4" x1="341.42" y1="47.82" x2="341.42" y2="118.36"/><line class="cls-4" x1="348.94" y1="47.81" x2="333.12" y2="47.81"/><line class="cls-4" x1="349.42" y1="118.35" x2="333.61" y2="118.35"/><rect class="cls-5" x="332.9" y="73.2" width="17.3" height="19.47"/><line class="cls-4" x1="23.25" y1="195.11" x2="306.74" y2="195.11"/><line class="cls-4" x1="306.7" y1="203.51" x2="306.7" y2="172.46"/><line class="cls-4" x1="23.25" y1="203.51" x2="23.25" y2="172.46"/><rect class="cls-5" x="14.68" y="171.04" width="16.16" height="15.85"/><rect class="cls-5" x="149.93" y="185.79" width="28.19" height="17.3"/><rect class="cls-6" x="0.36" y="141.88" width="23.31" height="23.05"/><path class="cls-7" d="M10.57,155.14l-.89,2.49H8.5l3.24-8.6h1.32l3.1,8.6H14.9l-.85-2.49Zm3.06-1-1.27-3.81h0l-1.36,3.81Z"/><rect class="cls-8" x="0.22" y="0.22" width="330.01" height="165.05"/><line class="cls-9" x1="0.22" y1="141.7" x2="330.23" y2="141.7"/><line class="cls-9" x1="0.22" y1="118.01" x2="330.23" y2="118.01"/><line class="cls-9" x1="0.22" y1="94.49" x2="330.23" y2="94.49"/><line class="cls-9" x1="0.22" y1="70.96" x2="330.23" y2="70.96"/><line class="cls-9" x1="0.22" y1="47.43" x2="330.23" y2="47.43"/><line class="cls-9" x1="0.22" y1="23.75" x2="330.23" y2="23.75"/><line class="cls-9" x1="306.62" y1="0.22" x2="306.62" y2="165.43"/><line class="cls-9" x1="283.1" y1="0.22" x2="283.1" y2="165.43"/><line class="cls-9" x1="259.49" y1="0.22" x2="259.49" y2="165.43"/><line class="cls-9" x1="235.96" y1="0.22" x2="235.96" y2="165.43"/><line class="cls-9" x1="212.36" y1="0.22" x2="212.36" y2="165.43"/><line class="cls-9" x1="188.83" y1="0.22" x2="188.83" y2="165.43"/><line class="cls-9" x1="165.23" y1="0.22" x2="165.23" y2="165.43"/><line class="cls-9" x1="141.62" y1="0.22" x2="141.62" y2="165.43"/><line class="cls-9" x1="118.09" y1="0.22" x2="118.09" y2="165.43"/><line class="cls-9" x1="94.49" y1="0.22" x2="94.49" y2="165.43"/><line class="cls-9" x1="70.96" y1="0.22" x2="70.96" y2="165.43"/><line class="cls-9" x1="47.35" y1="0.22" x2="47.35" y2="165.43"/><line class="cls-9" x1="23.83" y1="0.22" x2="23.83" y2="165.43"/><line class="cls-10" x1="23.74" y1="42.68" x2="306.55" y2="42.68"/><line class="cls-10" x1="23.74" y1="37.95" x2="306.55" y2="37.95"/><line class="cls-10" x1="23.74" y1="33.21" x2="306.55" y2="33.21"/><line class="cls-10" x1="23.74" y1="28.49" x2="306.55" y2="28.49"/><line class="cls-10" x1="301.85" y1="23.75" x2="301.85" y2="47.42"/><line class="cls-10" x1="297.09" y1="23.75" x2="297.09" y2="47.42"/><line class="cls-10" x1="292.39" y1="23.75" x2="292.39" y2="47.42"/><line class="cls-10" x1="287.7" y1="23.75" x2="287.7" y2="47.42"/><line class="cls-10" x1="278.24" y1="23.75" x2="278.24" y2="47.42"/><line class="cls-10" x1="273.54" y1="23.75" x2="273.54" y2="47.42"/><line class="cls-10" x1="268.85" y1="23.75" x2="268.85" y2="47.42"/><line class="cls-10" x1="264.15" y1="23.75" x2="264.15" y2="47.42"/><line class="cls-10" x1="254.69" y1="23.75" x2="254.69" y2="47.42"/><line class="cls-10" x1="250" y1="23.75" x2="250" y2="47.42"/><line class="cls-10" x1="245.3" y1="23.75" x2="245.3" y2="47.42"/><line class="cls-10" x1="240.54" y1="23.75" x2="240.54" y2="47.42"/><line class="cls-10" x1="231.15" y1="23.75" x2="231.15" y2="47.42"/><line class="cls-10" x1="226.39" y1="23.75" x2="226.39" y2="47.42"/><line class="cls-10" x1="221.69" y1="23.75" x2="221.69" y2="47.42"/><line class="cls-10" x1="217" y1="23.75" x2="217" y2="47.42"/><line class="cls-10" x1="207.54" y1="23.75" x2="207.54" y2="47.42"/><line class="cls-10" x1="202.84" y1="23.75" x2="202.84" y2="47.42"/><line class="cls-10" x1="198.15" y1="23.75" x2="198.15" y2="47.42"/><line class="cls-10" x1="193.45" y1="23.75" x2="193.45" y2="47.42"/><line class="cls-10" x1="183.99" y1="23.75" x2="183.99" y2="47.42"/><line class="cls-10" x1="179.3" y1="23.75" x2="179.3" y2="47.42"/><line class="cls-10" x1="174.6" y1="23.75" x2="174.6" y2="47.42"/><line class="cls-10" x1="169.84" y1="23.75" x2="169.84" y2="47.42"/><line class="cls-10" x1="160.45" y1="23.75" x2="160.45" y2="47.42"/><line class="cls-10" x1="155.69" y1="23.75" x2="155.69" y2="47.42"/><line class="cls-10" x1="150.99" y1="23.75" x2="150.99" y2="47.42"/><line class="cls-10" x1="146.3" y1="23.75" x2="146.3" y2="47.42"/><line class="cls-10" x1="136.84" y1="23.75" x2="136.84" y2="47.42"/><line class="cls-10" x1="132.14" y1="23.75" x2="132.14" y2="47.42"/><line class="cls-10" x1="127.45" y1="23.75" x2="127.45" y2="47.42"/><line class="cls-10" x1="122.75" y1="23.75" x2="122.75" y2="47.42"/><path class="cls-10" d="M118,47.42"/><path class="cls-10" d="M118,23.75"/><line class="cls-10" x1="113.29" y1="23.75" x2="113.29" y2="47.42"/><line class="cls-10" x1="108.6" y1="23.75" x2="108.6" y2="47.42"/><line class="cls-10" x1="103.9" y1="23.75" x2="103.9" y2="47.42"/><line class="cls-10" x1="99.14" y1="23.75" x2="99.14" y2="47.42"/><line class="cls-10" x1="89.75" y1="23.75" x2="89.75" y2="47.42"/><line class="cls-10" x1="84.98" y1="23.75" x2="84.98" y2="47.42"/><line class="cls-10" x1="80.29" y1="23.75" x2="80.29" y2="47.42"/><line class="cls-10" x1="75.59" y1="23.75" x2="75.59" y2="47.42"/><line class="cls-10" x1="66.14" y1="23.75" x2="66.14" y2="47.42"/><line class="cls-10" x1="61.44" y1="23.75" x2="61.44" y2="47.42"/><line class="cls-10" x1="56.75" y1="23.75" x2="56.75" y2="47.42"/><line class="cls-10" x1="52.05" y1="23.75" x2="52.05" y2="47.42"/><line class="cls-10" x1="42.59" y1="23.75" x2="42.59" y2="47.42"/><line class="cls-10" x1="37.9" y1="23.75" x2="37.9" y2="47.42"/><line class="cls-10" x1="33.2" y1="23.75" x2="33.2" y2="47.42"/><line class="cls-10" x1="28.44" y1="23.75" x2="28.44" y2="47.42"/><line class="cls-10" x1="23.74" y1="66.31" x2="306.55" y2="66.31"/><line class="cls-10" x1="23.74" y1="61.58" x2="306.55" y2="61.58"/><line class="cls-10" x1="23.74" y1="56.85" x2="306.55" y2="56.85"/><line class="cls-10" x1="23.74" y1="52.12" x2="306.55" y2="52.12"/><line class="cls-10" x1="301.85" y1="47.38" x2="301.85" y2="71.05"/><line class="cls-10" x1="297.09" y1="47.38" x2="297.09" y2="71.05"/><line class="cls-10" x1="292.39" y1="47.38" x2="292.39" y2="71.05"/><line class="cls-10" x1="287.7" y1="47.38" x2="287.7" y2="71.05"/><line class="cls-10" x1="278.24" y1="47.38" x2="278.24" y2="71.05"/><line class="cls-10" x1="273.54" y1="47.38" x2="273.54" y2="71.05"/><line class="cls-10" x1="268.85" y1="47.38" x2="268.85" y2="71.05"/><line class="cls-10" x1="264.15" y1="47.38" x2="264.15" y2="71.05"/><line class="cls-10" x1="254.69" y1="47.38" x2="254.69" y2="71.05"/><line class="cls-10" x1="250" y1="47.38" x2="250" y2="71.05"/><line class="cls-10" x1="245.3" y1="47.38" x2="245.3" y2="71.05"/><line class="cls-10" x1="240.54" y1="47.38" x2="240.54" y2="71.05"/><line class="cls-10" x1="231.15" y1="47.38" x2="231.15" y2="71.05"/><line class="cls-10" x1="226.39" y1="47.38" x2="226.39" y2="71.05"/><line class="cls-10" x1="221.69" y1="47.38" x2="221.69" y2="71.05"/><line class="cls-10" x1="217" y1="47.38" x2="217" y2="71.05"/><line class="cls-10" x1="207.54" y1="47.38" x2="207.54" y2="71.05"/><line class="cls-10" x1="202.84" y1="47.38" x2="202.84" y2="71.05"/><line class="cls-10" x1="198.15" y1="47.38" x2="198.15" y2="71.05"/><line class="cls-10" x1="193.45" y1="47.38" x2="193.45" y2="71.05"/><line class="cls-10" x1="183.99" y1="47.38" x2="183.99" y2="71.05"/><line class="cls-10" x1="179.3" y1="47.38" x2="179.3" y2="71.05"/><line class="cls-10" x1="174.6" y1="47.38" x2="174.6" y2="71.05"/><line class="cls-10" x1="169.84" y1="47.38" x2="169.84" y2="71.05"/><line class="cls-10" x1="160.45" y1="47.38" x2="160.45" y2="71.05"/><line class="cls-10" x1="155.69" y1="47.38" x2="155.69" y2="71.05"/><line class="cls-10" x1="150.99" y1="47.38" x2="150.99" y2="71.05"/><line class="cls-10" x1="146.3" y1="47.38" x2="146.3" y2="71.05"/><line class="cls-10" x1="136.84" y1="47.38" x2="136.84" y2="71.05"/><line class="cls-10" x1="132.14" y1="47.38" x2="132.14" y2="71.05"/><line class="cls-10" x1="127.45" y1="47.38" x2="127.45" y2="71.05"/><line class="cls-10" x1="122.75" y1="47.38" x2="122.75" y2="71.05"/><line class="cls-10" x1="113.29" y1="47.38" x2="113.29" y2="71.05"/><line class="cls-10" x1="108.6" y1="47.38" x2="108.6" y2="71.05"/><line class="cls-10" x1="103.9" y1="47.38" x2="103.9" y2="71.05"/><line class="cls-10" x1="99.14" y1="47.38" x2="99.14" y2="71.05"/><line class="cls-10" x1="89.75" y1="47.38" x2="89.75" y2="71.05"/><line class="cls-10" x1="84.98" y1="47.38" x2="84.98" y2="71.05"/><line class="cls-10" x1="80.29" y1="47.38" x2="80.29" y2="71.05"/><line class="cls-10" x1="75.59" y1="47.38" x2="75.59" y2="71.05"/><line class="cls-10" x1="66.14" y1="47.38" x2="66.14" y2="71.05"/><line class="cls-10" x1="61.44" y1="47.38" x2="61.44" y2="71.05"/><line class="cls-10" x1="56.75" y1="47.38" x2="56.75" y2="71.05"/><line class="cls-10" x1="52.05" y1="47.38" x2="52.05" y2="71.05"/><line class="cls-10" x1="42.59" y1="47.38" x2="42.59" y2="71.05"/><line class="cls-10" x1="37.9" y1="47.38" x2="37.9" y2="71.05"/><line class="cls-10" x1="33.2" y1="47.38" x2="33.2" y2="71.05"/><line class="cls-10" x1="28.44" y1="47.38" x2="28.44" y2="71.05"/><line class="cls-10" x1="23.74" y1="89.84" x2="306.55" y2="89.84"/><line class="cls-10" x1="23.74" y1="85.11" x2="306.55" y2="85.11"/><line class="cls-10" x1="23.74" y1="80.37" x2="306.55" y2="80.37"/><line class="cls-10" x1="23.74" y1="75.65" x2="306.55" y2="75.65"/><line class="cls-10" x1="301.85" y1="70.91" x2="301.85" y2="94.58"/><line class="cls-10" x1="297.09" y1="70.91" x2="297.09" y2="94.58"/><line class="cls-10" x1="292.39" y1="70.91" x2="292.39" y2="94.58"/><line class="cls-10" x1="287.7" y1="70.91" x2="287.7" y2="94.58"/><line class="cls-10" x1="278.24" y1="70.91" x2="278.24" y2="94.58"/><line class="cls-10" x1="273.54" y1="70.91" x2="273.54" y2="94.58"/><line class="cls-10" x1="268.85" y1="70.91" x2="268.85" y2="94.58"/><line class="cls-10" x1="264.15" y1="70.91" x2="264.15" y2="94.58"/><line class="cls-10" x1="254.69" y1="70.91" x2="254.69" y2="94.58"/><line class="cls-10" x1="250" y1="70.91" x2="250" y2="94.58"/><line class="cls-10" x1="245.3" y1="70.91" x2="245.3" y2="94.58"/><line class="cls-10" x1="240.54" y1="70.91" x2="240.54" y2="94.58"/><line class="cls-10" x1="231.15" y1="70.91" x2="231.15" y2="94.58"/><line class="cls-10" x1="226.39" y1="70.91" x2="226.39" y2="94.58"/><line class="cls-10" x1="221.69" y1="70.91" x2="221.69" y2="94.58"/><line class="cls-10" x1="217" y1="70.91" x2="217" y2="94.58"/><line class="cls-10" x1="207.54" y1="70.91" x2="207.54" y2="94.58"/><line class="cls-10" x1="202.84" y1="70.91" x2="202.84" y2="94.58"/><line class="cls-10" x1="198.15" y1="70.91" x2="198.15" y2="94.58"/><line class="cls-10" x1="193.45" y1="70.91" x2="193.45" y2="94.58"/><line class="cls-10" x1="183.99" y1="70.91" x2="183.99" y2="94.58"/><line class="cls-10" x1="179.3" y1="70.91" x2="179.3" y2="94.58"/><line class="cls-10" x1="174.6" y1="70.91" x2="174.6" y2="94.58"/><line class="cls-10" x1="169.84" y1="70.91" x2="169.84" y2="94.58"/><line class="cls-10" x1="160.45" y1="70.91" x2="160.45" y2="94.58"/><line class="cls-10" x1="155.69" y1="70.91" x2="155.69" y2="94.58"/><line class="cls-10" x1="150.99" y1="70.91" x2="150.99" y2="94.58"/><line class="cls-10" x1="146.3" y1="70.91" x2="146.3" y2="94.58"/><line class="cls-10" x1="136.84" y1="70.91" x2="136.84" y2="94.58"/><line class="cls-10" x1="132.14" y1="70.91" x2="132.14" y2="94.58"/><line class="cls-10" x1="127.45" y1="70.91" x2="127.45" y2="94.58"/><line class="cls-10" x1="122.75" y1="70.91" x2="122.75" y2="94.58"/><line class="cls-10" x1="113.29" y1="70.91" x2="113.29" y2="94.58"/><line class="cls-10" x1="108.6" y1="70.91" x2="108.6" y2="94.58"/><line class="cls-10" x1="103.9" y1="70.91" x2="103.9" y2="94.58"/><line class="cls-10" x1="99.14" y1="70.91" x2="99.14" y2="94.58"/><line class="cls-10" x1="89.75" y1="70.91" x2="89.75" y2="94.58"/><line class="cls-10" x1="84.98" y1="70.91" x2="84.98" y2="94.58"/><line class="cls-10" x1="80.29" y1="70.91" x2="80.29" y2="94.58"/><line class="cls-10" x1="75.59" y1="70.91" x2="75.59" y2="94.58"/><line class="cls-10" x1="66.14" y1="70.91" x2="66.14" y2="94.58"/><line class="cls-10" x1="61.44" y1="70.91" x2="61.44" y2="94.58"/><line class="cls-10" x1="56.75" y1="70.91" x2="56.75" y2="94.58"/><line class="cls-10" x1="52.05" y1="70.91" x2="52.05" y2="94.58"/><line class="cls-10" x1="42.59" y1="70.91" x2="42.59" y2="94.58"/><line class="cls-10" x1="37.9" y1="70.91" x2="37.9" y2="94.58"/><line class="cls-10" x1="33.2" y1="70.91" x2="33.2" y2="94.58"/><line class="cls-10" x1="28.44" y1="70.91" x2="28.44" y2="94.58"/><line class="cls-10" x1="23.74" y1="113.37" x2="306.55" y2="113.37"/><line class="cls-10" x1="23.74" y1="108.64" x2="306.55" y2="108.64"/><line class="cls-10" x1="23.74" y1="103.9" x2="306.55" y2="103.9"/><line class="cls-10" x1="23.74" y1="99.17" x2="306.55" y2="99.17"/><line class="cls-10" x1="301.85" y1="94.44" x2="301.85" y2="118.1"/><line class="cls-10" x1="297.09" y1="94.44" x2="297.09" y2="118.1"/><line class="cls-10" x1="292.39" y1="94.44" x2="292.39" y2="118.1"/><line class="cls-10" x1="287.7" y1="94.44" x2="287.7" y2="118.1"/><line class="cls-10" x1="278.24" y1="94.44" x2="278.24" y2="118.1"/><line class="cls-10" x1="273.54" y1="94.44" x2="273.54" y2="118.1"/><line class="cls-10" x1="268.85" y1="94.44" x2="268.85" y2="118.1"/><line class="cls-10" x1="264.15" y1="94.44" x2="264.15" y2="118.1"/><line class="cls-10" x1="254.69" y1="94.44" x2="254.69" y2="118.1"/><line class="cls-10" x1="250" y1="94.44" x2="250" y2="118.1"/><line class="cls-10" x1="245.3" y1="94.44" x2="245.3" y2="118.1"/><line class="cls-10" x1="240.54" y1="94.44" x2="240.54" y2="118.1"/><line class="cls-10" x1="231.15" y1="94.44" x2="231.15" y2="118.1"/><line class="cls-10" x1="226.39" y1="94.44" x2="226.39" y2="118.1"/><line class="cls-10" x1="221.69" y1="94.44" x2="221.69" y2="118.1"/><line class="cls-10" x1="217" y1="94.44" x2="217" y2="118.1"/><line class="cls-10" x1="207.54" y1="94.44" x2="207.54" y2="118.1"/><line class="cls-10" x1="202.84" y1="94.44" x2="202.84" y2="118.1"/><line class="cls-10" x1="198.15" y1="94.44" x2="198.15" y2="118.1"/><line class="cls-10" x1="193.45" y1="94.44" x2="193.45" y2="118.1"/><line class="cls-10" x1="183.99" y1="94.44" x2="183.99" y2="118.1"/><line class="cls-10" x1="179.3" y1="94.44" x2="179.3" y2="118.1"/><line class="cls-10" x1="174.6" y1="94.44" x2="174.6" y2="118.1"/><line class="cls-10" x1="169.84" y1="94.44" x2="169.84" y2="118.1"/><line class="cls-10" x1="160.45" y1="94.44" x2="160.45" y2="118.1"/><line class="cls-10" x1="155.69" y1="94.44" x2="155.69" y2="118.1"/><line class="cls-10" x1="150.99" y1="94.44" x2="150.99" y2="118.1"/><line class="cls-10" x1="146.3" y1="94.44" x2="146.3" y2="118.1"/><line class="cls-10" x1="136.84" y1="94.44" x2="136.84" y2="118.1"/><line class="cls-10" x1="132.14" y1="94.44" x2="132.14" y2="118.1"/><line class="cls-10" x1="127.45" y1="94.44" x2="127.45" y2="118.1"/><line class="cls-10" x1="122.75" y1="94.44" x2="122.75" y2="118.1"/><line class="cls-10" x1="113.29" y1="94.44" x2="113.29" y2="118.1"/><line class="cls-10" x1="108.6" y1="94.44" x2="108.6" y2="118.1"/><line class="cls-10" x1="103.9" y1="94.44" x2="103.9" y2="118.1"/><line class="cls-10" x1="99.14" y1="94.44" x2="99.14" y2="118.1"/><line class="cls-10" x1="89.75" y1="94.44" x2="89.75" y2="118.1"/><line class="cls-10" x1="84.98" y1="94.44" x2="84.98" y2="118.1"/><line class="cls-10" x1="80.29" y1="94.44" x2="80.29" y2="118.1"/><line class="cls-10" x1="75.59" y1="94.44" x2="75.59" y2="118.1"/><line class="cls-10" x1="66.14" y1="94.44" x2="66.14" y2="118.1"/><line class="cls-10" x1="61.44" y1="94.44" x2="61.44" y2="118.1"/><line class="cls-10" x1="56.75" y1="94.44" x2="56.75" y2="118.1"/><line class="cls-10" x1="52.05" y1="94.44" x2="52.05" y2="118.1"/><line class="cls-10" x1="42.59" y1="94.44" x2="42.59" y2="118.1"/><line class="cls-10" x1="37.9" y1="94.44" x2="37.9" y2="118.1"/><line class="cls-10" x1="33.2" y1="94.44" x2="33.2" y2="118.1"/><line class="cls-10" x1="28.44" y1="94.44" x2="28.44" y2="118.1"/><line class="cls-10" x1="23.74" y1="136.95" x2="306.55" y2="136.95"/><line class="cls-10" x1="23.74" y1="132.22" x2="306.55" y2="132.22"/><line class="cls-10" x1="23.74" y1="127.48" x2="306.55" y2="127.48"/><line class="cls-10" x1="23.74" y1="122.76" x2="306.55" y2="122.76"/><line class="cls-10" x1="301.85" y1="118.02" x2="301.85" y2="141.69"/><line class="cls-10" x1="297.09" y1="118.02" x2="297.09" y2="141.69"/><line class="cls-10" x1="292.39" y1="118.02" x2="292.39" y2="141.69"/><line class="cls-10" x1="287.7" y1="118.02" x2="287.7" y2="141.69"/><line class="cls-10" x1="278.24" y1="118.02" x2="278.24" y2="141.69"/><line class="cls-10" x1="273.54" y1="118.02" x2="273.54" y2="141.69"/><line class="cls-10" x1="268.85" y1="118.02" x2="268.85" y2="141.69"/><line class="cls-10" x1="264.15" y1="118.02" x2="264.15" y2="141.69"/><line class="cls-10" x1="254.69" y1="118.02" x2="254.69" y2="141.69"/><line class="cls-10" x1="250" y1="118.02" x2="250" y2="141.69"/><line class="cls-10" x1="245.3" y1="118.02" x2="245.3" y2="141.69"/><line class="cls-10" x1="240.54" y1="118.02" x2="240.54" y2="141.69"/><line class="cls-10" x1="231.15" y1="118.02" x2="231.15" y2="141.69"/><line class="cls-10" x1="226.39" y1="118.02" x2="226.39" y2="141.69"/><line class="cls-10" x1="221.69" y1="118.02" x2="221.69" y2="141.69"/><line class="cls-10" x1="217" y1="118.02" x2="217" y2="141.69"/><line class="cls-10" x1="207.54" y1="118.02" x2="207.54" y2="141.69"/><line class="cls-10" x1="202.84" y1="118.02" x2="202.84" y2="141.69"/><line class="cls-10" x1="198.15" y1="118.02" x2="198.15" y2="141.69"/><line class="cls-10" x1="193.45" y1="118.02" x2="193.45" y2="141.69"/><line class="cls-10" x1="183.99" y1="118.02" x2="183.99" y2="141.69"/><line class="cls-10" x1="179.3" y1="118.02" x2="179.3" y2="141.69"/><line class="cls-10" x1="174.6" y1="118.02" x2="174.6" y2="141.69"/><line class="cls-10" x1="169.84" y1="118.02" x2="169.84" y2="141.69"/><line class="cls-10" x1="160.45" y1="118.02" x2="160.45" y2="141.69"/><line class="cls-10" x1="155.69" y1="118.02" x2="155.69" y2="141.69"/><line class="cls-10" x1="150.99" y1="118.02" x2="150.99" y2="141.69"/><line class="cls-10" x1="146.3" y1="118.02" x2="146.3" y2="141.69"/><line class="cls-10" x1="136.84" y1="118.02" x2="136.84" y2="141.69"/><line class="cls-10" x1="132.14" y1="118.02" x2="132.14" y2="141.69"/><line class="cls-10" x1="127.45" y1="118.02" x2="127.45" y2="141.69"/><line class="cls-10" x1="122.75" y1="118.02" x2="122.75" y2="141.69"/><line class="cls-10" x1="113.29" y1="118.02" x2="113.29" y2="141.69"/><line class="cls-10" x1="108.6" y1="118.02" x2="108.6" y2="141.69"/><line class="cls-10" x1="103.9" y1="118.02" x2="103.9" y2="141.69"/><line class="cls-10" x1="99.14" y1="118.02" x2="99.14" y2="141.69"/><line class="cls-10" x1="89.75" y1="118.02" x2="89.75" y2="141.69"/><line class="cls-10" x1="84.98" y1="118.02" x2="84.98" y2="141.69"/><line class="cls-10" x1="80.29" y1="118.02" x2="80.29" y2="141.69"/><line class="cls-10" x1="75.59" y1="118.02" x2="75.59" y2="141.69"/><line class="cls-10" x1="66.14" y1="118.02" x2="66.14" y2="141.69"/><line class="cls-10" x1="61.44" y1="118.02" x2="61.44" y2="141.69"/><line class="cls-10" x1="56.75" y1="118.02" x2="56.75" y2="141.69"/><line class="cls-10" x1="52.05" y1="118.02" x2="52.05" y2="141.69"/><line class="cls-10" x1="42.59" y1="118.02" x2="42.59" y2="141.69"/><line class="cls-10" x1="37.9" y1="118.02" x2="37.9" y2="141.69"/><line class="cls-10" x1="33.2" y1="118.02" x2="33.2" y2="141.69"/><line class="cls-10" x1="28.44" y1="118.02" x2="28.44" y2="141.69"/><text class="cls-11" transform="translate(156.13 197.7)">12<tspan class="cls-12" x="7.13" y="0">A</tspan></text><text class="cls-11" transform="translate(21.5 183.6)">0</text><text class="cls-11" transform="translate(139.76 183.6)">5</text><text class="cls-11" transform="translate(255.42 183.6)">10</text><text class="cls-11" transform="translate(338.97 79.88) rotate(90) scale(0.79 1)">3<tspan class="cls-13" x="3.57" y="0">A</tspan></text></g></g></svg>