<svg id="图层_1" data-name="图层 1" xmlns="http://www.w3.org/2000/svg" viewBox="0 0 527.11 106.2"><defs><style>.cls-1{fill:#0f3567;}.cls-2{fill:#fff;}.cls-3{fill:#10386c;}.cls-4{fill:#5a5858;}</style></defs><title>hrg_zd</title><polygon class="cls-1" points="186.08 39.86 155.72 39.75 152.18 46.6 170.4 46.67 176.87 59.87 136.42 59.73 156.73 19.2 161.94 29.7 181.06 29.76 166.49 0.46 145.49 0.39 113.27 64.36 99.69 37.06 121.69 37.14 140.16 0.37 74.82 0.14 59.68 30.02 39.04 29.95 54.14 0.07 33.63 0 0 66.37 20.59 66.44 35.56 36.84 56.23 36.91 41.23 66.52 61.81 66.59 91.88 7.11 117.44 7.2 105.35 30.18 85.47 30.11 80.99 39 94.6 66.7 199.45 67.06 186.08 39.86"/><path class="cls-2" d="M34.87,75l4-3a5,5,0,1,1-4-2Z" transform="translate(-19.91 -17.77)"/><circle class="cls-2" cx="37.86" cy="69.01" r="0.71" transform="translate(-60.55 45.48) rotate(-57.06)"/><circle class="cls-2" cx="43.83" cy="57.05" r="0.71" transform="translate(-47.79 45.06) rotate(-57.07)"/><circle class="cls-2" cx="40.84" cy="63.03" r="0.71" transform="translate(-54.17 45.27) rotate(-57.07)"/><circle class="cls-2" cx="88.28" cy="51.22" r="0.71" transform="translate(-22.59 79.74) rotate(-57.1)"/><circle class="cls-2" cx="103.32" cy="21.31" r="0.71" transform="translate(9.38 78.7) rotate(-57.09)"/><circle class="cls-2" cx="112.36" cy="21.34" r="0.71" transform="translate(13.51 86.34) rotate(-57.11)"/><circle class="cls-2" cx="121.39" cy="21.38" r="0.71" transform="translate(17.62 93.94) rotate(-57.11)"/><circle class="cls-2" cx="130.43" cy="21.41" r="0.71" transform="translate(21.72 101.54) rotate(-57.11)"/><circle class="cls-2" cx="139.46" cy="21.44" r="0.71" transform="translate(25.82 109.14) rotate(-57.11)"/><circle class="cls-2" cx="100.31" cy="27.29" r="0.71" transform="translate(2.99 78.91) rotate(-57.09)"/><circle class="cls-2" cx="97.3" cy="33.28" r="0.71" transform="translate(-3.41 79.12) rotate(-57.09)"/><circle class="cls-2" cx="94.3" cy="39.26" r="0.71" transform="translate(-9.81 79.32) rotate(-57.09)"/><circle class="cls-2" cx="91.29" cy="45.24" r="0.71" transform="translate(-16.22 79.49) rotate(-57.07)"/><circle class="cls-2" cx="148.5" cy="21.47" r="0.71" transform="translate(29.76 116.59) rotate(-57.03)"/><circle class="cls-2" cx="142.52" cy="33.42" r="0.71" transform="matrix(0.54, -0.84, 0.84, 0.54, 16.99, 117)"/><circle class="cls-2" cx="139.53" cy="39.39" r="0.71" transform="translate(10.64 117.24) rotate(-57.03)"/><circle class="cls-2" cx="145.51" cy="27.44" r="0.71" transform="translate(23.41 116.84) rotate(-57.04)"/><circle class="cls-2" cx="136.54" cy="45.37" r="0.71" transform="translate(4.26 117.46) rotate(-57.03)"/><circle class="cls-2" cx="133.55" cy="51.34" r="0.71" transform="translate(-2.1 117.7) rotate(-57.04)"/><circle class="cls-2" cx="124.06" cy="51.31" r="0.71" transform="translate(-6.4 109.72) rotate(-57.04)"/><circle class="cls-2" cx="114.56" cy="51.28" r="0.71" transform="translate(-10.7 101.74) rotate(-57.04)"/><circle class="cls-2" cx="111.52" cy="57.5" r="0.71" transform="translate(-17.3 102.02) rotate(-57.04)"/><circle class="cls-2" cx="114.7" cy="63.79" r="0.71" transform="translate(-21.13 107.56) rotate(-57.04)"/><circle class="cls-2" cx="117.88" cy="70.08" r="0.71" transform="translate(-24.96 113.1) rotate(-57.04)"/><circle class="cls-2" cx="121.06" cy="76.38" r="0.71" transform="translate(-28.75 118.75) rotate(-57.09)"/><circle class="cls-2" cx="124.24" cy="82.67" r="0.71" transform="translate(-32.64 124.14) rotate(-57.03)"/><circle class="cls-2" cx="130.71" cy="82.7" r="0.71" transform="translate(-27.54 134.11) rotate(-58.89)"/><circle class="cls-2" cx="137.18" cy="82.72" r="0.71" transform="matrix(0.52, -0.86, 0.86, 0.52, -24.43, 139.67)"/><circle class="cls-2" cx="143.65" cy="82.74" r="0.71" transform="matrix(0.52, -0.86, 0.86, 0.52, -21.45, 144.99)"/><circle class="cls-2" cx="173.66" cy="21.56" r="0.71" transform="translate(44.11 140.17) rotate(-58.28)"/><circle class="cls-2" cx="170.66" cy="27.68" r="0.71" transform="translate(37.48 140.52) rotate(-58.28)"/><circle class="cls-2" cx="167.66" cy="33.79" r="0.71" transform="translate(30.85 140.87) rotate(-58.28)"/><circle class="cls-2" cx="161.65" cy="46.03" r="0.71" transform="matrix(0.53, -0.85, 0.85, 0.53, 17.6, 141.57)"/><circle class="cls-2" cx="158.65" cy="52.15" r="0.71" transform="matrix(0.53, -0.85, 0.85, 0.53, 11, 141.95)"/><circle class="cls-2" cx="155.65" cy="58.27" r="0.71" transform="translate(4.4 142.34) rotate(-58.31)"/><circle class="cls-2" cx="149.65" cy="70.5" r="0.71" transform="translate(-8.87 143.04) rotate(-58.31)"/><circle class="cls-2" cx="146.65" cy="76.62" r="0.71" transform="translate(-15.5 143.38) rotate(-58.31)"/><circle class="cls-2" cx="152.65" cy="64.39" r="0.71" transform="translate(-2.28 142.62) rotate(-58.28)"/><circle class="cls-2" cx="164.66" cy="39.91" r="0.71" transform="matrix(0.53, -0.85, 0.85, 0.53, 24.23, 141.23)"/><circle class="cls-2" cx="179.41" cy="21.58" r="0.71" transform="translate(48.15 146.13) rotate(-58.82)"/><circle class="cls-2" cx="182.18" cy="27.72" r="0.71" transform="translate(49.26 155.5) rotate(-60.82)"/><circle class="cls-2" cx="187.13" cy="38.87" r="4.99" transform="translate(127.7 208.1) rotate(-89.8)"/><polygon class="cls-2" points="162.61 17.56 163.38 12.47 167.7 15.15 164.48 14.94 162.61 17.56"/><circle class="cls-2" cx="46.82" cy="51.08" r="0.71" transform="translate(-41.41 44.83) rotate(-57.07)"/><circle class="cls-2" cx="55.11" cy="51.1" r="0.71" transform="translate(-37.66 51.78) rotate(-57.04)"/><circle class="cls-2" cx="71.69" cy="51.16" r="0.71" transform="translate(-30.13 65.75) rotate(-57.07)"/><circle class="cls-2" cx="79.99" cy="51.19" r="0.71" transform="translate(-26.39 72.69) rotate(-57.04)"/><circle class="cls-2" cx="63.4" cy="51.13" r="0.71" transform="translate(-33.89 58.78) rotate(-57.07)"/><path class="cls-3" d="M239.36,22.67l9.26,0-.09,24.84H246V45.08H241.8v3h-2.51Zm6.67,20,.06-17.57h-4.23l-.06,17.57Zm16.75-24-.6.94q4.1,7.63,10.16,10.69c-.68.81-1.32,1.62-1.93,2.44a30.86,30.86,0,0,1-9.71-10.79,33.23,33.23,0,0,1-9.92,10.9A26.47,26.47,0,0,0,249,30.63a28.57,28.57,0,0,0,10.52-12ZM252.12,38.5l16.52.06L268.6,53h-2.65V50.91l-11.22,0V53h-2.65Zm1.38-7,14.11,0V34l-14.11,0Zm12.45,17L266,41l-11.22,0,0,7.47Z" transform="translate(-19.91 -17.77)"/><path class="cls-3" d="M277.33,47.63l15.29.05.08-23.3-13.3,0V21.55l29.76.1v2.79l-13.38,0-.08,23.3,15.33.05v2.72l-33.7-.12Z" transform="translate(-19.91 -17.77)"/><path class="cls-3" d="M316.14,50.21Q330.57,43.85,331.75,31L316.83,31V28.24l15,.05q.1-4.7.12-9.47h3q0,4.7-.12,9.47l15.49.05v2.73L334.86,31q2.43,14,16.21,18.46a29.33,29.33,0,0,0-2.66,2.82A24.22,24.22,0,0,1,333.6,36q-2.76,10.58-15.31,16.94C317.83,52.28,317.12,51.38,316.14,50.21Z" transform="translate(-19.91 -17.77)"/><path class="cls-3" d="M355.48,40.6A39.38,39.38,0,0,0,361.1,28l-5.23,0V25.66l5.45,0,0-6.88h2.52l0,6.88,4.89,0v2.37l-4.89,0,0,5.8,1.4-1.38q2.68,2.45,4.21,4l-1.9,1.92c-1.42-1.59-2.67-2.91-3.72-4l-.06,18.44h-2.52l.06-18.72a31.34,31.34,0,0,1-4.68,9.55Q356.07,42.11,355.48,40.6Zm18.47-16.87,0,11.56q0,12.51-6.31,18.11c-.65-.79-1.33-1.59-2.05-2.38q5.54-4.84,5.57-15.11l.05-14.85,13,0-.09,26.27q0,1.75,1.22,1.75h.8c.74,0,1.22-.65,1.44-2,.24-1.79.41-3.73.51-5.8a27.34,27.34,0,0,0,2.64,1.13q-.32,3.46-.65,5.66-.57,3.7-3.57,3.69h-1.85c-2.23,0-3.35-1.34-3.34-4l.08-24.1Z" transform="translate(-19.91 -17.77)"/><path class="cls-3" d="M396.07,33.55l14.11,0a10.48,10.48,0,0,0,.71-3l2.51.36a15.8,15.8,0,0,1-.62,2.69l7.62,0q-1.39-1-2.94-2l1.44-1.57c1.53.91,2.92,1.83,4.14,2.74l-.78.84,6.51,0V36l-13.48,0q4,4,14.31,3.79-.84,1.43-1.44,2.68c-.62,0-1.21-.1-1.78-.16l0,10.67h-2.45V51l-7.47,0v1.89H414L414,42l11.12,0q-10-1.38-12.74-6.16h-.63q-2,4.15-12.7,6.07l11.18,0,0,10.8h-2.45V50.92l-7.37,0v1.92h-2.44l0-10.62-1.92.34q-.52-1.05-1.35-2.49,11.67-1.46,14-4.14l-12.65,0ZM398,20.84l12.26,0,0,10.17h-2.45V30l-7.37,0v1.43H398Zm9.81,2.2-7.37,0,0,4.75,7.37,0Zm0,21.14-7.37,0,0,4.58,7.37,0ZM414,20.89l12.37,0,0,10.31h-2.45V30l-7.48,0v1.08H414Zm9.91,2.2-7.48,0,0,4.75,7.48,0Zm0,21.14-7.47,0,0,4.58,7.47,0Z" transform="translate(-19.91 -17.77)"/><path class="cls-3" d="M434.24,50.42q15.26-8.75,16.21-30.82h3.07a64.77,64.77,0,0,1-.76,7.12Q457,44.2,469,49.77q-1.47,1.6-2.6,3Q456,46.89,451.64,32q-3.87,14.37-15.22,21.1A28.78,28.78,0,0,0,434.24,50.42Z" transform="translate(-19.91 -17.77)"/><path class="cls-3" d="M474.66,42.49l15.05.05V40.16h2.44v2.37l15,.05v2.23l-12.3,0a35.61,35.61,0,0,0,13.57,5.88q-.95,1.46-1.65,2.57a38.15,38.15,0,0,1-14.64-7.86l0,8.19h-2.44l0-8.23A42.39,42.39,0,0,1,475,53.21q-.73-1.09-1.63-2.21a36.92,36.92,0,0,0,13.51-6.24l-12.22,0Zm15.55-22.27L492.28,19A23,23,0,0,1,495,22.54l-1.61,1,13.38,0v2.17l-13.24,0v2.48l11.7,0v2l-11.7,0V32.7l11.7,0v2l-11.7,0v2.55l13.34,0v2.16l-25.46-.09v1.33h-2.45l0-12.44A40.24,40.24,0,0,1,475.22,32a14.37,14.37,0,0,0-1.67-2.31,37.25,37.25,0,0,0,8.59-10.38l2.4,1.09c-.65,1.07-1.32,2.09-2,3.07l9.88,0A37.56,37.56,0,0,0,490.21,20.22Zm-8.86,7.94,9.68,0V25.7l-9.68,0Zm0,4.5,9.68,0V30.21l-9.68,0Zm0,4.58,9.68,0V34.72l-9.68,0Z" transform="translate(-19.91 -17.77)"/><path class="cls-3" d="M515.09,21.07l30.56.11-.11,32.59h-2.65V52L517.64,52v1.75H515ZM543,23.61l-25.25-.09-.09,26,25.25.09Zm-23.56,6.1,13.07,0,0-5h2.58l0,5,6.71,0v2.37l-6.71,0,0,10.65q0,5.07-4.84,5.05-2,0-4.06-.08c-.13-.81-.31-1.74-.55-2.76a34.84,34.84,0,0,0,4,.29c1.91,0,2.87-1.07,2.88-3.24l0-8.17A38.45,38.45,0,0,1,519.9,45.51a12.56,12.56,0,0,0-1.78-2.35,36.13,36.13,0,0,0,12.68-11l-11.39,0Z" transform="translate(-19.91 -17.77)"/><path class="cls-3" d="M251.11,68.18h1.82l-.06,16.51H251l0-7.68-9.25,0,0,7.68h-1.89L240,68.14h1.89l0,7.18,9.25,0Z" transform="translate(-19.91 -17.77)"/><path class="cls-3" d="M263.65,68.22h1.82l-.06,16.51H263.6Z" transform="translate(-19.91 -17.77)"/><path class="cls-3" d="M288,68.3v1.57l-5.61,0-.05,14.95h-1.9l.05-14.95-5.62,0V68.26Z" transform="translate(-19.91 -17.77)"/><path class="cls-3" d="M324.11,84.94h-2.56l-5.67-7.45-4.38,0,0,7.43h-1.9l.06-16.51,7.68,0q5.28.26,5.6,4.48,0,4.29-5,4.61ZM311.52,70l0,5.78,5.37,0c2.69,0,4.05-1.06,4.06-3q-.08-2.64-4-2.74Z" transform="translate(-19.91 -17.77)"/><path class="cls-3" d="M340.12,85.25q-7.52-.45-7.82-8.2.36-8.42,8.12-8.8,7.35.51,7.82,8.7Q347.87,84.95,340.12,85.25Zm.13-15.36q-5.45.47-6,7,.31,6.36,5.84,6.88,5.78-.31,6.13-6.83Q345.7,70.41,340.25,69.89Z" transform="translate(-19.91 -17.77)"/><path class="cls-3" d="M364.47,85.08l-6.85,0,.06-16.51,6.44,0q5,.26,5.27,4.15a3.69,3.69,0,0,1-3.31,3.62v.08A4.2,4.2,0,0,1,370,80.65Q369.76,84.94,364.47,85.08Zm-.77-14.87H359.4l0,5.53h4.29q3.39-.15,3.73-3Q367.24,70.31,363.69,70.22Zm.22,7.19-4.54,0,0,6.19,4.87,0q3.88,0,3.89-3.21Q367.88,77.58,363.92,77.4Z" transform="translate(-19.91 -17.77)"/><path class="cls-3" d="M387,85.41q-7.52-.45-7.82-8.2.35-8.42,8.12-8.8,7.34.51,7.81,8.7Q394.76,85.11,387,85.41Zm.13-15.36q-5.45.47-6,7,.31,6.36,5.84,6.88,5.78-.31,6.13-6.83Q392.58,70.57,387.14,70.05Z" transform="translate(-19.91 -17.77)"/><path class="cls-3" d="M416.53,68.75v1.57l-5.61,0-.05,14.95H409L409,70.29l-5.62,0V68.7Z" transform="translate(-19.91 -17.77)"/><path class="cls-3" d="M445.72,76.86l7.1,0,0,6q-2.07,2.72-7.11,2.7-7.76-.45-8.15-8.29.36-8.42,7.88-8.72,5.53.1,7.33,4.89l-2.07.49a5.32,5.32,0,0,0-5.35-3.73q-5.28.47-5.8,7,.39,6.36,6.09,6.88,3.71,0,5.37-2V78.45l-5.28,0Z" transform="translate(-19.91 -17.77)"/><path class="cls-3" d="M477.22,85.47h-2.56L469,78l-4.38,0,0,7.43h-1.9l.06-16.51,7.68,0q5.28.26,5.6,4.48,0,4.29-5,4.61ZM464.64,70.57l0,5.78,5.37,0q4-.07,4.05-3-.08-2.64-4-2.74Z" transform="translate(-19.91 -17.77)"/><path class="cls-3" d="M493.24,85.78q-7.52-.45-7.82-8.2.36-8.42,8.12-8.8,7.35.51,7.82,8.7Q501,85.48,493.24,85.78Zm.13-15.36q-5.45.47-6,7,.31,6.36,5.84,6.88,5.78-.31,6.14-6.83Q498.82,70.94,493.37,70.42Z" transform="translate(-19.91 -17.77)"/><path class="cls-3" d="M523.92,69.12l0,9.66q.06,7.18-6.63,7.08-6.52.06-6.42-7.13l0-9.66h1.9l0,9.58q-.1,5.86,4.52,5.71,5,.18,4.81-5.68l0-9.58Z" transform="translate(-19.91 -17.77)"/><path class="cls-3" d="M541.31,79l-5.12,0,0,6.69h-1.82l.06-16.51,7.1,0q5,.26,5.51,4.89Q546.92,78.95,541.31,79Zm-.3-8.18-4.79,0,0,6.52,4.79,0c2.63,0,4-1.17,4.05-3.37Q544.89,70.93,541,70.83Z" transform="translate(-19.91 -17.77)"/><rect class="cls-3" x="392.07" y="-93.97" width="0.69" height="309.13" transform="translate(310.55 435.03) rotate(-89.8)"/><path class="cls-4" d="M21,103.53l9.39,0,0-5.31h2.1l0,5.31,9.48,0,0,11.12h-2V113.4l-7.48,0,0,9.07h-2.1l0-9.07-7.39,0v1.32H21Zm2,8,7.39,0,0-6.19-7.39,0Zm17-6.13-7.48,0,0,6.19,7.48,0Z" transform="translate(-19.91 -17.77)"/><path class="cls-4" d="M69.72,113.45l17,.06v-1.78h2v1.78l5.27,0v1.73l-5.27,0v4q0,2.9-3.18,2.89l-3.9,0q-.12-.9-.36-2.1,2.24.18,3.7.18,1.75,0,1.76-1.51v-3.41l-17-.06Zm6.47-4.17,12.77,0q2,0,2.27-1.23a21.49,21.49,0,0,0,.55-2.71q.8.37,1.92.76-.37,1.66-.69,2.7Q92.37,111,89.42,111l-13.63,0q-3.24,0-3.23-3.16l0-8.19,17.5.06,0,7.41H88.19v-.83l-13.75,0v1.41Q74.44,109.27,76.19,109.28Zm-1.9,7.26,1.2-1.26q2.7,2.13,4,3.35l-1.42,1.43Q75.87,117.91,74.29,116.54Zm.17-15.21v3.22l13.75,0v-3.22Z" transform="translate(-19.91 -17.77)"/><path class="cls-4" d="M120.09,113.9a27.37,27.37,0,0,0,3.92-8.76h-3.64v-1.66h3.8l0-4.8h1.76l0,4.8h3.41v1.66h-3.41v4l1-1q1.87,1.71,2.94,2.79l-1.32,1.34q-1.49-1.66-2.6-2.76l0,12.87h-1.76l0-13.07a21.86,21.86,0,0,1-3.27,6.67Q120.5,114.94,120.09,113.9ZM133,102.12l0,8.07q0,8.73-4.41,12.64-.68-.83-1.43-1.66,3.86-3.38,3.89-10.54l0-10.36,9.07,0L140,118.62q0,1.22.85,1.22h.56q.78,0,1-1.36.25-1.88.36-4a19.54,19.54,0,0,0,1.85.79q-.23,2.41-.45,3.95-.4,2.58-2.5,2.58h-1.29q-2.34,0-2.33-2.79l.06-16.82Z" transform="translate(-19.91 -17.77)"/><path class="cls-4" d="M171.39,109.05l9.85,0a7.26,7.26,0,0,0,.49-2.12l1.75.25a11.14,11.14,0,0,1-.43,1.88l5.31,0q-1-.71-2.05-1.4l1-1.09a34.63,34.63,0,0,1,2.89,1.91l-.55.58,4.55,0v1.61l-9.41,0q2.81,2.76,10,2.64-.59,1-1,1.87l-1.24-.11,0,7.45h-1.71v-1.34l-5.22,0v1.32h-1.71l0-7.53,7.76,0q-7-1-8.9-4.3h-.44q-1.38,2.9-8.86,4.23l7.8,0,0,7.53h-1.71v-1.32l-5.14,0v1.34h-1.71l0-7.41-1.34.24q-.36-.73-.94-1.73,8.15-1,9.79-2.89l-8.83,0Zm1.35-8.87,8.56,0,0,7.09h-1.71v-.76l-5.14,0v1h-1.71Zm6.85,1.54-5.14,0V105l5.14,0Zm0,14.75-5.14,0v3.19l5.14,0Zm4.37-16.24,8.63,0,0,7.19h-1.71v-.85l-5.22,0v.76H183.9Zm6.92,1.54-5.22,0v3.31l5.22,0Zm0,14.75-5.22,0v3.19l5.22,0Z" transform="translate(-19.91 -17.77)"/><path class="cls-4" d="M221,120.9q10.65-6.11,11.31-21.51h2.14a46.56,46.56,0,0,1-.53,5q3,12.2,11.3,16.08-1,1.12-1.81,2.11-7.23-4.12-10.27-14.53-2.7,10-10.62,14.72A21.24,21.24,0,0,0,221,120.9Z" transform="translate(-19.91 -17.77)"/><path class="cls-4" d="M271.33,116.49a27.24,27.24,0,0,0,4.22-8.3H271.7v-1.73h4v-3.58l-3.54.33a12.38,12.38,0,0,0-.48-1.81q4.73-.32,9.39-1l.63,1.81q-2.2.28-4.17.5v3.8h3.88v1.73h-3.88V111l1.08-1q1.75,1.52,3.23,3l-1.37,1.39q-1.56-1.76-2.94-3.06l0,11.94h-1.83l0-11a25.76,25.76,0,0,1-3.44,6.35C272,117.9,271.67,117.21,271.33,116.49Zm8.8-1.26,9.56-.82.05-15.07h1.88l-.05,14.89,3.85-.35.14,1.76-4,.35,0,7.26h-1.88l0-7.09-9.36.82Zm1.48-6.26,1.17-1.24q2.77,2.18,4.18,3.48l-1.27,1.48Q284.56,111.49,281.62,109Zm1.46-5.85,1.13-1.21q2.7,2.08,4.38,3.65L287.31,107A53.46,53.46,0,0,0,283.08,103.12Z" transform="translate(-19.91 -17.77)"/><path class="cls-4" d="M321.77,112.23l3.56-1,0-5.25h-3.24v-1.68h3.24l0-4.73h1.88l0,4.73h2.85V106h-2.85l0,4.67,2.73-.88c0,.78,0,1.41,0,1.9l-2.78.88,0,7.86q0,2.58-2.45,2.6-1,0-2.34,0-.14-1-.31-2.07,1.44.15,2.17.15,1,0,1.05-1.09l0-6.83L322,114.25Zm9.05-1.77v-1.61l6.26,0v-3.73l-6.36,0v-1.78l6.36,0V99.44h2v3.92l6.63,0v1.78l-6.63,0v3.73l5.19,0v1.46a19.75,19.75,0,0,1-4.91,7.88,19.19,19.19,0,0,0,6.78,3.31q-.93,1.07-1.57,1.87a25.1,25.1,0,0,1-6.7-3.94,31.75,31.75,0,0,1-7.51,4.08,20.63,20.63,0,0,0-1.28-1.73,26.46,26.46,0,0,0,7.45-3.63,18.77,18.77,0,0,1-4-7.74Zm11.29,0-7.79,0A15.18,15.18,0,0,0,338,117,15.62,15.62,0,0,0,342.11,110.5Z" transform="translate(-19.91 -17.77)"/><path class="cls-4" d="M379.11,123.45h-1.93l0-12.62a41.82,41.82,0,0,1-3.91,3.95q-.51-.85-1.16-1.78a30.91,30.91,0,0,0,7.38-8.7l-6.67,0v-1.8l7.58,0a26.54,26.54,0,0,0,1.2-3.12l2,.47q-.49,1.35-1.08,2.65l13.77,0v1.8l-14.65-.05a32.47,32.47,0,0,1-1.67,2.8l13.36,0,0,13q0,3-3,3-1.29,0-3.93,0-.12-.83-.36-2,2.24.18,3.61.18a1.48,1.48,0,0,0,1.69-1.65V118l-12.29,0Zm12.34-14.61-12.29,0v2.9l12.29,0Zm-12.31,7.44,12.29,0V113.4l-12.29,0Z" transform="translate(-19.91 -17.77)"/><path class="cls-4" d="M431.2,114.19q.69,4.66-2.33,5.21a7.66,7.66,0,0,1-2.46,0,17.33,17.33,0,0,0-.53-2,6.25,6.25,0,0,0,2.24.2q1.66-.31,1.13-3.48a10.52,10.52,0,0,0-2.2-4.39q.89-2.65,2.32-7.09h-3.61l-.07,21.28h-1.83l.08-23,7.39,0v1.71q-1.21,3.43-2.31,6.77A10.71,10.71,0,0,1,431.2,114.19ZM432.8,101l11.55,0,0,12.14h-1.8v-.66h-4.12a14.3,14.3,0,0,0,2.06,4A43.22,43.22,0,0,0,445.1,113l1.29,1.54q-2.69,1.87-4.79,3.2a15.53,15.53,0,0,0,5.33,3.45,14,14,0,0,0-1.56,1.78,16.6,16.6,0,0,1-8.69-10.51h-2.1l0,8.29q1.63-.72,4.27-2.13a19.26,19.26,0,0,0,.12,1.93q-2.17,1-4.23,2.25a7.7,7.7,0,0,0-1.32,1L432,122a2,2,0,0,0,.74-1.61Zm9.75,1.69-7.95,0v3.24l7.95,0Zm0,8.17v-3.29l-7.95,0v3.29Z" transform="translate(-19.91 -17.77)"/><path class="cls-4" d="M473.05,111.36a28.25,28.25,0,0,0,8.15-10.43l1.92.81a33.1,33.1,0,0,1-8.52,11.19A10,10,0,0,0,473.05,111.36Zm15.86,3.08q3.49,4.57,5.9,8.31L492.95,124q-.68-1.12-1.44-2.33-8,.36-13.08.75a17.75,17.75,0,0,0-2.24.41l-1.07-2.08a6.2,6.2,0,0,0,2-1.33,51.34,51.34,0,0,0,6.23-9.7l2.09,1a94.26,94.26,0,0,1-6.49,9.68q5-.14,11.4-.41-1.38-2.11-3-4.46Zm-2.05-13.12,1.81-.7a19.26,19.26,0,0,0,8.77,10.12,16,16,0,0,0-1.52,1.9A23.07,23.07,0,0,1,486.86,101.32Z" transform="translate(-19.91 -17.77)"/><path class="cls-4" d="M523.91,106.08l18.58.06v1.8l-18.58-.06Zm1.4-3v-1.8l21.06.07-.07,19q0,3.46-3.13,3.45l-4.8,0a12.81,12.81,0,0,0-.41-2.1q3,.18,4.66.19t1.69-1.95l.06-16.72Zm1,7.66,12.8,0,0,8.63-10.87,0v1.78h-1.93Zm10.85,6.91,0-5.12-8.95,0,0,5.12Z" transform="translate(-19.91 -17.77)"/></svg>